<svg version="1.1" xmlns="http://www.w3.org/2000/svg" xmlns:xlink="http://www.w3.org/1999/xlink" x="0px" y="0px" viewBox="0 0 369 69.6" style="enable-background:new 0 0 369 69.6;" xml:space="preserve" width="369" height="70">
<style type="text/css">
	.st0{fill:#FFF;}
</style>
<polygon points="369,15.5 31.5,15.5 0,69.6 337.5,69.6 "/>
<path class="st0" d="M29.5,28.9C33,14.6,44.5,6.4,55.5,6.4c4.6-0.1,8.9,2,11.7,5.6l-7,6.6c-1.6-2.1-4.1-3.4-6.7-3.4
	c-5.5,0-11.3,5-13.4,13.3c-2.1,8.5,0.6,13.5,6.7,13.5c3.5,0,6.6-1.7,9.2-3.9l3.9,6.4c-4.2,4-9.8,6.3-15.6,6.4
	C33.3,51,25.9,43.4,29.5,28.9z"/>
<path d="M55.5,6.4c4.6-0.1,8.9,2,11.7,5.6l-7,6.6c-1.6-2.1-4.1-3.4-6.7-3.4c-5.5,0-11.3,5-13.4,13.3c-2.1,8.5,0.6,13.5,6.7,13.5
	c3.5,0,6.6-1.7,9.2-3.9l3.9,6.4c-4.2,4-9.8,6.3-15.6,6.4c-10.9,0-18.3-7.6-14.8-22.1C33,14.6,44.5,6.4,55.5,6.4 M55.5,2.4
	c-13.9,0-26.2,10.5-29.9,25.6c-2.5,10.4,0.2,16.7,2.9,20.1c3.5,4.4,9.1,6.9,15.8,6.9c6.8-0.1,13.3-2.7,18.3-7.4
	c1.4-1.3,1.7-3.4,0.8-5l-3.8-6.5c-0.6-1-1.6-1.7-2.8-1.9c-0.2,0-0.4,0-0.7,0c-1,0-1.9,0.4-2.6,1c-2.3,2-4.5,3-6.6,3
	c-1.8,0-2.4-0.7-2.5-0.9c-1-1.3-1.1-4.1-0.2-7.6c1.7-6.8,6-10.3,9.5-10.3c1.5,0,2.4,0.5,3.7,2c0.8,0.8,1.8,1.2,2.8,1.2h0.2
	c1,0,2-0.4,2.7-1.1l7-6.6c1.5-1.4,1.7-3.7,0.5-5.3C66.9,4.9,61.4,2.2,55.5,2.4L55.5,2.4z"/>
<path class="st0" d="M64.7,33.7C67.3,22.8,76.6,16.5,85,16.5s14.5,6.4,11.8,17.2S84.9,51,76.6,51S62,44.6,64.7,33.7z M86.3,33.7
	c1.3-5.4,0.4-8.9-3.4-8.9s-6.4,3.5-7.8,8.9s-0.5,9,3.4,9S85,39.2,86.3,33.7z"/>
<path d="M85,16.5c8.3,0,14.5,6.4,11.8,17.2S84.9,51,76.6,51S62,44.6,64.7,33.7S76.6,16.5,85,16.5 M78.6,42.6c3.8,0,6.4-3.5,7.7-9
	s0.4-8.9-3.4-8.9s-6.4,3.5-7.8,8.9S74.7,42.6,78.6,42.6 M85,12.5c-9.6,0-21,7-24.2,20.3c-1.6,6.4-0.6,12.1,2.6,16.3
	c3.2,3.9,8.1,6.2,13.2,6c9.5,0,20.9-7,24.2-20.3c1.5-6.3,0.6-12.1-2.6-16.2C94.9,14.6,90,12.4,85,12.5L85,12.5z M78.6,38.6
	c-0.1-1.3,0-2.7,0.4-4c0.3-1.3,1.6-5.7,3.8-5.8c0.1,1.3,0,2.7-0.4,3.9C82.1,34.1,80.8,38.6,78.6,38.6z"/>
<path class="st0" d="M105.9,17.3h8.4l-0.2,4.2h0.2c3.4-2.7,6.8-5,11.2-5s6.9,1.9,7.7,5.4c3.5-2.9,7.2-5.4,11.6-5.4
	c7.2,0,9,5.1,7,13.3l-5,20.3h-10.3l4.7-19.1c1.1-4.6,0.3-5.8-2.3-5.8c-1.5,0-3.5,0.9-6,3l-5.4,21.9h-10.2l4.7-19.1
	c1.1-4.6,0.2-5.8-2.4-5.8c-1.5,0-3.5,0.9-5.9,3l-5.4,22H97.8L105.9,17.3z"/>
<path d="M144.6,16.5c7.2,0,9,5.1,7,13.3l-5,20.3h-10.2l4.7-19.1c1.1-4.6,0.3-5.8-2.3-5.8c-1.5,0-3.5,0.9-6,3l-5.4,21.9h-10.2
	l4.7-19.1c1.1-4.6,0.2-5.8-2.4-5.8c-1.5,0-3.5,0.9-5.9,3l-5.4,21.9H97.8l8-32.9h8.4l-0.2,4.2h0.2c3.4-2.7,6.8-5,11.2-5
	s6.9,1.9,7.7,5.4C136.6,19,140.3,16.4,144.6,16.5 M144.7,12.4c-3.7,0.1-7.3,1.3-10.3,3.4c-1.7-1.9-4.5-3.4-9-3.4
	c-2.9,0-5.7,0.7-8.2,2.1l0,0c-0.8-0.8-1.8-1.3-2.9-1.3h-8.4c-1.8,0-3.4,1.2-3.9,3l-8,32.9c-0.6,2.1,0.7,4.3,2.9,4.9
	c0.3,0.1,0.7,0.1,1,0.1h10.2c1.8,0,3.4-1.2,3.9-3l5-20.6c0.3-0.2,0.7-0.4,0.9-0.6l-0.1,0.3l-4.7,19.1c-0.6,2.1,0.7,4.3,2.9,4.9
	c0.3,0.1,0.7,0.1,1,0.1h10.3c1.8,0,3.4-1.2,3.9-3l5-20.6c0.4-0.2,0.6-0.4,0.9-0.6c0,0.1,0,0.1-0.1,0.2l-4.7,19.1
	c-0.6,2.1,0.7,4.3,2.9,4.9c0.3,0.1,0.7,0.1,1,0.1h10.3c1.8,0,3.4-1.2,3.9-3l5-20.3c1.5-6.3,1-11.1-1.5-14.3c-1.4-1.8-4.2-4-9.4-4
	L144.7,12.4z"/>
<path class="st0" d="M161.3,17.3h8.4v3.2h0.2c3.2-2.3,6.8-4,10.2-4c7.9,0,11.2,6.6,8.7,16.7C186,44.5,177.6,51,170.6,51
	c-2.7,0-5.2-1.2-6.8-3.4l-0.9,5.1l-2.3,9.4h-10.3L161.3,17.3z M178.1,33.3c1.4-5.8,0.4-8.5-3.2-8.5c-1.9,0-3.7,0.9-5.9,2.8l-3.2,13
	c1.1,1.3,2.7,2,4.4,1.9C173.4,42.5,176.5,39.9,178.1,33.3z"/>
<path d="M180,16.5c7.9,0,11.2,6.6,8.7,16.7C186,44.5,177.6,51,170.6,51c-2.7,0-5.2-1.2-6.8-3.4l-0.9,5.1l-2.3,9.4h-10.3l11-44.8h8.4
	v3.2h0.2C173,18.2,176.7,16.5,180,16.5 M170.3,42.6c3.1,0,6.3-2.6,7.9-9.2c1.4-5.8,0.4-8.5-3.2-8.5c-1.9,0-3.7,0.9-5.9,2.8l-3.2,13
	C167,41.9,168.6,42.6,170.3,42.6 M180,12.5c-2.7,0.1-5.3,0.7-7.7,1.9c-0.7-0.7-1.7-1-2.7-1h-8.4c-1.8,0-3.4,1.2-3.9,3l-11,44.8
	c-0.5,2.1,0.8,4.3,2.9,4.8c0.3,0.1,0.6,0.1,0.9,0.1h10.3c1.9,0,3.5-1.3,4-3.1l2.1-8.7c1.3,0.4,2.6,0.6,4,0.6c8.4,0,18.7-7.2,22-20.8
	c1.7-7.1,1-12.9-2.1-16.9C188.8,15,185.6,12.4,180,12.5L180,12.5z M172.6,29.9c0.6-0.5,1.4-0.9,2.2-1c0,1.2-0.2,2.4-0.5,3.5
	c-1,4.2-2.6,5.9-3.8,6.1L172.6,29.9L172.6,29.9z"/>
<path class="st0" d="M192.4,39.5L201.1,4h10.3l-8.8,35.8c-0.5,2.2,0.3,2.8,1.1,2.8c0.4,0,0.8,0,1.2-0.1l-0.6,7.6
	c-1.7,0.6-3.5,0.9-5.2,0.9C191.9,51,190.7,46.3,192.4,39.5z"/>
<path d="M211.4,4l-8.8,35.8c-0.5,2.2,0.3,2.8,1.1,2.8c0.4,0,0.8,0,1.2-0.1l-0.6,7.6c-1.7,0.6-3.5,0.9-5.2,0.9c-7,0-8.2-4.6-6.5-11.5
	L201.1,4H211.4 M204.9,42.5L204.9,42.5 M211.4,0h-10.3c-1.8,0-3.4,1.3-3.9,3l-8.7,35.5c-1.4,5.6-0.9,9.8,1.3,12.7
	c1.9,2.5,5,3.8,9.1,3.8c2.3,0,4.6-0.3,6.7-1.1c1.4-0.5,2.4-1.9,2.6-3.4l0.6-7.4c0-0.2,0-0.3,0-0.5c0-1.4-0.8-2.7-2-3.5L215.2,5
	c0.3-1.2,0-2.5-0.7-3.4C213.8,0.6,212.6,0,211.4,0z M211.4,8L211.4,8z"/>
<path class="st0" d="M209.7,33.7c2.6-10.6,11.9-17.2,19.8-17.2c9.5,0,12.4,6.9,10.2,15.8c-0.4,1.5-0.9,3-1.6,4.4h-19.3
	c-0.2,4.5,2.5,6.4,6.6,6.4c2.6-0.1,5.2-0.8,7.5-2.1l1.9,6.2c-3.8,2.3-8.2,3.7-12.7,3.8C212.8,51,207,44.6,209.7,33.7z M231.6,30
	c0.8-3.2-0.1-5.7-3.8-5.7c-2.8,0-5.8,1.8-7.4,5.7H231.6z"/>
<path d="M229.5,16.5c9.5,0,12.4,6.9,10.2,15.8c-0.4,1.5-0.9,3-1.6,4.4h-19.3c-0.2,4.5,2.5,6.4,6.6,6.4c2.6-0.1,5.2-0.8,7.5-2.1
	l1.9,6.2c-3.8,2.3-8.2,3.7-12.7,3.8c-9.5,0-15.2-6.3-12.5-17.3C212.3,23.1,221.6,16.5,229.5,16.5 M220.4,30h11.2
	c0.8-3.2-0.1-5.7-3.8-5.7C224.9,24.3,222,26.1,220.4,30 M229.5,12.5c-9.1,0-20.5,7.1-23.7,20.3c-2,8.2,0.2,13.3,2.5,16.2
	c3,3.9,8,6,13.9,6c5.2-0.1,10.3-1.6,14.7-4.3c1.6-1,2.3-2.8,1.8-4.6l-1.6-5.3h1.1c1.5,0,2.8-0.8,3.5-2.1c0.8-1.7,1.5-3.5,1.9-5.4
	c1.6-6.5,0.8-11.9-2.1-15.7C239.6,15.2,236.1,12.5,229.5,12.5L229.5,12.5z"/>
<path class="st0" d="M244.1,38l3.1-12.6h-4.4l1.9-7.6l5.2-0.4l3.3-8.7h8.5l-2.1,8.7h7.7l-2,8h-7.7l-3.1,12.5
	c-0.9,3.6,0.5,5.1,2.9,5.1c1.1-0.1,2.1-0.3,3.2-0.6l-0.2,7.5c-2.5,0.8-5.1,1.2-7.7,1.2C244.3,51,242.2,45.7,244.1,38z"/>
<path d="M261.6,8.6L261.6,8.6 M261.6,8.6l-2.1,8.7h7.7l-2,8h-7.7l-3.1,12.5c-0.9,3.6,0.5,5.1,2.9,5.1c1.1-0.1,2.1-0.3,3.2-0.6
	l-0.2,7.5c-2.5,0.8-5.1,1.2-7.7,1.3c-8.2,0-10.3-5.3-8.4-13l3.1-12.6h-4.4l1.9-7.6l5.2-0.4l3.3-8.7L261.6,8.6 M267.2,17.3
	L267.2,17.3 M260.5,42.3L260.5,42.3 M261.6,4.6h-8.5c-1.7,0-3.2,1-3.7,2.6l-2.3,6.3l-2.6,0.2c-1.7,0.1-3.1,1.3-3.6,3l-1.9,7.6
	c-0.5,2.1,0.8,4.3,2.9,4.8c0.1,0,0.2,0,0.3,0.1l-1.9,7.8c-1.4,5.8-0.9,10.4,1.7,13.6c2.3,2.9,5.9,4.4,10.7,4.4c3,0,6-0.5,8.8-1.4
	c1.7-0.5,2.9-2,2.9-3.7l0.2-7.3c0-0.1,0-0.2,0-0.2c0-2.2-1.8-4-4-4h-0.2c-0.4,0-0.8,0.1-1.2,0.2c-0.3,0.1-0.6,0.2-0.9,0.2l2.3-9.5
	h4.6c1.8,0,3.4-1.2,3.9-3l1.9-7.9c0.6-2.1-0.6-4.3-2.7-5c-0.4-0.1-0.7-0.2-1.1-0.2h-2.6l0.9-3.6c0.6-2.1-0.6-4.3-2.7-5
	C262.3,4.6,261.9,4.6,261.6,4.6L261.6,4.6z"/>
<path class="st0" d="M265,33.7c2.6-10.6,11.9-17.2,19.8-17.2c9.5,0,12.4,6.9,10.2,15.8c-0.4,1.5-0.9,3-1.5,4.4h-19.3
	c-0.2,4.5,2.5,6.4,6.6,6.4c2.6-0.1,5.2-0.8,7.4-2.1l1.9,6.2c-3.8,2.3-8.2,3.7-12.6,3.8C268,51,262.3,44.6,265,33.7z M286.8,30
	c0.8-3.2-0.1-5.7-3.8-5.7c-2.8,0-5.7,1.8-7.4,5.7H286.8z"/>
<path d="M284.8,16.5c9.5,0,12.4,6.9,10.2,15.8c-0.4,1.5-0.9,3-1.5,4.4h-19.3c-0.2,4.5,2.5,6.4,6.6,6.4c2.6-0.1,5.2-0.8,7.4-2.1
	l1.9,6.2c-3.8,2.3-8.2,3.7-12.6,3.8c-9.5,0-15.2-6.4-12.5-17.3C267.6,23.1,276.9,16.5,284.8,16.5 M275.6,30h11.2
	c0.8-3.2-0.1-5.7-3.8-5.7C280.2,24.3,277.3,26.1,275.6,30 M284.8,12.5c-9.1,0-20.5,7.1-23.7,20.3c-2,8.2,0.2,13.3,2.5,16.2
	c3,3.9,8,6,13.9,6c5.2-0.1,10.3-1.6,14.7-4.3c1.6-0.9,2.3-2.8,1.8-4.6l-1.6-5.3h1.1c1.5,0,2.8-0.8,3.5-2.1c0.8-1.7,1.5-3.5,1.9-5.4
	c1.6-6.5,0.8-11.9-2.1-15.7C294.9,15.2,291.4,12.5,284.8,12.5L284.8,12.5z"/>
<path class="st0" d="M298.1,33.7c2.6-10.7,11-17.2,17.8-17.2c2.8-0.2,5.5,1.1,7.1,3.4l0.9-4.9l2.6-11h10.3l-11.3,46.1h-8.4V47h-0.2
	c-2.9,2.3-6.5,4-9.6,4C299.1,51,295.5,44.4,298.1,33.7z M317.8,39.8l3.2-12.9c-1.2-1.3-2.9-2.1-4.7-2c-2.8,0-6.1,2.6-7.6,8.7
	c-1.5,6.3-0.1,9,3.4,9C314.1,42.5,315.8,41.9,317.8,39.8L317.8,39.8z"/>
<path d="M336.8,4L336.8,4 M336.8,4l-11.3,46.1h-8.4V47h-0.2c-2.9,2.3-6.5,4-9.6,4c-8.2,0-11.9-6.5-9.2-17.3s11-17.2,17.8-17.2
	c2.8-0.2,5.5,1.1,7.2,3.4l0.9-4.9l2.6-11H336.8 M312.1,42.5c2,0,3.7-0.6,5.6-2.8l3.2-12.9c-1.2-1.3-2.9-2.1-4.7-2
	c-2.8,0-6.1,2.6-7.6,8.7C307.2,39.8,308.6,42.5,312.1,42.5 M336.8,0h-10.3c-1.8,0-3.5,1.3-3.9,3l-2.5,10c-1.4-0.4-2.8-0.6-4.3-0.6
	c-8.1,0-18.4,7.1-21.7,20.3c-2.2,9.2-0.1,14.5,2.1,17.3c1.8,2.2,5.1,4.9,11,4.9c2.5-0.1,4.9-0.7,7.2-1.8c0.7,0.6,1.6,1,2.6,1h8.4
	c1.8,0,3.4-1.2,3.9-3l11.2-46c0.1-0.4,0.2-0.8,0.2-1.1C340.8,1.8,339,0,336.8,0z M336.8,8L336.8,8z M312.1,38.5
	c-0.1-1.4,0.1-2.7,0.5-4c1-4.3,2.9-5.7,3.7-5.7h0l-2.2,8.9C313.6,38.2,312.9,38.5,312.1,38.5L312.1,38.5z"/>
</svg>
