<svg version="1.1" xmlns="http://www.w3.org/2000/svg" xmlns:xlink="http://www.w3.org/1999/xlink" x="0px" y="0px" viewBox="0 0 313.8 98.7" style="enable-background:new 0 0 313.8 98.7;" xml:space="preserve" width="314" height="99">
<style type="text/css">
	.st0{fill:#263E41;}
	.st1{fill:#006775;}
</style>
<path class="st0" d="M36,49.7l2-6.8c0.4,0.8,1.1,1.4,2,1.5c0.4,0.1,0.7,0.1,1.1,0l7-1.2c0.1,1.6,1.4,2.8,3,2.8c0.1,0,0.3,0,0.4,0
	l8.4-1.1c1.2-0.2,2.1-1,2.5-2.1c0.1-0.4,0.3-1,0.5-1.9c1.4,1.1,3.3,1.7,5.6,1.7c0.5,0,0.9,0,1.4-0.1h0c0.7,1.4,2.2,2,3.7,1.5
	l7.9-2.8c1-0.3,1.7-1.2,1.9-2.2l0.1-0.4c0.3-1.4,0.6-2.6,0.9-3.7c0.5,4.3,3.6,6.9,8.3,6.9c0.5,0,1.1,0,1.6-0.1l0.1,0
	c2.1-0.3,4.2-0.8,6.2-1.5c0.9-0.3,1.6-1.1,1.9-2l1.7-6.3c0.4-1.6-0.5-3.2-2.1-3.7c-0.6-0.2-1.2-0.1-1.7,0.1c-0.3,0.1-0.6,0.2-1,0.3
	c0.2-0.9,0.4-2,0.7-3.1l3.8-0.8c1.2-0.2,2.1-1.2,2.3-2.3l1.2-5.8c0.3-1.6-0.7-3.2-2.3-3.6c-0.4-0.1-0.7-0.1-1.1,0l-0.6,0.1l0.6-2.2
	c0.4-1.6-0.5-3.2-2.1-3.7c-0.3-0.1-0.5-0.1-0.8-0.1l0,0c-0.3,0-0.5,0-0.8,0.1l-8.7,2.3c-1,0.3-1.9,1.1-2.1,2.1l-1,3.8L85.6,16
	c-0.7,0.1-1.2,0.5-1.7,1c-1.9-2.1-4.8-3.3-8.4-3.3l0,0c-0.7,0-1.4,0-2,0.1c-1.9,0.2-3.7,0.7-5.4,1.5c-0.7,0.3-1.3,1-1.5,1.7
	l-1.9,5.4c-1.1-2.2-3.3-3.5-6.2-3.5c-0.5,0-0.9,0-1.4,0.1c-0.4,0.1-0.9,0.1-1.3,0.2l1-4c0.4-1.6-0.6-3.2-2.2-3.6
	c-0.2-0.1-0.5-0.1-0.7-0.1l0,0c-0.2,0-0.4,0-0.6,0.1l-6.6,1.4l2.7-9.3c0.5-1.6-0.5-3.3-2-3.7C46.9,0,46.7,0,46.4,0l0,0
	c-0.2,0-0.4,0-0.7,0.1l-14,3.1c-1.1,0.2-2,1.1-2.2,2.1l-2.9,10.6c-0.6-1.3-2-2.1-3.4-1.8l-4.5,1c-0.3,0.1-0.6,0.2-0.9,0.3l0.1-3.9
	c0-1.7-1.3-3-2.9-3.1c0,0,0,0-0.1,0c-0.2,0-0.4,0-0.5,0L2.5,10.7C1,10.9,0,12.2,0,13.6l0.1,37c0,1.7,1.4,3,3,3c0.2,0,0.5,0,0.7-0.1
	l11.7-2.9c0.4-0.1,0.8-0.3,1.2-0.6l0.2,1.9c0.1,1.7,1.6,2.9,3.2,2.8c0.1,0,0.3,0,0.4-0.1l13.2-2.9C34.8,51.5,35.7,50.7,36,49.7z
	 M86.2,19l4.6-0.9l1.5-5.6l8.7-2.3l-1.8,6.7l5.2-0.9l-1.2,5.8l-5.6,1.2c0,0-1.6,6.2-1.5,7.7c0.1,1,1,1.2,1.8,1.2c0.2,0,0.4,0,0.6,0
	c0.9-0.1,1.9-0.3,2.8-0.6l-1.7,6.3c-1.8,0.7-3.7,1.1-5.6,1.4c-0.4,0-0.9,0.1-1.3,0.1c-2.7,0-4.9-1-5.3-4.2c-0.3-2.4,1.8-10,1.8-10
	l-2.9,0.7c0.2-1.3,0.2-1.9,0.1-2.4c-0.1-1-0.3-1.9-0.6-2.7L86.2,19z M73.7,24.5c0.4,0,0.8-0.1,1.3-0.1c0.3,0,0.6,0,0.9,0
	c0-0.4,0.1-0.7,0-1.1c-0.1-0.9-1.2-1.1-2.1-1.1c-0.2,0-0.5,0-0.7,0c-2.1,0.3-4.1,1-6,2l2.2-6.2c1.4-0.7,2.9-1.1,4.5-1.2
	c0.6-0.1,1.1-0.1,1.7-0.1l0,0c3.3,0,6,1.1,7.2,4l-0.9,4.6c-0.2,1.1,0.2,2.1,1,2.8c-0.8,3.9-1.9,8.8-2.3,10.5l-7.9,2.8
	c0.3-0.9,0.6-1.9,0.9-2.9c-1.6,0.8-3.3,1.2-5,1.3c-1.9,0-3.8-0.6-4.7-2.2c0.7-2.8,1.4-6.2,1.7-8.9C67.5,26.3,70.5,24.8,73.7,24.5z
	 M53.8,14.6L53.8,14.6l-2.2,9.2c1.8-0.9,3.8-1.5,5.8-1.7c0.3,0,0.7-0.1,1-0.1c2.4,0,3.8,1,4.1,3.8c0,0.5,0,1,0,1.6
	c-1.8,2.5-2.7,5.6-2.4,8.7c0.1,0.6,0.2,1.2,0.4,1.7C60,40.3,59.4,42,59.4,42l-8.4,1.1c0,0,3.3-11.5,3-14.4c-0.1-0.5-0.2-0.9-0.7-0.9
	c0,0-0.1,0-0.1,0c-1.7,0.2-2.5,2.3-3,3.7c-0.8,2.8-1.9,8.6-1.9,8.6l-7.9,1.3l5-25.1L53.8,14.6z M19.9,51.8l-1.2-15.6l-3.8,11.6
	L3.1,50.6L3,13.6l11.9-2.2l-0.4,18.2l4.8-11.6l4.5-1L25.6,31l6.8-24.9l14-3.1L33.1,48.8L19.9,51.8z"/>
<polygon class="st0" points="74.6,28.9 74.6,28.9 74.6,28.9 "/>
<path class="st0" d="M73.3,34.2c0.1,0,0.3,0,0.4,0c0.2,0,0.5-0.1,0.7-0.1c0.5-1.7,0.8-3.4,1.3-5.1c-0.2,0-0.4,0-0.6,0
	c-0.1,0-0.2,0-0.4,0c-2,0.3-3.4,2-3.2,4C71.6,33.9,72.4,34.2,73.3,34.2z"/>
<path class="st0" d="M110.1,38.2c0.4,0.1,0.8,0.1,1.2,0l8.3-1.5c0.9-0.2,1.7-0.7,2.1-1.5c1.5,1.4,3.8,2.2,6.4,2.2
	c0.4,0,0.8,0,1.3-0.1c7-0.7,14.3-4.9,14.8-12.5c0-0.4,0-0.7,0-1.1c0-0.1,0-0.1,0-0.2c-0.3-2-1.3-3.7-2.9-4.9l3.5-2.4
	c1.1-0.8,1.6-2.1,1.2-3.4c-1.1-3.3-4.4-5.3-8.9-5.3l0,0c-0.5,0-1,0-1.5,0.1c-1.9,0.2-3.8,0.7-5.5,1.6c-0.5,0.3-1.7,0.9-3,1.8
	c0-0.4,0-0.7,0-1.1c-0.3-3-3-5-6.7-5l0,0c-0.3,0-0.6,0-0.9,0c-3.3,0.4-7.9,2.8-7.4,7.2c0.1,0.8,0.4,1.6,0.8,2.2
	c-0.2,0.3-0.4,0.6-0.4,1l-4.6,19.1C107.5,36.2,108.5,37.8,110.1,38.2z M131.5,11.9c1.4-0.7,2.9-1.2,4.4-1.3c0.4,0,0.8-0.1,1.2-0.1h0
	c2.4,0,5.2,0.8,6,3.3l-5.4,3.7c-0.7-0.7-1.5-1-2.5-1c-0.1,0-0.2,0-0.3,0c-0.7,0.1-3.2,0.8-3.1,1.7c0.1,0.8,5.1,1.9,6,2.2
	c1.8,0.4,3.1,1.8,3.4,3.6c0,0.2,0,0.4,0,0.6c-0.5,6.1-6.7,9.2-12.2,9.8c-0.3,0-0.6,0-0.9,0c-2.4,0-4.7-0.9-5.5-3l0.4-2.4
	c1.4-1.2,3.1-2.1,4.5-3.3c1,1.6,1.7,2.3,3.4,2.3c0.3,0,0.6,0,0.9-0.1c0.9-0.1,3-1.1,2.8-2.2c-0.2-2-9.3-1.1-10.2-4.2l0.8-4.3
	C126.7,14.9,129.4,12.9,131.5,11.9z M119.8,8c0.2,0,0.4,0,0.6,0l0,0c1.6,0,3.6,0.6,3.7,2.3c0.2,2.3-2.9,3.7-4.7,3.9
	c-0.2,0-0.4,0-0.6,0c-1.6,0-3.6-0.6-3.7-2.3C114.8,9.6,117.9,8.2,119.8,8z M115.3,16.1l7.3-1.4h0l-0.3,1.4c-0.8,1.5-1.3,3.1-1.1,5
	l0,0.1c0,0.1,0.1,0.3,0.1,0.4l-1.1,5.8c0,0,0,0,0,0c-0.6,0.6-0.9,1.4-0.9,2.2v0.3c0,0.6,0.1,1.1,0.2,1.6l-0.4,2.2l-8.3,1.5
	L115.3,16.1z"/>
<polygon class="st0" points="65.4,44.3 65.4,44.3 65.4,44.3 "/>
<path class="st0" d="M73.2,70.5c-2,0.3-3.4,2-3.2,4c0.1,1,1,1.3,1.8,1.3l0,0c0.1,0,0.3,0,0.4,0c0.2,0,0.5-0.1,0.7-0.1
	c0.5-1.7,0.8-3.4,1.3-5.1c-0.2,0-0.4,0-0.6,0C73.5,70.5,73.4,70.5,73.2,70.5z"/>
<polygon class="st0" points="144.4,48.4 144.4,48.4 144.4,48.4 "/>
<path class="st0" d="M179.1,53.5L179.1,53.5c-0.1,0-0.2,0-0.2,0l0,0c-1.7,0.1-3.1,1.3-3.5,3c0.2,0,0.3,0,0.5,0c0.4,0,0.7,0,1.1-0.1
	c1.2-0.1,2.3-0.3,3.5-0.5c0.1-0.3,0.2-0.7,0.1-1.1C180.5,54.1,179.8,53.5,179.1,53.5z"/>
<path class="st0" d="M179.9,44.5L179.9,44.5c-0.5,0-1,0-1.4,0.1c-4.3,0.5-8,2.9-10.5,6.3c-1.4-3.5-4.6-3.8-5.7-3.8
	c-0.3,0-0.6,0-0.9,0l-0.1,0c-1.2,0.2-2.5,0.5-3.7,0.8c-0.1-0.1-0.1-0.1-0.2-0.2c-0.6-0.5-1.3-0.8-2.1-0.8l0,0c-0.2,0-0.4,0-0.6,0.1
	c-2.7,0.6-5.4,1.4-7.9,2.6c-0.5-0.6-1.1-1-1.9-1.1c-0.1,0-0.3,0-0.4,0c-0.1,0-0.2,0-0.4,0l-7.6,0.9c-1.3,0.2-2.3,1.1-2.6,2.4
	l-0.1,0.4c-0.4-0.2-0.8-0.3-1.2-0.3c-0.1,0-0.3,0-0.4,0l-7.8,1c-0.4,0.1-0.9,0.2-1.2,0.4c-1.6-1.4-3.9-2.1-6.7-2.1v0
	c-0.5,0-1,0-1.5,0.1c-1.9,0.2-3.8,0.7-5.5,1.6c-0.7,0.4-2.5,1.4-4.3,2.9c-0.4-0.5-1-0.9-1.7-1c-0.4-0.1-0.8-0.1-1.1,0l-0.6,0.1
	l0.6-2.2c0.4-1.6-0.5-3.2-2.1-3.7c-0.3-0.1-0.5-0.1-0.8-0.1l0,0c-0.3,0-0.5,0-0.8,0.1l-8.7,2.3c-1,0.3-1.9,1.1-2.1,2.1l-1,3.8
	l-2.7,0.5c-0.7,0.1-1.3,0.5-1.7,1c-1.9-2.1-4.8-3.3-8.4-3.3l0,0c-0.7,0-1.4,0-2,0.1c-1.9,0.2-3.7,0.7-5.4,1.5c0,0,0,0-0.1,0l1.8-9.1
	c0.3-1.6-0.7-3.2-2.4-3.5c-0.2,0-0.4-0.1-0.6-0.1c-0.2,0-0.5,0-0.7,0.1l-13.4,3.2c-1.1,0.3-2,1.1-2.2,2.2l-0.4,1.7
	c-0.1-0.1-0.1-0.2-0.2-0.2c-0.7-0.7-1.8-1-2.8-0.8l-11,2.6c-1.1,0.3-2,1.1-2.2,2.3L23.5,95c-0.4,1.6,0.6,3.2,2.3,3.6
	c0.4,0.1,0.8,0.1,1.2,0l12.8-2.3c1.2-0.2,2.2-1.2,2.4-2.4l0.3-1.6c0.7,0.4,1.5,0.6,2.3,0.5l13.5-2.6c1.2-0.2,2.1-1.2,2.4-2.4l1-5.1
	c1.4,1,3.2,1.6,5.4,1.6c0.5,0,0.9,0,1.4-0.1h0c0.7,1.4,2.2,2,3.7,1.5l7.9-2.8c1-0.3,1.7-1.2,1.9-2.2l0.1-0.5
	c0.3-1.4,0.6-2.6,0.9-3.7c0.5,4.3,3.6,6.9,8.3,6.9c0.5,0,1.1,0,1.6-0.1l0.1,0c2.1-0.3,4.2-0.8,6.2-1.5c0.9-0.3,1.6-1.1,1.9-2.1
	l0.3-1c1.5,1.3,3.7,2.1,6.3,2.1c0.4,0,0.8,0,1.3-0.1c4.5-0.5,9.1-2.4,12-5.7c1.2,1.1,2.9,1.7,5,1.7c0.5,0,1,0,1.5-0.1
	c0.7-0.1,1.3-0.2,2-0.3c0.3,1.2,1.4,2,2.6,2.1l0.2,0c0.2,0,0.3,0,0.5,0c2.6,0,8-2.1,9.2-2.6c0.5-0.2,0.9-0.6,1.2-1
	c0.2,0.1,0.4,0.1,0.5,0.1c0.2,0,0.3,0,0.5,0c0.2,0,0.5,0,0.7-0.1l6.4-1.6c-0.1,1.7,1.2,3.1,2.9,3.1c0.2,0,0.4,0,0.6,0
	c2.9-0.4,5.8-1,8.7-1.9c1-0.3,1.8-1.1,2.1-2.2c0.2-0.7,0.4-1.4,0.6-2.2c2.2,3.6,5.6,4.3,7.9,4.3c0.4,0,0.9,0,1.3-0.1
	c6.3-0.5,11.7-4.9,13.5-11c-0.5-1-0.3-2.3,0.5-3.1c0.8-2,1-4.2,0.7-6.3C189,48.1,185.4,44.5,179.9,44.5z M100.8,70.1
	c-0.1,0-0.2-0.1-0.3-0.1c-0.6-0.2-1.2-0.1-1.7,0.1c-0.3,0.1-0.6,0.2-1,0.3c0.2-0.9,0.4-2,0.7-3.1l2.7-0.6c0.4,0.8,0.9,1.4,1.6,1.9
	C102.1,69,101.5,69.6,100.8,70.1z M57.7,87.3l-13.5,2.6l2.4-12.1l-4.4,0.9l-3,14.6l-12.8,2.3l8.9-39.5l11-2.6L44,65.3l4.7-0.8
	l3.3-14l13.4-3.2l0,0L61.2,69c-1.8,2.5-2.7,5.6-2.4,8.7c0.1,0.6,0.2,1.2,0.4,1.7L57.7,87.3z M79.1,80.2L71.2,83
	c0.3-0.9,0.6-1.9,0.9-2.9c-1.6,0.8-3.3,1.2-5,1.3c-2,0-3.8-0.6-4.7-2.3l1.7-8.8c2-2.4,5.1-3.9,8.3-4.2c0.4,0,0.8-0.1,1.3-0.1
	c0.3,0,0.6,0,0.9,0c0-0.4,0.1-0.7,0-1.1c-0.1-0.9-1.2-1.1-2.1-1.1c-0.2,0-0.5,0-0.7,0c-2.1,0.3-4.1,1-6,2l2.2-6.2
	c1.4-0.7,2.9-1.1,4.5-1.2c0.6-0.1,1.1-0.1,1.7-0.1l0,0c3.3,0,6,1.1,7.2,4l-0.9,4.6c-0.2,1.1,0.2,2.1,1,2.8
	C80.7,73.6,79.5,78.6,79.1,80.2z M92.6,80.5c-0.4,0-0.9,0.1-1.3,0.1c-2.7,0-4.9-1-5.3-4.2c-0.3-2.4,1.8-10,1.8-10l-2.9,0.7
	c0.2-1.3,0.2-1.9,0.1-2.4c-0.1-1-0.3-1.9-0.6-2.7l0.3-1.5l4.6-0.9l1.5-5.6l8.7-2.3l-1.8,6.7l5.2-0.9l-0.1,0.6
	c-1.2,1.5-2,3.4-2.1,5.5l-4.6,1c0,0-1.6,6.2-1.5,7.7c0.1,1,1,1.2,1.8,1.2c0.2,0,0.4,0,0.6,0c0.6-0.1,1.2-0.2,1.8-0.3v0.3
	c0,0.7,0.1,1.4,0.3,2l-1,3.7C96.3,79.8,94.5,80.3,92.6,80.5z M108.5,78c-0.3,0-0.6,0-0.9,0c-2.2,0-4.4-0.8-5.3-2.6l0.5-1.7
	c0.1-0.4,0.1-0.9,0-1.3c1.4-1.1,3-2,4.3-3.1c1,1.6,1.7,2.3,3.4,2.3c0.3,0,0.6,0,0.9-0.1c0.9-0.1,3-1.1,2.8-2.2
	c-0.2-1.9-8.7-1.2-10.1-3.9c0.3-0.4,0.5-0.8,0.6-1.3l1-4.5c1.5-1.8,3.7-3.3,5.3-4.1c1.4-0.7,2.9-1.2,4.4-1.3c0.4,0,0.8-0.1,1.2-0.1
	l0,0c1.9,0,3.9,0.5,5.1,1.8c-0.2,0.7-0.5,1.6-0.8,2.6l-3.8,2.6c-0.7-0.7-1.5-1-2.5-1c-0.1,0-0.2,0-0.3,0c-0.7,0.1-3.2,0.8-3.1,1.7
	c0.1,0.8,5.1,1.9,6,2.2c0.8,0.2,1.5,0.6,2.1,1.1c-0.4,2.2-0.7,4.4-0.6,5.8c0.1,0.6,0.2,1.2,0.4,1.7C116.8,75.8,112.4,77.5,108.5,78z
	 M132.5,75.7c-0.1,0-0.1,0-0.2,0l-0.2,0l0.6-3.5c-1.8,0.9-3.8,1.4-5.8,1.7c-0.4,0-0.8,0.1-1.2,0.1c-1.4,0-2.5-0.3-3.3-1.3
	c0.6-1.3,1-2.6,1.1-4.2c0-0.4,0-0.7,0-1.1c0-0.1,0-0.1,0-0.2c-0.1-1-0.5-2-1.1-2.9c0.3-1.3,0.6-2.7,1-3.9l0.7-0.5
	c1.1-0.8,1.6-2.1,1.2-3.4c-0.1-0.2-0.2-0.4-0.3-0.7l7.5-1c0,0-2.5,8.3-2.3,10.7c0.1,0.5,0.2,1,0.8,1c0,0,0.1,0,0.1,0
	c1.7-0.2,2.8-2.4,3.2-3.9c1-3.4,2.4-10.3,2.4-10.3l7.6-0.9l0,0c0,0-0.4,2.7-0.6,4c0,0.1,0,0.2-0.1,0.3c-0.5,2.2-1,4.3-1.4,6.5
	c-0.3,2.2-0.7,4.5-1.1,6.7c-0.1,0.6-0.2,1.1-0.3,1.7c-0.2,0.9-0.4,1.8-0.7,2.8C138.9,74,134.3,75.7,132.5,75.7z M162.3,71.9
	c-2.7,0.8-5.5,1.4-8.3,1.8c0.9-3.2,3.1-11.8,2.8-14.7c0-0.3-0.1-0.9-0.6-0.9h0c-1.8,0.2-2.6,2.6-2.9,4.1c-0.7,2.7-1.3,5.5-1.8,8.2
	l-7.6,1.9c0.1-0.4,0.1-0.7,0.2-1.1c0.5-2.3,1-4.6,1.3-6.9c0.2-1.6,0.5-3.2,0.9-4.9c0.2-1,0.4-2,0.6-3.1c0.3-1.3,0.7-2.6,1-3.9
	c2.4-1.1,5-1.9,7.6-2.5l0,0l-0.4,2.5c2.1-1.2,4.4-2,6.8-2.3c0.2,0,0.4,0,0.6,0c2.2,0,3.1,1.5,3.4,3.7c0,0.3,0,0.5,0,0.8
	c-1.5,3.1-2.1,6.5-1.8,9.5c0,0.4,0.1,0.7,0.2,1.1C163.4,67.7,162.7,70.1,162.3,71.9z M186.2,59.4l-12.6,2.1
	c-0.3,0.6-0.3,1.2-0.2,1.8c0.1,1,0.6,1.8,1.6,1.8c0.1,0,0.1,0,0.2,0c1.4-0.1,1.9-1.3,2.4-2.4l8.1,0c-1.4,4.9-5.8,8.5-10.9,8.8
	c-0.4,0-0.7,0.1-1.1,0.1c-4,0-5.9-2.7-6.6-6.3c0.8-3.5,1.6-7.1,1.6-10.1c2.1-4,5.8-7.2,10.2-7.7c0.4,0,0.7-0.1,1.1-0.1
	c4.2,0,6.3,2.8,6.8,7.1C187,56.2,186.8,57.9,186.2,59.4z"/>
<path class="st0" d="M303.1,48.2c7.6-3.8,11.1-8.3,10.6-13.3c-0.5-5.1-4.2-7.9-10.1-7.9l0,0c-0.7,0-1.5,0-2.2,0.1l-0.1,0
	c-5.1,0.7-10,2.2-14.5,4.5c-0.8,0.4-1.4,1.2-1.6,2l-4.4,0.5c-1.3,0.2-2.3,1.1-2.6,2.4c0,0,0,0.1-0.1,0.4c-0.4-0.2-0.8-0.3-1.2-0.3
	c-0.1,0-0.3,0-0.4,0l-7.8,1c-0.4,0-0.7,0.2-1,0.3c-0.1,0-0.2,0-0.3,0l-6.9,1l0.5-2.7c0.3-1.6-0.8-3.2-2.4-3.5c-0.2,0-0.4,0-0.5,0
	l0,0c-0.2,0-0.3,0-0.5,0L250,34c-0.4,0.1-0.8,0.2-1.2,0.5c-1.2-0.8-2.6-1.2-4.4-1.2c-0.3,0-0.6,0-0.9,0c-1.1,0.1-2.2,0.5-3.3,1
	l0.7-4.4c0.3-1.6-0.9-3.2-2.5-3.4c-0.2,0-0.3,0-0.5,0l0,0c-0.2,0-0.4,0-0.6,0.1l-14.1,2.9c-0.9,0.2-1.7,0.8-2.1,1.7l-4.6,10
	l-0.8-5.9c-0.2-1.6-1.7-2.8-3.4-2.6c-0.1,0-0.2,0-0.3,0.1l-11.3,2.8c-1.1,0.3-2,1.2-2.2,2.3l-7.2,34.6c-0.3,1.6,0.7,3.2,2.3,3.5
	c0.4,0.1,0.7,0.1,1.1,0l12.5-2.1c1.3-0.2,2.3-1.2,2.5-2.5l0.3-1.6c0.6,0.3,1.3,0.5,2,0.4l2.7-0.4l-1.1,6.2c-0.3,1.6,0.8,3.2,2.4,3.5
	c0.2,0,0.4,0,0.5,0c0.2,0,0.3,0,0.5,0l14.4-2.5c1.3-0.2,2.2-1.2,2.4-2.5l1.3-8c0.1,0,0.1,0,0.2,0l8.2-1.5c0.4,0.3,0.9,0.6,1.4,0.7
	c0.4,0.1,0.8,0.1,1.2,0l7.3-1.5l0.3,0.9c0.4,1.3,1.5,2.2,2.9,2.2c0.2,0,0.4,0,0.6-0.1l8-1.5c1.6-0.3,2.7-1.9,2.4-3.5
	c0-0.1,0-0.1,0-0.2l-0.2-0.9c0.8,0.3,1.8,0.4,2.9,0.4c0.5,0,1,0,1.5-0.1c0.7-0.1,1.3-0.2,2-0.3c0.3,1.2,1.4,2,2.6,2.1l0.2,0
	c0.2,0,0.3,0,0.5,0c2.6,0,8-2.1,9.2-2.6c0.8-0.4,1.4-1.1,1.6-1.9c0.2-0.7,0.4-1.4,0.5-2.1c0.4,2.9,3.1,4.8,6.7,4.8
	c0.3,0,0.6,0,0.9,0c2.4-0.3,4.6-1.4,6.2-3.2c0.9-1.1,1.4-2.6,1.2-4.1c-0.1-0.9-0.4-1.8-1-2.5c0.3-0.4,0.4-0.8,0.5-1.3L303.1,48.2z
	 M243.8,36.4c0.2,0,0.4,0,0.6,0v0c1,0,2.2,0.2,3,0.9l-0.8,4.1c-1,0.7-2.2,1-3.1,1.1c-0.2,0-0.4,0-0.6,0c-1.4,0-3.1-0.5-3.6-1.8
	l0.3-2.2C240.5,37.3,242.5,36.5,243.8,36.4z M230.9,74.1l-14.4,2.5l3.8-21.1l-6.1,11.4l-2.7,0.4l-2.4-10.6L206.8,71l-12.5,2.1
	l7.2-34.6l11.3-2.8l2.2,16.2l8.9-19.5l14.1-2.9l-1.3,8c-0.5,0.9-0.7,2-0.6,3c0,0.1,0,0.2,0.1,0.3l-1.9,12.3l-2.3,9.7
	c-0.2,0.8,0,1.7,0.4,2.3L230.9,74.1z M237.2,53.8l2.2-9.3l6.9-1.3l-3.6,19l-7,1.2L237.2,53.8z M256.6,64.4l-2-7.2l-0.7,4l-7.8,1.6
	c0,0,0,0,0-0.1l3.5-19c0.1-0.3,0.1-0.7,0-1c1.1-1.2,1.7-2.8,1.5-4.4c-0.1-0.5-0.2-0.9-0.3-1.3l7.3-1.2l-2.3,12.6L260,42l5.8-0.8
	c-0.5,1.6-1.1,3.9-1.7,6.3l-2.3,4.1l2.8,11.3L256.6,64.4z M286.6,48.6c-0.4,3.2-1.1,6.4-1.9,9.5c-1.5,0.7-6.1,2.3-7.9,2.3
	c-0.1,0-0.1,0-0.2,0l-0.2,0l0.6-3.5c-1.8,0.9-3.8,1.4-5.8,1.7c-0.4,0-0.8,0.1-1.2,0.1c-2.1,0-3.8-0.8-4-3.4
	c-0.2-1.5,0.3-4.1,0.9-6.7l3.6-6.2c0.4-0.6,0.5-1.4,0.3-2.1l6-0.8c0,0-2.5,8.3-2.3,10.7c0.1,0.5,0.2,1,0.8,1c0,0,0.1,0,0.1,0
	c1.7-0.2,2.8-2.4,3.2-3.9c1-3.4,2.4-10.3,2.4-10.3l4.6-0.5l2.1,5.2C287.4,44,287,46.3,286.6,48.6z M288.9,53.1
	c0.2-1.2,0.5-2.5,0.6-3.8l-0.1,1.2c0,0.5,0,1.1,0.3,1.5C289.4,52.5,289.1,52.8,288.9,53.1z M295.5,58.6c-0.2,0-0.4,0-0.6,0
	c-1.6,0-3.6-0.6-3.8-2.3c-0.2-2.3,2.9-3.7,4.8-3.9c0.2,0,0.4,0,0.6,0l0,0c1.6,0,3.6,0.6,3.8,2.3C300.5,56.9,297.3,58.4,295.5,58.6z
	 M300.3,46.2l-0.5,3.9l-7.4,0.8l0.7-7.8c2.1-0.3,8.8-1.8,8.5-4.7c-0.1-0.7-0.6-0.8-1.2-0.8c-0.2,0-0.4,0-0.6,0
	c-2.4,0.2-6.4,1.9-8.8,3c0,0,0,0,0-0.1c0.2-1.3,0.6-4,0.6-4.1c0.2-1.4-0.6-2.7-1.8-3.2c3.8-1.7,7.8-2.8,11.8-3.4
	c0.6-0.1,1.2-0.1,1.9-0.1l0,0c3.4,0,6.7,1.2,7.2,5.3C311.3,40.6,304.5,44.3,300.3,46.2z"/>
<path id="パス_3106-2" class="st1" d="M46.4,3L33.1,48.8l-13.2,2.9l-1.2-15.6l-3.8,11.6L3.1,50.6L3,13.6l11.9-2.2l-0.4,18.2
	l4.8-11.6l4.5-1L25.6,31l6.8-24.9L46.4,3z"/>
<path id="パス_3107-2" class="st1" d="M59.4,42l-8.4,1.1c0,0,3.3-11.5,3-14.4c-0.1-0.5-0.2-1-0.8-0.9c-1.7,0.2-2.5,2.3-3,3.7
	c-0.8,2.8-1.9,8.6-1.9,8.6l-7.9,1.3l5-25.1l8.2-1.8l-2.2,9.1c1.8-0.9,3.8-1.5,5.8-1.7c3-0.3,4.8,0.6,5.2,3.8
	C63,30.1,59.4,42,59.4,42z"/>
<path id="パス_3108-2" class="st1" d="M80.5,38.6l-7.9,2.8c0.3-0.9,0.6-1.9,0.9-2.9c-1.2,0.7-2.6,1.1-4,1.2
	c-2.9,0.3-6-0.6-6.3-3.9c-0.7-6.2,4.7-10.7,10.5-11.3c0.7-0.1,1.5-0.1,2.2,0c0-0.4,0.1-0.7,0-1.1c-0.1-1.2-1.9-1.1-2.7-1.1
	c-2.1,0.3-4.1,1-6,2l2.2-6.2c1.4-0.7,2.9-1.1,4.5-1.2c5-0.5,9.1,1.1,9.7,6.7C83.7,25.3,81.1,36,80.5,38.6z M74.6,28.9
	c-2,0.3-3.4,2-3.2,4c0.1,1.2,1.3,1.4,2.2,1.3c0.2,0,0.5-0.1,0.7-0.1c0.5-1.7,0.8-3.4,1.3-5.1C75.3,28.9,75,28.9,74.6,28.9L74.6,28.9
	z"/>
<path id="パス_3109-2" class="st1" d="M104.3,16.1l-1.2,5.8l-5.6,1.2c0,0-1.6,6.2-1.5,7.7c0.1,1.2,1.5,1.3,2.4,1.2
	c0.9-0.1,1.9-0.3,2.8-0.6l-1.7,6.3c-1.8,0.7-3.7,1.1-5.6,1.4c-3.2,0.3-6.2-0.4-6.6-4.1c-0.3-2.4,1.8-10,1.8-10l-4.4,1.1l1.4-6.9
	l4.6-0.9l1.5-5.6l8.7-2.3L99.1,17L104.3,16.1z"/>
<path id="パス_3110-2" class="st1" d="M122.6,14.8l-3.5,19l-8.3,1.5l4.6-19.1L122.6,14.8z M119.4,14.1c-1.6,0.2-4.2-0.3-4.4-2.2
	c-0.2-2.3,2.9-3.7,4.7-3.9c1.6-0.2,4.1,0.3,4.4,2.2C124.4,12.5,121.2,13.9,119.4,14.1L119.4,14.1z"/>
<path id="パス_3111-2" class="st1" d="M137.7,17.4c-0.7-0.7-1.8-1.1-2.8-1c-0.7,0.1-3.2,0.8-3.1,1.7c0.1,0.8,5.1,1.9,6,2.2
	c1.8,0.4,3.1,1.8,3.4,3.6c0,0.2,0,0.4,0,0.6c-0.5,6.1-6.7,9.2-12.2,9.8c-3.1,0.3-6.7-1-6.7-4.5v-0.3c1.5-1.5,3.6-2.5,5.2-3.9
	c1.2,1.9,1.9,2.5,4.3,2.2c0.9-0.1,3-1.1,2.8-2.2c-0.2-2-9.4-1.1-10.3-4.2c-0.1-0.2-0.1-0.4-0.1-0.7c-0.4-3.8,4.2-7.4,7.2-8.9
	c1.4-0.7,2.9-1.2,4.4-1.3c2.6-0.3,6.3,0.3,7.2,3.2L137.7,17.4z"/>
<path id="パス_3112-2" class="st1" d="M65.4,47.3l-7.8,40l-13.5,2.6l2.4-12.1l-4.4,0.9l-3,14.6l-12.8,2.3l8.9-39.5l11-2.6L44,65.3
	l4.7-0.8l3.3-14L65.4,47.3z"/>
<path id="パス_3113-2" class="st1" d="M79.1,80.2L71.2,83c0.3-0.9,0.6-1.9,0.9-2.9c-1.2,0.7-2.6,1.1-4,1.2c-2.9,0.3-6-0.6-6.3-3.9
	c-0.7-6.2,4.7-10.7,10.5-11.3c0.7-0.1,1.5-0.1,2.2,0c0-0.4,0.1-0.7,0-1.1c-0.1-1.2-1.9-1.1-2.7-1.1c-2.1,0.3-4.1,1-6,2l2.2-6.2
	c1.4-0.7,2.9-1.1,4.5-1.2c5-0.5,9.1,1.1,9.7,6.7C82.3,66.9,79.7,77.6,79.1,80.2z M73.2,70.5c-2,0.3-3.4,2-3.2,4
	c0.1,1.2,1.3,1.4,2.2,1.3c0.2,0,0.5-0.1,0.7-0.1c0.5-1.7,0.8-3.4,1.3-5.1C73.9,70.5,73.6,70.5,73.2,70.5z"/>
<path id="パス_3114-2" class="st1" d="M102.9,57.7l-1.2,5.8l-5.6,1.2c0,0-1.6,6.2-1.5,7.7c0.1,1.2,1.5,1.3,2.4,1.2
	c0.9-0.1,1.9-0.3,2.8-0.6l-1.7,6.3c-1.8,0.7-3.7,1.1-5.6,1.4c-3.2,0.3-6.2-0.4-6.6-4.1c-0.3-2.4,1.8-10,1.8-10l-4.4,1.1l1.4-6.9
	l4.6-0.9l1.5-5.6l8.7-2.3l-1.8,6.7L102.9,57.7z"/>
<path id="パス_3115-2" class="st1" d="M117.1,61c-0.7-0.7-1.8-1.1-2.8-1c-0.7,0.1-3.2,0.8-3.1,1.7c0.1,0.8,5.1,1.9,6,2.2
	c1.8,0.4,3.1,1.8,3.4,3.6c0,0.2,0,0.4,0,0.6c-0.5,6.1-6.7,9.2-12.2,9.8c-3.1,0.3-6.7-1-6.7-4.5v-0.3c1.5-1.5,3.6-2.5,5.2-3.9
	c1.2,1.9,1.9,2.5,4.3,2.2c0.9-0.1,3-1.1,2.8-2.2c-0.2-2-9.4-1.1-10.3-4.2c-0.1-0.2-0.1-0.4-0.1-0.7c-0.4-3.8,4.2-7.4,7.2-8.9
	c1.4-0.7,2.9-1.2,4.4-1.3c2.6-0.3,6.3,0.3,7.2,3.2L117.1,61z"/>
<path id="パス_3116-2" class="st1" d="M144.4,51.4c0,0-0.4,2.7-0.6,4c-0.5,2.8-1.1,5.6-1.5,8.4c-0.4,3.2-1.1,6.4-1.9,9.5
	c-1.5,0.7-6.5,2.4-8.1,2.3l-0.2,0l0.6-3.5c-1.8,0.9-3.8,1.4-5.8,1.7c-2.7,0.3-4.9-0.3-5.2-3.3c-0.4-3.7,3.1-14.7,3.1-14.7l7.8-1
	c0,0-2.5,8.3-2.3,10.7c0.1,0.6,0.2,1.1,0.9,1c1.7-0.2,2.8-2.4,3.2-3.9c1-3.4,2.4-10.3,2.4-10.3L144.4,51.4z"/>
<path id="パス_3117-2" class="st1" d="M162.3,71.9c-2.7,0.8-5.5,1.4-8.3,1.8c0.9-3.2,3.1-11.8,2.8-14.7c0-0.3-0.1-1-0.6-0.9
	c-1.8,0.2-2.6,2.6-2.9,4.1c-0.7,2.7-1.3,5.5-1.8,8.2l-7.6,1.9c0.5-3.2,1-6.4,1.5-9.5c0.6-3.5,1.4-6.9,2.4-10.3
	c2.4-1.1,5-1.9,7.6-2.5l-0.4,2.5c2.1-1.2,4.4-2,6.8-2.3c2.6-0.3,3.7,1.3,3.9,3.7C166.1,58.5,163.4,67.1,162.3,71.9z"/>
<path id="パス_3118-2" class="st1" d="M186.2,59.4l-12.6,2.1c-0.3,0.6-0.3,1.2-0.2,1.8c0.1,1,0.6,1.9,1.8,1.8
	c1.4-0.1,1.9-1.3,2.4-2.4l8.1,0c-1.4,4.9-5.8,8.5-10.9,8.8c-5.3,0.6-7.4-3.1-7.9-7.8c-0.7-7,4.7-15.4,12-16.2c4.9-0.5,7.4,2.3,7.9,7
	C187,56.2,186.8,57.9,186.2,59.4z M178.8,53.5c-1.7,0.1-3.1,1.3-3.5,3c0.5,0,1,0,1.5-0.1c1.2-0.1,2.3-0.3,3.5-0.5
	c0.1-0.3,0.2-0.7,0.1-1.1c0-0.8-0.6-1.4-1.4-1.4c0,0,0,0,0,0C179,53.5,178.9,53.5,178.8,53.5L178.8,53.5z"/>
<path id="パス_3119-2" class="st1" d="M238,29.5l-7.1,44.5l-14.4,2.5l3.8-21.1l-6.1,11.4l-2.7,0.4l-2.4-10.6L206.8,71l-12.5,2.1
	l7.2-34.6l11.3-2.8l2.2,16.2l8.9-19.5L238,29.5z"/>
<path id="パス_3120-2" class="st1" d="M246.7,43.1l-3.5,19l-8.3,1.5l4.6-19.1L246.7,43.1z M243.5,42.5c-1.6,0.2-4.2-0.3-4.4-2.2
	c-0.2-2.3,2.9-3.7,4.7-3.9c1.6-0.2,4.2,0.3,4.4,2.2C248.4,40.9,245.3,42.3,243.5,42.5L243.5,42.5z"/>
<path id="パス_3121-2" class="st1" d="M267.9,40.9l-6.2,10.7l2.8,11.3l-8,1.5l-2-7.2l-0.7,4l-8.3,1.7l4.9-25.8l7.7-1.3l-2.3,12.6
	L260,42L267.9,40.9z"/>
<path id="パス_3122-2" class="st1" d="M288.7,36.2c0,0-0.4,2.7-0.6,4c-0.5,2.8-1.1,5.6-1.5,8.4c-0.4,3.2-1.1,6.4-1.9,9.5
	c-1.5,0.7-6.5,2.4-8.1,2.3l-0.2,0l0.6-3.5c-1.8,0.9-3.8,1.4-5.8,1.7c-2.7,0.3-4.9-0.3-5.2-3.3c-0.4-3.7,3.1-14.7,3.1-14.7l7.8-1
	c0,0-2.5,8.3-2.3,10.7c0.1,0.6,0.2,1.1,0.9,1c1.7-0.2,2.8-2.4,3.2-3.9c1-3.4,2.4-10.3,2.4-10.3L288.7,36.2z"/>
<path id="パス_3123-2" class="st1" d="M300.3,46.2l-0.5,3.9l-7.4,0.8l0.7-7.8c2.1-0.3,8.8-1.8,8.5-4.7c-0.1-0.9-1.1-0.8-1.8-0.8
	c-2.5,0.3-6.8,2.1-9.1,3.2l-2.7-6.6c4.3-2.1,8.9-3.6,13.6-4.2c4-0.4,8.5,0.3,9,5.2C311.3,40.6,304.5,44.3,300.3,46.2z M295.5,58.6
	c-1.6,0.2-4.2-0.3-4.4-2.3c-0.2-2.3,2.9-3.7,4.8-3.9c1.6-0.2,4.2,0.3,4.4,2.3C300.5,56.9,297.3,58.4,295.5,58.6L295.5,58.6z"/>
</svg>