<svg version="1.1" xmlns="http://www.w3.org/2000/svg" xmlns:xlink="http://www.w3.org/1999/xlink" x="0px" y="0px" viewBox="0 0 817 127" style="enable-background:new 0 0 817 127;" xml:space="preserve" width="817" height="127">
<style type="text/css">
	.st0{fill:#263E41;}
	.st1{fill:#006775;}
</style>
<path class="st0" d="M139.2,82.3L139.2,82.3c-3.6,0.4-6.3,3.5-6.2,7.2c0.1,1.9,1.7,2.5,3.3,2.5c0.3,0,0.5,0,0.8,0
	c0.4,0,0.9-0.1,1.3-0.2c1-3.1,1.7-6.3,2.7-9.4c-0.4-0.1-0.8-0.1-1.2-0.1C139.6,82.3,139.4,82.3,139.2,82.3z"/>
<path class="st0" d="M196.2,55.2c-0.7-0.2-1.4-0.2-2.1-0.1l-1,0.1l1.3-4.1c0.9-2.9-0.7-6-3.7-6.9c-0.5-0.1-1-0.2-1.4-0.2
	c-0.5,0-1,0-1.4,0.1l-16.2,3.7c-2,0.4-3.5,1.9-4.1,3.8l-2.1,6.9l-5.1,0.8c-1.2,0.2-2.3,0.8-3.2,1.6c-3.4-4.1-8.6-6.4-15.3-6.6
	c-1.3,0-2.5,0-3.8,0.1c-3.5,0.2-6.9,1.1-10.2,2.5c-1.4,0.6-2.4,1.7-2.9,3.1l-3.8,9.8c-2-4.2-5.9-6.6-11.3-6.7c-0.8,0-1.7,0-2.5,0.1
	c-0.8,0.1-1.6,0.2-2.4,0.3l2-7.3c0.8-2.9-0.9-6-3.8-6.8c-0.4-0.1-0.9-0.2-1.3-0.2s-0.8,0-1.2,0.1l-12.3,2.2l5.6-17.1
	c1-2.9-0.6-6-3.5-7c-0.5-0.2-1-0.3-1.5-0.3c-0.4,0-0.8,0-1.2,0.1l-26.1,4.9c-2,0.4-3.7,1.8-4.3,3.8l-6,19.4c-0.9-2.5-3.5-4-6.1-3.5
	l-8.4,1.5c-0.6,0.1-1.1,0.3-1.6,0.5l0.4-7.2c0.2-3.1-2.2-5.7-5.2-5.8h-0.1c-0.3,0-0.7,0-1,0.1L6.9,44c-2.7,0.4-4.7,2.6-4.7,5.3
	L0,117.7c-0.1,3.1,2.3,5.6,5.4,5.7c0.4,0,0.9,0,1.3-0.1l21.9-4.6c0.8-0.2,1.6-0.5,2.2-1l0.2,3.6c0.1,3.1,2.7,5.4,5.8,5.3
	c0.3,0,0.5,0,0.8-0.1l24.6-4.6c2-0.4,3.6-1.8,4.3-3.7l4-12.3c0.7,1.4,2,2.5,3.7,2.9c0.7,0.2,1.3,0.2,2,0.1l13-1.7
	c0.1,2.9,2.4,5.3,5.4,5.4c0.2,0,0.5,0,0.7,0l15.5-1.5c2.2-0.2,4-1.7,4.7-3.7c0.2-0.7,0.6-1.9,1.1-3.4c2.5,2.2,6,3.4,10.3,3.6
	c0.9,0,1.7,0,2.6,0h0.1c1.1,2.6,4,3.9,6.7,3.1l14.9-4.6c1.8-0.6,3.2-2,3.7-3.9l0.2-0.8c0.7-2.5,1.3-4.7,1.8-6.8
	c0.6,7.9,6.1,12.9,14.8,13.2c1,0,2,0,3-0.1h0.1c4-0.4,7.8-1.2,11.6-2.4c1.7-0.6,3-1.9,3.6-3.7l3.5-11.5c0.9-2.9-0.8-6-3.7-6.9
	c-1.1-0.3-2.2-0.3-3.2,0c-0.6,0.2-1.2,0.3-1.8,0.5c0.4-1.6,0.9-3.6,1.5-5.6l7-1.2c2.2-0.4,3.9-2,4.4-4.1l2.7-10.7
	C201,58.9,199.2,55.9,196.2,55.2z M61.2,116.5l-24.6,4.6l-1.3-28.9l-7.8,21.2L5.5,118l2.1-68.5l22.1-3.2l-1.8,33.7l9.6-21.2l8.4-1.5
	l2.4,25.8l14.1-45.6l26.1-4.9L61.2,116.5z M110.2,105.7l-15.5,1.5c0,0,6.9-21.1,6.5-26.3c-0.1-0.9-0.2-1.7-1.2-1.7
	c-0.1,0-0.1,0-0.2,0c-3.2,0.2-4.8,4.1-5.7,6.7C92.4,91,90,101.7,90,101.7l-14.6,1.7l10.9-46.1l15.2-2.8l-4.7,16.8
	c3.4-1.5,7.1-2.4,10.8-2.8c0.6,0,1.3-0.1,1.9,0c4.4,0.2,7,2.2,7.3,7.4c0.1,0.9,0,1.9-0.1,3c-3.5,4.4-5.3,10.1-4.9,15.9
	c0.1,1.1,0.3,2.2,0.6,3.1C111.3,102.4,110.2,105.7,110.2,105.7z M149.4,100.7l-14.9,4.6c0.6-1.7,1.2-3.5,1.9-5.2
	c-2.3,1.1-4.8,1.8-7.4,2c-0.7,0-1.3,0.1-2,0c-3.6-0.1-6.9-1.4-8.5-4.3c1.5-5.1,3.1-11.3,3.8-16.4c3.8-4.1,9.6-6.7,15.4-7.1
	c0.8-0.1,1.5-0.1,2.3,0c0.6,0,1.2,0.1,1.7,0.1c0-0.7,0.1-1.4,0.1-2.1c-0.1-1.7-2.1-2.1-3.7-2.2c-0.4,0-0.8,0-1.3,0
	c-3.9,0.5-7.6,1.6-11.2,3.3L130,62c2.6-1.2,5.4-1.8,8.3-2c1.1-0.1,2.1-0.1,3.2-0.1l0,0c6.1,0.2,11,2.5,13.1,7.9l-2,8.4
	c-0.5,2,0.2,4,1.6,5.3C152.7,88.6,150.2,97.7,149.4,100.7z M192.2,71.3l-10.4,1.8c0,0-3.4,11.4-3.2,14c0.1,1.8,1.7,2.3,3.2,2.3
	c0.4,0,0.8,0,1.2,0c1.7-0.1,3.5-0.5,5.2-1l-3.5,11.5c-3.4,1.1-6.8,1.8-10.4,2.2c-0.8,0.1-1.6,0.1-2.4,0c-4.9-0.2-9.1-2.2-9.5-8.1
	c-0.3-4.5,4.1-18.3,4.1-18.3l-5.4,1.1c0.4-2.5,0.5-3.6,0.4-4.3c-0.1-1.8-0.4-3.5-0.9-5.1l0.6-2.7l8.6-1.3l3.1-10.3l16.2-3.7
	l-3.8,12.3l9.6-1.3L192.2,71.3z"/>
<path class="st0" d="M256,46.8L256,46.8c-0.9,0-1.9,0-2.8,0.1c-3.5,0.2-7,1.1-10.2,2.7c-1,0.5-3.1,1.5-5.6,3.2
	c0.1-0.7,0.1-1.4,0.1-2.1c-0.4-5.5-5.3-9.4-12.1-9.6c-0.6,0-1.1,0-1.7,0c-6.2,0.4-14.7,4.7-14.1,12.8c0.1,1.5,0.6,2.9,1.3,4.2
	c-0.4,0.5-0.7,1.2-0.9,1.8l-9.7,35c-0.8,3,0.9,6,3.9,6.8c0.7,0.2,1.5,0.3,2.3,0.1l15.5-2.2c1.7-0.2,3.1-1.2,4-2.6
	c2.8,2.6,6.8,4.2,11.6,4.4c0.8,0,1.5,0,2.3,0c12.9-0.9,26.7-8.1,28.2-22.2c0.1-0.7,0.1-1.4,0.1-2c0-0.1,0-0.2,0-0.3
	c-0.4-3.6-2.2-7-5.1-9.2l6.7-4.2c2.1-1.3,3.1-3.9,2.4-6.2C270.3,51,264.3,47.1,256,46.8z M224,46.6c0.4,0,0.7,0,1.1,0l0,0
	c2.9,0.1,6.6,1.3,6.8,4.4c0.3,4.3-5.6,6.6-9,6.9c-0.4,0-0.7,0-1.1,0c-2.9-0.1-6.6-1.3-6.8-4.4C214.7,49.2,220.6,46.9,224,46.6z
	 M221.1,94.2l-15.5,2.2l9.7-35l13.5-2.1l-0.6,2.5c-1.6,2.7-2.6,5.7-2.3,9.2v0.1c0,0.3,0.1,0.5,0.1,0.8l-2.3,10.5c0,0,0,0-0.1,0.1
	c-1.1,1-1.8,2.5-1.8,4v0.6c0,1,0.1,2,0.2,3L221.1,94.2z M256.5,65.2c-1.2-1.3-2.8-2-4.5-2.1c-0.2,0-0.4,0-0.6,0
	c-1.3,0.1-5.9,1.3-5.8,3c0.1,1.5,9.3,3.9,10.9,4.4c3.3,0.8,5.7,3.6,6,6.9c0,0.4,0,0.8,0,1.2c-1.3,11.3-13,16.5-23.1,17.2
	c-0.6,0-1.2,0.1-1.7,0c-4.4-0.2-8.7-2-9.9-6l1-4.5c2.7-2,5.9-3.6,8.5-5.7c1.8,3,3,4.3,6.1,4.4c0.6,0,1.1,0,1.7,0
	c1.7-0.1,5.5-1.8,5.4-3.8c-0.3-3.7-17.1-2.7-18.7-8.4l1.7-7.9c2.8-4.2,8-7.7,11.9-9.5c2.6-1.2,5.4-1.9,8.2-2.1
	c0.7-0.1,1.5-0.1,2.2,0l0,0c4.5,0.2,9.6,1.8,10.9,6.4L256.5,65.2z"/>
<polygon class="st0" points="357.2,16.6 357.2,16.6 357.3,16.6 "/>
<path class="st0" d="M369.1,65.7c-3.6,0.3-6.4,3.4-6.3,7c0.1,1.9,1.6,2.5,3.2,2.6l0,0c0.3,0,0.5,0,0.8,0c0.4,0,0.9-0.1,1.3-0.1
	c1.1-3,1.8-6.3,2.9-9.3c-0.4-0.1-0.8-0.1-1.2-0.1C369.6,65.7,369.3,65.7,369.1,65.7z"/>
<path class="st0" d="M568.8,28L568.8,28c-0.9,0-1.8,0-2.7,0c-8,0.4-15,4.6-20.1,10.5c-2.3-6.5-8.1-7.4-10.2-7.5c-0.6,0-1.1,0-1.7,0
	c-0.1,0-0.1,0-0.2,0c-2.3,0.2-4.6,0.6-6.9,1.2c-0.1-0.1-0.2-0.2-0.3-0.3c-1-1.1-2.3-1.7-3.8-1.8l0,0c-0.4,0-0.8,0-1.2,0.1
	c-5.1,0.8-10.1,2.1-14.9,3.9c-0.8-1.1-2-1.9-3.5-2.2c-0.2,0-0.5-0.1-0.7-0.1l0,0c-0.2,0-0.4,0-0.7,0l-14.1,0.9
	c-2.4,0.2-4.4,1.8-5,4.2c0,0-0.1,0.2-0.2,0.6c-0.7-0.3-1.4-0.5-2.2-0.6c-0.2,0-0.5,0-0.7,0L465.2,38c-0.8,0.1-1.6,0.3-2.3,0.7
	c-2.9-2.7-7.1-4.3-12.2-4.6l0,0c-0.9,0-1.9,0-2.8,0c-3.6,0.2-7,1-10.3,2.5c-1.3,0.6-4.8,2.3-8.3,5c-0.7-1-1.7-1.7-3-2
	c-0.7-0.2-1.4-0.2-2.1-0.2l-1,0.1l1.3-4c1-2.9-0.6-6-3.5-7c-0.5-0.2-0.9-0.2-1.4-0.3l0,0c-0.5,0-1,0-1.4,0.1l-16.3,3.4
	c-2,0.4-3.5,1.8-4.2,3.7l-2.2,6.9l-5.1,0.7c-1.2,0.2-2.3,0.7-3.2,1.6c-3.3-4.1-8.5-6.5-15.2-6.9l0,0c-1.2-0.1-2.5-0.1-3.7,0
	c-3.5,0.2-7,0.9-10.2,2.3c0,0-0.1,0-0.1,0.1l4.1-16.5c0.7-3-1.1-6-4-6.7c-0.3-0.1-0.7-0.1-1.1-0.2c-0.4,0-0.9,0-1.3,0.1l-24.8,4.6
	c-2.1,0.4-3.7,1.9-4.3,3.9l-0.9,3.2c-0.1-0.2-0.2-0.3-0.4-0.4c-1.3-1.4-3.2-2-5-1.7l-20.6,3.7c-2.1,0.4-3.8,1.9-4.4,4l-20.3,72.3
	c-0.8,3,0.9,6,3.8,6.8c0.7,0.2,1.5,0.3,2.2,0.2l23.9-3c2.3-0.3,4.1-1.9,4.7-4.1l0.7-2.8c1.2,0.9,2.7,1.3,4.1,1.1l25.2-3.6
	c2.2-0.3,4-2,4.6-4.2l2.3-9.3c2.5,2,5.8,3.3,9.9,3.5c0.9,0,1.7,0,2.6,0h0.1c1.1,2.6,4,4,6.7,3.2l14.9-4.3c1.8-0.5,3.3-2,3.8-3.8
	l0.2-0.8c0.7-2.5,1.3-4.7,1.9-6.7c0.5,8,5.9,13,14.6,13.4c1,0,2,0,3,0h0.1c4-0.3,7.9-1,11.7-2.2c1.7-0.5,3.1-1.9,3.6-3.6l0.6-1.9
	c2.7,2.6,6.6,4.2,11.3,4.4c0.8,0,1.5,0,2.3,0c8.4-0.4,17.1-3.5,22.7-9.4c2.1,2.1,5.2,3.4,9,3.6c0.9,0,1.8,0,2.8,0
	c1.2-0.1,2.5-0.2,3.7-0.4c0.5,2.2,2.3,3.9,4.6,4.2h0.3c0.3,0,0.6,0.1,0.9,0.1c4.9,0.3,15-3,17.2-3.9c0.9-0.4,1.7-1,2.3-1.7
	c0.3,0.1,0.6,0.2,0.9,0.3c0.3,0.1,0.6,0.1,0.9,0.1c0.4,0,0.9,0,1.3-0.1l12-2.3c-0.3,3,1.9,5.8,5,6.1c0.3,0,0.7,0,1,0
	c5.5-0.5,10.9-1.4,16.3-2.6c1.9-0.5,3.5-1.9,4.1-3.8c0.4-1.2,0.8-2.6,1.2-4.1c3.7,6.8,9.9,8.4,14.2,8.6c0.8,0,1.6,0,2.5,0
	c11.8-0.4,22.1-7.9,26-19c-0.9-1.9-0.3-4.2,1.3-5.6c1.6-3.6,2.3-7.6,1.9-11.6C585.3,35.6,578.9,28.5,568.8,28z M420.1,67.6
	c-0.1-0.1-0.3-0.1-0.5-0.2c-1-0.3-2.2-0.4-3.2-0.1c-0.6,0.2-1.2,0.3-1.8,0.4c0.4-1.6,1-3.6,1.6-5.6l5.1-0.8c0.6,1.4,1.5,2.7,2.8,3.7
	C422.7,65.8,421.4,66.7,420.1,67.6z M338.7,95.2l-25.2,3.6l5.7-22.1L311,78l-6.9,26.6l-23.9,3l20.3-72.3l20.6-3.7l-5.5,21.5l8.7-0.9
	l7.4-25.5l25.1-4.7l-9.9,39.6c-3.7,4.4-5.6,10.1-5.3,15.9c0.1,1.1,0.2,2.2,0.5,3.2L338.7,95.2z M379,84.3l-14.9,4.3
	c0.7-1.7,1.3-3.5,2-5.2c-3,1.4-6.2,2-9.4,1.8c-3.7-0.2-7-1.5-8.5-4.7l4-16.1c3.9-4.2,9.7-6.7,15.7-7c0.8,0,1.6,0,2.3,0
	c0.6,0,1.2,0.1,1.7,0.2c0-0.7,0.2-1.4,0.1-2.1c-0.1-1.7-2.1-2.1-3.7-2.2c-0.4,0-0.8,0-1.3,0c-3.9,0.4-7.7,1.5-11.2,3.1l4.6-11.3
	c2.7-1.1,5.5-1.7,8.4-1.9c1.1-0.1,2.1-0.1,3.2,0l0,0c6.1,0.3,10.9,2.7,13,8.1l-2.1,8.4c-0.5,2,0.1,4,1.5,5.3
	C382.6,72.2,379.9,81.2,379,84.3z M414.3,84.1c-3.4,1.1-6.9,1.7-10.4,2c-0.8,0-1.6,0-2.4,0c-4.9-0.3-9-2.3-9.3-8.3
	c-0.2-4.5,4.4-18.3,4.4-18.3l-5.4,1c0.5-2.5,0.5-3.6,0.5-4.3c-0.1-1.8-0.4-3.5-0.8-5.1l0.7-2.6l8.6-1.1l3.3-10.2l16.3-3.4l0,0
	l-4,12.3l9.6-1.1l-0.3,1.1c-2.3,2.7-4.1,6.1-4.4,9.9l-8.6,1.4c0,0-3.6,11.3-3.5,14c0.1,1.8,1.6,2.3,3.2,2.4c0.4,0,0.8,0,1.2,0
	c1.1-0.1,2.2-0.2,3.3-0.5v0.6c-0.1,1.3,0.1,2.5,0.3,3.7L414.3,84.1z M433.6,82.9c-0.6,0-1.2,0-1.7,0c-4.1-0.2-8.1-1.9-9.5-5.4l1-3.1
	c0.3-0.8,0.3-1.6,0.2-2.4c2.6-1.8,5.7-3.3,8.2-5.3c1.7,3.1,3,4.4,6,4.5c0.6,0,1.1,0,1.7,0c1.7-0.1,5.6-1.7,5.5-3.7
	c-0.2-3.6-16-3-18.3-8.2c0.6-0.6,1-1.4,1.3-2.3l2.2-8.3c3-3.2,7.1-5.7,10.3-7.1c2.6-1.2,5.4-1.9,8.3-2c0.7,0,1.5,0,2.2,0l0,0
	c3.4,0.2,7.2,1.2,9.3,3.8c-0.4,1.2-1,2.8-1.6,4.7l-7.3,4.4c-1.1-1.3-2.7-2.1-4.5-2.2c-0.2,0-0.4,0-0.6,0c-1.3,0.1-5.9,1.2-5.8,2.9
	c0.1,1.5,9.2,4,10.9,4.6c1.4,0.4,2.7,1.2,3.7,2.2c-1,4.1-1.7,8-1.6,10.7c0.1,1.1,0.2,2.2,0.5,3.2C449.2,79.7,440.9,82.5,433.6,82.9z
	 M478.1,80.9c-0.1,0-0.2,0-0.4,0h-0.3l1.4-6.4c-3.4,1.4-7.1,2.3-10.8,2.5c-0.7,0-1.4,0-2.2,0c-2.5-0.1-4.6-0.8-5.9-2.6
	c1.3-2.3,2.1-4.8,2.5-7.7c0.1-0.7,0.1-1.4,0.1-2c0-0.1,0-0.2,0-0.3c-0.2-1.9-0.8-3.8-1.7-5.4c0.7-2.4,1.5-4.9,2.2-7.1l1.3-0.8
	c2.1-1.3,3.1-3.8,2.5-6.2c-0.1-0.4-0.3-0.8-0.4-1.3l13.9-1c0,0-5.5,15.1-5.2,19.5c0,1,0.3,1.9,1.3,1.9c0.1,0,0.2,0,0.2,0
	c3.2-0.2,5.3-4.2,6.3-6.9c2.2-6.1,5.5-18.8,5.5-18.8l14.1-0.9l0,0c0,0-0.9,4.9-1.5,7.3c0,0.1-0.1,0.2-0.1,0.4c-1.2,4-2.3,8-3.2,12.1
	c-0.8,4.1-1.7,8.2-2.6,12.2c-0.2,1.1-0.5,2.2-0.7,3.3c-0.5,1.6-1,3.3-1.5,4.9C490.2,78.5,481.4,81.1,478.1,80.9z M533.6,76.9
	c-5.1,1.2-10.3,2-15.5,2.5c2-5.9,6.9-21.5,6.6-26.9c0-0.5-0.1-1.7-0.9-1.8h-0.1c-3.4,0.2-5,4.6-5.8,7.3c-1.6,4.9-2.9,10-4.1,14.9
	l-14.3,2.8c0.1-0.6,0.3-1.2,0.4-1.8c1.2-4.2,2.2-8.5,3.1-12.8c0.6-2.9,1.3-5.8,2-8.9c0.5-1.9,0.9-3.9,1.4-5.9
	c0.7-2.3,1.4-4.6,2.2-6.9c4.6-1.7,9.4-3,14.2-3.8l0,0l-1.1,4.5c4-2,8.3-3.3,12.7-3.7c0.4,0,0.7,0,1.1,0c4,0.2,5.6,3,5.8,7.2
	c0,0.5,0,1,0,1.5c-3,5.5-4.6,11.7-4.3,17.4c0,0.7,0.1,1.4,0.2,2.1C536,69.2,534.5,73.5,533.6,76.9z M579,56.2l-23.5,2.7
	c-0.5,1-0.7,2.2-0.6,3.4c0.1,1.8,0.9,3.3,2.8,3.4c0.1,0,0.3,0,0.4,0c2.6-0.1,3.5-2.2,4.6-4.2l14.9,0.7c-3.1,9-11.5,15.1-21,15.3
	c-0.7,0-1.3,0-2,0C547.2,77.1,544,72,543,65.1c1.9-6.3,3.6-13,3.9-18.5c4.3-7.2,11.4-12.7,19.5-13.1c0.7,0,1.4,0,2.1,0l0,0
	c7.8,0.4,11.5,5.7,11.9,13.7C580.7,50.3,580.2,53.4,579,56.2z"/>
<path class="st0" d="M566.3,44.5L566.3,44.5c-0.2,0-0.3,0-0.4,0l0,0c-3.1,0.1-5.8,2.1-6.8,5.1c0.3,0,0.6,0.1,0.8,0.1
	c0.7,0,1.3,0,2,0c2.2-0.1,4.3-0.4,6.5-0.5c0.2-0.6,0.3-1.3,0.3-1.9C568.9,45.8,567.8,44.6,566.3,44.5z"/>
<path class="st0" d="M816.9,23.2c-0.5-9.4-7-15.1-17.9-15.7l0,0c-1.3-0.1-2.7-0.1-4,0c-0.1,0-0.1,0-0.2,0
	c-9.4,0.8-18.6,3.2-27.3,6.9c-1.6,0.7-2.7,2-3.1,3.6l-8.2,0.5c-2.4,0.2-4.4,1.8-5,4.2c0,0-0.1,0.2-0.2,0.6c-0.7-0.3-1.4-0.5-2.2-0.6
	c-0.2,0-0.5,0-0.7,0l-14.4,1.2c-0.7,0-1.3,0.2-1.9,0.5c-0.2,0-0.3,0-0.5,0l-12.9,1.2l1.2-4.9c0.7-3-1.1-6-4.1-6.7
	c-0.3-0.1-0.7-0.1-1-0.1l0,0c-0.3,0-0.6,0-0.9,0l-14.3,1.6c-0.8,0.1-1.5,0.4-2.2,0.8c-2.1-1.5-4.8-2.5-8-2.6l0,0c-0.6,0-1.1,0-1.7,0
	c-2.1,0.1-4.2,0.6-6.1,1.4l1.7-8c0.6-3-1.3-5.9-4.3-6.6c-0.3-0.1-0.6-0.1-0.9-0.1l0,0c-0.4,0-0.7,0-1.1,0.1l-26.1,3.9
	c-1.8,0.3-3.3,1.3-4.1,2.9l-9.5,18.1l-0.9-11c-0.3-3.1-2.9-5.3-6-5.1c-0.2,0-0.4,0-0.6,0.1l-21.1,4c-2.1,0.4-3.8,2-4.3,4l-16.7,63.4
	c-0.8,3,1,6,4,6.8c0.7,0.2,1.3,0.2,2,0.1l23.2-2.6c2.4-0.3,4.3-2,4.8-4.3l0.6-2.9c1.1,0.7,2.3,1,3.6,0.8l5-0.6l-2.7,11.4
	c-0.7,3,1.2,6,4.1,6.7c0.3,0.1,0.6,0.1,1,0.1c0.3,0,0.6,0,1,0l26.9-3.3c2.4-0.3,4.3-2,4.8-4.4l3.1-14.5c0.1,0,0.3,0,0.4,0l15.3-1.9
	c0.7,0.7,1.6,1.2,2.6,1.4c0.7,0.2,1.4,0.2,2.2,0.1l13.6-2.1l0.4,1.7c0.6,2.4,2.6,4.2,5.1,4.3c0.3,0,0.7,0,1,0l14.9-2
	c3-0.4,5.2-3.2,4.7-6.2c0-0.1,0-0.2,0-0.3l-0.3-1.8c1.5,0.6,3.3,1,5.2,1.1c0.9,0,1.8,0,2.8,0c1.2-0.1,2.5-0.2,3.7-0.4
	c0.5,2.2,2.3,3.9,4.6,4.2h0.3c0.3,0,0.6,0.1,0.9,0.1c4.9,0.3,15-3,17.2-3.9c1.5-0.6,2.7-1.9,3.2-3.4c0.4-1.3,0.8-2.6,1.2-3.9
	c0.5,5.4,5.2,9.2,12,9.5c0.6,0,1.1,0,1.7,0c3.7-0.2,8.8-1.9,11.8-5.2c1.9-2,2.8-4.7,2.7-7.4c-0.1-1.7-0.6-3.3-1.5-4.7
	c0.5-0.7,0.9-1.5,1.1-2.4l0.8-4.3C810.4,40.6,817.4,32.6,816.9,23.2z M687.7,19.2c0.4,0,0.7,0,1.1,0l0,0c1.8,0.1,4,0.6,5.4,1.9
	l-1.9,7.6c-1.9,1.1-4.2,1.7-5.9,1.8c-0.4,0-0.7,0-1.1,0c-2.6-0.1-5.7-1.1-6.5-3.6l0.9-4C681.4,20.5,685.2,19.3,687.7,19.2z
	 M660.2,87.5l-26.9,3.3l9-38.6l-12.3,20.4l-5,0.6l-3.4-19.9l-5.7,26.3l-23.2,2.6l16.7-63.4l21.1-4l2.5,30l18.4-35.1l26.3-3.9l0,0
	l-3.1,14.7c-1,1.7-1.5,3.6-1.4,5.5c0,0.2,0,0.4,0.1,0.6l-4.8,22.7L663.3,67c-0.4,1.5-0.2,3.1,0.5,4.3L660.2,87.5z M673.7,50.8l5-17
	l12.8-1.7L683,66.9l-13,1.6L673.7,50.8z M708.5,72.1l-3.1-13.5l-1.6,7.2L689.3,68v-0.1l8.3-34.7c0.1-0.6,0.2-1.2,0.1-1.8
	c2.2-2,3.4-4.9,3.3-7.9c0-0.9-0.2-1.7-0.5-2.5l13.6-1.5l0,0l-5.5,23l8.3-11.1l10.8-1c-1,2.8-2.5,7.1-3.8,11.5l-4.7,7.2l4,21.1
	L708.5,72.1z M765.6,45.9c-1.1,5.9-2.6,11.7-4.5,17.4c-2.8,1.1-11.5,3.7-14.8,3.5c-0.1,0-0.2,0-0.4,0h-0.3l1.4-6.4
	c-3.4,1.4-7.1,2.3-10.8,2.5c-0.7,0-1.4,0-2.2,0c-4-0.2-6.9-1.8-7.1-6.6c-0.1-2.7,0.9-7.5,2.3-12.2l7.2-11.1c0.7-1.2,1-2.5,0.8-3.7
	l11.2-0.8c0,0-5.5,15.1-5.2,19.5c0,1,0.3,1.9,1.3,1.9c0.1,0,0.1,0,0.2,0c3.2-0.2,5.3-4.2,6.3-6.9c2.2-6.1,5.5-18.8,5.5-18.8l8.6-0.6
	l3.3,9.8C767.5,37.5,766.4,41.7,765.6,45.9z M769.4,54.5c0.6-2.3,1.1-4.5,1.5-6.8l-0.3,2.2c-0.1,1,0,2,0.3,2.9
	C770.3,53.3,769.8,53.9,769.4,54.5z M781,65.2c-0.4,0-0.8,0-1.1,0c-2.9-0.2-6.6-1.4-6.8-4.6c-0.2-4.3,5.7-6.6,9.2-6.8
	c0.4,0,0.8,0,1.1,0l0,0c2.9,0.2,6.6,1.4,6.8,4.6C790.4,62.7,784.4,65,781,65.2z M791.2,42.8l-1.4,7.2L776,50.7l2.1-14.3
	c3.9-0.3,16.5-2.5,16.2-7.8c-0.1-1.2-1.1-1.5-2.1-1.6c-0.4,0-0.7,0-1.1,0c-4.4,0.2-12,2.9-16.6,4.7v-0.1c0.6-2.4,1.5-7.3,1.5-7.5
	c0.5-2.5-0.8-5-3.1-6c7.1-2.7,14.6-4.5,22.2-5.1c1.2-0.1,2.3-0.1,3.5,0c6.4,0.3,12.3,2.8,12.7,10.4C811.9,33.6,799,39.7,791.2,42.8z
	"/>
<path id="パス_3106-2" class="st1" d="M88.6,32.7l-27.4,83.9l-24.6,4.6l-1.3-28.9l-7.8,21.2L5.5,118l2.1-68.5l22.1-3.2l-1.8,33.7
	l9.6-21.2l8.4-1.5l2.4,25.8l14.1-45.6L88.6,32.7z"/>
<path id="パス_3107-2" class="st1" d="M110.2,105.7l-15.5,1.5c0,0,6.9-21.1,6.5-26.3c-0.1-1-0.2-1.8-1.4-1.7
	c-3.2,0.2-4.8,4.1-5.7,6.7C92.4,91,90,101.7,90,101.7l-14.6,1.7l10.9-46.1l15.2-2.8l-4.7,16.8c3.4-1.5,7.1-2.4,10.8-2.8
	c5.6-0.4,8.9,1.4,9.3,7.3C117.6,83.9,110.2,105.7,110.2,105.7z"/>
<path id="パス_3108-2" class="st1" d="M149.4,100.7l-14.9,4.6c0.6-1.7,1.2-3.5,1.9-5.2c-2.3,1.1-4.8,1.8-7.4,2
	c-5.4,0.4-11-1.4-11.4-7.6c-0.8-11.5,9.4-19.4,20.1-20.2c1.3-0.1,2.7-0.1,4.1,0.1c0-0.7,0.1-1.4,0.1-2.1c-0.2-2.2-3.5-2.2-5-2.1
	c-3.9,0.5-7.6,1.6-11.2,3.3l4.4-11.4c2.6-1.2,5.4-1.8,8.3-2c9.3-0.7,16.7,2.6,17.4,13C156.1,76.2,150.7,96,149.4,100.7z M139.2,82.3
	c-3.6,0.4-6.3,3.5-6.2,7.2c0.2,2.2,2.2,2.6,4,2.5c0.4,0,0.9-0.1,1.3-0.2c1-3.1,1.7-6.3,2.7-9.4C140.4,82.4,139.8,82.3,139.2,82.3
	L139.2,82.3z"/>
<path id="パス_3109-2" class="st1" d="M194.9,60.6l-2.7,10.7l-10.4,1.8c0,0-3.4,11.4-3.2,14c0.2,2.3,2.6,2.4,4.4,2.3
	c1.7-0.1,3.5-0.5,5.2-1l-3.5,11.5c-3.4,1.1-6.8,1.8-10.4,2.2c-5.9,0.4-11.4-1.2-11.9-8.1c-0.3-4.5,4.1-18.3,4.1-18.3l-8.3,1.7
	l3-12.7l8.6-1.3l3.1-10.3l16.2-3.7l-3.8,12.3L194.9,60.6z"/>
<path id="パス_3110-2" class="st1" d="M228.8,59.3l-7.7,34.9l-15.5,2.2l9.7-35L228.8,59.3z M222.9,57.9c-2.9,0.2-7.6-0.8-7.9-4.4
	c-0.3-4.3,5.6-6.6,9-6.9c2.9-0.2,7.6,0.8,7.9,4.4C232.2,55.3,226.3,57.7,222.9,57.9L222.9,57.9z"/>
<path id="パス_3111-2" class="st1" d="M256.5,65.2c-1.3-1.4-3.2-2.2-5.1-2.1c-1.3,0.1-5.9,1.3-5.8,3c0.1,1.5,9.3,3.9,10.9,4.4
	c3.3,0.8,5.7,3.6,6,6.9c0,0.4,0,0.8,0,1.2c-1.3,11.3-13,16.5-23.1,17.2c-5.8,0.4-12.2-2.3-12.1-8.7v-0.6c2.9-2.6,6.8-4.3,9.8-6.9
	c2.1,3.5,3.4,4.7,7.8,4.4c1.7-0.1,5.5-1.8,5.4-3.8c-0.3-3.7-17.3-2.6-18.7-8.5c-0.1-0.4-0.2-0.8-0.2-1.2c-0.5-7.1,8.1-13.3,13.9-16
	c2.6-1.2,5.4-2,8.2-2.1c4.9-0.3,11.6,0.9,13.1,6.4L256.5,65.2z"/>
<path id="パス_3112-2" class="st1" d="M357,22.2l-18.2,73.1l-25.2,3.6l5.7-22.1l-8.2,1.3l-6.9,26.6l-23.9,3l20.3-72.3l20.6-3.7
	l-5.5,21.5l8.7-0.9l7.4-25.5L357,22.2z"/>
<path id="パス_3113-2" class="st1" d="M379,84.3l-14.9,4.3c0.7-1.7,1.3-3.5,2-5.2c-2.3,1.1-4.9,1.7-7.4,1.8
	c-5.5,0.3-11-1.6-11.3-7.9c-0.6-11.5,9.7-19.3,20.5-19.8c1.4-0.1,2.7,0,4,0.2c0-0.7,0.2-1.4,0.1-2.1c-0.1-2.2-3.4-2.3-5-2.2
	c-3.9,0.4-7.7,1.5-11.2,3.1l4.6-11.3c2.7-1.1,5.5-1.7,8.4-1.9c9.3-0.5,16.6,2.9,17.2,13.3C386.1,59.9,380.4,79.5,379,84.3z
	 M369.1,65.7c-3.6,0.3-6.4,3.4-6.3,7c0.1,2.2,2.2,2.7,4,2.6c0.4,0,0.9-0.1,1.3-0.1c1.1-3,1.8-6.3,2.9-9.3
	C370.4,65.7,369.7,65.7,369.1,65.7L369.1,65.7z"/>
<path id="パス_3114-2" class="st1" d="M425.2,44.9l-2.8,10.7L412,57.3c0,0-3.6,11.3-3.5,14c0.1,2.3,2.6,2.5,4.4,2.4
	c1.8-0.1,3.5-0.4,5.2-0.9l-3.7,11.4c-3.4,1.1-6.9,1.7-10.4,2c-5.9,0.3-11.4-1.4-11.7-8.3c-0.2-4.5,4.4-18.3,4.4-18.3l-8.3,1.5
	l3.2-12.6l8.6-1.1l3.3-10.2l16.3-3.4l-4,12.3L425.2,44.9z"/>
<path id="パス_3115-2" class="st1" d="M451.2,52.5c-1.3-1.4-3.2-2.2-5.1-2.2c-1.3,0.1-5.9,1.2-5.8,2.9c0.1,1.5,9.2,4,10.9,4.6
	c3.2,0.9,5.6,3.7,5.9,7c0,0.4,0,0.8-0.1,1.2c-1.5,11.3-13.3,16.3-23.4,16.8c-5.8,0.3-12.2-2.5-11.9-8.9v-0.6c3-2.6,6.9-4.2,10-6.7
	c2,3.6,3.4,4.7,7.7,4.5c1.7-0.1,5.6-1.7,5.5-3.7c-0.2-3.7-17.2-2.9-18.6-8.8c-0.1-0.4-0.2-0.8-0.2-1.2c-0.4-7.1,8.4-13.2,14.1-15.8
	c2.6-1.2,5.4-1.9,8.3-2c4.9-0.3,11.6,1.1,13,6.6L451.2,52.5z"/>
<path id="パス_3116-2" class="st1" d="M502.5,37.3c0,0-0.9,4.9-1.5,7.3c-1.2,5.2-2.6,10.3-3.6,15.4c-1.1,5.9-2.6,11.7-4.5,17.4
	c-2.9,1.2-12.2,3.9-15.2,3.5h-0.3l1.4-6.4c-3.4,1.4-7.1,2.3-10.8,2.5c-5,0.3-9-1-9.3-6.6c-0.4-6.9,7.2-26.9,7.2-26.9l14.4-1.1
	c0,0-5.5,15.1-5.2,19.5c0.1,1.1,0.3,2,1.5,1.9c3.2-0.2,5.3-4.2,6.3-6.9c2.2-6.1,5.5-18.8,5.5-18.8L502.5,37.3z"/>
<path id="パス_3117-2" class="st1" d="M533.6,76.9c-5.1,1.2-10.3,2-15.5,2.5c2-5.9,6.9-21.5,6.6-26.9c0-0.6-0.2-1.8-1-1.7
	c-3.4,0.2-5,4.6-5.8,7.3c-1.6,4.9-2.9,10-4.1,14.9l-14.3,2.7c1.2-5.8,2.6-11.6,3.7-17.4c1.4-6.4,3.2-12.7,5.4-18.9
	c4.6-1.7,9.4-3,14.2-3.8l-1.1,4.5c4-2,8.3-3.3,12.7-3.7c4.8-0.3,6.7,2.7,6.9,7.2C541.9,52.5,536.2,68.1,533.6,76.9z"/>
<path id="パス_3118-2" class="st1" d="M579,56.2l-23.5,2.7c-0.5,1-0.7,2.2-0.6,3.4c0.1,1.9,1,3.6,3.2,3.4c2.6-0.1,3.5-2.2,4.6-4.2
	l14.9,0.7c-3.1,9-11.5,15.1-21,15.3c-9.9,0.5-13.3-6.4-13.8-15.2c-0.7-13,10.1-28.1,23.7-28.8c9.2-0.5,13.5,5,14,13.7
	C580.7,50.3,580.2,53.4,579,56.2z M565.9,44.6c-3.1,0.1-5.8,2.1-6.8,5.1c0.9,0.1,1.9,0.1,2.8,0c2.2-0.1,4.3-0.4,6.5-0.5
	c0.2-0.6,0.3-1.3,0.3-1.9c0.1-1.4-1.1-2.7-2.5-2.7C566.2,44.5,566,44.5,565.9,44.6L565.9,44.6z"/>
<path id="パス_3119-2" class="st1" d="M677.5,5.9l-17.4,81.7l-26.9,3.3l9-38.6l-12.3,20.4l-5,0.6l-3.3-19.9l-5.7,26.3l-23.2,2.6
	l16.7-63.4l21.1-4l2.5,30l18.4-35.1L677.5,5.9z"/>
<path id="パス_3120-2" class="st1" d="M692.3,31.9L684,66.6l-15.6,1.9l10.3-34.8L692.3,31.9z M686.4,30.4c-2.9,0.2-7.6-1-7.8-4.6
	c-0.2-4.3,5.7-6.5,9.1-6.7c2.9-0.1,7.6,1,7.8,4.6C695.7,28,689.8,30.2,686.4,30.4L686.4,30.4z"/>
<path id="パス_3121-2" class="st1" d="M731.7,29.9L719.3,49l4,21.1l-14.9,2l-3.1-13.5l-1.6,7.2l-15.5,2.4L699.8,21l14.3-1.6
	l-5.5,23l8.3-11.1L731.7,29.9z"/>
<path id="パス_3122-2" class="st1" d="M770.7,23.2c0,0-0.9,4.9-1.5,7.3c-1.2,5.2-2.6,10.3-3.6,15.4c-1.1,5.9-2.6,11.7-4.5,17.4
	c-2.9,1.2-12.2,3.9-15.2,3.5h-0.3l1.4-6.4c-3.4,1.4-7.1,2.3-10.8,2.5c-5,0.3-9-1-9.3-6.6c-0.4-6.9,7.2-26.9,7.2-26.9l14.4-1.1
	c0,0-5.5,15.1-5.2,19.5c0.1,1.1,0.3,2,1.5,1.9c3.2-0.2,5.3-4.2,6.3-6.9c2.2-6.1,5.5-18.8,5.5-18.8L770.7,23.2z"/>
<path id="パス_3123-2" class="st1" d="M791.2,42.8l-1.4,7.2L776,50.7l2.1-14.3c3.9-0.3,16.5-2.5,16.2-7.8c-0.1-1.7-2-1.6-3.2-1.6
	c-4.6,0.2-12.8,3.2-17.2,5l-4.2-12.4c8.1-3.5,16.8-5.7,25.6-6.5c7.5-0.4,15.7,1.4,16.1,10.4C811.9,33.6,799,39.7,791.2,42.8z
	 M781,65.2c-2.9,0.1-7.7-1-7.9-4.6c-0.2-4.3,5.7-6.6,9.2-6.8c2.9-0.2,7.7,1,7.9,4.6C790.4,62.7,784.4,65,781,65.2L781,65.2z"/>
</svg>