<svg version="1.1" xmlns="http://www.w3.org/2000/svg" xmlns:xlink="http://www.w3.org/1999/xlink" x="0px" y="0px" viewBox="0 0 332.7 84.1" style="enable-background:new 0 0 332.7 84.1;" xml:space="preserve" width="333" height="85">
<style type="text/css">
	.st0{fill:#0000B8;}
	.st1{fill:#FFFFFF;}
	.st2{clip-path:url(#SVGID_2_);}
	.st3{fill:#B3001E;}
	.st4{clip-path:url(#SVGID_4_);}
	.st5{clip-path:url(#SVGID_6_);}
	.st6{clip-path:url(#SVGID_8_);}
	.st7{clip-path:url(#SVGID_10_);}
</style>
<path class="st0" d="M310.7,26.4c-3.4,1.6-9.2,2.9-16.8,4.1l5.1-14.2c0.7-2.1-0.4-4.4-2.4-5.1c-0.4-0.1-0.9-0.2-1.3-0.2
	c-0.2,0-0.3,0-0.5,0l-10.1,1.2c-0.7,0.1-1.4,0.4-2,0.8c0.1-2.2-1.7-4-3.9-4.1c0,0-0.1,0-0.1,0c-0.2,0-0.4,0-0.6,0.1l-17.5,2.9
	c-0.5,0.1-1,0.2-1.4,0.5L259,12c-0.8-0.9-1.9-1.5-3.1-1.5h-0.3l-10.2,0.8c-1.7,0.1-3.1,1.3-3.5,2.9v0.1c-0.5-0.2-1-0.3-1.5-0.3h-0.1
	l-9.7,0.2c-1.3,0-2.5,0.7-3.2,1.8c-2.1-3.9-7.2-6.3-14.1-6.3c-4.5,0.1-8.8,1.6-12.3,4.4c-0.1-0.4-0.3-0.7-0.6-1
	c-0.8-0.9-1.9-1.5-3.1-1.5h-0.3l-6.4,0.5l3.3-6.4c1-2,0.2-4.4-1.8-5.4c-0.6-0.3-1.2-0.4-1.8-0.4l0,0l-18.8,0.2c-1.6,0-3,1-3.6,2.4
	l-2,4.7c-0.1-0.7-0.5-1.3-0.9-1.9c-0.8-0.8-1.9-1.3-3-1.3c-0.1,0-0.3,0-0.4,0L146,5.6c-1.8,0.2-3.3,1.6-3.6,3.4l-3.9,27
	c-2.2,0-4.5,0-6.7-0.1l5.9-16.7c0.7-2.1-0.3-4.4-2.4-5.1c-0.4-0.2-0.9-0.2-1.3-0.2h-0.1L122,14.2c-1.7,0.1-3.2,1.2-3.7,2.9l-0.7,2.3
	c-0.7-0.6-1.6-0.9-2.5-0.9h-0.2l-8.5,0.5c-0.1-0.3-0.3-0.6-0.5-0.8c-0.8-0.9-1.9-1.5-3.1-1.5h-0.3l-10.2,0.8c-1.4,0.1-2.6,1-3.2,2.3
	l0.2-1.3c0.3-2.2-1.2-4.2-3.4-4.5c-0.2,0-0.4,0-0.6,0c-0.2,0-0.4,0-0.6,0.1l-17.4,2.9c-0.5,0.1-1,0.2-1.4,0.5l2.2-8.2
	C68.5,7,67.2,4.8,65,4.3c-0.3-0.1-0.7-0.1-1-0.1h-0.4L45.8,5.9c-1.3,0.1-2.4,0.8-3.1,1.9L36.1,19l-0.2-6.6c-0.1-2.2-1.8-3.9-4-3.9
	c-0.2,0-0.4,0-0.5,0l-14.4,2c-1.5,0.2-2.8,1.3-3.3,2.7L0.2,55.4c-0.7,2.1,0.5,4.4,2.6,5c0.4,0.1,0.8,0.2,1.2,0.2h0.2l15.4-0.9
	c4.4,7.3,7.8,15.9,7.1,24.4c97.5-22,263-32.2,305.9-18.9C332.7,65.2,313.8,39.2,310.7,26.4z M203.5,35.9l-8.5,0.1l0.2-0.5
	c2.9-0.6,5.8-1,8.8-1.3h0.2C203.9,34.8,203.7,35.4,203.5,35.9z M285.2,16.2l10.1-1.2l-5.8,16.1c-2.9,0.4-6,0.7-9.3,1.1l0.2-1.8
	L285.2,16.2z M261.3,15.8l17.5-2.9l-2.2,16.6l-1.1,3.2c-6.5,0.6-13.7,1.1-21.3,1.5c0.4-1.2,0.8-2.5,1.1-3.7l0.1-0.4l0.8-2.7
	L261.3,15.8z M241.7,29.6l3.9-14.2l10.2-0.8L252.4,26l-3.7,8.5l-8.5,0.4C240.8,33.1,241.3,31.4,241.7,29.6z M230.6,18.3l9.7-0.3
	l-5,14.8c-0.3,0.7-0.4,1.5-0.5,2.3c-2.3,0.1-4.5,0.2-6.9,0.2c0-0.3,0-0.6,0-0.9c0-1.6-0.4-3.2-1.2-4.6L230.6,18.3z M213.1,13.8
	c4.1,0,11.2,1.2,11.2,6.5c0,1.6-0.5,3.2-1.4,4.5l-9.2,0.8c0.4-0.8,0.6-1.6,0.7-2.5c0-1.5-1.4-1.8-2.6-1.8s-4.7,0.7-4.7,2.5
	c0,1.5,3.2,2.5,4.4,2.8c3.5,0.8,7,2,10.2,3.5c0.2,0.1,0.5,0.3,0.7,0.4l-0.7,2.2v0.1c-0.3,0.9-0.5,1.8-0.6,2.7l-7.1,0.2
	c-0.2-1.5-4.2-2.2-5.3-2.4c-2.9-0.7-5.7-1.7-8.3-3.1c-1.3-0.7-2.1-2.1-2-3.7c0-0.3,0-0.6,0.1-1l1-3.2
	C201.6,17.3,207.5,13.9,213.1,13.8z M197.1,15.7l-1.6,5.1c-0.6,1.2-1,2.5-1.2,3.8c0,0,0,0,0,0l-2.3,7.5c-0.8,0.4-1.4,1-1.8,1.8
	c-0.3,0.7-0.6,1.4-0.9,2.1c-3.1,0-6.2,0.1-9.3,0.1l4.2-12.1l3.9-7.6L197.1,15.7z M171.4,4.2L190.2,4l-4.6,8.8
	c-1.2,0.4-2.1,1.3-2.6,2.5l-2.5,7.2l-7.1,13.7c-5.3,0-10.5,0-15.8,0L171.4,4.2z M146.4,9.6l15.4-1.4l-5.5,28c-4.6,0-9.2,0-13.7-0.1
	L146.4,9.6z M122.2,18.3l11.8-0.4l-6.4,18c-3.5,0-7-0.1-10.5-0.2L122.2,18.3z M115.2,22.5l1,13.2c-4.6-0.1-9.2-0.2-13.7-0.3
	l3.8-12.3L115.2,22.5z M92.6,21.5l9.5-0.8c-0.3,0.3-0.4,0.7-0.6,1.1l-4.2,13.4L87.9,35L92.6,21.5z M67.8,20.8l17.5-2.9l-2.3,16.9
	l-9.3-0.3l1.5-7.3l-2.2,0.6l-2.3,6.6L62,34L67.8,20.8z M46.2,9.9l17.9-1.7l-6.9,25.6c-8.9-0.4-17.1-0.9-24.3-1.5L46.2,9.9z
	 M17.5,14.5l14.4-2l0.6,19.8c-6.9-0.5-12.9-1-17.9-1.6l-4,5.5L17.5,14.5z M4,56.6l3.9-12.3c3.4,3.6,6.5,7.4,9.2,11.5L4,56.6z"/>
<polygon class="st0" points="268.6,22.2 266.4,22.8 263.7,30.2 267.1,29.8 "/>
<path class="st1" d="M64.1,8.1L49.4,62.6l-18.3,1.3l7.5-25.7l-9,13.3l-3.4,0.2l-1.6-13.5l-4.8,17.5L4,56.6l13.5-42.2l14.4-2
	l0.6,20.4l13.7-23L64.1,8.1z"/>
<path class="st1" d="M85.2,17.9l-4.7,34.5l-11.3,1.8l2.4-10.4l-5.2,1.1l-2,4.8L54.5,51l13.3-30.2L85.2,17.9z M75.1,27.2l-2.2,0.6
	l-2.7,7.4l3.3-0.4L75.1,27.2z"/>
<path class="st1" d="M102.8,20.7l-8.9,29.2l-11.7,1.7l10.4-30L102.8,20.7z"/>
<path class="st1" d="M133.9,17.9l-12.7,35.7l-10.6,1.3l-0.6-17l-2.7,10.3l-10.4,1.5l8.4-26.5l9.9-0.6l1.2,15.5l5.8-19.7L133.9,17.9z
	"/>
<path class="st1" d="M190.2,4l-26.1,50.2l-24.6,2.5l6.8-47l15.5-1.5l-6,30.4l0.9-0.1l14.8-34.2L190.2,4z"/>
<path class="st1" d="M197.1,15.7l-9,29.2l-11.7,1.7l10.4-30L197.1,15.7z"/>
<path class="st1" d="M222.8,24.9l-9.2,0.8c0.4-0.8,0.6-1.6,0.7-2.5c0-1.5-1.4-1.8-2.6-1.8s-4.7,0.7-4.7,2.5c0,1.5,3.2,2.5,4.4,2.8
	c3.5,0.8,7,2,10.2,3.5c1.6,0.8,2.5,2.4,2.4,4.2c0,4.5-3.6,9.1-7.6,11c-4,1.8-8.3,2.8-12.6,2.9c-4.4,0-11.4-1.8-11.4-7.3
	c0.1-1.8,0.7-3.6,1.5-5.2c2.7-0.5,7.7-1.5,10.2-1.5h0.2c-0.5,1-0.8,2-0.9,3.1c0,1.6,1.3,1.9,2.7,1.9c2.7,0,6.3-0.1,7.7-2.9
	c0.1-0.2,0.1-0.3,0.1-0.5c0-1.6-4.2-2.3-5.3-2.5c-2.9-0.7-5.7-1.7-8.3-3.1c-1.3-0.7-2.1-2.1-2-3.7c0-0.4,0-0.8,0.1-1.1
	c1.1-6.8,8.2-11.6,14.8-11.6c4.1,0,11.2,1.2,11.2,6.5C224.2,22,223.8,23.6,222.8,24.9z"/>
<path class="st1" d="M255.9,14.5L251.5,29c-2.7,9-4.6,16-15.2,17.1c-0.5,0-1,0.1-1.5,0.1c-5,0-10.1-2.3-10.1-8
	c0-1.4,0.3-2.8,0.7-4.2l5.2-15.8l9.7-0.3l-5,14.8c-0.3,0.8-0.5,1.7-0.5,2.6c0,1.3,0.6,2.6,2.1,2.6c3.4,0,4.2-6,4.9-8.4l3.9-14.2
	L255.9,14.5z"/>
<path class="st1" d="M278.7,12.9l-4.7,34.5l-11.3,1.8l2.4-10.4l-5.2,1.1l-2,4.8L248,46l13.3-30.2L278.7,12.9z M268.6,22.2l-2.2,0.6
	l-2.6,7.4l3.3-0.4L268.6,22.2z"/>
<path class="st1" d="M298.3,34.1l-4.1,10.8L275,46.6l10.2-30.4l10.1-1.2L288,35.4L298.3,34.1z"/>
<g>
	<defs>
		<polygon id="SVGID_1_" points="64.1,8.1 49.4,62.6 31.1,63.9 38.6,38.2 29.6,51.5 26.2,51.7 24.5,38.2 19.8,55.7 4,56.6
			17.5,14.5 31.9,12.5 32.5,32.9 46.2,9.9 		"/>
	</defs>
	<clipPath id="SVGID_2_">
		<use xlink:href="#SVGID_1_"  style="overflow:visible;"/>
	</clipPath>
	<g class="st2">
		<polygon class="st3" points="-1.8,44.1 107.5,15.5 61.5,-7.5 -0.8,1.7 		"/>
	</g>
</g>
<g>
	<defs>
		<path id="SVGID_3_" d="M85.2,17.9l-4.7,34.5l-11.3,1.8l2.4-10.4l-5.2,1.1l-2,4.8L54.5,51l13.3-30.2L85.2,17.9z M75.1,27.2
			l-2.2,0.6l-2.7,7.4l3.3-0.4L75.1,27.2z"/>
	</defs>
	<clipPath id="SVGID_4_">
		<use xlink:href="#SVGID_3_"  style="overflow:visible;"/>
	</clipPath>
	<g class="st4">
		<polygon class="st3" points="-1.8,45.1 107.5,16.5 61.5,-6.5 -0.8,2.7 		"/>
	</g>
</g>
<path class="st1" d="M102.8,20.7l-8.9,29.2l-11.7,1.7l10.4-30L102.8,20.7z"/>
<path class="st1" d="M133.9,17.9l-12.7,35.7l-10.6,1.3l-0.6-17l-2.7,10.3l-10.4,1.5l8.4-26.5l9.9-0.6l1.2,15.5l5.8-19.7L133.9,17.9z
	"/>
<g>
	<defs>
		<polygon id="SVGID_5_" points="190.2,4 164.1,54.2 139.6,56.7 146.3,9.7 161.8,8.2 155.8,38.6 156.7,38.5 171.4,4.2 		"/>
	</defs>
	<clipPath id="SVGID_6_">
		<use xlink:href="#SVGID_5_"  style="overflow:visible;"/>
	</clipPath>
	<g class="st5">
		<path class="st3" d="M135.6,36c10.7,0,101.6-25,101.6-25l-26-24l-71,12.8L135.6,36z"/>
	</g>
</g>
<g>
	<defs>
		<polygon id="SVGID_7_" points="197.1,15.7 188.1,44.9 176.4,46.6 186.8,16.6 		"/>
	</defs>
	<clipPath id="SVGID_8_">
		<use xlink:href="#SVGID_7_"  style="overflow:visible;"/>
	</clipPath>
	<g class="st6">
		<path class="st3" d="M135.6,36c10.7,0,101.6-25,101.6-25l-26-24l-71,12.8L135.6,36z"/>
	</g>
</g>
<g>
	<defs>
		<path id="SVGID_9_" d="M222.8,24.9l-9.2,0.8c0.4-0.8,0.6-1.6,0.7-2.5c0-1.5-1.4-1.8-2.6-1.8s-4.7,0.7-4.7,2.5
			c0,1.5,3.2,2.5,4.4,2.8c3.5,0.8,7,2,10.2,3.5c1.6,0.8,2.5,2.4,2.4,4.2c0,4.5-3.6,9.1-7.6,11c-4,1.8-8.3,2.8-12.6,2.9
			c-4.4,0-11.4-1.8-11.4-7.3c0.1-1.8,0.7-3.6,1.5-5.2c2.7-0.5,7.7-1.5,10.2-1.5h0.2c-0.5,1-0.8,2-0.9,3.1c0,1.6,1.3,1.9,2.7,1.9
			c2.7,0,6.3-0.1,7.7-2.9c0.1-0.2,0.1-0.3,0.1-0.5c0-1.6-4.2-2.3-5.3-2.5c-2.9-0.7-5.7-1.7-8.3-3.1c-1.3-0.7-2.1-2.1-2-3.7
			c0-0.4,0-0.8,0.1-1.1c1.1-6.8,8.2-11.6,14.8-11.6c4.1,0,11.2,1.2,11.2,6.5C224.2,22,223.8,23.6,222.8,24.9z"/>
	</defs>
	<clipPath id="SVGID_10_">
		<use xlink:href="#SVGID_9_"  style="overflow:visible;"/>
	</clipPath>
	<g class="st7">
		<path class="st3" d="M135.6,36c10.7,0,101.6-25,101.6-25l-26-24l-71,12.8L135.6,36z"/>
	</g>
</g>
</svg>