<svg version="1.1" xmlns="http://www.w3.org/2000/svg" xmlns:xlink="http://www.w3.org/1999/xlink" x="0px" y="0px" viewBox="0 0 221.6 67.8" style="enable-background:new 0 0 221.6 67.8;" xml:space="preserve" width="222" height="68">
<style type="text/css">
	.st0{fill:#0000B8;}
	.st1{fill:#FFFFBB;}
	.st2{clip-path:url(#SVGID_2_);}
	.st3{fill:#FFA412;}
</style>
<path class="st0" d="M200.6,28.1c-2.5,1.1-5.1,2-7.8,2.7c1.6-2.3,2.4-5,2.5-7.8c0-4-2.3-10.6-17.4-10.6c-3.3,0-6.6,0.2-9.9,0.8
	c-0.1,0-0.3,0.1-0.4,0.1c-0.5-0.3-1.1-0.4-1.7-0.4h-0.3l-10.2,0.8c-1.7,0.1-3.1,1.3-3.5,2.9v0.1c-0.5-0.2-1-0.3-1.5-0.3h-0.1
	l-9.7,0.2c-1.7,0-3.2,1.1-3.7,2.8L132,33.9c-2.9-0.1-5.8-0.3-8.7-0.5l9.4-12.5c1.3-1.8,1-4.3-0.8-5.6c-0.7-0.5-1.5-0.8-2.4-0.8h-0.3
	l-10,0.8c-0.2-2-2-3.5-4-3.5c-0.2,0-0.4,0-0.6,0l-10,1.5c-1.6,0.3-2.8,1.4-3.2,2.9l-0.8,2.9c-1.9-4.6-6.7-7.5-13.1-7.5
	C81.8,11.8,76.3,14,72,17.8c-0.1-0.8-0.4-1.6-0.9-2.2c-0.8-0.9-1.9-1.5-3.1-1.5h-0.3l-8.8,0.7c-0.8-3.4-3.3-7.5-10.5-9.8
	C43.7,3.8,38.8,3.2,34,3.3c-5.1,0-10.1,0.4-15.1,1.2c-1.5,0.3-2.7,1.4-3.2,2.8L0.2,57.9c-0.6,2.1,0.5,4.3,2.7,5C3.2,63,3.6,63,4,63
	h0.4l16-1.7c1.7-0.2,3-1.4,3.5-3l2.5-10.1c3.6,5.1,6.4,11.5,5.8,19.1c80.1-14.1,170.9-4.1,189.4,0.5
	C221.6,67.8,201.6,47.7,200.6,28.1z M191.3,23c0,3.5-2.1,6.6-5,9.2c-7.1,1.2-14.3,1.9-21.5,2.1c0.1-0.5,0.3-0.9,0.4-1.4l0.1-0.4
	l4.3-14.5c0.1-0.3,0.2-0.7,0.2-1.1c2.7-0.4,5.4-0.5,8.1-0.5C182.2,16.4,191.3,16.9,191.3,23z M151.7,32l3.9-14.2l8.9-0.7l-5.3,17.4
	c-2.6,0-5.3,0.1-8.1,0C151.3,33.5,151.5,32.6,151.7,32L151.7,32z M140.5,20.7l9.7-0.2l-4.7,13.9c-3.1-0.1-6.2-0.2-9.4-0.3
	L140.5,20.7z M32.8,24.4v-0.2l0.2,0L32.8,24.4z M83,30.1c0.1-0.2,0.2-0.4,0.4-0.5c0,0.2,0.1,0.4,0.1,0.6L83,30.1z M105.2,17.4
	l10-1.5l-4.1,12.9l6.6-9.3l11.8-1l-11,14.6c-5.7-0.4-11.5-0.8-17.3-1.3L105.2,17.4z M87.5,15.6c5.1,0,10,2.3,10,8.1
	c0,1.4-0.2,2.7-0.6,4L87.4,29c0.2-0.8,0.3-1.6,0.2-2.4c0-1.3-0.3-2.8-1.9-2.8c-3,0-5.4,2.6-7.1,5.8l-9.7-1l0.7-2.1
	C73.6,20.3,80.2,15.6,87.5,15.6z M68,18.1l-2.1,6.8c-0.6,1.1-1.2,2.2-1.7,3.3l-7.7-0.9c1.5-2.6,2.4-5.5,2.6-8.5L68,18.1z M19.5,8.4
	c4.8-0.8,9.6-1.1,14.5-1.1c6.4,0,19.5,0.7,21,8.8c-0.5,0.4-0.8,1-1,1.6l-3.1,9l-12.5-1.4c0.4-0.4,0.6-0.9,0.6-1.5
	c0-3.1-5.7-3.6-7.9-3.6c-0.4,0-0.8,0.1-1.2,0.1l-1.2,3.9l-8.6-1c-1.5-0.7-3.1-1.2-4.7-1.2L19.5,8.4z M20,57.3L4,59l7.4-24.3v0.1
	c4.4,2.5,8.4,5.7,11.8,9.4L20,57.3z"/>
<path class="st0" d="M181,26.9c0-2-3.6-2.3-5-2.3c-0.2,0-0.5,0-0.8,0l-2.1,6.8C174.9,30.9,181,29.1,181,26.9z"/>
<path class="st1" d="M23.3,44.3l-3.3,13L4,59L19.5,8.4c4.8-0.8,9.6-1.1,14.5-1.1c6.8,0,21.1,0.8,21.1,10.4
	C55.2,31.4,34.8,41.4,23.3,44.3z M31.1,20.2c-0.4,0-0.8,0.1-1.2,0.1l-3.3,10.6c2.8-0.8,12.4-3.7,12.4-7.1
	C39,20.7,33.2,20.2,31.1,20.2L31.1,20.2z"/>
<g>
	<defs>
		<path id="SVGID_1_" d="M23.3,44.3l-3.3,13L4,59L19.5,8.4c4.8-0.8,9.6-1.1,14.5-1.1c6.8,0,21.1,0.8,21.1,10.4
			C55.2,31.4,34.8,41.4,23.3,44.3z M31.1,20.2c-0.4,0-0.8,0.1-1.2,0.1l-3.3,10.6c2.8-0.8,12.4-3.7,12.4-7.1
			C39,20.7,33.2,20.2,31.1,20.2L31.1,20.2z"/>
	</defs>
	<clipPath id="SVGID_2_">
		<use xlink:href="#SVGID_1_"  style="overflow:visible;"/>
	</clipPath>
	<g class="st2">
		<polygon class="st3" points="4.6,33.2 54.7,4.1 11.3,0 		"/>
	</g>
</g>
<path class="st1" d="M68,18.1l-9,29.2L47.4,49l10.4-30L68,18.1z"/>
<path class="st1" d="M97.6,38.9c-2.2,8.2-10.3,12.7-18.5,12.7c-7.7,0-13.2-5.3-13.2-13c0-11.2,10.1-23,21.6-23c5.1,0,10,2.3,10,8.1
	c0,1.4-0.2,2.7-0.6,4L87.4,29c0.2-0.8,0.3-1.6,0.2-2.4c0-1.3-0.3-2.8-1.9-2.8c-5.7,0-9.5,9.5-9.5,14.3c0,2.7,1,4.9,4,4.9
	c3.1,0.1,5.8-1.9,6.7-4.8L97.6,38.9z"/>
<path class="st1" d="M129.5,18.5l-11.4,15.1l1.3,17.9l-10.2,1.6l-0.8-13.5l-2.1,8.3l-9.9,0.7l8.8-31.3l10-1.5l-4.1,12.9l6.6-9.3
	L129.5,18.5z"/>
<path class="st1" d="M165.8,16.9l-4.3,14.5c-2.7,9-4.6,16-15.2,17.1c-0.5,0-1,0.1-1.5,0.1c-5,0-10.1-2.3-10.1-8
	c0-1.4,0.3-2.8,0.7-4.2l5.2-15.8l9.7-0.2l-5,14.7c-0.3,0.8-0.5,1.7-0.5,2.6c0,1.3,0.6,2.6,2.1,2.6c3.4,0,4.2-6,4.9-8.4l3.9-14.2
	L165.8,16.9z"/>
<path class="st1" d="M171,39.9l-2.1,8.3l-10.1,1.1l9.9-32.2c3.1-0.5,6.1-0.7,9.2-0.7c4.3,0,13.4,0.5,13.4,6.6
	C191.3,31.8,178.4,38.1,171,39.9z M176,24.6c-0.2,0-0.5,0-0.8,0l-2.1,6.8c1.8-0.5,7.9-2.3,7.9-4.5C181,24.9,177.4,24.6,176,24.6z"/>
</svg>