<svg version="1.1" xmlns="http://www.w3.org/2000/svg" xmlns:xlink="http://www.w3.org/1999/xlink" x="0px" y="0px" viewBox="0 0 313.3 76.7" style="enable-background:new 0 0 313.3 76.7;" xml:space="preserve" width="314" height="77">
<style type="text/css">
	.st0{fill:#0000B8;}
	.st1{fill:#FFFFFF;}
	.st2{clip-path:url(#SVGID_2_);}
	.st3{fill:#FFB2C7;}
	.st4{clip-path:url(#SVGID_4_);}
	.st5{clip-path:url(#SVGID_6_);}
	.st6{clip-path:url(#SVGID_8_);}
</style>
<path class="st0" d="M313.3,65.5c0,0-19.4-13.1-20.4-32.7c-1.2,0.5-2.3,0.9-3.5,1.3c1.1-3.5,2.1-7.1,3.1-10.6l0.5-1.9
	c0.6-2.1-0.7-4.3-2.9-4.9c-0.3-0.1-0.7-0.1-1-0.1c-0.1,0-0.3,0-0.4,0c-3.6,0.4-7.4,0.8-11.1,1.3c-0.8,0.1-1.6,0.5-2.2,1
	c-1.2-0.3-2.3-0.5-3.5-0.5c-3.2,0-6.2,1.1-8.7,3.1c-1.1-3.4-4.3-5.6-7.9-5.5c-1.6,0-3.1,0.2-4.7,0.5c-0.8-1-1.9-1.5-3.2-1.5h-0.1
	c-3.8,0.4-7.6,1.2-11.2,2.4c-1,0.4-1.8,1.2-2.2,2.2l-0.2,0.5l-0.7,2c-2.5-4.4-7.2-7.1-12.3-7c-5.1,0-10,2.1-13.6,5.8
	c0.6-1.8,0.9-3.8,1-5.7C208.1,4.7,196.5,1,186.5,1c-6.2,0.1-12.3,2.2-17.3,5.9c-5.2,3.7-8.7,9.3-9.9,15.6c-0.2,0.8-0.2,1.7-0.2,2.5
	c0,4,1.7,7.3,4.8,9c-1.7,0.3-3.5,0.6-5.1,0.9l-3.1,0.6c-1.3,0.2-2.3,1-2.9,2.2c-0.1,0.2-0.2,0.4-0.3,0.6l-4.1-0.2l0.6-2.2
	c0.6-2.1-0.6-4.3-2.7-5c-0.4-0.1-0.7-0.2-1.1-0.2l1.1-3.9h0.4c1.6-0.1,3-1.3,3.5-2.9l2.4-8.4c0.6-2.1-0.6-4.3-2.7-5
	c-0.4-0.1-0.7-0.2-1.1-0.2h-0.3l-20.1,1.7c-0.2-0.3-0.3-0.6-0.6-0.9c-0.7-0.9-1.8-1.4-3-1.4c-0.1,0-0.3,0-0.4,0L112.9,11
	c-1.3,0.1-2.4,0.8-3.1,1.9l-1.7,2.9c-0.2-0.9-0.7-1.7-1.3-2.2c-0.7-0.6-1.6-1-2.6-1c-0.2,0-0.4,0-0.5,0l-8.4,1.1
	c-0.1-0.6-0.4-1.2-0.8-1.8c-0.8-0.9-1.9-1.5-3.1-1.5H91l-19,1.5c-0.2-0.4-0.4-0.8-0.7-1.1c-0.8-0.9-1.9-1.4-3.1-1.4
	c-0.2,0-0.3,0-0.5,0l-11,1.5c-1.3,0.2-2.4,0.9-3,2c-0.4-0.1-0.8-0.2-1.2-0.2h-0.5L48,13.4l2.5-8.3c0.6-2.1-0.6-4.3-2.7-5
	C47.5,0.1,47.1,0,46.7,0h-0.3L10.1,2.5c-1.6,0.1-3,1.2-3.5,2.8L1.7,20.7c-0.4,1.3-0.1,2.7,0.7,3.7C3.2,25.4,4.3,26,5.5,26h0.4
	l4.8-0.5l-10.6,29c-0.8,2.1,0.3,4.4,2.4,5.1c0.4,0.2,0.9,0.2,1.4,0.2c0.2,0,0.4,0,0.6,0l16.8-2.3c1.5-0.2,2.8-1.3,3.3-2.8
	c4.7,6,8.5,13.6,7.8,22C69.5,69.2,121.5,65,171,63h0.9c1.3,0,2.7-0.1,4-0.2C239.1,60.6,297.2,62.1,313.3,65.5z M176.1,39L176.1,39
	l0.5,0L176.1,39z M201.7,27.1c-0.4-0.2-0.8-0.4-1.3-0.6l1.8-0.1c0.4,0,0.8-0.1,1.2-0.3c-0.3,0.5-0.5,1-0.7,1.6
	C202.3,27.4,202,27.2,201.7,27.1L201.7,27.1z M271.8,22.4c1.9,0,3.8,0.6,5.4,1.6l0.9-2.2c3.6-0.5,7.3-0.9,10.9-1.3
	c-1.4,4.9-2.6,9.9-4.3,14.7l0,0c-3.4,0.7-7.5,1.3-12,1.9c0.3-0.1,0.6-0.2,0.9-0.4l2.1-7.2c-0.5-0.4-1.2-0.6-1.8-0.6
	c-2.4,0-4.4,3.5-4.4,5.7c0,1.2,0.5,2.5,1.8,2.6c-3.3,0.3-6.8,0.7-10.6,0.9c1.4-3.8,2.4-7.7,2.9-11.8C265.7,24,268.6,22.5,271.8,22.4
	L271.8,22.4z M237.6,21.1c3.2-1,6.4-1.7,9.8-2.1l-0.9,3c2.8-1.2,5.7-1.9,8.7-2c3.2,0,4.4,2,4.4,5c-2.3,3-3.6,6.6-3.6,10.4
	c0,1,0.1,2.1,0.4,3.1l0,0c-3.3,0.2-6.8,0.4-10.4,0.5c1.1-3.4,2-6.8,2-8.6c0-0.4-0.1-1.2-0.6-1.2c-2.3,0-3.5,2.9-4.2,4.8
	s-1.3,3.4-1.8,5.2c-2.7,0.1-5.5,0.1-8.3,0.2c1.4-2.7,2.1-5.8,2.1-8.8c0-0.8-0.1-1.6-0.2-2.4C235.8,25.8,236.7,23.4,237.6,21.1
	L237.6,21.1z M220.6,19.1c5.5,0,9.2,3.8,10.2,8.7c-0.5,1.6-1,3.2-1.4,4.8c-0.6,2.2-1.2,4.5-1.8,6.8c-3.2,0-6.5,0.1-9.9,0.1
	c2.1-1.2,3.6-4.5,4.1-6.4c0.4-1.4,0.6-2.9,0.6-4.4c0-1.6-0.5-3.4-2.4-3.4c-3,0-5.3,5.3-5.8,7.8c-0.2,1.1-0.4,2.3-0.4,3.5
	c-0.1,1,0.2,2.1,0.9,2.9h-7.3c0.1-0.7,0.2-1.5,0.2-2.2c0.1-2.3-0.5-4.6-1.8-6.6C207.9,24.2,213.5,19.1,220.6,19.1L220.6,19.1z
	 M163.1,25c0-0.6,0-1.2,0.1-1.8C165,12.5,176.1,5,186.5,5c6.4,0,17.6,1.8,17.6,10.2c0,2-0.9,5.7-2.2,7.1l-14.4,1.2
	c0.6-1.2,1-2.6,1.1-4c0-2.3-2.2-2.8-4.2-2.8c-2.1,0-7.5,1.1-7.5,4c0,2.4,5.1,4,6.9,4.4c5.5,1.3,10.9,3.1,16.1,5.5
	c0.5,0.3,1,0.6,1.5,1c-0.3,1.4-0.4,2.8-0.4,4.2c0,1.2,0.1,2.4,0.4,3.6c-4.5-0.1-9.1-0.1-13.8-0.2c-0.4-2.3-6.6-3.3-8.3-3.7
	c-4.5-1.1-8.9-2.7-13.1-4.8C164,29.7,163.1,27.4,163.1,25z M184.2,20.8c0,0.1-0.1,0.2-0.1,0.3l-0.7-0.2
	C183.7,20.9,184,20.8,184.2,20.8L184.2,20.8z M172.3,37.1h0.3c-0.3,0.6-0.5,1.2-0.8,1.8l-10.6-0.3C164.8,37.8,168.5,37.3,172.3,37.1
	z M148.8,14.5l-2.4,8.4l-12.2,1l-0.8,2.4l9.2-0.9l-2.1,7.4l-9.1,1l-0.9,2.8l14.7-1.9l-0.9,3.2c-7.2-0.3-14.5-0.6-21.6-1l5.6-20.8
	L148.8,14.5z M104.2,16.6l0.4,13l8.7-14.7l11-1c-0.3,0.4-0.5,0.7-0.6,1.2l-6.8,21.6l-9.4-0.5l0.9-3.2l-2.1,3.1l-6.5-0.4L99.5,33
	l-0.7,2.7l-7.1-0.4c0.1-1.1-0.2-2.2-0.9-3.1c-0.1-0.1-0.1-0.1-0.2-0.2L95,18L104.2,16.6z M31.8,30.7l2-6.9l3.8-0.4L35,31L31.8,30.7z
	 M91.3,14.5l-2.4,8.4l-12.2,1l-0.8,2.4l9.2-0.9L83,32.8l-9.1,1L73.8,34l-7.5-0.5l5.3-17.4L91.3,14.5z M52.6,16.9L49.8,26l3.8-0.2
	L57.3,15l9.6-1.2c-0.3,0.4-0.6,0.8-0.7,1.3l-5.6,18c-7.7-0.6-14.8-1.2-21.4-1.7l2.8-8.3h0.5c1.6-0.2,3-1.3,3.5-2.9l0.8-2.6
	L52.6,16.9z M5.5,22l4.9-15.5L46.7,4l-3,10l-0.5,0.1c-1.5,0.2-2.8,1.2-3.3,2.7L39,19.3l-8.3,0.8l-3,10.2c-3.5-0.3-6.7-0.7-9.6-1
	c-1.3-0.6-2.6-1-4-1.2l2.7-7.3L5.5,22z M20.8,53.6L4,55.9l5.4-15v0.1c4.4,2.9,8.4,6.3,12,10.2L20.8,53.6z"/>
<path class="st1" d="M46.7,4l-4.6,15l-11.4,1.1l-10,33.5L4,55.9l12.7-35.1L5.5,22l4.9-15.5L46.7,4z"/>
<path class="st1" d="M68.2,13.6l-9.5,31l-10.9,1l2.9-9.4l-3.6,0.4l-3.6,11.3l-10.3,0.8L43.7,18l9-1.1L49.8,26l3.8-0.2L57.3,15
	L68.2,13.6z"/>
<path class="st1" d="M91.3,14.5l-2.4,8.4l-12.2,1l-0.8,2.4l9.2-0.9L83,32.8l-9.1,1L73,36.6l14.7-1.9l-3.1,10.5l-24.4,2.2L70,16.2
	L91.3,14.5z"/>
<path class="st1" d="M124.7,13.9l-9.3,34.7l-11.6,0.8l4.7-16.3l-5.8,8.5l-2.2,0.1l-1-8.6l-3,11.2l-10,0.6L95,17.9l9.2-1.3l0.4,13
	l8.7-14.7L124.7,13.9z"/>
<path class="st1" d="M148.8,14.5l-2.4,8.4l-12.2,1l-0.8,2.4l9.2-0.9l-2.1,7.4l-9.1,1l-0.9,2.8l14.7-1.9l-3.1,10.5l-24.4,2.2
	l9.8-31.2L148.8,14.5z"/>
<path class="st1" d="M201.9,22.4l-14.5,1.2c0.6-1.2,1-2.6,1.1-4c0-2.3-2.2-2.8-4.2-2.8c-2.1,0-7.5,1.1-7.5,4c0,2.4,5.1,4,6.9,4.4
	c5.5,1.3,10.9,3.1,16.1,5.5c2.7,1.3,3.7,3.7,3.7,6.6c0,7.1-5.7,14.3-11.9,17.3c-6.2,2.9-13,4.4-19.9,4.5c-6.9,0-17.9-2.8-17.9-11.4
	c0.2-2.9,1-5.6,2.4-8.2c4.2-0.7,12.1-2.4,16-2.4h0.3c-0.8,1.5-1.3,3.1-1.4,4.8c0,2.6,2.1,3,4.2,3c4.2,0,10-0.2,12.1-4.5
	c0.1-0.2,0.2-0.5,0.2-0.8c0-2.5-6.6-3.6-8.4-4c-4.5-1.1-8.9-2.7-13.1-4.8c-2.2-1.1-3.1-3.4-3.1-5.7c0-0.6,0-1.2,0.1-1.8
	C165,12.5,176.1,5,186.5,5c6.4,0,17.6,1.8,17.6,10.2C204.1,17.2,203.2,20.9,201.9,22.4z"/>
<path class="st1" d="M215.8,47.2c-6.6,0-10.8-5-10.8-11.4c0-8.7,6.7-16.8,15.7-16.8c6.5,0,10.5,5.2,10.5,11.4
	C231.2,38.6,224.2,47.2,215.8,47.2z M220.1,25.4c-3,0-5.3,5.3-5.8,7.8c-0.2,1.1-0.4,2.3-0.4,3.5c0,1.5,0.3,3.4,2.2,3.4
	c2.9,0,5.2-4.5,5.8-6.9c0.4-1.4,0.6-2.9,0.6-4.4C222.4,27.1,222,25.4,220.1,25.4z"/>
<path class="st1" d="M253.1,47.3c-3.5,0.6-7,1-10.5,1.1c1.6-3.9,5.4-14.3,5.4-18c0-0.4-0.1-1.2-0.6-1.2c-2.3,0-3.5,2.9-4.2,4.8
	c-1.3,3.2-2.3,6.6-3.3,10l-9.7,1.3c1.1-3.9,2.1-7.8,3.1-11.6c1.2-4.3,2.6-8.5,4.3-12.6c3.2-1,6.4-1.7,9.8-2.1l-0.9,3
	c2.8-1.2,5.7-1.9,8.7-2c3.3,0,4.4,2.1,4.4,5.1C259.7,31.1,255.2,41.4,253.1,47.3z"/>
<path class="st1" d="M284.7,35.2c-2,6-2.9,12.3-7.4,17c-2.4,2.5-9.9,3.7-13.2,3.7c-0.3,0-0.7,0-1,0c-1-1.3-1.3-5.8-1.4-7.6
	c1,0,1.9,0.1,2.9,0.1c4.3,0,6.8-1.2,7.9-5.7c-1.3,0.8-2.7,1.2-4.2,1.2c-4.8,0-8-3.9-8-8.5c0-6.1,5.3-13,11.8-13
	c1.9,0,3.8,0.6,5.4,1.6l0.9-2.2c3.6-0.5,7.3-0.9,10.9-1.3C287.7,25.4,286.4,30.4,284.7,35.2z M275.7,29.6c-0.5-0.4-1.2-0.6-1.8-0.6
	c-2.4,0-4.4,3.5-4.4,5.7c0,1.3,0.5,2.7,2.1,2.7c0.7,0,1.4-0.2,2-0.5L275.7,29.6z"/>
<g>
	<defs>
		<polygon id="SVGID_1_" points="46.7,4 42.1,19 30.7,20.1 20.7,53.6 4,55.9 16.7,20.8 5.5,22 10.4,6.5 		"/>
	</defs>
	<clipPath id="SVGID_2_">
		<use xlink:href="#SVGID_1_"  style="overflow:visible;"/>
	</clipPath>
	<g class="st2">
		<polygon class="st3" points="0.1,41.5 106.8,11.4 95.1,-24.4 -8.1,-11.1 		"/>
	</g>
</g>
<g>
	<defs>
		<polygon id="SVGID_3_" points="68.2,13.6 58.8,44.5 47.8,45.5 50.8,36.2 47.2,36.6 43.6,47.9 33.3,48.6 43.7,18 52.7,16.9
			49.8,26 53.5,25.8 57.3,15 		"/>
	</defs>
	<clipPath id="SVGID_4_">
		<use xlink:href="#SVGID_3_"  style="overflow:visible;"/>
	</clipPath>
	<g class="st4">
		<polygon class="st3" points="0.1,41.5 106.8,11.4 95.1,-24.4 -8.1,-11.1 		"/>
	</g>
</g>
<g>
	<defs>
		<polygon id="SVGID_5_" points="91.3,14.5 88.9,22.8 76.7,23.9 75.9,26.3 85.1,25.4 83,32.8 73.9,33.8 73,36.6 87.7,34.7
			84.6,45.2 60.3,47.4 70,16.2 		"/>
	</defs>
	<clipPath id="SVGID_6_">
		<use xlink:href="#SVGID_5_"  style="overflow:visible;"/>
	</clipPath>
	<g class="st5">
		<polygon class="st3" points="0.1,41.5 106.8,11.4 95.1,-24.4 -8.1,-11.1 		"/>
	</g>
</g>
<g>
	<defs>
		<path id="SVGID_7_" d="M201.9,22.4l-14.5,1.2c0.6-1.2,1-2.6,1.1-4c0-2.3-2.2-2.8-4.2-2.8c-2.1,0-7.5,1.1-7.5,4
			c0,2.4,5.1,4,6.9,4.4c5.5,1.3,10.9,3.1,16.1,5.5c2.7,1.3,3.7,3.7,3.7,6.6c0,7.1-5.7,14.3-11.9,17.3c-6.2,2.9-13,4.4-19.9,4.5
			c-6.9,0-17.9-2.8-17.9-11.4c0.2-2.9,1-5.6,2.4-8.2c4.2-0.7,12.1-2.4,16-2.4h0.3c-0.8,1.5-1.3,3.1-1.4,4.8c0,2.6,2.1,3,4.2,3
			c4.2,0,10-0.2,12.1-4.5c0.1-0.2,0.2-0.5,0.2-0.8c0-2.5-6.6-3.6-8.4-4c-4.5-1.1-8.9-2.7-13.1-4.8c-2.2-1.1-3.1-3.4-3.1-5.7
			c0-0.6,0-1.2,0.1-1.8C165,12.5,176.1,5,186.5,5c6.4,0,17.6,1.8,17.6,10.2C204.1,17.2,203.2,20.9,201.9,22.4z"/>
	</defs>
	<clipPath id="SVGID_8_">
		<use xlink:href="#SVGID_7_"  style="overflow:visible;"/>
	</clipPath>
	<g class="st6">
		<polygon class="st3" points="153.3,31.8 211,7.8 192.1,-5.5 153.3,2.2 		"/>
	</g>
</g>
</svg>