<svg version="1.1" xmlns="http://www.w3.org/2000/svg" xmlns:xlink="http://www.w3.org/1999/xlink" x="0px" y="0px" viewBox="0 0 84 665" style="enable-background:new 0 0 84 665;" xml:space="preserve" width="84" height="665">
<style type="text/css">
	.st0{fill:#FDFDFD;}
</style>
<rect class="st0" width="84" height="665"/>
<path d="M69.5,110.6c-2.4,6.9-5.4,13.7-10.8,19.7c-7,7.7-16,13.2-25.9,16.1l-9-9.9c11.3-2.4,19.7-7.1,24.9-12.3
	c3-2.8,5.3-6.2,6.8-10H23c-1.8,0-5.9,0.1-9.1,0.4v-11.9c3.3,0.3,6.7,0.5,9.1,0.5h34.3c2.1,0.1,4.1-0.2,6.1-0.9l7.7,4.8
	C70.5,108.2,69.8,109.7,69.5,110.6z M28.7,85H56c2.8,0,5.7-0.1,8.5-0.4v11.9c-2-0.2-5.9-0.3-8.6-0.3H28.7c-2.5,0-5.9,0.1-8.1,0.3
	V84.6C23.3,84.9,26,85,28.7,85z"/>
<path d="M40.9,170.5c7.7-4.9,14.6-10.9,20.6-17.8l9.5,9c-6,5.7-12.4,10.9-19.3,15.4v28.4c0,3.5,0.2,8.5,0.7,10.5H38.6
	c0.4-3.5,0.5-7,0.5-10.5v-21.1c-7.8,4-16,7.2-24.4,9.7L9.3,183C20.4,180.5,31.1,176.3,40.9,170.5z"/>
<path d="M67.5,232.9l-2.8,1.2l5.7,3.6c-0.8,1.9-1.4,3.8-1.9,5.8c-1.7,6.8-4.7,17.8-10.8,26.2c-6.5,8.7-16.7,16.1-29.4,20.2
	l-9.4-10.2c14.6-3.3,22.7-9.7,28.4-16.8c4.1-5.4,6.8-11.7,7.9-18.4h-32c-3.6,0-7.5,0.2-9.4,0.4v-12.6c2.3,0.3,7.1,0.6,9.4,0.6H55
	c1.2,0,2.5,0,3.7-0.1c-1.1-2.1-2.4-4.3-3.7-6.3l7.1-2.9C64.1,226.4,65.9,229.6,67.5,232.9z M78.3,231.1l-7.1,3
	c-1.7-3.4-3.6-6.6-5.7-9.7l7.1-2.9C74.5,224.3,77,228.7,78.3,231.1z"/>
<path d="M56.5,337.3c-2.4-1.4-4.6-3.1-6.8-4.9c-2.9,3.1-7,4.9-11.2,4.8c-7.3,0-12-4-12-10c0-5,3.8-8,7.8-10.5
	c-1.9-2.5-3-5.5-3.2-8.6c0-5.4,3.7-8.9,8.7-8.9c4.8,0,7.9,3,7.9,7.5c0,5-4,7.9-8.1,10.6c3,3.3,6.3,6.5,9.7,9.4
	c2.1-2.9,3.5-6.3,4-9.9h4.2c-0.9,4.4-2.7,8.6-5.3,12.3c2,1.6,4.1,3.1,6.2,4.4L56.5,337.3z M38.9,333.6c3-0.1,5.9-1.5,8-3.8
	c-3.7-3.2-7.2-6.6-10.4-10.4c-3.2,2.1-5.7,4.4-5.7,7.5C30.8,331.2,34.1,333.6,38.9,333.6z M37.8,314.7c3.5-2.2,6.5-4.5,6.5-7.9
	c0.1-2.3-1.6-4.2-3.8-4.3c-0.1,0-0.2,0-0.3,0c-3,0-5,2.1-5,5.4C35.1,310,36.1,312.3,37.8,314.7z"/>
<path d="M46.8,350c8.2,12,19.8,21.4,32,26.1c-2.8,3-5.2,6.2-7.3,9.7c-11.5-6.2-23.7-16.5-29.9-25.2c-6.2,8.8-17.2,18.4-29.3,25.1
	c-1.9-3.2-4.3-6.2-7-8.8c12.9-6.3,24.7-17.9,30.2-27L46.8,350L46.8,350z M48.1,409.4h25.6v9.7H10.1v-9.7h7.3v-25H28v25h8.5v-37.6H48
	v15.1h19v9.6H48L48.1,409.4z"/>
<path d="M75.8,428.9v10H47.1v4.7h12.5v34.2H24.3v-34.1h11.9V439h-28v-10L75.8,428.9z M63,442.5h10.4v52.8H63V491H21v4.2H10.5v-52.8
	H21v38.4h42V442.5z M33.1,456.6h4v-4.3h-4V456.6z M33.1,469.1h4v-4.4h-4V469.1z M50.4,452.3h-4.1v4.3h4.1V452.3z M50.4,464.8h-4.1
	v4.4h4.1V464.8z"/>
<path d="M74.3,552.5c-2.6,1.8-5.4,3.4-8.2,4.8c3.5,1.7,7.1,2.8,10.9,3.4c-2.5,2.7-4.7,5.7-6.3,8.9c-8.2-2.1-14.3-5.7-18.9-10.8
	l0.3,5.9c-9.4,1.5-19.5,2.8-27.2,3.9l-1.5-9.8c2.1-0.2,4.5-0.4,7.1-0.7v-9.3H24V542c-1.1,10-3.4,20.4-8.2,27.9
	c-3-2.2-6.3-4.1-9.8-5.6c7.4-11.3,8-28.2,8-40.1V502h58.5v21.5H63v3.8h9.7v8.9H63v3.6h13.2v9h-7.4L74.3,552.5z M24.8,524.2
	c0,4.6-0.1,10-0.7,15.6h10v-3.6h-8.4v-8.9h8.4v-3.8h-9.4v0.7H24.8z M24.8,511v3.3h36.7V511H24.8z M40.5,556.9l8.9-1.1
	c-1.5-2.2-2.8-4.6-3.9-7h-5V556.9z M53,523.5h-8.9v3.8H53V523.5z M53,536.2h-8.9v3.6H53V536.2z M55.9,548.8c0.8,1.2,1.8,2.4,2.9,3.4
	c1.8-1,3.6-2.3,5.1-3.4H55.9z"/>
<path d="M34.3,625.2c-0.1-4,3-7.3,7-7.4c0.2,0,0.4,0,0.6,0c4-0.2,7.4,2.9,7.6,6.8c0,0.2,0,0.4,0,0.6c0.1,4-3,7.4-7.1,7.6
	c-0.2,0-0.3,0-0.5,0c-4,0.2-7.4-3-7.6-7C34.3,625.6,34.3,625.4,34.3,625.2z M35.1,588.6l-0.4-12.3h14.6l-0.5,12.3l-2.2,23.5h-9.2
	L35.1,588.6z"/>
</svg>
