<svg version="1.1" xmlns="http://www.w3.org/2000/svg" xmlns:xlink="http://www.w3.org/1999/xlink" x="0px" y="0px" viewBox="0 0 65 423" style="enable-background:new 0 0 65 423;" xml:space="preserve" width="65" height="423">
<style type="text/css">
	.st0{fill:#FDFDFD;}
</style>
<rect class="st0" width="65" height="423"/>
<path d="M26.3,74.4c-1-1.5-2.4-3.3-3.9-5.1V88h-8V71.1c-1.3,1.4-2.7,2.7-4.2,3.9c-1-2.7-2.4-5.2-4.1-7.6c5.1-3.5,10-9.5,13.3-15.6
	H7.6v-7.3h6.8v-9.7h8v9.7h1l1.3-0.3l4.5,3c-1.7,4.7-4,9.2-6.7,13.5l1.2,1c1.5-2,2.8-4.2,4-6.4l5.2,4.3c-2.1,1.8-3.8,3.9-5.3,5.4
	c1.5,1.4,2.9,2.6,3.5,3.2L26.3,74.4z M58.9,38.5c0,0,0,3,0,4c-0.5,27.9-1,37.9-3.1,41c-1.1,2.1-3.1,3.5-5.4,3.9
	c-2.7,0.4-5.5,0.6-8.2,0.4c-0.3-2.9-1.2-5.8-2.6-8.4c2.7,0.2,5.2,0.2,6.5,0.2c0.9,0.1,1.7-0.4,2.1-1.2c1.5-1.8,2-10.7,2.4-32.4h-6.4
	c-0.5,16.4-2,32-14.5,41.8c-1.6-2.5-3.6-4.7-6-6.5C34.8,73.2,35.6,60.1,35.8,46h-7.3v-7.6L58.9,38.5L58.9,38.5z"/>
<path d="M58.8,107.6v7.2H8.1v-7.2h11.8c-0.4-1.8-1.1-3.6-1.9-5.3l0.9-0.2h-7.7v-7.2H29v-4.2h8.6v4.2h18.8v7.2h-7.2l1.1,0.2
	c-1,2-1.8,3.8-2.5,5.3H58.8z M15.9,117.3h36.2v26.5h-8.6v-1.7H24v1.7h-8.1V117.3z M24,124v2.7h19.5V124H24z M43.4,135.5v-2.8H24v2.8
	H43.4z M26.8,102.1c0.9,1.7,1.5,3.5,1.9,5.4l-0.5,0.1h11.3l-0.5-0.1c0.7-1.8,1.2-3.6,1.7-5.4H26.8z"/>
<path d="M50.6,186.8l-3.7,8.6c-7.4-3-25.1-7-33.8-8.3l3.4-8.4C25.9,180.2,43.1,184.1,50.6,186.8z M48.1,169.9l-3.2,8.4
	c-6.2-2.4-20.5-5.6-28.8-7l3-8.1C27.1,164.5,41.2,167.6,48.1,169.9z M51.9,155l-3.4,8.3c-6.2-2.3-22.2-5.9-30-6.9l3.1-8
	C28.8,149.3,45,152.6,51.9,155z"/>
<path d="M35,208.1h8.8c1.8,0,3.6-0.2,5.4-0.7l6.7,4.1c-0.8,1.4-1.5,2.9-2.1,4.5c-2.1,6.4-5.3,12.5-9.4,17.8
	c-5.3,6.5-11.9,11.5-22.1,15.7l-7.8-7c11.7-3.6,17.4-8.2,22-13.3c3.4-4,5.8-8.6,7.2-13.6H30.1c-3.9,5-8.5,9.3-13.7,13L9,223.1
	c6.9-4.2,12.7-10,16.9-17c1.2-2,2.2-4.2,2.9-6.5l9.6,3.2C37.2,204.5,35.9,206.7,35,208.1z"/>
<path d="M32.4,254.5c-0.5,1.7-1,4.4-1.2,5.7c-0.1,0.3-0.1,0.7-0.2,1c2.8-0.5,5.6-1,8.4-1.6v8.3c-3.4,0.8-6.8,1.4-10.2,1.7
	c-0.5,2.4-1.1,4.8-1.6,6.9c-2.3,8.7-5.2,17.3-8.8,25.5l-9.2-3.1c3.2-5.5,7.6-17.1,9.7-24.8l1-3.9c-1,0-1.9,0-2.8,0
	c-2.8,0-5-0.1-6.8-0.2l-0.2-8.3c2.4,0.3,4.7,0.4,7.1,0.5c1.5,0,2.9-0.1,4.4-0.1c0.2-0.7,0.3-1.5,0.3-2.2c0.3-2,0.3-4.1,0.2-6.1
	L32.4,254.5z M38.5,285.1c-0.4,1.4-0.7,2.9-0.7,4.4c0,2.3,1.7,3.8,6.5,3.8c3.9-0.1,7.9-0.5,11.8-1.2l-0.3,8.5
	c-3.8,0.5-7.6,0.8-11.5,0.8c-9.6,0-14.7-3.5-14.7-9.1c0.1-2.6,0.4-5.3,1.1-7.8L38.5,285.1z M34.5,271c3.2-0.3,7.3-0.6,10.9-0.6
	c3.1,0,6.4,0.2,9.7,0.5L55,279c-3.2-0.4-6.4-0.7-9.6-0.7c-3.6,0-7.3,0.2-10.9,0.6V271z"/>
<path d="M32.2,306.4c-0.6,2.2-1,4.2-1.5,6.2l-0.2,0.8c6.6-0.4,13.2-1.2,19.7-2.5l0.2,7.9c-7.1,1.1-14.3,1.9-21.6,2.3
	c-0.6,2.6-1.3,5.3-2,7.6c4-1.8,8.3-2.7,12.7-2.7c9,0,15.3,4.9,15.3,12.3c0,12.8-12,17.4-30.4,15.5l-2.4-8.6c11.7,2,23.7,1,23.7-6.6
	c0-2.8-2.6-5.3-7.3-5.3c-6.2,0-11.5,2.3-14.6,6.4c-0.5,0.7-1,1.5-1.4,2.3l-7.8-2.7c2.5-4.9,4.6-11.9,6.1-17.9
	c-3.2-0.1-6.3-0.2-8.9-0.5v-8.2c3.4,0.6,6.9,1,10.4,1.1c0.1-0.6,0.2-1.1,0.2-1.5c0.3-2,0.4-4,0.3-6L32.2,306.4z"/>
<path d="M34.7,390.4l-1.7-2.7c1-0.1,2.1-0.3,3.1-0.5c4.7-1,9.2-4.5,9.2-10.8c0.2-5.6-4.2-10.3-9.8-10.5c-0.4,3.5-1.2,7-2.2,10.5
	c-2.2,7.5-5.1,11.3-8.4,11.3s-6.5-3.7-6.5-9.7c0-7.9,7-14.7,15.8-14.7c8.5,0,13.9,6,13.9,13.3C48.3,384.1,43.3,389.3,34.7,390.4z
	 M25.1,384.3c1.7,0,3.7-2.4,5.5-8.5c0.9-3.2,1.6-6.5,2-9.8c-7,0.9-11.2,6.9-11.2,11.7C21.5,382.3,23.5,384.3,25.1,384.3L25.1,384.3z
	"/>
</svg>