<svg version="1.1" xmlns="http://www.w3.org/2000/svg" xmlns:xlink="http://www.w3.org/1999/xlink" x="0px" y="0px" viewBox="0 0 65 323" style="enable-background:new 0 0 65 323;" xml:space="preserve" width="65" height="323">
<style type="text/css">
	.st0{fill:#FDFDFD;}
</style>
<rect class="st0" width="65" height="323"/>
<path d="M37.7,73.2V45l-5,5.8C32,50,31.2,49,30.2,48v2.6H17.5v-1.9c-1.2,1.1-2.6,2.2-4,3.2H35v18.6H17.3c-0.1,0.5-0.2,1-0.3,1.5h19
	v15.2h-7v-1.3h-7.6v1.4h-6.8v-7c-0.9,2.1-2,4.2-3.4,6c-1.6-1.8-3.4-3.5-5.4-4.9c4.9-6.5,5.4-15.6,5.4-22v-5.9l-0.9,0.6
	C9,52,7.3,50,5.4,48.3c5.7-3.1,10.5-7.7,13.8-13.2h7.2c3.9,2.9,7.7,6.1,11.2,9.6v-3.5h7.7v32H37.7z M27.8,65.1v-1.5H18l-0.1,1.5
	H27.8z M18.1,57.5v1.4h9.7v-1.4H18.1z M27.5,45.2c-1.2-1.2-2.4-2.3-3.6-3.2c-0.9,1-1.8,2.1-2.9,3.2H27.5z M21.4,77.8v2.5h7.5v-2.5
	H21.4z M57.6,35.4V78c0,4.3-0.7,6.5-3.2,7.8s-6.1,1.6-10.9,1.6C43,84.5,42.2,81.7,41,79c3.1,0.2,6.3,0.2,7.4,0.2
	c1,0,1.3-0.3,1.3-1.3V35.4H57.6z"/>
<path d="M25.7,93c-1.5,3.9-3.2,7.7-5.1,11.4v39h-8.2V117c-0.8,1-1.6,1.8-2.4,2.6c-1.2-3.1-2.7-6-4.4-8.8c4.9-4.9,9.5-12.6,12.2-20.3
	L25.7,93z M44.4,107v4.7h13.7v7.3H44.4v5h14.4v7.6H44.4v11.8H36V107h-1c-2,3.7-4.4,7.2-7.1,10.4c-1.9-2.1-3.9-4-6.2-5.7
	c4.9-4.9,9.2-13,11.7-21l7.8,2.1c-0.7,2.2-1.6,4.4-2.5,6.5h20.8v7.7H44.4z"/>
<path d="M20.5,155.3c2.3-0.3,9.8-1,15.9-1.5c4-0.3,7.6-0.6,10-0.6v3c-2.4-0.1-4.9,0.1-7.2,0.6c-4.9,1.8-8.3,6.3-8.6,11.5
	c0,7.1,6.8,9.3,12.7,9.5l-1,3.1c-6.7-0.3-14.6-3.9-14.6-12c0.1-5,2.8-9.6,7-12.2c-3.9,0.4-13.1,1.4-17,2.2l-0.3-3.2
	C18.6,155.5,19.7,155.4,20.5,155.3z M44.1,165.6l-1.9,0.9c-0.9-1.8-1.9-3.5-3-5.1l1.8-0.8C42.1,162.2,43.2,163.9,44.1,165.6z
	 M48.2,164l-1.8,0.9c-0.9-1.8-1.9-3.5-3.1-5.1l1.8-0.8C46.2,160.6,47.2,162.3,48.2,164z"/>
<path d="M27.8,213.7c-2.9,2-6.1,3.6-9.5,4.8c-0.6-0.7-1.3-1.3-2-1.9c3.2-0.8,6.2-2.1,9.1-3.9L27.8,213.7z M33.2,201.7h-7.3v2.3h-2.4
	v-2.3h-7.1V200h7.1v-1.6h-5.9v-8.1h5.9v-1.5h-6.8v-1.7h6.8V185h2.4v2.1h7v1.7h-7v1.5H32v8.1h-6.1v1.6h7.3V201.7z M34.1,212.1v6.9
	h-2.7v-6.8L17,212.4l-0.1-2.3c2.4,0,5.3,0,8.5,0c0.6-0.3,1.3-0.6,2-1c-2.1-1.3-4.3-2.4-6.6-3.4l1.9-1.5c0.8,0.3,1.7,0.7,2.6,1.1
	c1.6-1.1,3.2-2.3,4.7-3.7l2.3,1.1c-1.6,1.3-3.3,2.4-5,3.5c1,0.5,1.9,1,2.6,1.5c2.6-1.4,5.1-2.9,7.5-4.7l2.3,1.3
	c-3.1,2-6.4,3.9-9.7,5.5c3.7,0,7.7-0.1,11.7-0.1c-1.2-0.7-2.4-1.3-3.6-1.8l1.7-1.4c3.3,1.4,6.3,3.2,9.2,5.3l-1.9,1.6
	c-0.7-0.6-1.5-1.2-2.3-1.7L34.1,212.1z M19.7,193.5h3.7v-1.7h-3.7V193.5z M23.5,196.8V195h-3.7v1.8H23.5z M25.9,191.8v1.7h3.9v-1.7
	H25.9z M29.7,195.1h-3.9v1.8h3.9V195.1z M47.3,194.5c-0.9,2.4-2.5,4.5-4.7,6c2.3,1,4.7,1.6,7.2,1.9c-0.6,0.6-1.1,1.3-1.5,2.1
	c-2.8-0.4-5.5-1.3-8-2.6c-2,1-4.2,1.7-6.4,2.1c-0.3-0.7-0.7-1.4-1.2-2c1.9-0.3,3.7-0.8,5.5-1.5c-1.4-1.1-2.5-2.4-3.4-4l1.6-0.4H34
	v-1.4l-0.1,0.1c-0.4-0.7-1-1.3-1.6-1.9c2.5-1.3,3-2.7,3-4.2v-2.4h9.6v3.4c0,0.6,0,0.9,0.1,1c0.2,0.1,0.4,0.2,0.6,0.1h1
	c0.2,0,0.5,0,0.7-0.1s0.4-0.3,0.4-0.6c0.1-0.7,0.2-1.3,0.2-2c0.5,0.4,1.2,0.8,1.8,1c0,0.9-0.1,1.7-0.4,2.6c-0.2,0.4-0.6,0.7-1,0.9
	c-0.5,0.2-1,0.2-1.5,0.2H45c-0.7,0-1.4-0.2-1.9-0.6c-0.5-0.4-0.6-1-0.6-2.7v-1.3h-4.9v0.4c0.1,2.1-0.9,4.2-2.7,5.4h10.7l0.5-0.1
	L47.3,194.5z M37.3,196c0.8,1.3,2,2.5,3.3,3.3c1.4-0.8,2.6-2,3.5-3.3H37.3z M39.7,212.6c3.2,1,6.3,2.4,9.2,4.1l-2.1,1.7
	c-2.9-1.8-5.9-3.2-9.1-4.2L39.7,212.6z"/>
<path d="M29.7,227.1c-0.2,1-0.5,3.1-0.9,5.1c1.7-0.1,3.2-0.2,4-0.2c3.3,0,5.9,1.3,5.9,6.2c0,4.3-0.6,10.1-2.1,13.1
	c-1.1,2.4-3,3-5.3,3c-1.4,0-2.9-0.2-4.3-0.5l-0.5-3.1c1.5,0.4,3,0.7,4.5,0.7c1.3,0.2,2.6-0.6,3.2-1.9c1.2-2.4,1.7-7.2,1.7-11.1
	c0-3.3-1.5-3.9-3.8-3.9c-0.9,0-2.3,0.1-3.9,0.3c-1.3,5.2-3.9,13.4-7.7,19.5l-3-1.2c3.7-5,6.4-13.2,7.7-18.1
	c-1.9,0.2-3.7,0.4-4.6,0.5s-2.4,0.3-3.3,0.4l-0.3-3.1c1.1,0.1,2.1,0,3.2,0s3.3-0.2,5.5-0.4c0.6-2.6,0.9-5.2,0.9-7.8l3.4,0.3
	C30,225.6,29.8,226.4,29.7,227.1z M49.4,243.1l-2.9,1.4c-1.1-4-4.1-11.1-6.6-14.1l2.7-1.2C44.9,232.1,48.2,239.5,49.4,243.1
	L49.4,243.1z M46,228.8l-2,0.9c-0.9-1.8-1.8-3.5-2.9-5.1l2-0.8C44.1,225.5,45.1,227.1,46,228.8z M50,227.4l-2,0.9
	c-0.9-1.7-1.9-3.4-3-5l1.9-0.9C48,224,49.1,225.6,50,227.4z"/>
<path d="M25.8,263.2c1.9,0,10.5-0.3,12.5-0.5c0.7,0,1.4-0.1,2-0.3l1.7,2.2c-0.6,0.5-1.4,0.9-2,1.5c-1.8,1.4-6.7,5.6-9.5,8
	c1.6-0.5,3.3-0.8,5-0.8c6,0,10.4,3.7,10.4,8.5c0,5.8-4.8,9.7-12.5,9.7c-5,0-8-2.2-8-5.2c0-2.5,2.2-4.7,5.6-4.7
	c3.8-0.2,7.1,2.6,7.5,6.4c2.7-0.8,4.5-3.4,4.5-6.2c0-3.6-3.4-6.2-8.2-6.2c-6,0-9.2,2.5-13.8,7.2l-2.1-2.1c3-2.5,7.6-6.3,9.7-8.1
	s6.5-5.4,8.4-7.1c-1.9,0.1-9.1,0.4-11,0.5c-0.8,0-1.6,0.1-2.4,0.2l-0.1-3.1C24.1,263.2,25,263.2,25.8,263.2z M32.8,288.8
	c1,0,1.9-0.1,2.9-0.2c-0.3-2.9-2.1-4.9-4.8-4.9c-1.7,0-2.9,1-2.9,2.3C27.9,287.8,29.9,288.8,32.8,288.8L32.8,288.8z"/>
</svg>