<svg version="1.1" xmlns="http://www.w3.org/2000/svg" xmlns:xlink="http://www.w3.org/1999/xlink" x="0px" y="0px" viewBox="0 0 65 528" style="enable-background:new 0 0 65 528;" xml:space="preserve" width="65" height="528">
<style type="text/css">
	.st0{fill:#FDFDFD;}
</style>
<rect class="st0" width="65" height="528"/>
<path d="M25.2,78.6c-1.1-1.6-2.6-3.5-4.2-5.4v19.9h-8.5v-18c-1.4,1.5-2.9,2.9-4.4,4.2c-1.1-2.9-2.6-5.6-4.4-8.1
	C9,67.5,14.2,61.1,17.7,54.5H5.2v-7.8h7.2V36.4H21v10.3h1.1l1.4-0.4l4.8,3.2c-1.9,5-4.3,9.8-7.2,14.3l1.3,1.1c1.6-2.2,3-4.4,4.2-6.8
	l5.5,4.6c-2.2,1.9-4.1,4.1-5.7,5.8c1.6,1.5,3.1,2.8,3.7,3.4L25.2,78.6z M59.9,40.4c0,0,0,3.2-0.1,4.3c-0.5,29.7-1.1,40.4-3.3,43.8
	c-1.2,2.2-3.3,3.7-5.8,4.2c-2.9,0.5-5.8,0.6-8.8,0.4c-0.3-3.2-1.2-6.2-2.8-9c2.9,0.2,5.5,0.2,6.9,0.2c0.9,0.1,1.8-0.4,2.3-1.2
	c1.6-1.9,2.2-11.4,2.5-34.5h-6.7C43.7,66,42,82.7,28.7,93.1c-1.7-2.7-3.9-5-6.4-6.9C34.2,77.6,35,63.6,35.3,48.6h-7.8v-8.2H59.9z"/>
<path d="M59.7,114v7.7h-54V114h12.5c-0.5-2-1.1-3.9-2-5.7l1-0.2H9v-7.6h18.9v-4.5h9.2v4.5h20v7.6h-7.6l1.2,0.2c-1,2.1-1.9,4-2.7,5.6
	L59.7,114z M14,124.4h38.6v28.3h-9.2v-1.8H22.7v1.8H14V124.4z M22.7,131.5v2.9h20.7v-2.9H22.7z M43.4,143.8v-3H22.7v3H43.4z
	 M25.6,108.2c0.9,1.8,1.6,3.7,2,5.7l-0.5,0.1h12.1l-0.5-0.1c0.7-1.6,1.3-3.8,1.8-5.7H25.6z"/>
<path d="M41.1,187.6c5.6,6.5,12.5,11.7,20.4,15.2c-2.4,2.2-4.5,4.8-6.3,7.6c-6.8-3.8-12.9-8.9-17.8-14.9v16.9H28v-16.7
	c-5.1,5.9-11.2,10.8-18,14.5c-1.8-2.7-4-5.3-6.4-7.5c7.9-3.4,14.9-8.6,20.5-15.1H5.8V179H28v-6.1H10.4v-8.6H28v-8.5h9.2v8.5h18v8.6
	h-18v6.1h22.6v8.6H41.1z"/>
<path d="M53.8,251.3c-1.6-1.6-4.2-3.8-6.9-6c-0.9,1.5-2,2.8-3.3,4.1c-1.5-1.1-3.1-2.2-4.8-3.1c6,7.2,13.7,12.6,22.5,15.7
	c-2.5,2.4-4.7,5.1-6.4,8c-6.8-3.3-12.9-7.9-17.9-13.5v15.6h-9.1V257c-5,5.6-11,10-17.7,13.2c-1.8-2.7-3.8-5.3-6.1-7.5
	c9.8-3.7,18.8-10.7,23.9-18.4v-13.4H17.2l7.2,1.4c-0.5,2.1-1.2,4.1-2,6.1c2,1.6,4,3.3,5.2,4.5l-5.7,6.1c-1-1.2-2-2.3-3.2-3.3
	c-1.8,2.8-3.9,5.3-6.4,7.5c-2-2.1-4.3-4-6.7-5.7c5.1-3.6,8.7-9.8,10.3-16.7H6.8v-8.5h21.1v-7H37v7h21.9v8.5H45.3l7.1,1.3
	c-0.5,2.1-1.1,4.1-1.9,6.1c3.2,2.4,7,5.2,9.2,7.1L53.8,251.3z M37,230.9v12.9l0.1,0.2c3.3-3.2,5.7-8.1,6.8-13.1L37,230.9z"/>
<path d="M41.5,297.8v2.7h6.4v2.9h-6.4v5c0,1.8-0.4,2.7-1.8,3.1s-3.3,0.5-6.2,0.5c-0.3-1.1-0.7-2.1-1.2-3.1c2.2,0.1,4.3,0.1,4.9,0
	s0.8-0.1,0.8-0.6v-4.9H25.7c2,1.3,3.8,3,5.3,4.8l-2.6,2.1c-1.6-2.1-3.5-4-5.7-5.5l1.9-1.5h-6.9v-2.9h20.4v-2.7H16.5V295h14.4v-2.7
	H20.1v-2.8h10.8v-2.2h0.9c-0.5-0.4-1-0.7-1.4-0.9c0.7-0.5,1.3-1.1,1.8-1.8h-5.9c0.4,0.9,0.8,1.8,1.1,2.8l-2.9,1.1
	c-0.4-1.3-1-2.7-1.6-3.9h-1c-1,1.5-2.1,3-3.4,4.3c-0.9-0.7-1.8-1.4-2.8-1.9c2.4-2.3,4.3-5.1,5.6-8.2l3.2,0.8c-0.3,0.8-0.6,1.5-1,2.2
	h8.7v2.7c1.4-1.7,2.5-3.6,3.2-5.7l3.2,0.8c-0.3,0.8-0.6,1.5-1,2.3h10.9v2.8h-6.9c0.6,0.9,1.2,1.8,1.7,2.8l-2.9,1.2
	c-0.7-1.4-1.5-2.8-2.4-4h-2c-0.6,0.9-1.3,1.8-2.1,2.7h0.2v2.2h11.3v2.8H34.4v2.7H49v2.9L41.5,297.8z"/>
<path d="M22.7,330.3c0,5.1-0.5,12.6-3.7,17.5c-0.8-0.7-1.7-1.3-2.7-1.8c3-4.6,3.2-11,3.2-15.7V322h11.3v-7h3.3v2.5h12.1v2.5H34.1v2
	h11.5l0.5-0.1l2.4,0.6c-0.5,2-1.2,3.9-2,5.8l-2.8-0.8c0.3-0.8,0.6-1.8,0.9-2.9H33.8v2.2l8.2-0.6l0.2,2.2l-8.4,0.7v0.8
	c0,1,0.4,1.1,2.5,1.1h7.1c1.5,0,1.8-0.3,1.9-2.2c0.8,0.4,1.8,0.8,2.7,0.9c-0.3,3-1.3,3.7-4.3,3.7H36c-4.2,0-5.4-0.7-5.4-3.6v-0.6
	l-6.2,0.5l-0.2-2.3l6.4-0.5v-2.5h-8L22.7,330.3z M39.5,344.2h8.8v2.9H21.9v-2.9h8.6v-2.5h-5.6V335h2.6v4.2h3v-4.8h2.9v9.8h3.3v-9.8
	h2.9v4.8h3.3V335h2.6v6.7h-6L39.5,344.2z"/>
<path d="M32.1,374.7c-0.1,0.4-0.2,0.8-0.3,1.2c1.2,1,2.4,2.1,3.4,3.3l-1.8,2.2c-0.8-1-1.7-2-2.6-2.9c-1.2,2.3-2.9,4.2-5,5.6
	c-0.5-0.7-1.2-1.4-1.9-1.9c2.8-1.6,4.7-4.3,5.4-7.5h-4.6V372h4.9c0-0.4,0-0.8,0-1.1v-2.6h-1.2c-0.4,1.2-1,2.3-1.7,3.4
	c-0.7-0.5-1.4-1-2.1-1.4c0.3-0.4,0.6-0.9,0.8-1.3l-2.4,0.9v10.8c0,1.6-0.3,2.5-1.2,3s-2.3,0.6-4.5,0.5c-0.2-1-0.5-2-0.9-2.9
	c1.4,0,2.7,0,3.1,0s0.6-0.1,0.6-0.6v-9.6c-1.2,0.5-2.5,0.9-3.5,1.3l-0.8-3.2c1.2-0.4,2.7-0.9,4.4-1.5v-6.4h-3.9V358h3.9v-7h2.9v7
	h2.5v3.1h-2.5v5.4l2.5-0.9l0.4,2.2c0.7-1.7,1.1-3.4,1.4-5.1l2.6,0.5c-0.2,0.9-0.4,1.7-0.6,2.6h6.2v2.5h-3.1v2.6c0,0.4,0,0.7,0,1.1
	H36v2.7L32.1,374.7z M30,362.7c-2.9,0-3.5-0.7-3.5-3.5V351h2.8v4.1c1.8-0.6,3.5-1.5,5.1-2.4l1.9,2.1c-2.2,1.2-4.6,2.1-7,2.8v1.7
	c0,0.9,0.1,1,1.1,1h3.2c0.7,0,0.9-0.3,1-2.4c0.7,0.5,1.6,0.8,2.5,1c-0.3,3.1-1.1,3.9-3.2,3.9L30,362.7z M43.8,380.7
	c0.7,0.1,1.3,0.2,2,0.2c0.6,0,3,0,3.8,0c-0.4,0.9-0.6,1.8-0.8,2.7h-3.2c-3.1,0-5.6-0.8-7.4-4.2c-0.5,1.7-1.4,3.4-2.5,4.8
	c-0.6-0.6-1.3-1.1-2.1-1.5c2.7-3,3.3-7.7,3.5-13.4l2.5,0.1c0,2.1-0.2,4.2-0.5,6.2c0.4,1.4,1.1,2.7,2.1,3.8v-12.8H36v-2.7h8.5
	c-2-2.2-4.5-4.1-7.2-5.4l1.8-1.9c1,0.5,1.9,1,2.8,1.5c0.9-1.1,1.7-2.2,2.5-3.4h-7.9v-2.6h9.7l0.5-0.2l1.9,1.3
	c-1.3,2.3-2.8,4.4-4.6,6.3c0.9,0.6,1.7,1.4,2.4,2.2l-1.9,2h2.3l0.4-0.1l1.6,0.4c-0.4,2.2-0.9,4.7-1.4,6.3l-2-0.5
	c0.2-0.9,0.4-2.2,0.7-3.4h-2.4v5.3h4.5v2.7h-4.5L43.8,380.7z"/>
<path d="M42.4,401.4c0,3.1,1.1,11.5,7.3,15.8c-0.7,0.9-1.4,1.9-2,2.9c-4.7-3.3-6.5-9.8-6.9-12.6c-0.4,2.9-2.3,9.2-7.2,12.6
	c-0.5-0.8-1-1.7-1.6-2.4c0,0.8-0.4,1.6-1.2,1.9c-1,0.4-2.5,0.4-4.6,0.4c-0.2-0.9-0.5-1.8-0.9-2.7c1.5,0,2.9,0,3.3,0s0.6-0.1,0.6-0.5
	v-10H16.1v-2.8h18.6v2.8H32v10.3c6.1-4.4,7.1-12.6,7.1-15.7v-4.9h-1.5c-0.7,2.3-1.6,4.5-2.8,6.6c-0.9-0.6-1.9-1.2-2.9-1.8
	c2.3-3.4,3.7-8.7,4.4-14.2l3.2,0.5c-0.3,2-0.6,3.9-1.1,5.8h8.1l0.5-0.1l2.2,0.5c-0.4,3.1-1.1,6.1-1.9,9.1l-2.7-0.6
	c0.5-1.9,0.9-3.9,1.1-5.9h-3.4V401.4z M29,391.6H16.5v-2.7h17.9v2.7h-2.4v8.6c0,1.4-0.2,2-1.2,2.5s-2.4,0.4-4.6,0.4
	c-0.2-0.9-0.5-1.7-0.9-2.5c1.4,0,2.8,0,3.2,0s0.6-0.1,0.6-0.5L29,391.6z M20.2,416.1v1.6h-2.5v-9.1h9v7.5H20.2z M26.6,400.4h-6.2
	v1.3h-2.5v-8.3h8.7L26.6,400.4z M20.2,410.8v3h4v-3H20.2z M24.1,395.4h-3.8v2.9h3.7L24.1,395.4z"/>
<path d="M48.9,444.7H34.5v7c0,2.2-0.6,3.1-2.1,3.6s-3.9,0.6-7.6,0.6c-0.3-1.2-0.8-2.3-1.4-3.3c2.9,0.1,5.8,0.1,6.6,0.1
	s1.1-0.3,1.1-1v-7H16.5v-3.3H31v-5.1H19v-3.2h12v-4.9c-3.9,0.3-7.8,0.6-11.4,0.7c-0.1-1-0.4-2-0.8-2.9c8.5-0.4,18.7-1.3,24.3-3
	l2.5,2.7c-3.6,0.9-7.3,1.6-11,2v5.3h12.4v3.2H34.5v5.1h14.4V444.7z"/>
<path d="M48.2,464.6c0,0,0,1.1,0,1.6c-0.5,16.2-0.9,21.8-2.4,23.6c-0.7,1-1.9,1.6-3.1,1.7c-1.8,0.1-3.6,0.1-5.4,0
	c-0.1-1.1-0.5-2.3-1.1-3.2c2.3,0.2,4.4,0.2,5.3,0.2c0.6,0.1,1.2-0.2,1.5-0.6c1.2-1.2,1.6-6.6,2.1-20.2h-8.5c-0.9,2.1-2,4.1-3.3,6
	c-0.8-0.7-1.7-1.3-2.6-1.9v16.5h-9.8v2.7h-3v-26.3h4c0.6-1.9,1-3.9,1.3-5.8l3.6,0.6c-0.6,1.8-1.3,3.7-1.9,5.2h5.8v6.8
	c2.4-3.1,4.3-7.9,5.4-12.6l3.2,0.8c-0.4,1.7-0.9,3.3-1.5,4.9L48.2,464.6z M20.8,467.7v6.8h6.7v-6.8H20.8z M27.5,485.4v-8h-6.7v8
	H27.5z M39.5,482.6c-1.5-2.9-3.3-5.7-5.3-8.3l2.6-1.5c2,2.5,3.8,5.2,5.4,8L39.5,482.6z"/>
</svg>
