<svg version="1.1" xmlns="http://www.w3.org/2000/svg" xmlns:xlink="http://www.w3.org/1999/xlink" x="0px" y="0px" viewBox="0 0 84 615" style="enable-background:new 0 0 84 615;" xml:space="preserve" width="84" height="615">
<style type="text/css">
	.st0{fill:#FDFDFD;}
</style>
<rect class="st0" width="84" height="615"/>
<path d="M19.4,65.9c-2.5-2.3-8-5.4-12.3-7.2l5.8-8c4.2,1.4,9.9,4.1,12.7,6.3L19.4,65.9z M28.9,76.2c-3.2,7.9-6.9,16-10.6,23.4
	l-9.6-6.3c4.4-7.6,8.3-15.4,11.8-23.4L28.9,76.2z M64.8,86.1c4.3,2.5,8.5,5.3,12.4,8.3l-8.8,5.8c-3.1-2.9-9.8-7.5-14.7-10.7l5.5-3.5
	H42.6l8,3c-4.3,4.5-11.4,9.1-17.2,11.7c-2.5-2.7-5.2-5.3-8.1-7.6c5.1-1.5,9.9-3.9,14.2-7.1h-7.8V58.5h14.8V56H34.7v-5.5h-5.9V38.8
	l-5.4,7.6c-2.6-2.4-8.2-5.6-12.5-7.4l5.8-8c4.2,1.5,8.3,3.6,12.1,6.1V36h17.4v-5.1H57V36h18.9v14.5h-6.3V56h-13v2.5h16.1v27.6H64.8z
	 M38.4,44.5v3.3h27.3v-3.3H38.4z M41,68.7h5.5v-2.6H41V68.7z M41,78.4h5.5v-2.6H41V78.4z M56.6,66.2v2.6h6.3v-2.6H56.6z M62.9,75.9
	h-6.3v2.6h6.3V75.9z"/>
<path d="M32.2,155H19.3v6.2H9.7v-50.6h22.4V155z M19.3,120.3v25h3.1v-25H19.3z M73.6,139.3v34.2h-11v-2.1h-18v2.4H34.3v-34.6H73.6z
	 M71.4,136.1H36.2v-29.2h35.3V136.1z M44.7,148.1v2.9h18v-2.9L44.7,148.1z M62.7,162.7v-3.1h-18v3.1H62.7z M60.7,114.8H46.4v2.9
	h14.2L60.7,114.8z M60.7,125.1H46.4v3h14.2L60.7,125.1z"/>
<path d="M46.1,178.4c8.5,7.7,19.7,12.8,31,15.4c-2.3,2.7-4.4,5.6-6.1,8.8c-1-0.3-2.1-0.7-3.1-1.1v18.9H16v-19
	c-1.3,0.5-2.6,0.9-3.9,1.4c-1.5-3-3.4-5.8-5.5-8.3c11.8-3.2,23.5-9.8,29.5-16L46.1,178.4z M19.9,222.1h44.3v25.3h-11V246H30.3v1.8
	H19.9V222.1z M63.2,199.6c-2.8-1.2-5.6-2.6-8.3-4v2.2h-26v-2.4c-2.8,1.5-5.6,2.9-8.6,4.2L63.2,199.6z M27.9,214.1
	c-0.3-2.4-0.9-4.7-1.6-6.9l4.9-1.2h-6.4v8.2H27.9z M30.3,228.8v1.8h22.9v-1.8H30.3z M53.2,239.3v-1.9H30.3v1.9H53.2z M37.2,205.9
	h-3.6c0.9,2.2,1.6,4.6,1.9,7l-4.2,1.2h5.8L37.2,205.9z M47.3,191c-2.1-1.4-4-2.9-5.8-4.5c-1.8,1.7-3.7,3.2-5.7,4.5H47.3z
	 M45.7,205.9v8.2h4.9l-3.7-0.9c0.9-2.4,1.6-4.8,2.2-7.2H45.7z M58.6,205.9h-5.3l4.7,1c-1.3,2.7-2.5,5.2-3.4,7.1h4.1L58.6,205.9z"/>
<path d="M56.8,295.7c-2.4-1.5-4.7-3.1-6.9-4.9c-2.9,3.2-7.1,5-11.4,4.9c-7.5,0-12.2-4-12.2-10.2c0-5.1,3.9-8.1,8-10.7
	c-1.9-2.5-3-5.6-3.2-8.7c0-5.5,3.7-9,8.9-9c4.9,0,8,3.1,8,7.6c0,5-4,8.1-8.3,10.8c3.1,3.4,6.4,6.6,9.9,9.6c2.2-3,3.6-6.4,4.1-10H58
	c-0.9,4.5-2.8,8.8-5.5,12.5c2.1,1.6,4.2,3,6.5,4.4L56.8,295.7z M38.8,291.9c3.1-0.1,6-1.5,8.1-3.8c-3.8-3.2-7.3-6.8-10.5-10.5
	c-3.2,2.1-5.8,4.4-5.8,7.7C30.5,289.5,34,291.9,38.8,291.9L38.8,291.9z M37.7,272.7c3.6-2.2,6.6-4.5,6.6-8c0.1-2.3-1.6-4.3-3.9-4.4
	c-0.1,0-0.2,0-0.3,0c-3.1,0-5.1,2.1-5.1,5.5C34.9,267.9,36,270.2,37.7,272.7L37.7,272.7z"/>
<path d="M46.7,304.1c8,11.8,19.5,21,31.4,25.7c-2.7,2.9-5.1,6.1-7.2,9.6c-11.3-6.1-23.3-16.2-29.3-24.8
	c-6.1,8.6-16.9,18.1-28.8,24.7c-1.9-3.1-4.2-6-6.8-8.6c12.7-6.2,24.3-17.6,29.6-26.6L46.7,304.1z M48,362.4h25.2v9.6H10.7v-9.6h7.2
	v-24.6h10.4v24.6h8.3v-36.9H48v14.8h18.7v9.4H48V362.4z"/>
<path d="M45.7,388.7H49v6.3h-3.3v7.2H32.6v1.6h13.7v5.5H32.6v1.5h16.2v6.5H8v-6.5h15.2v-1.5H11.1v-5.5h12.1v-1.6H11.1v-5.5h12.1V395
	H7.6v-6.3h15.6v-1.5H11.3v-5.5h11.9v-3.6h9.4v3.6h13.1V388.7z M7.7,437.9c10.6-0.2,26.6-0.7,41.3-1.2l-0.3,7.7
	c-14.4,0.7-29.9,1.2-40.4,1.5L7.7,437.9z M46.2,418.9V436H10.9v-17.1H46.2z M19,425.2h5.1v-1.8H19V425.2z M19,431.4h5.1v-1.8H19
	V431.4z M32.6,388.7h4.2v-1.5h-4.1L32.6,388.7z M36.7,395h-4.2v1.8h4.2V395z M37.7,423.5h-4.8v1.8h4.8V423.5z M37.7,429.6h-4.8v1.8
	h4.8V429.6z M60.2,429h-9.6v-41.8h9.6V429z M74.5,379.8v55.9c0,5.2-0.9,8-3.9,9.7s-7.3,2-13.1,2c-0.6-3.6-1.6-7.1-3.1-10.5
	c3.5,0.1,7.2,0.1,8.4,0.1s1.6-0.4,1.6-1.5v-55.8L74.5,379.8z"/>
<path d="M73.8,504.5c-2.6,1.7-5.2,3.3-8,4.8c3.4,1.6,7,2.8,10.7,3.4c-2.5,2.6-4.6,5.6-6.2,8.8c-8.1-2-14-5.5-18.5-10.7l0.3,5.8
	c-9.2,1.5-19.1,2.8-26.7,3.9l-1.5-9.6c2-0.2,4.5-0.4,7-0.7v-9.1h-6.6v-6.7c-1.1,9.9-3.4,20.1-8.1,27.5c-3-2.2-6.2-4-9.6-5.5
	c7.3-11.1,7.8-27.7,7.8-39.4v-21.8h57.5V476h-9.3v3.7h9.5v8.8h-9.5v3.5h12.9v8.8h-7.2L73.8,504.5z M25.1,476.7
	c0,4.5-0.1,9.9-0.7,15.3h9.9v-3.6h-8.2v-8.8h8.2V476h-9.2V476.7z M25.1,463.8v3.3h36.1v-3.3H25.1z M40.5,508.8l8.8-1.1
	c-1.5-2.2-2.8-4.5-3.9-6.9h-4.9V508.8z M52.8,476H44v3.7h8.8V476z M52.8,488.5H44v3.5h8.8V488.5z M55.6,500.9
	c0.8,1.2,1.8,2.3,2.8,3.4c1.8-1,3.5-2.3,5-3.4H55.6z"/>
<path d="M34.5,576.6c-0.1-3.9,3-7.2,6.9-7.3c0.2,0,0.4,0,0.6,0c3.9-0.2,7.2,2.8,7.4,6.7c0,0.2,0,0.4,0,0.6c0.1,4-3,7.3-7,7.4
	c-0.2,0-0.3,0-0.5,0c-4,0.2-7.3-2.9-7.4-6.9C34.5,577,34.5,576.8,34.5,576.6z M35.2,540.7l-0.4-12.1h14.3l-0.4,12.1l-2.2,23.1h-9.1
	L35.2,540.7z"/>
</svg>