<svg version="1.1" xmlns="http://www.w3.org/2000/svg" xmlns:xlink="http://www.w3.org/1999/xlink" x="0px" y="0px" viewBox="0 0 84 680" style="enable-background:new 0 0 84 680;" xml:space="preserve" width="84" height="680">
<style type="text/css">
	.st0{fill:#FDFDFD;}
</style>
<rect class="st0" width="84" height="680"/>
<path d="M19.4,121.4c-2.5-2.3-8-5.4-12.3-7.2l5.8-8c4.2,1.4,9.9,4.1,12.7,6.3L19.4,121.4z M28.9,131.7c-3.2,7.9-6.9,16-10.6,23.4
	l-9.6-6.3c4.4-7.6,8.3-15.4,11.8-23.4L28.9,131.7z M64.8,141.6c4.3,2.5,8.4,5.3,12.4,8.3l-8.8,5.8c-3.1-2.9-9.8-7.5-14.7-10.6
	l5.5-3.5H42.6l8,3c-4.3,4.5-11.4,9-17.2,11.7c-2.5-2.7-5.2-5.3-8.1-7.6c5.1-1.5,9.9-3.9,14.2-7.1h-7.8V114h14.8v-2.5H34.7V106h-5.9
	V94.3l-5.4,7.6c-2.6-2.4-8.2-5.6-12.5-7.4l5.8-8C21,88,25,90,28.8,92.5v-1h17.4v-5.1H57v5.1h18.9V106h-6.3v5.6h-13v2.4h16.1v27.6
	L64.8,141.6z M38.4,100v3.3h27.3V100H38.4z M41,124.2h5.5v-2.6H41V124.2z M41,133.9h5.5v-2.6H41V133.9z M56.6,121.7v2.6h6.3v-2.6
	H56.6z M62.9,131.4h-6.3v2.6h6.3V131.4z"/>
<path d="M32.2,210.5H19.3v6.2H9.7v-50.6h22.4V210.5z M19.3,175.9v25h3.1v-25H19.3z M73.6,194.9v34.2h-11v-2h-18v2.4H34.3v-34.6
	L73.6,194.9z M71.4,191.6H36.2v-29.2h35.3V191.6z M44.7,203.6v2.9h18v-2.9H44.7z M62.7,218.2V215h-18v3.1H62.7z M60.7,170.4H46.4
	v2.9h14.2L60.7,170.4z M60.7,180.6H46.4v3h14.2L60.7,180.6z"/>
<path d="M25.1,259.9c-3.8,2.6-7.8,4.9-12,6.9c-1.7-3.2-3.8-6.2-6.3-8.9c12.5-5.3,23.9-15.6,29.1-23.8h11.3
	c7.6,10.4,18.2,18.1,30.4,22.2c-2.6,3-4.9,6.2-6.9,9.7c-4.1-1.9-8-4.1-11.8-6.6v6H25.1V259.9z M57.5,279.5
	c6,5.5,12.2,12.5,15.4,17.7l-9.9,6c-0.8-1.5-1.7-2.9-2.6-4.3c-16.8,1-34.5,1.8-46.9,2.3L12,290.9c3.4-0.1,7.1-0.2,11.2-0.4
	c1.7-3.6,3.1-7.2,4.3-11H11.8v-9.9h60.8v9.9L57.5,279.5z M53.7,255.6c-4.4-3.2-8.3-7.1-11.7-11.4c-3.3,4.2-7,8-11.2,11.4L53.7,255.6
	z M40.5,279.5c-1.8,3.6-3.7,7.3-5.5,10.7l17.8-0.7c-1.9-2.1-3.9-4.2-5.8-6l7.7-4H40.5z"/>
<path d="M56.8,351.2c-2.4-1.5-4.7-3.1-6.9-4.9c-2.9,3.2-7.1,5-11.4,4.9c-7.5,0-12.2-4-12.2-10.2c0-5.1,3.9-8.1,8-10.7
	c-1.9-2.5-3.1-5.6-3.2-8.8c0-5.5,3.7-9,8.9-9c4.9,0,8,3.1,8,7.6c0,5-4,8-8.3,10.8c3.1,3.4,6.4,6.6,9.9,9.6c2.2-3,3.6-6.4,4.1-10H58
	c-0.9,4.5-2.8,8.8-5.5,12.5c2.1,1.6,4.2,3.1,6.5,4.4L56.8,351.2z M38.8,347.4c3.1-0.1,6-1.5,8.1-3.8c-3.8-3.2-7.3-6.8-10.5-10.6
	c-3.2,2.1-5.8,4.4-5.8,7.7C30.5,345,34,347.4,38.8,347.4z M37.7,328.2c3.6-2.2,6.6-4.5,6.6-8c0.1-2.3-1.6-4.3-3.9-4.4
	c-0.1,0-0.2,0-0.4,0c-3.1,0-5.1,2.1-5.1,5.5C34.9,323.4,36,325.8,37.7,328.2z"/>
<path d="M46.7,359.6c8,11.8,19.5,21,31.4,25.7c-2.7,2.9-5.1,6.1-7.2,9.6c-11.3-6.1-23.3-16.2-29.3-24.8
	c-6.1,8.6-16.9,18.1-28.8,24.7c-1.9-3.1-4.2-6-6.8-8.6c12.7-6.2,24.3-17.6,29.6-26.6L46.7,359.6z M48,417.9h25.2v9.6H10.7v-9.6h7.2
	v-24.6h10.4v24.6h8.3V381H48v14.8h18.7v9.4H48V417.9z"/>
<path d="M45.6,464.3c-3.4,7.6-7.8,14.6-13.1,21c1.6,4.1,3.4,6.5,5.3,6.5c1.5,0,2.3-3.4,2.8-12c2.5,2.5,5.4,4.5,8.7,5.8
	c-1.6,13.7-4.9,16.8-12.3,16.8c-5.1,0-9.1-3.4-12.3-9c-3.2,3-6.7,5.6-10.4,8c-2.2-3-4.7-5.8-7.4-8.3c5-2.7,9.6-6,13.6-9.9
	c-1.9-6.8-3.3-13.7-4-20.7l-8.7,1l-1-10.1l8.7-1c-0.4-6.1-0.6-12.4-0.6-18.6h10.9c-0.1,5.8,0,11.8,0.4,17.5l20.8-2.3l1,10l-20.9,2.3
	c0.5,4.2,1.2,8.2,1.9,11.8c2.6-3.7,4.8-7.7,6.6-11.9L45.6,464.3z M36.2,449.9c-1.8-2.9-6.2-7.4-9.8-10.4l7-5.7
	c3.6,2.8,8.2,6.9,10.3,9.8L36.2,449.9z M59.7,481.9H49.6v-40.5h10.2L59.7,481.9z M73.8,434.5v56.7c0,5.5-1,8.2-4.1,9.9
	s-7.7,2-13.9,2c-0.6-3.6-1.7-7.2-3.3-10.5c3.7,0.1,7.9,0.1,9.2,0.1s1.8-0.4,1.8-1.6v-56.7L73.8,434.5z"/>
<path d="M73.8,560c-2.6,1.7-5.2,3.3-8,4.8c3.4,1.6,7,2.8,10.7,3.4c-2.5,2.6-4.6,5.6-6.2,8.8c-8.1-2-14-5.5-18.5-10.7L52,572
	c-9.2,1.5-19.1,2.8-26.7,3.9l-1.5-9.6c2-0.2,4.5-0.4,7-0.7v-9.1h-6.6v-6.7c-1.1,9.8-3.4,20.1-8.1,27.5c-3-2.2-6.2-4-9.6-5.5
	c7.3-11.1,7.8-27.7,7.8-39.4v-21.8h57.5v21.1h-9.3v3.7h9.5v8.8h-9.5v3.6h12.9v8.8h-7.2L73.8,560z M25.1,532.2
	c0,4.5-0.1,9.9-0.7,15.3h9.9V544h-8.2v-8.8h8.2v-3.7h-9.2V532.2z M25.1,519.3v3.3h36.1v-3.3H25.1z M40.5,564.3l8.8-1.1
	c-1.5-2.2-2.8-4.5-3.9-6.9h-4.9V564.3z M52.8,531.5H44v3.7h8.8V531.5z M52.8,544H44v3.6h8.8V544z M55.6,556.4
	c0.8,1.2,1.8,2.3,2.8,3.4c1.8-1,3.5-2.3,5-3.4H55.6z"/>
<path d="M34.5,632.2c-0.1-3.9,3-7.2,6.9-7.3c0.2,0,0.4,0,0.6,0c3.9-0.2,7.2,2.8,7.4,6.7c0,0.2,0,0.4,0,0.6c0.1,4-3,7.3-7,7.4
	c-0.2,0-0.3,0-0.5,0c-4,0.2-7.3-2.9-7.4-6.9C34.5,632.5,34.5,632.3,34.5,632.2z M35.2,596.2l-0.4-12.1h14.3l-0.4,12.1l-2.2,23.1h-9
	L35.2,596.2z"/>
</svg>
