<svg version="1.1" xmlns="http://www.w3.org/2000/svg" xmlns:xlink="http://www.w3.org/1999/xlink" x="0px" y="0px" viewBox="0 0 392.6 170.6" style="enable-background:new 0 0 392.6 170.6;" xml:space="preserve" width="393" height="171">
<style type="text/css">
	.st0{fill:#000;}
	.st1{fill:#fa4369;}
</style>
<path class="st0" d="M55.1,33.2C40.2,33.2,31.3,46,31.3,60c0,9.4,4.1,17.5,14.5,17.5c14.5,0,24.6-13,24.6-26.8
	C70.4,41,65.6,33.2,55.1,33.2z M45.8,72.4c-6.3,0-9.5-4.2-9.5-12.5c0-10.8,6.5-21.8,18.8-21.8c8.9,0,10.3,7.8,10.3,12.5
	C65.4,61.1,57.9,72.4,45.8,72.4z"/>
<polygon class="st0" points="210.6,51.3 219.3,50.2 223.4,30.2 217.6,31.9 "/>
<polygon class="st0" points="360.2,30.2 354.4,31.9 347.5,51.3 356.1,50.2 "/>
<path class="st0" d="M385.9,1.1l-45.7,7.5l-1.7,0.3l-8.1,0.7L299.5,12l-2.3,0.2l0,0l1-3.3l2.4-7.6l-7.9,1.2l-26.1,4L263.3,7
	l-0.9,3.1l-15.5,55l7.9-58.4l0.9-6.7l-6.7,1.1l-45.7,7.4L200.7,9l-1.1,2.5l-18.8,42.9c-1.5-3.4-4.1-6.1-7.5-7.7
	c-2.7-1.3-5.5-2.5-8.4-3.6l9.8-0.8l1.9-0.2l1.3-1.4c3.9-4.1,5.1-12.1,5.1-15.3c0-8.1-4.9-14.6-13.7-18.4c-7.9-3.3-17-3.7-20.6-3.7
	c-10,0.2-19.7,3.5-27.7,9.5c-8.6,6.5-14.3,15.3-15.9,24.9c-0.2,1.3-0.3,2.6-0.3,3.9c0,6.5,2.9,11.7,8,14.1c1.3,0.6,2.6,1.2,3.8,1.8
	c-4.5,0.6-9.4,1.5-13.8,2.3l-1.4,0.3c1.2-4.5,1.8-9.1,1.8-13.7c0-12.1-4.4-23.1-12.4-31.1S71.8,3,59.7,3C28.5,3,0,31.5,0,62.8
	C0,74.9,4.4,86,12.4,93.9s19,12.4,31.1,12.4c18,0,35-9.4,46.3-23.4c2.3,14.1,19,20.6,34.6,20.6c12.2-0.1,24.2-2.8,35.2-8
	c1.5-0.7,2.9-1.5,4.2-2.4l-2.5,5.7l8.8-1.1l25.8-3.3l2.9-0.4l1.1-2.7l4.3-10.2l3.5-0.7l-4.5,19.5l-1.7,7.2l7.3-1.1l29.7-4.6l3.7-0.6
	l0.3-2.3l2.1-0.2l25.8-1.9l1.6-0.1l0.5,9l0.3,5.5l5.5-0.9l26.7-4.3l4.5-0.7l-0.3-4.6l-0.2-3l23.8-3l2.9-0.4l1.1-2.7L341,81l3.5-0.7
	L340,99.8l-1.7,7.2l7.3-1.1l29.7-4.6l3.7-0.6l0.5-3.7l12.2-90.3l0.9-6.7L385.9,1.1z M306,55.6l26.4-34.9l-24.8,56.6L306,55.6z
	 M43.5,101.3C21.3,101.3,5,85,5,62.8C5,34.3,31.1,8,59.7,8c22.2,0,38.5,16.3,38.5,38.5c0,5-0.8,9.9-2.3,14.7l-0.8,0.1l-1.1,2.3
	c-1.6,3.2-2.8,6.5-3.7,9.9C80.4,89.7,62.5,101.3,43.5,101.3z M157.4,91c-10.4,4.8-21.6,7.4-33.1,7.5c-11.5,0-29.9-4.6-29.9-19
	c0-1.4,0.2-2.8,0.5-4.2c1.8-3.1,3.4-6.3,4.7-9.7c7.2-1.3,19.2-3.7,25.4-3.7h0.4c-1.1,2.4-2.4,5.4-2.4,8c0,4.3,3.5,4.9,7,4.9
	c7,0,16.6-0.3,20.2-7.6c0.2-0.4,0.3-0.9,0.3-1.3c0-4.2-11-5.9-14-6.6c-7.3-1.5-15.1-4.8-21.8-8c-3.7-1.8-5.2-5.6-5.2-9.6
	c0-1,0-2,0.2-3c3-17.8,21.4-30.3,38.8-30.3c10.7,0,29.2,3.1,29.2,17c0,3.3-1.4,9.4-3.7,11.9l-24.1,2c1.1-2,1.7-4.3,1.9-6.5
	c0-3.9-3.7-4.6-6.9-4.6c-3.5,0-12.4,1.9-12.4,6.6c0,4,8.5,6.6,11.5,7.4c9,2.3,18.5,5,26.8,9.1c4.5,2.2,6.2,6.2,6.2,11
	c0,0.1,0,0.2,0,0.3l-8.8,20C165.3,86,161.6,88.9,157.4,91z M128,69.7c0.1-1.6,1.2-4.1,2-5.8l0.5-1c1.8,0.5,3.5,1,5.1,1.3
	c0.3,0.1,0.7,0.2,1.2,0.2c2.7,0.5,5.3,1.2,7.9,2.1c-3,3-9,3.2-14.6,3.2C129.4,69.9,128.7,69.8,128,69.7z M147,33.3
	c-0.3,1.4-0.8,2.7-1.4,4h-0.1c-2.4-0.6-4.7-1.4-6.9-2.6c2-0.9,4.3-1.4,6.5-1.5C145.8,33.1,146.4,33.2,147,33.3z M208,101l6.3-27.1
	l-13.7,2.9l-5.3,12.6l-25.8,3.3l3.3-7.4c5.2-6,9.1-13.6,9.5-21.6l22-50.1L249.9,6l-12.2,90.4L208,101z M277.5,105l-2-35.3L270,91.4
	l-25.8,1.9l23.1-81.9l26.2-4l-10.6,33.9L299.9,17l30.9-2.5L300.9,54l2.3,33l-1.5,3.5l-3.5,8.1L304,98l0.2,2.8L277.5,105z
	 M374.5,96.3l-29.7,4.7l6.3-27.1l-13.7,2.9l-5.3,12.6l-23.5,3l-0.3-4.3L341,13.5L386.7,6L374.5,96.3z"/>
<path class="st0" d="M58,127.7c-1.7-0.1-3.5,0.1-5.2,0.5c-1.5,0.5-5.8,1.8-5.8,3.9c0,1.5,2.4,2.5,3.6,2.8c2.4-0.5,11.2-2.6,11.2-5.5
	C61.8,127.8,59.1,127.7,58,127.7z"/>
<path class="st0" d="M51.4,144.4c-1,0-2.1,0.1-3.1,0.1c-1.6,0.8-6.5,3.4-6.5,5.6c0,1.9,3.7,2.1,5,2.1c3.4,0,9.4-1.8,11-5.1
	c0.1-0.2,0.2-0.5,0.2-0.7C58,144.4,52.7,144.4,51.4,144.4z"/>
<path class="st0" d="M162.2,113.5l-5.9,0.5l-14.5,1.2l-1.7,0.2l-1.1,1.3l-10.9,13.7l3.5-11.2l1.8-5.7l-5.9,0.5l-14.5,1.2l-1.7,0.2
	l-1.1,1.3l-11.4,14.2l-5.6,7l9-0.5h0.3L99,147.8l-1.8,0.3l-1.7,0.3c-2.2-3-6.2-4.5-10.1-4.5c-3.1,0-6.2,1-8.8,2.7c0,0,0-0.1,0-0.1
	c0.1-3.6-1.7-7-4.8-9c3.5-2.4,6.8-5.7,6.8-10.6c0-8.4-6.7-13.5-17.5-13.5c-4.6,0-11.8,1-16.8,3.2c-7.2,3.2-14.8,9.8-14.8,18.6
	c0,1.6,0.3,3.1,0.9,4.6c-6.4,4.6-9.8,9.9-9.8,15.6c0.1,7,5.2,13,12.1,14.2c3,0.5,6.1,0.7,9.1,0.6c13.8,0,24.2-4.2,30-11.8
	c1.6,4.5,6.6,7,11.4,7c2,0,4-0.4,5.9-1.2l-1.9,5.4l6.4-0.8l23.7-3l-1.3,3.8l6.4-0.8l25.5-3.2l2.5-0.3l0.8-2.4l3.7-11.7l1.8-5.6
	l-4.9,0.4l8.5-26.7L162.2,113.5z M123.2,145.9l2.6-8.2l5.2-0.3h0.2l-3.5,10.4l-0.4,0.1l0.7-2.3L123.2,145.9z M42,166.2
	c-2.8,0-5.7-0.2-8.5-0.6c-5-0.9-8.7-5.2-8.8-10.2c0-6.9,6.8-12,12.2-14.9c-2.4-0.6-3.3-3.1-3.3-5.3c0-7,6.6-12.3,12.4-14.9
	c4.9-1.9,10-2.9,15.2-2.9c6.2,0,13.4,2,13.4,9.5c0,5.6-7.5,8.6-11.4,11.1c4.2,1.1,9.4,3.3,9.4,8.4c0,0.8-0.1,1.7-0.4,2.5
	C68.7,162.2,54.3,166.2,42,166.2z M75.5,155.3c0-4.8,5.7-7.5,9.9-7.5c3.2,0,7.3,1.6,7.8,5.1l-1.8,5.2c-2.2,2-5,3.2-8,3.2
	C79.9,161.3,75.5,159.4,75.5,155.3L75.5,155.3z M93.2,164.8l1.7-4.7c1.5-1.8,2.3-4,2.3-6.3c0-0.1,0-0.2,0-0.3l0.5-1.5l4.2-0.7
	l6.2-18.3l-6.2,0.4l11.4-14.2l14.5-1.2l-10.2,32.3l4.9-0.4l-3.7,11.7L93.2,164.8z M146.3,150.3l4.9-0.4l-3.7,11.7l-25.5,3.2
	l4.5-12.8l4.2-0.7l6.2-18.3l-6.2,0.4l11.4-14.2l14.5-1.2L146.3,150.3z"/>
<path class="st0" d="M248.6,127.7c-1.7-0.1-3.5,0.1-5.2,0.5c-1.5,0.5-5.8,1.8-5.8,3.9c0,1.5,2.4,2.5,3.6,2.8
	c2.4-0.5,11.2-2.6,11.2-5.5C252.5,127.8,249.8,127.7,248.6,127.7z"/>
<path class="st0" d="M242.1,144.4c-1,0-2.1,0.1-3.1,0.1c-1.6,0.8-6.5,3.4-6.5,5.6c0,1.9,3.7,2.1,5,2.1c3.4,0,9.4-1.8,11-5.1
	c0.1-0.2,0.2-0.5,0.2-0.7C248.6,144.4,243.4,144.4,242.1,144.4z"/>
<path class="st0" d="M358.8,136.5l0.5-1.9l4.2-14.9l1.5-5.5l-5.7,0.4l-32,2.3l-2.8,0.2l-0.8,2.6l-3.7,12.2l-1.7,5.8l6-0.7l1.8-0.2
	l-2.5,8.9l-0.1,0.4l-5.6,1.5l0.7-2.2l-4.9,0.4l8.5-26.7l1.8-5.7l-6,0.5l-14.5,1.2l-1.7,0.2l-1.1,1.3l-11.4,14.2l-5.6,7l9-0.5h0.2
	l-3.5,10.4l-1.8,0.3l-1.7,0.3c-2.2-3-6.2-4.5-10.1-4.5c-3.1,0-6.2,1-8.8,2.7v-0.1c0.1-3.6-1.7-7-4.8-9c3.5-2.4,6.8-5.7,6.8-10.6
	c0-8.4-6.7-13.5-17.4-13.5c-4.6,0-11.8,1-16.9,3.2c-7.1,3.2-14.8,9.8-14.8,18.6c0,1.6,0.3,3.1,0.9,4.6c-6.4,4.6-9.8,9.9-9.8,15.6
	c0.1,7,5.2,13,12.1,14.2c3,0.5,6.1,0.7,9.1,0.6c13.8,0,24.2-4.2,30-11.8c1.6,4.5,6.6,7,11.4,7c2,0,4-0.4,5.9-1.2l-1.9,5.5l6.4-0.8
	l25.5-3.2l2.5-0.3l0.2-0.7c2.9,3.8,7.9,6.1,14.4,6.1c12,0,27.5-4.6,32-17.4c0.6-1.6,0.8-3.3,0.8-5.1c0.1-4-1.7-7.8-5-10.1l2.2-0.9
	L358.8,136.5z M232.6,166.2c-2.8,0-5.7-0.2-8.5-0.6c-5-0.9-8.7-5.2-8.8-10.2c0-6.9,6.8-12,12.1-14.9c-2.4-0.6-3.3-3.1-3.3-5.3
	c0-7,6.6-12.3,12.4-14.9c4.9-1.9,10-2.9,15.2-2.9c6.2,0,13.5,2,13.5,9.5c0,5.6-7.5,8.6-11.4,11.1c4.2,1.1,9.4,3.3,9.4,8.4
	c0,0.8-0.1,1.7-0.4,2.5C259.3,162.2,244.9,166.2,232.6,166.2z M266.1,155.3c0-4.8,5.8-7.5,9.9-7.5c3.2,0,7.3,1.6,7.8,5.1l-1.8,5.2
	c-2.2,2-5,3.2-8,3.2C270.5,161.3,266.1,159.4,266.1,155.3z M309.4,161.6l-25.5,3.2l1.6-4.7c1.5-1.8,2.3-4,2.4-6.3c0-0.1,0-0.2,0-0.3
	l0.5-1.5l4.2-0.7l6.2-18.3l-6.2,0.4l11.4-14.2l14.5-1.2l-10.2,32.3l3.1-0.2l-0.5,1.4c-0.5,1.4-0.8,3-0.8,4.5c0,1,0.1,2,0.3,2.9
	L309.4,161.6z M342.2,139h0.9c6,0,12.7,2.1,12.7,9.2c0,1.3-0.2,2.5-0.6,3.7c-3.9,11-17.8,14.7-28.3,14.7c-5.8,0-11.1-2.1-12.6-7.5
	l2.2-6.9l9.2-2.5c0,0.3-0.1,0.5-0.1,0.8c0,2.4,2.1,3.1,4.1,3.1c3.7,0,10.2-1.5,12-5.1c0.1-0.2,0.1-0.3,0.1-0.5
	c0-1.6-4.9-1.7-6.4-1.7h-0.3c-2.6,0-5.1,0.2-7.7,0.5l2.6-9.4l12.2-6.4l-18.4,2l3.7-12.2l32-2.3l-4.2,14.9L342.2,139z"/>
<path class="st0" d="M192.2,131.8l14.6,14.6H167v-3.6h31.1l-5.9-5.8V131.8 M188.2,122.2v16.4l0.2,0.2H163v11.6h53.5l-6.8-6.8
	L195.1,129L188.2,122.2L188.2,122.2z"/>
<path class="st1" d="M43.5,101.3C21.3,101.3,5,85,5,62.8C5,34.3,31.1,8,59.7,8c22.2,0,38.5,16.3,38.5,38.5
	C98.2,75,72,101.3,43.5,101.3z M55.1,33.2C40.2,33.2,31.3,46,31.3,60c0,9.4,4.1,17.5,14.5,17.5c14.5,0,24.6-13,24.6-26.8
	C70.4,41,65.6,33.2,55.1,33.2z"/>
<path class="st1" d="M174.2,37.3l-24.1,2c1-2.1,1.7-4.3,1.8-6.6c0-3.9-3.7-4.6-6.9-4.6c-3.5,0-12.4,1.9-12.4,6.6
	c0,4,8.5,6.6,11.5,7.4c9,2.3,18.5,5,26.8,9.1c4.5,2.2,6.2,6.2,6.2,11c0,11.8-9.6,23.9-19.8,28.8c-10.4,4.8-21.6,7.4-33.1,7.5
	c-11.5,0-29.9-4.6-29.9-19c0-4.2,2.1-9.9,4-13.6c7-1.2,20.1-4,26.6-4h0.4c-1.1,2.4-2.4,5.4-2.4,8c0,4.3,3.5,4.9,7,4.9
	c7,0,16.6-0.3,20.2-7.6c0.2-0.4,0.3-0.9,0.3-1.3c0-4.2-11-5.9-14-6.6c-7.3-1.5-15.1-4.8-21.8-8c-3.7-1.8-5.2-5.6-5.2-9.6
	c0-1,0-2,0.2-3c3-17.8,21.4-30.3,38.8-30.3c10.7,0,29.2,3.1,29.2,17C178,28.8,176.6,34.9,174.2,37.3z"/>
<path class="st1" d="M249.9,6l-12.2,90.4L208,101l6.3-27.1l-13.7,2.9l-5.3,12.6l-25.8,3.3l34.7-79.2L249.9,6z M223.4,30.2l-5.8,1.6
	l-6.9,19.4l8.7-1.1L223.4,30.2z"/>
<path class="st1" d="M330.8,14.5L300.9,54l3.3,46.7l-26.7,4.2l-2-35.3L270,91.4l-25.8,1.9l23.1-81.9l26.2-4l-10.6,33.9L299.9,17
	L330.8,14.5z"/>
<path class="st1" d="M386.7,6l-12.2,90.4l-29.7,4.6l6.3-27.1l-13.7,2.9l-5.3,12.6l-25.8,3.3L341,13.5L386.7,6z M360.2,30.2l-5.8,1.6
	l-6.9,19.4l8.7-1.1L360.2,30.2z"/>
<path class="st1" d="M63.2,138c4.2,1.1,9.4,3.3,9.4,8.4c0,0.8-0.1,1.7-0.4,2.5c-3.6,13.4-18,17.3-30.2,17.3c-2.8,0-5.7-0.2-8.5-0.6
	c-5-0.9-8.7-5.2-8.8-10.2c0-6.9,6.8-12,12.2-14.9c-2.4-0.6-3.3-3.1-3.3-5.3c0-7,6.6-12.3,12.4-14.9c4.9-1.9,10-2.9,15.2-2.9
	c6.2,0,13.4,2,13.4,9.5C74.7,132.4,67.2,135.4,63.2,138z M51.4,144.4c-1,0-2.1,0.1-3.1,0.1c-1.6,0.8-6.5,3.4-6.5,5.6
	c0,1.9,3.7,2.1,5,2.1c3.4,0,9.4-1.8,11-5.1c0.1-0.2,0.2-0.5,0.2-0.7C58,144.4,52.7,144.4,51.4,144.4L51.4,144.4z M58,127.7
	c-1.7-0.1-3.5,0.1-5.2,0.5c-1.5,0.5-5.8,1.8-5.8,3.9c0,1.5,2.4,2.5,3.6,2.8c2.4-0.5,11.2-2.6,11.2-5.5
	C61.8,127.8,59.1,127.7,58,127.7z"/>
<path class="st1" d="M83.4,161.3c-3.5,0-7.9-1.9-7.9-6c0-4.8,5.7-7.5,9.9-7.5c3.5,0,7.9,1.9,7.9,6C93.3,158.6,87.5,161.3,83.4,161.3
	z"/>
<path class="st1" d="M127.8,118l-10.2,32.3l4.9-0.4l-3.7,11.7l-25.5,3.2l4.5-12.8l4.2-0.7l6.2-18.3l-6.2,0.4l11.4-14.2L127.8,118z"
	/>
<path class="st1" d="M156.6,118l-10.2,32.3l4.9-0.4l-3.7,11.7l-25.5,3.2l4.5-12.8l4.2-0.7l6.2-18.3l-6.2,0.4l11.4-14.2L156.6,118z"
	/>
<path class="st1" d="M253.9,138c4.2,1.1,9.4,3.3,9.4,8.4c0,0.8-0.1,1.7-0.4,2.5c-3.6,13.4-18,17.3-30.2,17.3c-2.8,0-5.7-0.2-8.5-0.6
	c-5-0.9-8.7-5.2-8.8-10.2c0-6.9,6.8-12,12.1-14.9c-2.4-0.6-3.3-3.1-3.3-5.3c0-7,6.6-12.3,12.4-14.9c4.9-1.9,10-2.9,15.2-2.9
	c6.2,0,13.5,2,13.5,9.5C265.3,132.4,257.8,135.4,253.9,138z M242.1,144.4c-1,0-2.1,0.1-3.1,0.1c-1.6,0.8-6.5,3.4-6.5,5.6
	c0,1.9,3.7,2.1,5,2.1c3.4,0,9.4-1.8,11-5.1c0.1-0.2,0.2-0.5,0.2-0.7C248.6,144.4,243.4,144.4,242.1,144.4L242.1,144.4z M248.7,127.7
	c-1.7-0.1-3.5,0.1-5.2,0.5c-1.5,0.5-5.8,1.8-5.8,3.9c0,1.5,2.4,2.5,3.6,2.8c2.4-0.5,11.2-2.6,11.2-5.5
	C252.5,127.8,249.8,127.7,248.7,127.7L248.7,127.7z"/>
<path class="st1" d="M274,161.3c-3.5,0-7.9-1.9-7.9-6c0-4.8,5.8-7.5,9.9-7.5c3.5,0,7.9,1.9,7.9,6C283.9,158.6,278.2,161.3,274,161.3
	z"/>
<path class="st1" d="M318.5,118l-10.2,32.3l4.9-0.4l-3.7,11.7l-25.5,3.2l4.5-12.8l4.2-0.7l6.2-18.3l-6.2,0.4l11.4-14.2L318.5,118z"
	/>
<path class="st1" d="M359.7,118.6l-4.2,14.9l-13.3,5.5h0.9c6,0,12.7,2.1,12.7,9.2c0,1.3-0.2,2.5-0.6,3.7
	c-3.9,11-17.8,14.7-28.3,14.7c-6.8,0-13-3-13-10.6c0-1.1,0.2-2.2,0.6-3.2l11.2-3c0,0.3-0.1,0.5-0.1,0.8c0,2.4,2.1,3.1,4.1,3.1
	c3.7,0,10.2-1.5,12-5.1c0.1-0.2,0.1-0.3,0.1-0.5c0-1.7-5.6-1.7-6.7-1.7c-2.6,0-5.1,0.2-7.7,0.5l2.6-9.4l12.2-6.4l-18.4,2l3.7-12.2
	L359.7,118.6z"/>
<polygon class="st1" points="192.2,131.8 192.2,137 198.1,142.8 167,142.8 167,146.4 206.8,146.4 "/>
</svg>