<svg version="1.1" xmlns="http://www.w3.org/2000/svg" xmlns:xlink="http://www.w3.org/1999/xlink" x="0px" y="0px" viewBox="0 0 830 82" style="enable-background:new 0 0 830 82;" xml:space="preserve" width="830" height="82">
<style type="text/css">
	.st0{fill:#fdfdfd;}
</style>
<rect class="st0" width="829.6" height="82"/>
<path d="M32.8,17.2h13.1v43.4h21.2v11H32.8V17.2z"/>
<path d="M72.9,17.5c0-4,2.8-6.6,7.2-6.6s7.2,2.6,7.2,6.6s-2.9,6.7-7.2,6.7S72.9,21.6,72.9,17.5z M73.6,30h13v41.5h-13V30z"/>
<path d="M91,30h13.1l5,19.1c1.1,4.1,2,8.4,3.1,12.8h0.4c1-4.4,2-8.7,3.1-12.8l5.2-19.1h12.5l-13.4,41.5h-15L91,30z"/>
<path d="M134.6,50.7c0-13.4,9.7-21.7,19.7-21.7c12,0,17.8,8.7,17.8,20c0,1.9-0.2,3.8-0.6,5.6h-24.4c1.2,5.7,5.1,8,10.4,8
	c3.1-0.1,6.1-1,8.8-2.6l4.3,7.8c-4.4,3-9.5,4.7-14.8,4.7C143.8,72.6,134.6,64.5,134.6,50.7z M161.1,46.1c0-4.1-1.8-7.2-6.6-7.2
	c-3.6,0-6.7,2.3-7.6,7.2H161.1z"/>
<path d="M189.9,66.7l5.8-8.1c3.8,2.8,7.2,4.4,10.5,4.4c3.4,0,4.9-1.2,4.9-3.3c0-2.5-4-3.6-8.2-5.3c-5-2-10.6-5.3-10.6-12.3
	c0-7.8,6.4-13.1,16.1-13.1c5.4,0,10.6,1.9,14.8,5.3l-5.8,7.7c-3-2.1-5.9-3.5-8.6-3.5c-3,0-4.4,1-4.4,3c0,2.5,3.6,3.4,7.9,5
	c5.2,2,11,5,11,12.5s-6,13.6-17.3,13.6C200.1,72.4,194.5,70.4,189.9,66.7z"/>
<path d="M228.9,13.2h13v14l-0.7,7.4c3-2.8,7.1-5.6,12.7-5.6c9.1,0,12.9,6.5,12.9,16.9v25.7h-13V47.5c0-5.8-1.5-7.4-4.8-7.4
	c-2.9,0-4.7,1.3-7.1,3.7v27.7h-13L228.9,13.2z"/>
<path d="M272.8,50.7c0-13.7,9.8-21.7,20.4-21.7s20.3,8,20.3,21.8s-9.8,21.8-20.3,21.8S272.8,64.5,272.8,50.7z M300.1,50.7
	c0-6.9-2.2-11.2-7-11.2s-7.1,4.4-7.1,11.2s2.2,11.3,7.1,11.3S300.1,57.7,300.1,50.7z"/>
<path d="M315.8,30h12.9l3.7,18.5c0.7,4.2,1.1,8.2,1.8,12.5h0.4c0.7-4.2,1.4-8.4,2.4-12.5l4.3-18.5h11.2l4.5,18.5
	c1,4.2,1.7,8.2,2.5,12.5h0.4c0.7-4.2,1.1-8.3,1.8-12.5l3.6-18.5h12l-9.8,41.5h-15.2l-3.5-15.8c-0.8-3.9-1.5-7.7-2.2-12.2h-0.4
	c-0.7,4.5-1.2,8.3-2,12.2l-3.4,15.8H326L315.8,30z"/>
<path d="M425.2,72.2c-2.4-1.5-4.7-3.1-6.9-4.9c-2.9,3.2-7.1,5-11.4,4.9c-7.4,0-12.2-4-12.2-10.2c0-5.1,3.9-8.1,8-10.7
	c-1.9-2.5-3-5.6-3.2-8.8c0-5.5,3.7-9,8.9-9c4.9,0,8.1,3.1,8.1,7.6c0,5-4,8-8.3,10.8c3.1,3.4,6.4,6.6,9.9,9.6c2.2-3,3.6-6.4,4.1-10
	h4.3c-0.9,4.5-2.8,8.8-5.4,12.5c2,1.6,4.2,3.1,6.4,4.5L425.2,72.2z M407.2,68.4c3,0,5.7-1.4,8.1-3.8c-3.8-3.2-7.3-6.8-10.6-10.6
	c-3.2,2.1-5.8,4.4-5.8,7.7C399,66,402.4,68.4,407.2,68.4L407.2,68.4z M406.1,49.2c3.6-2.2,6.6-4.5,6.6-8c0.1-2.3-1.6-4.3-3.9-4.4
	c-0.1,0-0.2,0-0.3,0c-3.1,0-5.1,2.1-5.1,5.5C403.4,44.4,404.4,46.8,406.1,49.2z"/>
<path d="M446.2,50.7c0-13.4,9.7-21.8,19.7-21.8c12,0,17.8,8.7,17.8,20c0,1.9-0.2,3.8-0.6,5.6h-24.4c1.2,5.7,5.1,8,10.4,8
	c3.1-0.1,6.1-1,8.8-2.6l4.3,7.8c-4.4,3-9.5,4.7-14.8,4.7C455.4,72.6,446.2,64.5,446.2,50.7z M472.7,46.1c0-4.1-1.8-7.2-6.6-7.2
	c-3.6,0-6.7,2.3-7.6,7.2H472.7z"/>
<path d="M497.4,49.9l-12-19.9h13.9l3.4,6.4c1.1,2.4,2.3,4.8,3.4,7.2h0.4c0.8-2.3,1.8-4.8,2.7-7.2l2.5-6.4h13.4l-12,21.4L526,71.5
	h-13.9l-3.8-6.5c-1.2-2.3-2.5-4.8-3.8-7.1h-0.4c-1,2.3-2,4.7-3.1,7.1l-2.9,6.6h-13.5L497.4,49.9z"/>
<path d="M530.6,13.2h13v14l-0.7,7.4c3-2.8,7.1-5.6,12.7-5.6c9,0,12.9,6.5,12.9,16.9v25.7h-13V47.5c0-5.8-1.5-7.4-4.8-7.4
	c-2.9,0-4.7,1.3-7.2,3.7v27.7h-13L530.6,13.2z"/>
<path d="M576.1,17.5c0-4,2.8-6.6,7.2-6.6s7.2,2.6,7.2,6.6s-2.9,6.7-7.2,6.7S576.1,21.6,576.1,17.5z M576.8,30h13v41.5h-13V30z"/>
<path d="M610,67.1h-0.4l-1,4.4h-10.2V13.2h13v14l-0.4,6.2c2.9-2.7,6.7-4.3,10.7-4.4c9.9,0,16.3,8.3,16.3,21
	c0,14.4-8.5,22.6-17.5,22.6C617,72.6,613.2,70.7,610,67.1z M624.7,50.3c0-7.3-2.1-10.7-6.7-10.7c-2.4,0-4.4,1.1-6.6,3.5v16.4
	c1.7,1.6,3.9,2.4,6.1,2.4C621.5,61.9,624.7,58.6,624.7,50.3z"/>
<path d="M643.9,17.5c0-4,2.8-6.6,7.2-6.6s7.2,2.6,7.2,6.6s-2.9,6.7-7.2,6.7S643.9,21.6,643.9,17.5z M644.6,30h13v41.5h-13V30z"/>
<path d="M667.9,56.1v-16h-5.6v-9.6l6.4-0.5l1.5-11h10.7v11h9.8v10.2h-9.8V56c0,4.6,2.2,6.4,5.3,6.4c1.3-0.1,2.6-0.3,3.8-0.8l2,9.4
	c-3,1-6.2,1.5-9.4,1.5C672.2,72.6,667.9,65.9,667.9,56.1z"/>
<path d="M696.2,17.5c0-4,2.8-6.6,7.2-6.6s7.2,2.6,7.2,6.6s-2.9,6.7-7.2,6.7S696.2,21.6,696.2,17.5z M696.9,30h13v41.5h-13V30z"/>
<path d="M716.2,50.7C716.2,37,726,29,736.5,29s20.3,8,20.3,21.8s-9.8,21.8-20.3,21.8S716.2,64.5,716.2,50.7z M743.5,50.7
	c0-6.9-2.2-11.2-7-11.2s-7.1,4.4-7.1,11.2s2.2,11.3,7.1,11.3S743.5,57.7,743.5,50.7z"/>
<path d="M763.2,30h10.6l1,5.2h0.2c3.4-3.4,7.7-6.2,13.3-6.2c9,0,12.9,6.5,12.9,16.9v25.7h-13V47.5c0-5.8-1.5-7.4-4.8-7.4
	c-2.9,0-4.7,1.3-7.2,3.7v27.7h-13L763.2,30z"/>
</svg>