<svg version="1.1" xmlns="http://www.w3.org/2000/svg" xmlns:xlink="http://www.w3.org/1999/xlink" x="0px" y="0px" viewBox="0 0 505 71" style="enable-background:new 0 0 505 71;" xml:space="preserve" width="505" height="71">
<style type="text/css">
	.st0{fill:#fdfdfd;}
</style>
<rect class="st0" width="505" height="69.6"/>
<path d="M28,49.3V37.9h-3.3v-3.5l3.5-0.2l0.5-6.2h3.9v6.2h5.9v3.8h-5.9v11.4c0,2.7,0.9,4.1,3.3,4.1c0.8,0,1.7-0.2,2.4-0.5l0.9,3.5
	c-1.4,0.5-2.9,0.8-4.4,0.8C29.8,57.2,28,54,28,49.3z"/>
<path d="M42.5,24h4.7v8.7L47,37.1c2-1.9,4.2-3.6,7.3-3.6c4.8,0,6.9,3.2,6.9,8.9v14.2h-4.7V43c0-3.9-1.2-5.5-3.8-5.5
	c-2.1,0-3.5,1.1-5.5,3.1v16h-4.7V24z"/>
<path d="M66.9,34.1h3.9l0.4,4.1h0.1c1.6-2.9,4-4.6,6.4-4.6c0.9,0,1.8,0.1,2.6,0.5l-0.9,4.1c-0.7-0.3-1.5-0.4-2.3-0.4
	c-1.8,0-4.1,1.3-5.4,4.8v14.1h-4.7V34.1z"/>
<path d="M80.6,45.4c0-7.5,5-11.8,10.6-11.8s10.6,4.3,10.6,11.8s-5,11.8-10.6,11.8S80.6,52.9,80.6,45.4z M97,45.4c0-4.8-2.2-8-5.8-8
	s-5.7,3.2-5.7,8s2.2,8,5.7,8S97,50.2,97,45.4z"/>
<path d="M106.1,48.3V34.1h4.7v13.6c0,3.9,1.1,5.4,3.8,5.4c2.1,0,3.5-1,5.4-3.4V34.1h4.7v22.5h-3.8l-0.4-3.4h-0.1
	c-2,2.4-4.3,3.9-7.3,3.9C108.2,57.2,106.1,54,106.1,48.3z"/>
<path d="M129.1,60.8c0-1.9,1.2-3.6,3.3-4.9v-0.2c-1.3-0.8-2.1-2.2-2-3.7c0.1-1.7,1.1-3.3,2.5-4.2v-0.2c-1.9-1.4-3-3.6-3-6
	c0-5.1,4.1-8.1,8.7-8.1c1.1,0,2.2,0.2,3.3,0.6h8v3.5h-4.3c1,1.1,1.5,2.6,1.5,4.1c0,4.9-3.7,7.8-8.4,7.8c-1.1,0-2.2-0.2-3.2-0.7
	c-0.8,0.6-1.2,1.4-1.2,2.4c0,1.3,0.9,2.2,3.8,2.2h4.1c5.3,0,8.1,1.6,8.1,5.5c0,4.3-4.6,7.9-11.8,7.9C133,66.8,129.1,64.8,129.1,60.8
	z M145.7,59.7c0-1.9-1.5-2.5-4.2-2.5h-3.4c-1,0-2-0.1-3-0.3c-1.2,0.7-1.9,1.9-1.9,3.3c0,2.2,2.3,3.5,6,3.5
	C143.1,63.7,145.7,61.8,145.7,59.7L145.7,59.7z M142.9,41.7c0-3-1.9-4.8-4.3-4.8s-4.3,1.7-4.3,4.8s1.9,4.9,4.3,4.9
	S142.9,44.7,142.9,41.7L142.9,41.7z"/>
<path d="M153.4,24h4.7v8.7l-0.2,4.5c2-1.9,4.2-3.6,7.3-3.6c4.8,0,6.9,3.2,6.9,8.9v14.2h-4.7V43c0-3.9-1.1-5.5-3.8-5.5
	c-2.1,0-3.5,1.1-5.5,3.1v16h-4.7L153.4,24z"/>
<path d="M186.8,39.8c0-11.1,8.3-17.6,17.6-17.6c3.6-0.1,7.1,1.2,9.8,3.6l-4.9,6.7c-1.2-1.1-2.7-1.7-4.2-1.8c-4.7,0-7.6,3.5-7.6,9.1
	s3.1,9.2,7.1,9.2c2.2-0.1,4.2-0.9,5.8-2.4l4.1,6.9c-3.1,2.6-7,4-11.1,4C194.1,57.5,186.8,51,186.8,39.8z"/>
<path d="M218.9,23.1h8.6l0.8,5.8h0.2c2.5-4.5,6.2-6.7,9.6-6.7c1.4-0.1,2.8,0.2,4.1,0.7l-1.7,9c-1.2-0.3-2.5-0.5-3.7-0.5
	c-2.5,0-5.5,1.6-7.2,6v19.2h-10.5V23.1z"/>
<path d="M242.2,39.8c0-10.9,7.9-17.6,15.9-17.6c9.7,0,14.4,7,14.4,16.2c0,1.5-0.1,3.1-0.5,4.6h-19.7c0.9,4.6,4.1,6.5,8.4,6.5
	c2.5,0,5-0.8,7.1-2.1l3.5,6.3c-3.5,2.4-7.7,3.8-12,3.8C249.7,57.5,242.2,51,242.2,39.8z M263.7,36.1c0-3.3-1.5-5.8-5.3-5.8
	c-2.9,0-5.4,1.8-6.1,5.8H263.7z"/>
<path d="M275.6,47.3c0-7.1,5.5-10.9,18.6-12.3c-0.2-2.7-1.6-4.3-5.1-4.3c-2.7,0-5.4,1.1-8.8,3l-3.6-6.9c4.3-2.8,9.3-4.3,14.5-4.4
	c8.7,0,13.6,4.8,13.6,15.3v19h-8.5l-0.7-3.4h-0.3c-2.8,2.5-5.9,4.2-9.6,4.2C279.4,57.5,275.6,52.9,275.6,47.3z M294.2,46.7v-5.4
	c-6.5,0.8-8.7,2.8-8.7,5.1c0,2,1.4,2.9,3.6,2.9S292.7,48.4,294.2,46.7z"/>
<path d="M311.4,44.2V31.3h-4.5v-7.8l5.2-0.4l1.2-8.9h8.7v8.9h7.9v8.2h-7.9v12.8c0,3.7,1.8,5.2,4.2,5.2c1.1-0.1,2.1-0.3,3.1-0.7
	l1.6,7.6c-2.5,0.8-5,1.2-7.6,1.2C314.8,57.5,311.4,52.1,311.4,44.2z"/>
<path d="M334.2,13c0-3.2,2.3-5.4,5.8-5.4s5.8,2.1,5.8,5.4s-2.4,5.4-5.8,5.4S334.2,16.3,334.2,13z M334.8,23.1h10.5v33.6h-10.5V23.1z
	"/>
<path d="M348.9,23.1h10.6l4.1,15.5c0.9,3.3,1.6,6.8,2.5,10.3h0.3c0.8-3.5,1.6-7,2.5-10.3l4.1-15.5H383l-10.8,33.6H360L348.9,23.1z"
	/>
<path d="M386,13c0-3.2,2.3-5.4,5.8-5.4s5.9,2.1,5.9,5.4s-2.4,5.4-5.9,5.4S386,16.3,386,13z M386.6,23.1h10.5v33.6h-10.5L386.6,23.1z
	"/>
<path d="M405.4,44.2V31.3h-4.5v-7.8l5.2-0.4l1.2-8.9h8.7v8.9h7.9v8.2h-7.9v12.8c0,3.7,1.8,5.2,4.2,5.2c1-0.1,2.1-0.3,3.1-0.7
	l1.7,7.6c-2.5,0.8-5,1.2-7.6,1.2C408.9,57.5,405.4,52.1,405.4,44.2z"/>
<path d="M428.1,68.9L430,61c0.7,0.2,1.5,0.3,2.2,0.4c2.6,0.2,5-1.5,5.6-4l0.5-1.7l-12.9-32.6H436l4.5,13.9c1,3.1,1.7,6.2,2.6,9.5
	h0.3c0.6-3.2,1.4-6.3,2.2-9.5l3.9-13.9h10l-11.5,33.6c-3.2,8.6-6.9,12.9-14.9,12.9C431.4,69.6,429.7,69.4,428.1,68.9z"/>
<path d="M464.3,50.9c-0.1-3.4,2.5-6.3,6-6.5c3.4-0.1,6.3,2.5,6.5,6l0,0c0,0.2,0,0.3,0,0.5c0.1,3.4-2.5,6.3-6,6.5
	c-3.4,0.1-6.3-2.5-6.5-6C464.2,51.3,464.2,51.1,464.3,50.9z M465.6,20.8l-0.4-9.4h10.6l-0.4,9.4l-1.5,19.9h-6.8L465.6,20.8z"/>
</svg>
