<svg version="1.1" xmlns="http://www.w3.org/2000/svg" xmlns:xlink="http://www.w3.org/1999/xlink" x="0px" y="0px" viewBox="0 0 65 855" style="enable-background:new 0 0 65 855;" xml:space="preserve" width="65" height="855">
<style type="text/css">
	.st0{fill:#fdfdfd;}
</style>
<rect class="st0" width="65" height="855"/>
<path d="M58.8,29.4v54.1h-9.1v-2.3H15.6v2.3H6.9V29.4H58.8z M49.7,73V37.7H15.6V73H49.7z M37.3,52.9c1.9,5.9,5.4,10.4,11.7,12.5
	c-2.1,2.1-3.8,4.4-5.1,7c-5.2-2.2-8.6-6-10.9-10.9c-2.2,4.6-6,8.2-12.2,10.9c-1.2-2.5-2.8-4.7-4.8-6.6c7.2-2.9,10.1-6.9,11.4-12.7
	h-10v-7.8h10.9c0.1-2.1,0.1-4.4,0.2-6.8h8.1c-0.1,2.4-0.1,4.7-0.2,6.8h12v7.7H37.3z"/>
<path d="M37.9,128.1v-30l-5.3,6.2c-0.7-0.8-1.6-1.9-2.7-3v2.7H16.4v-2c-1.3,1.1-2.8,2.3-4.2,3.5h22.9v19.8H16.1
	c-0.1,0.5-0.2,1.1-0.3,1.6h20.2v16.2h-7.5v-1.4h-8v1.6h-7.2v-7.5c-0.9,2.3-2.1,4.5-3.6,6.4C8,140.2,6.1,138.5,4,137
	c5.2-6.9,5.7-16.7,5.7-23.4v-6.3l-1,0.7c-1.4-2.4-3.1-4.5-5.2-6.3c6-3.3,11.1-8.2,14.7-14.1h7.7c4.2,3.1,8.2,6.5,11.9,10.2V94H46
	v34.1L37.9,128.1z M27.4,119.5v-1.6H16.9l-0.1,1.6H27.4z M17,111.4v1.5h10.4v-1.5H17z M27,98.3c-1.2-1.2-2.5-2.4-3.8-3.5
	c-0.9,1.1-1.9,2.3-3,3.5H27z M20.6,133v2.6h8V133H20.6z M59.2,87.9v45.4c0,4.6-0.8,6.9-3.4,8.3s-6.5,1.7-11.6,1.7
	c-0.5-3.1-1.4-6.1-2.8-8.9c3.3,0.2,6.8,0.2,7.9,0.2c1,0,1.4-0.4,1.4-1.4V87.9H59.2z"/>
<path d="M25.2,149.3c-1.6,4.2-3.4,8.2-5.5,12.1V203h-8.8v-28.2c-0.8,1-1.7,1.9-2.5,2.8c-1.3-3.3-2.8-6.4-4.7-9.4
	c5.2-5.2,10.1-13.4,13-21.7L25.2,149.3z M45.1,164.2v4.9h14.6v7.9H45.1v5.4h15.3v8H45.1V203h-9v-38.8H35c-2.1,3.9-4.7,7.7-7.6,11.1
	c-2-2.2-4.2-4.2-6.6-6.1c5.2-5.2,9.9-13.9,12.5-22.4l8.4,2.2c-0.8,2.3-1.7,4.6-2.7,6.9h22.2v8.2L45.1,164.2z"/>
<path d="M28.1,236.6c-2.8,2.1-5.8,3.8-9.1,5c-0.8-0.8-1.6-1.5-2.5-2.2c3-0.9,5.9-2.2,8.5-4L28.1,236.6z M40.7,228.6
	c3,1.6,5.8,3.5,8.3,5.9l-2.5,1.8c-0.6-0.6-1.2-1.2-1.9-1.7l-10.4,0.2v7.3H31v-7.2l-13.6,0.3l-0.1-2.7c2.4,0,5.4,0,8.6-0.1
	c0.3-0.1,0.5-0.3,0.8-0.4c-2-1.4-4.2-2.7-6.4-3.7l2.2-1.8c0.8,0.3,1.6,0.7,2.4,1.1c1.2-0.8,2.3-1.7,3.4-2.6H17.8v-14.7h14.9v2.3
	h-5.4v1.8h4.9v6.2h-4.9v1.9h5.4v2.4h-2l1.3,0.6c-1.5,1.2-3.1,2.3-4.8,3.3c0.8,0.5,1.6,1,2.4,1.6c2.6-1.5,5.2-3.2,7.6-5L40,227
	c-2.6,1.8-5.9,3.7-8.9,5.3c3.4,0,6.8-0.1,10.3-0.1c-1-0.7-2-1.3-3-1.9L40.7,228.6z M20.9,212.6v1.8h3.6v-1.8H20.9z M29,216.4h-8.1
	v2.2H29L29,216.4z M20.9,222.5h3.6v-1.9h-3.6V222.5z M47.9,211.3c-0.9,3.6-2.7,6.9-5.2,9.5c2,1.5,4.2,2.6,6.6,3.3
	c-0.8,0.8-1.5,1.7-2.1,2.7c-2.5-0.9-4.9-2.2-6.9-3.9c-1.8,1.3-3.8,2.3-5.9,3c-0.4-0.9-1-1.8-1.7-2.6c1.9-0.6,3.8-1.4,5.5-2.6
	c-1.6-1.9-2.9-4-3.8-6.3l2.7-0.8c0.8,1.9,1.9,3.6,3.3,5.1c1.5-1.5,2.7-3.3,3.6-5.3H33.6v-2.8h11.8l0.5-0.1L47.9,211.3z M39.7,235.4
	c3,1.1,5.9,2.6,8.6,4.3l-2.6,2c-2.6-1.8-5.4-3.4-8.4-4.5L39.7,235.4z"/>
<path d="M28.1,272.6c-2.8,2.1-5.8,3.8-9.1,5c-0.8-0.8-1.6-1.5-2.5-2.2c3-0.9,5.9-2.2,8.5-4L28.1,272.6z M40.7,264.7
	c3,1.6,5.8,3.5,8.3,5.8l-2.5,1.8c-0.6-0.6-1.2-1.2-1.9-1.7l-10.4,0.2v7.3H31v-7.2l-13.6,0.3l-0.1-2.7c2.4,0,5.4,0,8.6-0.1
	c0.3-0.1,0.5-0.3,0.8-0.4c-2-1.4-4.2-2.7-6.4-3.7l2.2-1.8c0.8,0.3,1.6,0.7,2.4,1.1c1.2-0.8,2.3-1.7,3.4-2.6H17.8v-14.7h14.9v2.3
	h-5.4v1.8h4.9v6.2h-4.9v1.9h5.4v2.4h-2l1.3,0.6c-1.5,1.2-3.1,2.3-4.8,3.3c0.8,0.5,1.6,1,2.4,1.5c2.6-1.5,5.2-3.2,7.6-5L40,263
	c-2.6,1.8-5.9,3.7-8.9,5.3c3.4,0,6.8-0.1,10.3-0.1c-1-0.7-2-1.3-3-1.9L40.7,264.7z M20.9,248.6v1.8h3.6v-1.8H20.9z M29,252.4h-8.1
	v2.2H29L29,252.4z M20.9,258.5h3.6v-1.9h-3.6V258.5z M47.9,247.3c-0.9,3.6-2.7,6.9-5.2,9.5c2,1.5,4.2,2.6,6.6,3.3
	c-0.8,0.8-1.5,1.7-2.1,2.7c-2.5-0.9-4.9-2.2-6.9-3.9c-1.8,1.3-3.8,2.3-5.9,3c-0.4-0.9-1-1.8-1.7-2.5c1.9-0.6,3.8-1.4,5.5-2.6
	c-1.6-1.9-2.9-4-3.8-6.3l2.7-0.8c0.8,1.9,1.9,3.6,3.3,5.1c1.5-1.5,2.7-3.3,3.6-5.3H33.6v-2.8h11.8l0.5-0.1L47.9,247.3z M39.7,271.4
	c3,1.1,5.9,2.6,8.6,4.3l-2.6,2c-2.6-1.8-5.4-3.4-8.4-4.5L39.7,271.4z"/>
<path d="M25.4,294.5c1.3,1.3,4.5,5.1,5.2,6l-2,2.7c-1-1.7-2-3.3-3.2-4.9V314h-3.2v-15.8c-1.1,3.4-2.7,6.6-4.7,9.5
	c-0.5-1.1-1-2.1-1.6-3.1c2.4-3,4.8-8.2,5.9-12.9h-5.1v-3.2h5.5V281h3.2v7.5h4.8v3.2h-4.8V294.5z M48,283.1v30.6h-3.3v-2h-9.8v2.1
	h-3.2v-30.7H48z M34.9,286.2v5.3h9.8v-5.3H34.9z M34.9,300.1h9.8v-5.5h-9.8V300.1z M44.7,308.6v-5.5h-9.8v5.5H44.7z"/>
<path d="M24,342.5c1.5,2.5,4.4,3.6,8.4,3.8s12.4,0.1,17-0.3c-0.5,1-0.9,2.1-1.1,3.3c-4.1,0.2-11.8,0.2-16,0.1
	c-4.5-0.2-7.6-1.4-9.8-4.1c-1.5,1.5-3.1,2.9-4.9,4.5l-1.7-3.3c1.6-1.1,3.2-2.4,4.7-3.7v-8.7h-4.3V331H24V342.5z M22.3,325.8
	c-1.5-2.3-3.4-4.3-5.5-6l2.6-1.8c2.2,1.6,4.1,3.5,5.7,5.7L22.3,325.8z M35.2,341.5h-9.9v-2.7h9.9v-2.1h-7.8v-11.8h7.8v-2h-9.4V320
	h9.4v-3h3.2v3h9.8v2.8h-9.8v2h8.1v11.8h-8.1v2.1h10.3v2.7H38.4v3.8h-3.2L35.2,341.5z M30.5,329.5h4.7v-2.3h-4.7V329.5z M35.2,334.2
	v-2.4h-4.7v2.4H35.2z M38.4,327.2v2.3h4.9v-2.3H38.4z M43.3,331.8h-4.9v2.4h4.9L43.3,331.8z"/>
<path d="M38.2,362.8c2.8-1,4.4-2.7,4.6-4.9c-0.2,0-0.3,0-0.5,0c-1.5,0.1-2.9-1-3-2.6c0,0,0,0,0,0c0-0.1,0-0.2,0-0.3
	c0-1.6,1.2-2.9,2.8-2.9h0.2c2.3,0,3.5,1.8,3.5,4.5c0,4-2.5,7.1-6.6,8.4L38.2,362.8z"/>
<path d="M25.2,414.2c-1.1-1.6-2.6-3.5-4.2-5.4v19.9h-8.5v-18c-1.4,1.5-2.9,2.9-4.5,4.1c-1.1-2.9-2.6-5.6-4.4-8
	c5.4-3.7,10.7-10.1,14.1-16.6H5.3v-7.8h7.2V372H21v10.3h1.1l1.4-0.4l4.8,3.2c-1.8,5-4.3,9.8-7.2,14.3l1.3,1.1c1.6-2.2,3-4.4,4.2-6.8
	l5.5,4.6c-2.2,1.9-4.1,4.1-5.7,5.8c1.6,1.5,3.1,2.8,3.7,3.4L25.2,414.2z M60,376c0,0,0,3.2-0.1,4.3c-0.5,29.7-1.1,40.4-3.3,43.7
	c-1.2,2.2-3.3,3.7-5.8,4.2c-2.9,0.5-5.8,0.6-8.8,0.4c-0.3-3.1-1.2-6.2-2.8-9c2.9,0.2,5.5,0.2,6.9,0.2c0.9,0.1,1.8-0.4,2.3-1.3
	c1.6-1.9,2.2-11.4,2.5-34.5h-6.8c-0.5,17.4-2.2,34.1-15.4,44.5c-1.7-2.7-3.9-5-6.4-6.9c11.9-8.6,12.7-22.6,13-37.6h-7.9V376H60z"/>
<path d="M59.8,449.6v7.7h-54v-7.7h12.5c-0.5-2-1.1-3.9-2-5.7l1-0.2H9.1v-7.6h19v-4.5h9.2v4.5h20v7.6h-7.7l1.2,0.2l-2.7,5.6H59.8z
	 M14.1,460h38.6v28.3h-9.2v-1.8H22.8v1.8h-8.7V460z M22.8,467.1v2.9h20.7v-2.9H22.8z M43.5,479.4v-3H22.8v3H43.5z M25.7,443.8
	c0.9,1.8,1.6,3.7,2,5.7l-0.5,0.1h12.1l-0.5-0.1c0.7-1.6,1.3-3.8,1.8-5.7H25.7z"/>
<path d="M41.2,523.2c5.6,6.5,12.5,11.7,20.3,15.2c-2.4,2.2-4.5,4.8-6.3,7.6c-6.8-3.8-12.9-8.9-17.8-14.9V548h-9.3v-16.7
	c-5.1,5.9-11.2,10.8-18,14.5c-1.8-2.7-4-5.3-6.4-7.5c7.9-3.4,14.9-8.6,20.5-15.1H5.9v-8.6h22.2v-6.1H10.5v-8.6h17.6v-8.5h9.3v8.5h18
	v8.6h-18v6.1h22.6v8.6H41.2z"/>
<path d="M53.8,586.9c-1.5-1.6-4.2-3.8-6.9-6c-1,1.5-2.1,2.8-3.3,4.1c-1.5-1.1-3.1-2.2-4.8-3.1c5.9,7.2,13.7,12.6,22.5,15.8
	c-2.5,2.4-4.7,5.1-6.4,8c-6.8-3.3-12.9-7.9-17.8-13.6v15.6h-9.2v-15.1c-5,5.6-11,10-17.7,13.2c-1.8-2.7-3.8-5.2-6.2-7.5
	c9.8-3.7,18.8-10.7,23.9-18.5v-13.4H17.3l7.2,1.4c-0.5,2.1-1.2,4.1-2,6.1c2,1.6,4,3.3,5.2,4.5l-5.7,6.2c-1-1.2-2-2.3-3.2-3.3
	c-1.8,2.8-3.9,5.3-6.4,7.5c-2-2.1-4.3-4-6.7-5.7c5.1-3.6,8.7-9.8,10.3-16.7H6.8V558h21.1v-7h9.2v7H59v8.5H45.4l7.1,1.3
	c-0.5,2.1-1.1,4.1-1.9,6.1c3.2,2.4,7,5.2,9.2,7.1L53.8,586.9z M37.1,566.5v13l0.1,0.2c3.3-3.2,5.7-8.1,6.8-13.1H37.1z"/>
<path d="M41.6,633.4v2.7H48v2.9h-6.4v5c0,1.8-0.4,2.7-1.8,3.1c-2,0.5-4.1,0.7-6.2,0.5c-0.3-1.1-0.7-2.1-1.2-3.1
	c2.2,0.1,4.3,0.1,4.9,0s0.8-0.1,0.8-0.6V639H25.8c2,1.3,3.8,3,5.3,4.9l-2.6,2.1c-1.6-2.1-3.5-4-5.7-5.5l1.9-1.5h-7v-2.9h20.4v-2.7
	H16.6v-2.8H31v-2.7H20.1v-2.8H31v-2.2h0.9c-0.5-0.3-0.9-0.6-1.4-0.9c0.7-0.5,1.3-1.1,1.8-1.8h-5.9c0.4,0.9,0.8,1.8,1.1,2.8l-2.9,1.1
	c-0.4-1.3-1-2.7-1.6-3.9h-1c-1,1.5-2.1,3-3.4,4.3c-0.9-0.7-1.8-1.3-2.8-1.9c2.4-2.3,4.3-5.1,5.5-8.2l3.2,0.8c-0.3,0.8-0.6,1.5-1,2.2
	h8.7v2.7c1.4-1.7,2.5-3.6,3.2-5.7l3.2,0.8c-0.3,0.8-0.6,1.5-1,2.3h10.9v2.8h-6.9c0.7,0.9,1.2,1.9,1.7,2.8l-2.9,1.2
	c-0.7-1.4-1.5-2.8-2.4-4h-2c-0.6,0.9-1.3,1.8-2,2.7h0.2v2.2h11.2v2.8H34.4v2.7H49v2.8L41.6,633.4z"/>
<path d="M22.7,666c0,5.1-0.5,12.6-3.7,17.5c-0.8-0.7-1.7-1.3-2.7-1.8c3-4.6,3.2-11,3.2-15.7v-8.3h11.3v-6.9h3.4v2.5h12.1v2.5H34.2
	v1.9h11.5l0.5-0.1l2.4,0.6c-0.5,2-1.2,3.9-2,5.8l-2.8-0.8c0.3-0.8,0.6-1.8,0.9-2.8H33.8v2.2l8.2-0.7l0.2,2.2l-8.4,0.7v0.8
	c0,1,0.4,1.2,2.5,1.2h7.1c1.5,0,1.8-0.3,1.9-2.2c0.9,0.4,1.8,0.8,2.7,0.9c-0.3,3-1.3,3.7-4.3,3.7H36c-4.2,0-5.4-0.7-5.4-3.6V665
	l-6.2,0.5l-0.2-2.3l6.4-0.5v-2.5h-8L22.7,666z M39.6,679.9h8.8v2.9H22v-2.9h8.6v-2.5H25v-6.7h2.6v4.2h3v-4.8h2.9v9.8h3.3v-9.8h2.9
	v4.8H43v-4.2h2.6v6.7h-6L39.6,679.9z"/>
<path d="M32.2,710.3c-0.1,0.4-0.2,0.8-0.3,1.2c1.2,1,2.4,2.1,3.4,3.3l-1.8,2.2c-0.8-1-1.7-2-2.6-2.9c-1.2,2.3-2.9,4.2-5,5.6
	c-0.5-0.8-1.2-1.4-1.9-2c2.8-1.6,4.7-4.3,5.4-7.5h-4.5v-2.7h4.9v-3.7h-1.2c-0.5,1.2-1,2.3-1.7,3.3c-0.7-0.5-1.4-1-2.1-1.5
	c0.3-0.4,0.6-0.9,0.8-1.3l-2.4,0.9v10.8c0,1.6-0.3,2.4-1.2,3s-2.3,0.6-4.5,0.5c-0.2-1-0.5-2-0.9-2.9h3.1c0.4,0,0.6-0.1,0.6-0.6v-9.7
	c-1.2,0.5-2.5,0.9-3.5,1.3l-0.8-3.2c1.2-0.4,2.7-0.9,4.4-1.5v-6.4h-3.9v-3.1h3.9v-7h2.9v7h2.5v3.1h-2.5v5.4l2.5-0.9l0.4,2.2
	c0.7-1.7,1.2-3.4,1.4-5.1l2.6,0.5c-0.2,0.9-0.4,1.7-0.6,2.5h6.1v2.6h-3.1v3.7H36v2.7L32.2,710.3z M30,698.3c-2.9,0-3.5-0.7-3.5-3.5
	v-8.2h2.8v4.1c1.8-0.6,3.5-1.5,5.1-2.5l1.9,2.1c-2.2,1.2-4.6,2.1-7,2.8v1.7c0,0.9,0.1,1,1.1,1h3.2c0.7,0,0.9-0.3,1-2.4
	c0.8,0.5,1.6,0.8,2.5,1c-0.3,3.1-1.1,3.8-3.2,3.8L30,698.3z M43.8,716.3c0.7,0.1,1.3,0.2,2,0.2h3.8c-0.4,0.9-0.6,1.8-0.8,2.7h-3.2
	c-3.1,0-5.6-0.8-7.4-4.2c-0.5,1.7-1.4,3.4-2.5,4.8c-0.6-0.6-1.3-1.1-2.1-1.5c2.7-3,3.3-7.7,3.5-13.4l2.5,0.2c0,2.1-0.2,4.2-0.5,6.2
	c0.4,1.4,1.1,2.8,2.1,3.9v-12.9H36v-2.7h8.5c-2-2.2-4.5-4.1-7.2-5.4l1.8-1.9c1,0.5,1.9,1,2.9,1.6c0.9-1.1,1.7-2.2,2.5-3.3h-7.9v-2.6
	h9.7l0.5-0.2l1.9,1.3c-1.3,2.3-2.8,4.4-4.6,6.3c0.9,0.7,1.7,1.4,2.4,2.2l-1.9,2H47l0.4-0.1l1.6,0.4c-0.4,2.2-0.9,4.7-1.4,6.3l-2-0.5
	c0.2-0.9,0.4-2.2,0.7-3.4h-2.5v5.3h4.5v2.7h-4.5L43.8,716.3z"/>
<path d="M42.4,737c0,3.1,1.1,11.4,7.3,15.8c-0.7,0.9-1.4,1.9-2,2.9c-4.7-3.3-6.5-9.8-6.9-12.6c-0.4,2.9-2.3,9.2-7.2,12.6
	c-0.5-0.9-1-1.7-1.6-2.5c0,0.8-0.4,1.6-1.2,2c-1,0.4-2.5,0.4-4.6,0.4c-0.2-0.9-0.5-1.8-0.9-2.7h3.3c0.4,0,0.6-0.1,0.6-0.5v-10H16.2
	v-2.8h18.6v2.8H32v10.3c6.1-4.4,7.1-12.6,7.1-15.7v-4.9h-1.5c-0.7,2.3-1.6,4.5-2.8,6.6c-0.9-0.7-1.8-1.2-2.8-1.8
	c2.3-3.3,3.7-8.7,4.4-14.2l3.2,0.5c-0.3,2-0.6,3.9-1.1,5.8h8.1l0.5-0.1l2.2,0.5c-0.5,3.1-1.1,6.1-1.9,9.1l-2.7-0.6
	c0.5-1.9,0.9-3.9,1.1-5.9h-3.4V737z M29,727.3H16.5v-2.7h17.8v2.7H32v8.6c0,1.4-0.2,2-1.2,2.5s-2.4,0.4-4.6,0.4
	c-0.2-0.9-0.5-1.7-0.9-2.5h3.2c0.4,0,0.6-0.1,0.6-0.5L29,727.3z M20.3,751.7v1.6h-2.5v-9.1h9v7.5H20.3z M26.6,736h-6.2v1.3h-2.5V729
	h8.7L26.6,736z M20.3,746.5v3h4v-3H20.3z M24.2,731h-3.7v2.8h3.7V731z"/>
<path d="M49,780.3H34.5v7c0,2.2-0.6,3.1-2.1,3.6s-3.9,0.6-7.6,0.6c-0.3-1.2-0.8-2.3-1.4-3.3c2.9,0.1,5.8,0.1,6.6,0.1s1.1-0.2,1.1-1
	v-7H16.6V777H31v-5.1H19v-3.2h12v-4.9c-3.9,0.3-7.8,0.6-11.4,0.7c-0.1-1-0.4-2-0.8-2.9c8.5-0.4,18.7-1.3,24.3-3l2.5,2.7
	c-3.6,0.9-7.3,1.6-11,2v5.3h12.4v3.2H34.5v5.2H49V780.3z"/>
<path d="M48.2,800.2v1.6c-0.5,16.2-0.9,21.8-2.4,23.6c-0.7,1-1.9,1.6-3.1,1.7c-1.8,0.1-3.6,0.1-5.4,0c-0.1-1.1-0.5-2.3-1.1-3.2
	c2.3,0.2,4.4,0.2,5.3,0.2c0.6,0.1,1.2-0.2,1.5-0.6c1.2-1.2,1.6-6.6,2.1-20.2h-8.5c-0.9,2.1-2,4.1-3.3,6c-0.8-0.7-1.7-1.3-2.6-1.9
	V824h-9.8v2.7h-3v-26.4h4c0.6-1.9,1-3.9,1.3-5.8l3.6,0.6c-0.6,1.8-1.3,3.7-1.9,5.2h5.8v6.8c2.4-3.1,4.3-7.9,5.4-12.6l3.2,0.8
	c-0.4,1.7-0.9,3.3-1.5,4.9H48.2z M20.9,803.3v6.8h6.7v-6.8H20.9z M27.6,821v-8h-6.7v8H27.6z M39.6,818.2c-1.5-2.9-3.3-5.7-5.3-8.3
	l2.7-1.5c2,2.5,3.8,5.2,5.4,8L39.6,818.2z"/>
</svg>