<svg version="1.1" xmlns="http://www.w3.org/2000/svg" xmlns:xlink="http://www.w3.org/1999/xlink" x="0px" y="0px" viewBox="0 0 65 528" style="enable-background:new 0 0 65 528;" xml:space="preserve" width="65" height="528">
<style type="text/css">
	.st0{fill:#FDFDFD;}
</style>
<rect class="st0" width="65" height="528"/>
<path d="M25.2,78.4c-1.1-1.6-2.6-3.5-4.2-5.4v19.8h-8.6v-18C11.1,76.3,9.6,77.7,8,79c-1.1-2.9-2.6-5.6-4.4-8.1
	C9,67.2,14.2,60.9,17.7,54.3H5.2v-7.8h7.2V36.2H21v10.3h1.1l1.4-0.4l4.8,3.2c-1.9,5-4.3,9.8-7.2,14.3l1.3,1.1c1.6-2.2,3-4.4,4.2-6.8
	l5.5,4.6c-2.2,1.9-4.1,4.1-5.7,5.8c1.6,1.5,3.1,2.8,3.7,3.4L25.2,78.4z M59.9,40.2c0,0,0,3.2-0.1,4.3c-0.5,29.7-1.1,40.4-3.3,43.7
	c-1.2,2.2-3.3,3.7-5.8,4.2c-2.9,0.5-5.8,0.6-8.8,0.4c-0.3-3.2-1.2-6.2-2.8-9c2.9,0.2,5.5,0.2,6.9,0.2c0.9,0.1,1.8-0.4,2.3-1.2
	c1.6-1.8,2.2-11.4,2.5-34.4h-6.7C43.7,65.8,42,82.5,28.7,92.9c-1.7-2.7-3.9-5-6.4-6.9C34.2,77.4,35,63.4,35.3,48.4h-7.8v-8.2H59.9z"
	/>
<path d="M59.7,113.8v7.7h-54v-7.7h12.5c-0.5-2-1.1-3.9-2-5.7l1-0.2H9v-7.6h18.9v-4.5h9.2v4.5h20v7.7h-7.6l1.2,0.2
	c-1,2.1-1.9,4-2.7,5.6L59.7,113.8z M14,124.2h38.6v28.3h-9.2v-1.8H22.7v1.8H14V124.2z M22.7,131.3v2.9h20.7v-2.9H22.7z M43.4,143.6
	v-3H22.7v3H43.4z M25.6,108c0.9,1.8,1.6,3.7,2,5.7l-0.5,0.1h12.1l-0.5-0.1c0.7-1.6,1.3-3.8,1.8-5.7H25.6z"/>
<path d="M41.1,187.4c5.6,6.5,12.5,11.7,20.4,15.2c-2.4,2.2-4.5,4.8-6.3,7.6c-6.8-3.8-12.9-8.9-17.8-14.9v16.9H28v-16.7
	c-5.1,5.9-11.2,10.8-18,14.5c-1.8-2.7-4-5.3-6.4-7.5c7.9-3.4,14.9-8.6,20.5-15.1H5.8v-8.6H28v-6.1H10.4V164H28v-8.5h9.2v8.5h18v8.6
	h-18v6.1h22.6v8.6L41.1,187.4z"/>
<path d="M42.4,249.3c5.3,5.8,11.8,10.4,19,13.5c-2.3,2.2-4.4,4.6-6.1,7.3c-6.9-3.7-13-8.7-17.9-14.8v16.5h-9.3v-16.5
	c-5,6-11.2,11-18.1,14.6c-1.8-2.7-3.8-5.1-6.1-7.3c7.3-3.1,13.9-7.7,19.3-13.4H5.7V241H16c-0.9-3.3-2.3-6.4-4-9.4l5.5-2.1h-9v-8.3
	h19.6v-6.1h9.2v6.1h20.1v8.3H49l6,1.7c-2,3.6-4,7.2-5.7,9.7h10.4v8.3L42.4,249.3z M20.3,229.6c1.9,2.9,3.3,6,4.3,9.2L19,241h9.1
	v-11.4H20.3z M37.4,229.6V241h8.8l-5-1.6c1.7-3.2,3.2-6.4,4.4-9.9L37.4,229.6z"/>
<path d="M41.5,297.6v2.7h6.4v2.9h-6.4v5c0,1.8-0.4,2.7-1.8,3.1s-3.3,0.5-6.2,0.5c-0.3-1.1-0.7-2.1-1.2-3.1c2.2,0.1,4.3,0.1,4.9,0
	s0.8-0.1,0.8-0.6v-4.9H25.7c2,1.3,3.8,3,5.3,4.9l-2.6,2.1c-1.6-2.1-3.5-4-5.7-5.5l1.9-1.5h-6.9v-2.9h20.4v-2.7H16.5v-2.8h14.4V292
	H20.1v-2.8h10.8v-2.2h0.9c-0.5-0.3-0.9-0.6-1.4-0.9c0.7-0.5,1.3-1.1,1.8-1.8h-5.9c0.4,0.9,0.8,1.9,1.1,2.8l-2.9,1.1
	c-0.4-1.3-1-2.6-1.6-3.9h-1c-1,1.5-2.1,3-3.4,4.3c-0.9-0.7-1.8-1.3-2.8-1.9c2.4-2.3,4.3-5.1,5.5-8.2l3.2,0.8c-0.3,0.8-0.6,1.5-1,2.2
	h8.7v2.7c1.4-1.7,2.5-3.6,3.2-5.7l3.2,0.8c-0.3,0.8-0.6,1.5-1,2.3h10.9v2.8h-6.9c0.6,0.9,1.2,1.8,1.7,2.8l-2.9,1.2
	c-0.7-1.4-1.5-2.8-2.4-4h-2c-0.6,1-1.3,1.9-2,2.7h0.2v2.2h11.2v2.7H34.4v2.7H49v2.8L41.5,297.6z"/>
<path d="M43.5,331c1.5,0,1.8-0.3,2-2.2c0.9,0.5,1.8,0.8,2.7,0.9c-0.4,3-1.3,3.7-4.3,3.7h-7.8c-4.3,0-5.4-0.7-5.4-3.6v-0.4l-6.4,0.5
	l-0.2-2.4l6.6-0.5v-2.3h-8v5.7c0,5.1-0.5,12.5-3.5,17.4c-0.9-0.7-1.9-1.3-2.9-1.7c2.9-4.6,3.1-11,3.1-15.6V322h11.4v-7.2H34v2.6
	h11.8v2.7H34v2h11.3l0.6-0.1l2.5,0.7c-0.6,2-1.3,3.9-2.1,5.7l-3-0.9c0.3-0.8,0.6-1.7,0.8-2.6H33.8v2.1l8.1-0.7l0.2,2.2l-8.3,0.7v0.7
	c0,1,0.4,1.2,2.5,1.2L43.5,331z M39.1,344.4h9v2.9H21.5v-2.9h8v-9.9h3.1v9.9H36v-9.9h3.2L39.1,344.4z M25.9,335.9
	c1.2,1.9,2.1,4,2.7,6.2l-2.9,1.1c-0.6-2.2-1.5-4.3-2.6-6.3L25.9,335.9z M46.4,336.8c-1.3,2.2-2.7,4.3-4.2,6.3l-2.3-0.9
	c1.3-2.1,2.4-4.2,3.3-6.4L46.4,336.8z"/>
<path d="M28.4,369.2c-1.4,0.4-2.8,0.8-4.2,1.2v9.6c0,1.7-0.4,2.5-1.4,3.1s-2.6,0.6-5,0.6c-0.2-1-0.5-2.1-1-3c1.5,0.1,3,0.1,3.5,0
	s0.7-0.1,0.7-0.7v-8.7l-4.4,1.3l-0.8-3.3c1.4-0.3,3.2-0.8,5.2-1.3v-7.2h-4.6v-3.1H21v-7h3.2v7h3.7v3.1h-3.7v6.3l3.8-1.1L28.4,369.2z
	 M38.1,373.4c-3.7,2-7.7,4-10.9,5.5l-1.5-3.2c1.1-0.4,2.4-1,3.9-1.6v-21.6h3.2v20.2l4.5-2.1L38.1,373.4z M46.4,383.9
	c-1.2-2.5-2.6-5-4.2-7.2c-2.2,3.2-5.4,5.5-10.1,7.3c-0.6-1.1-1.3-2.1-2.2-3c12.1-4,13.7-12.4,13.6-28.9H47c-0.1,9.3-0.7,16.2-3,21.4
	c2.1,2.6,3.8,5.4,5.4,8.3L46.4,383.9z M37.8,365.8c-0.8-2.7-2-5.4-3.5-7.8l2.7-1.1c1.6,2.4,2.8,4.9,3.7,7.6L37.8,365.8z"/>
<path d="M42.4,401.2c0,3.1,1.1,11.4,7.3,15.8c-0.7,0.9-1.4,1.9-2,2.9c-4.7-3.3-6.5-9.8-6.9-12.6c-0.4,2.9-2.3,9.2-7.2,12.6
	c-0.5-0.8-1-1.7-1.6-2.5c0,0.8-0.4,1.6-1.2,1.9c-1,0.4-2.5,0.4-4.6,0.4c-0.2-0.9-0.5-1.8-0.9-2.7c1.5,0,2.9,0,3.3,0s0.6-0.1,0.6-0.5
	v-10H16.1v-2.8h18.6v2.8H32v10.3c6.1-4.4,7.1-12.6,7.1-15.7v-4.9h-1.5c-0.7,2.3-1.6,4.5-2.8,6.6c-0.9-0.7-1.9-1.2-2.9-1.8
	c2.3-3.3,3.7-8.7,4.4-14.2l3.2,0.5c-0.3,2-0.6,3.9-1.1,5.8h8.1l0.5-0.1l2.2,0.5c-0.4,3.1-1.1,6.1-1.9,9.1l-2.7-0.6
	c0.5-1.9,0.9-3.9,1.1-5.9h-3.4V401.2z M29,391.4H16.5v-2.7h17.9v2.7h-2.4v8.6c0,1.4-0.2,2.1-1.2,2.5s-2.4,0.4-4.6,0.4
	c-0.2-0.9-0.5-1.7-0.9-2.5c1.4,0,2.8,0,3.2,0s0.6-0.1,0.6-0.5L29,391.4z M20.2,415.9v1.6h-2.5v-9.1h9v7.5L20.2,415.9z M26.6,400.1
	h-6.2v1.3h-2.5v-8.3h8.7L26.6,400.1z M20.2,410.6v3h4v-3H20.2z M24.1,395.2h-3.8v2.8h3.7L24.1,395.2z"/>
<path d="M48.9,444.5H34.5v7.1c0,2.2-0.6,3.1-2.1,3.6s-3.9,0.6-7.6,0.6c-0.3-1.2-0.8-2.3-1.4-3.3c2.9,0.1,5.8,0.1,6.6,0.1
	s1.1-0.2,1.1-1v-7H16.5v-3.3H31v-5.1H19v-3.2h12V428c-3.9,0.3-7.8,0.6-11.4,0.7c-0.1-1-0.4-2-0.8-2.9c8.5-0.4,18.7-1.3,24.3-3
	l2.5,2.7c-3.6,0.9-7.3,1.6-11,2v5.3h12.4v3.2H34.5v5.1h14.4V444.5z"/>
<path d="M48.2,464.4c0,0,0,1.2,0,1.6c-0.5,16.2-0.9,21.8-2.4,23.6c-0.7,1-1.9,1.6-3.1,1.7c-1.8,0.1-3.6,0.1-5.4,0
	c-0.1-1.2-0.5-2.3-1.1-3.3c2.3,0.2,4.4,0.2,5.3,0.2c0.6,0.1,1.2-0.2,1.5-0.6c1.2-1.2,1.6-6.6,2.1-20.2h-8.5c-0.9,2.1-2,4.1-3.3,6
	c-0.8-0.7-1.7-1.3-2.6-1.9v16.5h-9.7v2.7h-3.1v-26.3h4c0.6-1.9,1-3.9,1.3-5.8l3.6,0.6c-0.6,1.8-1.3,3.7-1.9,5.2h5.8v6.8
	c2.4-3.1,4.3-7.9,5.4-12.6l3.2,0.8c-0.4,1.6-0.9,3.3-1.5,4.9H48.2z M20.8,467.5v6.8h6.7v-6.8H20.8z M27.5,485.2v-8h-6.7v8H27.5z
	 M39.5,482.4c-1.5-2.9-3.3-5.7-5.3-8.3l2.6-1.5c2,2.5,3.8,5.2,5.4,8L39.5,482.4z"/>
</svg>
