<svg version="1.1" xmlns="http://www.w3.org/2000/svg" xmlns:xlink="http://www.w3.org/1999/xlink" x="0px" y="0px" viewBox="0 0 65 405" style="enable-background:new 0 0 65 405;" xml:space="preserve" width="65" height="405">
<style type="text/css">
	.st0{fill:#FDFDFD;}
</style>
<rect class="st0" width="65" height="405"/>
<path d="M58.8,34.7v54.1h-9.1v-2.3H15.6v2.3H7V34.7H58.8z M49.8,78.2V43H15.6v35.2H49.8z M37.4,58.2c1.9,5.9,5.4,10.4,11.7,12.5
	c-2.1,2.1-3.8,4.4-5.1,7c-5.2-2.2-8.6-6-10.9-10.9c-2.2,4.6-6,8.2-12.2,10.9c-1.2-2.5-2.8-4.7-4.8-6.6c7.2-2.9,10.1-6.9,11.4-12.8
	h-10v-7.7h10.9c0.1-2.1,0.1-4.4,0.2-6.8h8.1c-0.1,2.4-0.1,4.7-0.2,6.8h12v7.7H37.4z"/>
<path d="M28.8,140.2c2.3,0,2.8-1.1,3.1-7c2.3,1.5,4.8,2.5,7.4,3.1c-0.9,8.6-3.1,11.2-9.7,11.2h-8.7c-7.8,0-10.1-2.2-10.1-10.1v-19.8
	l-0.9,0.7c-1.8-2.4-3.9-4.6-6.1-6.5c7.3-5,13-12,16.5-20.1l7.9,2.5c-0.4,0.8-0.7,1.7-1.1,2.5c4.2,4.6,9.4,10.2,12,14.2V98.6h8.3V133
	h-8.3v-21.3l-3.8,3.6l-0.1,1c-0.4,9.7-1,14.2-2.4,16c-1.1,1.3-2.7,2.1-4.4,2.3c-2.2,0.3-4.5,0.3-6.7,0.2c-0.2-2.5-0.9-5-2.1-7.2
	c1.4,0.2,2.9,0.3,4.3,0.2c0.6,0.1,1.3-0.2,1.7-0.7c0.5-0.6,0.8-2.4,1.1-6.3h-7.5v16.4c0,2.6,0.4,2.9,2.9,2.9L28.8,140.2z
	 M30.4,113.5c-2.1-3-4.9-6.4-7.5-9.6c-2.2,3.5-4.7,6.7-7.6,9.6H30.4z M58.8,93.2v45.7c0,4.6-0.9,6.8-3.7,8.1s-7,1.6-12.6,1.6
	c-0.6-2.9-1.5-5.7-2.9-8.4c3.6,0.2,7.7,0.2,9,0.2s1.7-0.4,1.7-1.6V93.2H58.8z"/>
<path d="M25.2,154.5c-1.6,4.2-3.4,8.2-5.5,12.1v41.6H11V180c-0.8,1-1.7,1.9-2.5,2.8c-1.3-3.3-2.8-6.4-4.7-9.4
	c5.2-5.2,10.1-13.4,13-21.7L25.2,154.5z M45.2,169.4v5h14.6v7.9H45.2v5.4h15.3v8H45.2v12.6h-9v-38.8h-1.1c-2.1,4-4.7,7.7-7.6,11.1
	c-2-2.2-4.2-4.2-6.5-6.1c5.2-5.2,9.9-13.9,12.5-22.4l8.4,2.2c-0.8,2.3-1.7,4.6-2.7,6.9h22.2v8.2L45.2,169.4z"/>
<path d="M28.2,241.3c-2.6,2.3-5.5,4.2-8.7,5.7c-0.8-0.8-1.6-1.6-2.5-2.3c2.9-1.1,5.7-2.6,8.1-4.6L28.2,241.3z M47.1,216.3
	c-1.1,3.1-3,5.8-5.5,7.9c2.3,1.2,4.7,1.9,7.2,2.3c-0.8,0.9-1.5,1.8-2.1,2.9c-2.9-0.6-5.6-1.7-8-3.3c-2.4,1.3-5,2.3-7.7,2.8
	c-1.3,0.9-2.6,1.8-3.9,2.6l6.3-0.1c1.4-0.8,2.9-1.6,4.3-2.5l2.3,2.3c-3.6,2.1-7.4,3.9-11.3,5.4L41,236c-0.8-0.6-1.6-1.2-2.4-1.8
	l2.3-1.6c2.7,1.7,5.1,3.8,7.3,6.1l-2.5,1.8c-0.6-0.8-1.2-1.5-1.9-2.1l-8.7,0.5v5c0,1.6-0.4,2.4-1.7,2.8c-1.8,0.4-3.7,0.6-5.6,0.5
	c-0.3-1-0.7-2-1.2-2.9c1.9,0.1,3.8,0.1,4.3,0.1s0.7-0.1,0.7-0.6v-4.8c-9.5,0.6-11,0.8-12.1,1.1c-0.2-1-0.5-2.1-0.9-3.1
	c1.6-0.2,3.1-0.6,4.6-1.3c0.9-0.3,2.5-0.9,4.4-1.8c-4.2,0.2-5.1,0.3-5.7,0.5c-0.3-1-0.6-2-1-2.9c0.8-0.2,1.6-0.5,2.2-0.9
	c1.2-0.7,2.4-1.4,3.6-2.3h-2v-13.5h3v12.6c0.4-0.3,0.8-0.6,1.1-1l1.4,1c-0.3-0.5-0.6-1-1-1.4c2.4-0.4,4.7-1.2,6.9-2.2
	c-1.6-1.6-2.8-3.4-3.7-5.5h-2v-2.9h14.1l0.5-0.1L47.1,216.3z M21.7,227.2h-3v-10.7h3V227.2z M35.6,218.5c0.9,1.5,2.1,2.8,3.4,3.9
	c1.5-1.1,2.8-2.4,3.8-3.9L35.6,218.5z M40,240.1c2.9,1.4,5.6,3.1,8.2,4.9l-2.6,1.9c-2.5-1.9-5.2-3.6-8.1-5.1L40,240.1z"/>
<path d="M28.2,277.3c-2.6,2.3-5.5,4.2-8.7,5.7c-0.8-0.8-1.6-1.6-2.5-2.3c2.9-1.1,5.7-2.6,8.1-4.6L28.2,277.3z M47.1,252.3
	c-1.1,3.1-3,5.8-5.5,7.9c2.3,1.2,4.7,1.9,7.2,2.3c-0.8,0.9-1.5,1.8-2.1,2.9c-2.9-0.6-5.6-1.7-8-3.3c-2.4,1.3-5,2.3-7.7,2.9
	c-1.3,0.9-2.6,1.8-3.9,2.5l6.3-0.1c1.4-0.8,2.9-1.6,4.3-2.5l2.3,2.3c-3.6,2.1-7.4,3.9-11.3,5.4L41,272c-0.8-0.6-1.6-1.2-2.4-1.8
	l2.3-1.6c2.7,1.7,5.1,3.8,7.3,6.1l-2.5,1.8c-0.6-0.8-1.2-1.5-1.9-2.1l-8.7,0.5v5c0,1.6-0.4,2.4-1.7,2.8c-1.8,0.4-3.7,0.6-5.6,0.5
	c-0.3-1-0.7-2-1.2-2.9c1.9,0.1,3.8,0.1,4.3,0.1s0.7-0.1,0.7-0.6v-4.8c-9.5,0.6-11,0.8-12.1,1.1c-0.2-1-0.5-2.1-0.9-3.1
	c1.6-0.2,3.1-0.6,4.6-1.3c0.9-0.3,2.5-0.9,4.4-1.8c-4.2,0.2-5.1,0.3-5.7,0.5c-0.3-1-0.6-2-1-2.9c0.8-0.2,1.6-0.5,2.2-0.9
	c1.2-0.7,2.4-1.4,3.6-2.3h-2v-13.5h3v12.6c0.4-0.3,0.8-0.6,1.1-1l1.4,1c-0.3-0.5-0.6-1-1-1.4c2.4-0.4,4.7-1.2,6.9-2.2
	c-1.6-1.6-2.8-3.4-3.7-5.5h-2v-2.9h14.1l0.5-0.1L47.1,252.3z M21.7,263.2h-3v-10.7h3V263.2z M35.6,254.5c0.9,1.5,2.1,2.8,3.4,3.9
	c1.5-1.1,2.8-2.4,3.8-3.9H35.6z M40,276.1c2.9,1.4,5.6,3.1,8.2,4.9l-2.6,1.9c-2.5-1.9-5.2-3.6-8.1-5.1L40,276.1z"/>
<path d="M25.5,299.7c1.3,1.3,4.5,5.1,5.2,6l-2,2.7c-1-1.7-2-3.3-3.2-4.9v15.8h-3.2v-15.9c-1.1,3.4-2.7,6.6-4.7,9.5
	c-0.4-1.1-1-2.1-1.6-3.1c2.4-3,4.8-8.2,5.9-12.9h-5.1v-3.2h5.5v-7.5h3.2v7.5h4.8v3.2h-4.8V299.7z M48.1,288.3v30.6h-3.4v-2H35v2.1
	h-3.2v-30.7H48.1z M35,291.5v5.3h9.8v-5.3H35z M35,305.3h9.8v-5.5H35V305.3z M44.8,313.8v-5.5H35v5.5H44.8z"/>
<path d="M24.1,348.2c0.6,0.4,1.4,1,2.5,1.7c2.4,1.5,5.6,1.7,9.8,1.7c4.5,0,9-0.3,13.5-0.8c-0.5,1.2-0.8,2.5-1,3.8
	c-2.5,0.2-8.9,0.4-12.5,0.4c-4.7,0-7.7-0.4-10.3-2c-1.5-0.9-2.8-2.2-3.6-2.2c-1.1,0-2.6,2.4-4.1,4.7l-2.4-3.3
	c1.4-1.8,3.1-3.3,5.1-4.3v-10.6h-4.5v-3.1h7.6L24.1,348.2z M22.7,330.9c-1.4-2.3-3-4.5-4.9-6.5l2.5-1.7c1.9,1.9,3.5,4,5,6.3
	L22.7,330.9z M37,344.9H26.3v-3.2H37v-4.1h-5.2c-1.7,0-3,0.2-3.3,0.5c-0.3-1.1-0.7-2.1-1.2-3.1c0.7-0.2,1.3-1,2-2.3
	c0.7-1.2,1.3-2.5,1.8-3.9h-4.5V326h5.6c0.4-1.2,0.8-2.5,1.2-3.7l3.5,1c-0.3,0.9-0.7,1.8-1,2.7h12.2v2.9H34.7
	c-0.8,1.9-1.8,3.8-2.8,5.7H37v-4.1h3.5v4.1H47v3.1h-6.5v4.1h8.1v3.2h-8.1v5.9H37V344.9z"/>
<path d="M38.3,368c2.8-1,4.4-2.7,4.6-4.9c-0.2,0-0.3,0-0.5,0c-1.5,0.1-2.9-1-3-2.6c0-0.1,0-0.2,0-0.3c0-1.6,1.2-2.9,2.8-2.9
	c0.1,0,0.2,0,0.2,0c2.3,0,3.5,1.8,3.5,4.5c0,4-2.5,7.1-6.6,8.4L38.3,368z"/>
</svg>
