<svg version="1.1" xmlns="http://www.w3.org/2000/svg" xmlns:xlink="http://www.w3.org/1999/xlink" x="0px" y="0px" viewBox="0 0 65 405" style="enable-background:new 0 0 65 405;" xml:space="preserve" width="65" height="405">
<style type="text/css">
	.st0{fill:#FDFDFD;}
</style>
<rect class="st0" width="65" height="405"/>
<path d="M58.9,34.7v54.1h-9.1v-2.3H15.7v2.3H7V34.7H58.9z M49.8,78.2V43H15.7v35.2H49.8z M37.4,58.2c1.9,5.9,5.4,10.4,11.7,12.5
	c-2.1,2.1-3.8,4.4-5.1,7c-4.9-2.1-8.9-6-11-11c-2.2,4.6-6,8.2-12.2,10.9C19.6,75.1,18,72.9,16,71c7.2-2.9,10.1-6.9,11.4-12.8h-10
	v-7.7h10.9c0.1-2.1,0.1-4.4,0.2-6.8h8.1c-0.1,2.4-0.1,4.7-0.2,6.8h12v7.7L37.4,58.2z"/>
<path d="M38,133.4v-30l-5.3,6.2c-0.7-0.8-1.6-1.9-2.7-3v2.7H16.5v-2c-1.3,1.1-2.8,2.3-4.2,3.5h22.9v19.8H16.3
	c-0.1,0.5-0.2,1.1-0.3,1.6h20.2v16.2h-7.5V147h-8v1.6h-7.2V141c-0.9,2.3-2.1,4.5-3.6,6.4c-1.7-2-3.6-3.7-5.7-5.2
	c5.2-6.9,5.7-16.7,5.7-23.4v-6.3l-1,0.7c-1.4-2.4-3.1-4.5-5.2-6.3c6.1-3.3,11.1-8.2,14.7-14.1h7.7c4.2,3.1,8.2,6.6,11.9,10.2v-3.8
	h8.2v34.1H38z M27.5,124.7v-1.6H17l-0.1,1.6H27.5z M17.2,116.7v1.5h10.3v-1.5H17.2z M27.2,103.6c-1.2-1.2-2.6-2.4-3.8-3.5
	c-0.9,1.1-1.9,2.3-3,3.5H27.2z M20.7,138.3v2.6h8v-2.6H20.7z M59.3,93.2v45.4c0,4.6-0.8,6.9-3.4,8.3s-6.5,1.7-11.6,1.7
	c-0.5-3.1-1.4-6.1-2.8-8.9c3.3,0.2,6.7,0.2,7.9,0.2c1,0,1.4-0.4,1.4-1.4V93.2H59.3z"/>
<path d="M25.3,154.5c-1.6,4.2-3.4,8.2-5.5,12.1v41.6H11v-28.2c-0.8,1-1.7,1.9-2.5,2.8c-1.3-3.3-2.8-6.4-4.7-9.4
	c5.2-5.2,10.1-13.4,13-21.7L25.3,154.5z M45.2,169.4v4.9h14.6v7.9H45.2v5.4h15.3v8.1H45.2v12.6h-9v-38.8h-1.1
	c-2.1,4-4.7,7.7-7.6,11.1c-2-2.2-4.2-4.2-6.6-6.1c5.2-5.2,9.9-13.8,12.5-22.4l8.4,2.2c-0.8,2.4-1.7,4.7-2.7,6.9h22.2v8.2L45.2,169.4
	z"/>
<path d="M28.2,241.9c-2.8,2.1-5.8,3.8-9.1,5c-0.8-0.8-1.6-1.5-2.5-2.2c3-0.9,5.9-2.2,8.5-4L28.2,241.9z M40.8,233.9
	c3,1.6,5.8,3.5,8.3,5.8l-2.5,1.8c-0.6-0.6-1.2-1.2-1.9-1.7L34.4,240v7.3h-3.3v-7.2l-13.6,0.3l-0.1-2.7c2.4,0,5.4,0,8.6-0.1
	c0.3-0.1,0.5-0.3,0.8-0.4c-2-1.4-4.2-2.7-6.4-3.7l2.2-1.8c0.8,0.3,1.6,0.7,2.4,1.1c1.2-0.8,2.3-1.7,3.4-2.6H17.9v-14.7h14.9v2.3
	h-5.4v1.8h4.9v6.2h-4.9v1.9h5.4v2.4h-2l1.3,0.6c-1.5,1.2-3.1,2.3-4.8,3.3c0.9,0.5,1.7,1,2.4,1.6c2.6-1.5,5.2-3.2,7.6-5l2.9,1.6
	c-2.9,1.9-5.9,3.7-8.9,5.3c3.3,0,6.8-0.1,10.3-0.1c-1-0.7-2-1.3-3-1.9L40.8,233.9z M21,217.8v1.8h3.6v-1.8H21z M29.1,221.7H21v2.2
	h8.1V221.7z M21,227.8h3.6v-1.9H21V227.8z M48,216.5c-0.8,3.6-2.6,6.8-5.2,9.5c2,1.5,4.2,2.6,6.6,3.2c-0.8,0.8-1.4,1.7-2,2.7
	c-2.6-0.9-4.9-2.2-7-3.9c-1.8,1.3-3.8,2.3-5.9,3c-0.4-0.9-1-1.8-1.7-2.6c1.9-0.6,3.8-1.4,5.5-2.6c-1.6-1.9-2.9-4-3.8-6.3l2.7-0.8
	c0.8,1.9,1.9,3.6,3.3,5.1c1.5-1.5,2.7-3.3,3.6-5.2H33.8v-2.8h11.8l0.5-0.1L48,216.5z M39.8,240.6c3,1.1,5.9,2.6,8.6,4.3l-2.6,1.9
	c-2.6-1.8-5.4-3.4-8.4-4.5L39.8,240.6z"/>
<path d="M28.2,277.9c-2.8,2.1-5.8,3.8-9.1,5c-0.8-0.8-1.6-1.5-2.5-2.2c3-0.9,5.9-2.2,8.5-4L28.2,277.9z M40.8,270
	c3,1.6,5.8,3.5,8.3,5.8l-2.5,1.8c-0.6-0.6-1.2-1.2-1.9-1.7L34.4,276v7.3h-3.3v-7.2l-13.6,0.3l-0.1-2.7c2.4,0,5.4,0,8.6-0.1
	c0.3-0.1,0.5-0.3,0.8-0.4c-2-1.4-4.2-2.7-6.4-3.7l2.2-1.8c0.8,0.3,1.6,0.7,2.4,1.1c1.2-0.8,2.3-1.7,3.4-2.6H17.9v-14.7h14.9v2.3
	h-5.4v1.8h4.9v6.2h-4.9v1.9h5.4v2.4h-2l1.3,0.6c-1.5,1.2-3.1,2.3-4.8,3.3c0.9,0.5,1.7,1,2.4,1.5c2.6-1.5,5.2-3.2,7.6-5l2.9,1.6
	c-2.9,1.9-5.9,3.7-8.9,5.3c3.3,0,6.8-0.1,10.3-0.1c-1-0.7-2-1.3-3-1.9L40.8,270z M21,253.8v1.8h3.6v-1.8H21z M29.1,257.7H21v2.2h8.1
	V257.7z M21,263.8h3.6v-1.9H21V263.8z M48,252.5c-0.8,3.6-2.6,6.8-5.2,9.5c2,1.5,4.2,2.6,6.6,3.2c-0.8,0.8-1.4,1.7-2,2.7
	c-2.6-0.9-4.9-2.2-7-3.9c-1.8,1.3-3.8,2.3-5.9,3c-0.4-0.9-1-1.8-1.7-2.6c1.9-0.6,3.8-1.4,5.5-2.6c-1.6-1.9-2.9-4-3.8-6.3l2.7-0.8
	c0.8,1.9,1.9,3.6,3.3,5.1c1.5-1.5,2.7-3.3,3.6-5.2H33.8v-2.8h11.8l0.5-0.1L48,252.5z M39.8,276.6c3,1.1,5.9,2.6,8.6,4.3l-2.6,1.9
	c-2.6-1.8-5.4-3.4-8.4-4.5L39.8,276.6z"/>
<path d="M25.5,299.7c1.3,1.3,4.5,5.1,5.2,6l-2,2.7c-1-1.7-2-3.3-3.2-4.9v15.8h-3.2v-15.9c-1.1,3.4-2.7,6.6-4.7,9.5
	c-0.5-1.1-1-2.1-1.6-3.1c2.4-3,4.8-8.2,5.9-12.9h-5.1v-3.2h5.5v-7.5h3.2v7.5h4.8v3.2h-4.8V299.7z M48.2,288.3v30.6h-3.3v-1.9H35v2.1
	h-3.2v-30.7H48.2z M35,291.5v5.3h9.8v-5.3H35z M35,305.3h9.8v-5.5H35V305.3z M44.8,313.9v-5.5H35v5.5H44.8z"/>
<path d="M24.1,347.8c1.5,2.5,4.4,3.6,8.4,3.8s12.4,0.1,17-0.2c-0.5,1-0.9,2.1-1.1,3.3c-4.1,0.2-11.8,0.2-16,0.1
	c-4.5-0.2-7.6-1.4-9.8-4.1c-1.5,1.5-3.1,2.9-4.9,4.5l-1.7-3.3c1.6-1.1,3.2-2.4,4.7-3.7v-8.7h-4.3v-3.1h7.5V347.8z M22.4,331.1
	c-1.5-2.3-3.4-4.3-5.5-6l2.6-1.9c2.2,1.6,4.1,3.6,5.7,5.8L22.4,331.1z M35.3,346.7h-9.9V344h9.9v-2.1h-7.8V330h7.8v-2H26v-2.8h9.3
	v-2.9h3.2v2.9h9.8v2.8h-9.8v2h8.1v11.8h-8.1v2.2h10.3v2.7H38.5v3.8h-3.2V346.7z M30.6,334.8h4.7v-2.3h-4.7V334.8z M35.3,339.4V337
	h-4.7v2.4H35.3z M38.5,332.4v2.3h4.9v-2.3H38.5z M43.4,337.1h-4.9v2.4h4.9V337.1z"/>
<path d="M38.3,368c2.8-1,4.4-2.7,4.6-4.9c-0.2,0-0.3,0-0.5,0c-1.5,0.1-2.9-1-3-2.6c0-0.1,0-0.2,0-0.2c0-1.6,1.2-2.9,2.8-2.9
	c0.1,0,0.2,0,0.3,0c2.3,0,3.5,1.8,3.5,4.5c0,4-2.5,7.1-6.6,8.4L38.3,368z"/>
</svg>
