<svg version="1.1" xmlns="http://www.w3.org/2000/svg" xmlns:xlink="http://www.w3.org/1999/xlink" x="0px" y="0px" viewBox="0 0 65 855" style="enable-background:new 0 0 65 855;" xml:space="preserve" width="65" height="855">
<style type="text/css">
	.st0{fill:#FDFDFD;}
</style>
<rect class="st0" width="65" height="855"/>
<path d="M58.1,29.4v54.1H49v-2.3H14.9v2.3H6.2V29.4H58.1z M49,73V37.7H14.9V73H49z M36.6,52.9c1.9,5.9,5.4,10.4,11.7,12.5
	c-2.1,2.1-3.8,4.4-5.1,7c-5.2-2.2-8.6-6-10.9-10.9c-2.2,4.6-6,8.2-12.2,10.9c-1.2-2.5-2.8-4.7-4.8-6.6c7.2-2.9,10.1-6.9,11.4-12.8
	h-10v-7.7h10.9c0.1-2.1,0.1-4.4,0.2-6.8h8c-0.1,2.4-0.1,4.7-0.2,6.8h12V53h-11V52.9z"/>
<path d="M28,135c2.3,0,2.7-1.1,3.1-7c2.3,1.5,4.8,2.5,7.4,3.1c-0.9,8.6-3.1,11.2-9.7,11.2h-8.7c-7.8,0-10.1-2.2-10.1-10.1v-19.8
	L9,113c-1.8-2.4-3.9-4.6-6.2-6.5c7.3-5,13.1-12,16.6-20.1l7.9,2.5c-0.4,0.8-0.7,1.7-1.1,2.5c4.2,4.6,9.4,10.2,12,14.2V93.4h8.3v34.4
	h-8.3v-21.4l-3.8,3.6l-0.1,1c-0.4,9.7-1,14.2-2.4,16c-1.1,1.3-2.7,2.1-4.4,2.3c-2.2,0.3-4.5,0.3-6.7,0.2c-0.2-2.5-0.9-5-2.1-7.2
	c1.4,0.2,2.9,0.3,4.3,0.2c0.6,0.1,1.3-0.2,1.7-0.7c0.5-0.6,0.8-2.4,1.1-6.3h-7.5v16.4c0,2.6,0.4,2.9,2.9,2.9L28,135z M29.7,108.3
	c-2.1-3-4.9-6.4-7.5-9.6c-2.2,3.5-4.7,6.7-7.6,9.6H29.7z M58.1,87.9v45.7c0,4.6-0.9,6.8-3.7,8.1s-7,1.6-12.6,1.6
	c-0.6-2.9-1.5-5.7-2.9-8.4c3.6,0.2,7.7,0.2,9,0.2s1.7-0.4,1.7-1.6V87.9H58.1z"/>
<path d="M24.5,149.3c-1.6,4.2-3.4,8.2-5.5,12.1V203h-8.8v-28.2c-0.8,1-1.7,1.9-2.5,2.8c-1.3-3.3-2.8-6.4-4.7-9.4
	c5.2-5.2,10.1-13.4,13-21.7L24.5,149.3z M44.4,164.2v4.9H59v7.9H44.4v5.4h15.3v8.1H44.4V203h-9v-38.8h-1.1c-2.1,4-4.7,7.7-7.6,11.1
	c-2-2.2-4.2-4.2-6.6-6.1c5.2-5.2,9.8-13.9,12.5-22.4L41,149c-0.8,2.3-1.7,4.6-2.7,6.9h22.3v8.2L44.4,164.2z"/>
<path d="M27.5,236.1c-2.6,2.3-5.5,4.2-8.7,5.7c-0.8-0.8-1.6-1.6-2.5-2.3c2.9-1.1,5.7-2.6,8.1-4.6L27.5,236.1z M46.4,211.1
	c-1.1,3.1-3,5.8-5.5,7.9c2.3,1.2,4.7,1.9,7.2,2.3c-0.8,0.9-1.5,1.8-2.1,2.9c-2.9-0.6-5.6-1.7-8-3.3c-2.4,1.3-5,2.3-7.7,2.9
	c-1.3,0.9-2.6,1.8-3.9,2.6l6.3-0.1c1.4-0.8,2.9-1.6,4.3-2.5l2.3,2.3c-3.6,2.1-7.4,3.9-11.3,5.4l12.3-0.6c-0.8-0.6-1.6-1.2-2.4-1.8
	l2.3-1.6c2.7,1.7,5.1,3.8,7.3,6.1l-2.4,1.7c-0.6-0.8-1.2-1.4-1.9-2.1l-8.7,0.5v5c0,1.6-0.4,2.4-1.7,2.8c-1.8,0.4-3.7,0.6-5.6,0.5
	c-0.3-1-0.7-1.9-1.2-2.8c1.9,0.1,3.8,0.1,4.3,0.1s0.7-0.1,0.7-0.6v-4.8c-9.5,0.6-11,0.8-12.1,1.1c-0.2-1-0.5-2.1-0.9-3.1
	c1.6-0.2,3.1-0.6,4.6-1.3c0.9-0.3,2.5-0.9,4.4-1.8c-4.2,0.2-5.1,0.3-5.7,0.5c-0.3-1-0.6-2-1-2.9c0.8-0.2,1.5-0.5,2.2-0.9
	c1.2-0.7,2.4-1.5,3.6-2.3h-2v-13.5h3v12.6c0.4-0.3,0.8-0.7,1.1-1l1.4,1c-0.3-0.5-0.6-1-1-1.4c2.4-0.4,4.7-1.2,6.9-2.2
	c-1.6-1.6-2.8-3.4-3.7-5.5h-2.1v-2.9h14.1l0.5-0.1L46.4,211.1z M21,221.9h-3v-10.7h3V221.9z M34.8,213.2c0.9,1.5,2,2.8,3.4,3.9
	c1.5-1.1,2.8-2.4,3.8-3.9H34.8z M39.2,234.9c2.9,1.4,5.6,3.1,8.2,4.9l-2.6,1.9c-2.5-1.9-5.2-3.6-8.1-5.1L39.2,234.9z"/>
<path d="M27.5,272.1c-2.6,2.3-5.5,4.2-8.7,5.7c-0.8-0.8-1.6-1.6-2.5-2.3c2.9-1.1,5.7-2.6,8.1-4.6L27.5,272.1z M46.4,247.1
	c-1.1,3.1-3,5.8-5.5,7.9c2.3,1.2,4.7,1.9,7.2,2.3c-0.8,0.9-1.5,1.8-2.1,2.9c-2.9-0.6-5.6-1.7-8-3.3c-2.4,1.3-5,2.3-7.7,2.9
	c-1.3,0.9-2.6,1.8-3.9,2.5l6.3-0.1c1.4-0.8,2.9-1.6,4.3-2.5l2.3,2.3c-3.6,2.1-7.4,3.9-11.3,5.4l12.3-0.6c-0.8-0.6-1.6-1.2-2.4-1.8
	l2.3-1.6c2.7,1.7,5.1,3.8,7.3,6.1l-2.4,1.8c-0.6-0.8-1.2-1.4-1.9-2.1l-8.7,0.5v5c0,1.6-0.4,2.4-1.7,2.8c-1.8,0.4-3.7,0.6-5.6,0.5
	c-0.3-1-0.7-1.9-1.2-2.8c1.9,0.1,3.8,0.1,4.3,0.1s0.7-0.1,0.7-0.6v-4.8c-9.5,0.6-11,0.8-12.1,1.1c-0.2-1-0.5-2.1-0.9-3.1
	c1.6-0.2,3.1-0.6,4.6-1.3c0.9-0.3,2.5-0.9,4.4-1.8c-4.2,0.2-5.1,0.3-5.7,0.5c-0.3-1-0.6-2-1-2.9c0.8-0.2,1.5-0.5,2.2-0.9
	c1.2-0.7,2.4-1.5,3.6-2.3h-2v-13.5h3v12.6c0.4-0.3,0.8-0.7,1.1-1l1.4,1c-0.3-0.5-0.6-1-1-1.4c2.4-0.4,4.7-1.2,6.9-2.2
	c-1.6-1.6-2.8-3.4-3.7-5.5h-2.1v-2.9h14.1l0.5-0.1L46.4,247.1z M21,257.9h-3v-10.7h3V257.9z M34.8,249.2c0.9,1.5,2,2.8,3.4,3.9
	c1.5-1.1,2.8-2.4,3.8-3.9H34.8z M39.2,270.9c2.9,1.4,5.6,3.1,8.2,4.9l-2.6,1.9c-2.5-1.9-5.2-3.6-8.1-5.1L39.2,270.9z"/>
<path d="M24.7,294.5c1.3,1.3,4.5,5.1,5.2,6l-2,2.7c-1-1.7-2-3.3-3.2-4.9V314h-3.2v-15.9c-1.1,3.4-2.7,6.6-4.7,9.5
	c-0.5-1.1-1-2.1-1.7-3.1c2.4-3,4.8-8.2,5.9-12.9h-5v-3.2h5.5V281h3.2v7.5h4.8v3.2h-4.8V294.5z M47.4,283.1v30.6H44v-2h-9.8v2.1H31
	v-30.7H47.4z M34.2,286.2v5.3H44v-5.3H34.2z M34.2,300.1H44v-5.5h-9.8V300.1z M44,308.6v-5.5h-9.8v5.5H44z"/>
<path d="M23.4,343c0.6,0.4,1.4,1,2.5,1.7c2.4,1.5,5.6,1.7,9.8,1.7c4.5,0,9-0.3,13.5-0.8c-0.5,1.2-0.9,2.5-1,3.7
	c-2.5,0.2-8.9,0.4-12.5,0.4c-4.7,0-7.7-0.4-10.3-2c-1.5-0.9-2.8-2.2-3.6-2.2c-1.1,0-2.6,2.4-4.1,4.7l-2.4-3.2
	c1.4-1.8,3.1-3.3,5.1-4.3v-10.6H16V329h7.6v14H23.4z M21.9,325.6c-1.4-2.3-3-4.5-4.9-6.5l2.6-1.7c1.9,1.9,3.5,4,5,6.3L21.9,325.6z
	 M36.2,339.6H25.5v-3.2h10.7v-4.1H31c-1.6,0-3,0.2-3.3,0.5c-0.3-1.1-0.7-2.1-1.1-3.2c0.7-0.2,1.3-1,2-2.3c0.7-1.2,1.3-2.5,1.8-3.9
	h-4.5v-2.9h5.6c0.4-1.2,0.8-2.5,1.1-3.7l3.5,1c-0.3,0.9-0.6,1.8-1,2.7h12.2v2.9H33.9c-0.8,1.9-1.8,3.8-2.8,5.7h5.1V325h3.5v4.1h6.5
	v3.1h-6.5v4.1h8.1v3.2h-8.1v5.9h-3.5C36.2,345.4,36.2,339.6,36.2,339.6z"/>
<path d="M37.5,362.8c2.8-1,4.4-2.7,4.6-4.9c-0.2,0-0.3,0-0.5,0c-1.5,0.1-2.9-1.1-3-2.6c0-0.1,0-0.2,0-0.2c0-1.6,1.2-2.9,2.8-2.9
	c0.1,0,0.2,0,0.2,0c2.3,0,3.5,1.8,3.5,4.5c0,4-2.5,7.1-6.6,8.4L37.5,362.8z"/>
<path d="M24.4,414.2c-1.1-1.6-2.6-3.5-4.2-5.4v19.9h-8.5v-18c-1.4,1.5-2.9,2.8-4.5,4.1c-1.1-2.9-2.6-5.6-4.4-8
	c5.4-3.7,10.7-10.1,14.1-16.6H4.5v-7.8h7.2V372h8.5v10.3h1.1l1.4-0.4l4.8,3.2c-1.9,5-4.3,9.8-7.2,14.3l1.3,1.1
	c1.6-2.2,3-4.4,4.2-6.8l5.5,4.6c-2.2,1.9-4.1,4.1-5.7,5.8c1.6,1.5,3.1,2.8,3.7,3.4L24.4,414.2z M59.1,376c0,0,0,3.2-0.1,4.3
	c-0.5,29.7-1,40.4-3.3,43.7c-1.2,2.2-3.3,3.8-5.7,4.2c-2.9,0.5-5.8,0.6-8.8,0.4c-0.3-3.1-1.2-6.2-2.7-9c2.9,0.2,5.5,0.2,6.9,0.2
	c0.9,0.1,1.8-0.4,2.3-1.3c1.6-1.9,2.2-11.4,2.5-34.5h-6.8c-0.5,17.4-2.2,34.1-15.4,44.5c-1.7-2.7-3.9-5-6.4-6.9
	c11.9-8.6,12.6-22.6,13-37.6h-7.8v-8H59.1z"/>
<path d="M59,449.6v7.7H5v-7.7h12.5c-0.5-2-1.1-3.9-2-5.7l1-0.2H8.2v-7.6h18.9v-4.5h9.2v4.5h20v7.6h-7.7l1.2,0.2
	c-1,2.1-1.9,4-2.7,5.6L59,449.6z M13.2,460h38.6v28.3h-9.2v-1.8H22v1.8h-8.8V460z M22,467.1v2.9h20.7v-2.9H22z M42.7,479.4v-3H22v3
	H42.7z M24.9,443.8c0.9,1.8,1.6,3.7,2,5.7l-0.5,0.1h12.1l-0.5-0.1c0.7-1.9,1.3-3.8,1.8-5.7H24.9z"/>
<path d="M40.3,523.2c5.6,6.5,12.5,11.7,20.4,15.2c-2.4,2.2-4.5,4.8-6.3,7.6c-6.8-3.8-12.9-8.9-17.8-14.9V548h-9.2v-16.7
	c-5.1,5.9-11.2,10.8-18,14.5c-1.8-2.7-4-5.3-6.4-7.5c7.9-3.4,14.9-8.6,20.5-15.1H5.1v-8.6h22.2v-6.1H9.7v-8.6h17.6v-8.5h9.2v8.5h18
	v8.6h-18v6.1h22.6v8.6H40.3z"/>
<path d="M41.7,585.2c5.3,5.8,11.8,10.4,19,13.5c-2.3,2.2-4.4,4.7-6.1,7.4c-6.9-3.7-13-8.7-17.9-14.8v16.5h-9.2v-16.5
	c-5,6-11.2,11-18.1,14.7c-1.8-2.6-3.8-5.1-6.2-7.3c7.3-3.1,13.9-7.6,19.3-13.4H5V577h10.3c-0.9-3.3-2.3-6.4-4-9.4l5.5-2.1h-9v-8.3
	h19.6V551h9.2v6.2h20v8.3h-8.4l6,1.7c-2,3.6-4,7.2-5.7,9.7H59v8.3H41.7z M19.6,565.4c1.9,2.9,3.3,6,4.3,9.2l-5.6,2.2h9.1v-11.5
	L19.6,565.4L19.6,565.4z M36.6,565.4v11.5h8.8l-5-1.6c1.7-3.1,3.2-6.4,4.3-9.8L36.6,565.4z"/>
<path d="M40.8,633.4v2.7h6.4v2.9h-6.4v5c0,1.8-0.4,2.7-1.8,3.1s-3.3,0.5-6.2,0.5c-0.3-1.1-0.7-2.1-1.2-3.1c2.1,0.1,4.3,0.1,4.9,0
	s0.8-0.1,0.8-0.6V639H25c2,1.3,3.8,3,5.3,4.9l-2.6,2.1c-1.6-2.1-3.5-4-5.7-5.5l1.9-1.5H17v-2.9h20.3v-2.7H15.8v-2.8h14.4v-2.7H19.3
	v-2.8h10.8v-2.2H31c-0.4-0.3-0.9-0.6-1.4-0.9c0.7-0.5,1.3-1.1,1.8-1.8h-5.9c0.4,0.9,0.8,1.8,1.2,2.8l-2.9,1.1
	c-0.4-1.3-0.9-2.7-1.6-3.9h-1c-1,1.5-2.1,3-3.4,4.3c-0.9-0.7-1.8-1.3-2.8-1.9c2.4-2.3,4.3-5.1,5.5-8.2l3.2,0.8
	c-0.3,0.8-0.6,1.5-1,2.2h8.7v2.7c1.4-1.7,2.5-3.6,3.2-5.7l3.2,0.8c-0.3,0.8-0.6,1.5-1,2.3h10.9v2.8H41c0.6,0.9,1.2,1.9,1.7,2.8
	l-2.9,1.2c-0.7-1.4-1.5-2.8-2.4-4h-2c-0.6,0.9-1.3,1.9-2,2.7h0.2v2.2h11.3v2.8H33.6v2.7h14.6v2.8L40.8,633.4z"/>
<path d="M42.8,666.8c1.5,0,1.8-0.3,1.9-2.2c0.9,0.5,1.8,0.8,2.7,0.9c-0.4,3-1.3,3.7-4.4,3.7h-7.8c-4.3,0-5.4-0.7-5.4-3.6v-0.4
	l-6.4,0.5l-0.2-2.3l6.6-0.5v-2.3h-8v5.7c0,5.1-0.5,12.5-3.5,17.4c-0.9-0.7-1.9-1.3-2.9-1.7c2.9-4.6,3.1-11.1,3.1-15.7v-8.4h11.3
	v-7.2h3.3v2.5H45v2.7H33.2v2h11.3l0.6-0.1l2.6,0.7c-0.6,2-1.3,3.9-2.1,5.7l-3-0.9c0.3-0.8,0.6-1.7,0.8-2.6H33v2.1l8.1-0.7l0.2,2.2
	L33,665v0.7c0,1,0.4,1.2,2.5,1.2L42.8,666.8z M38.4,680.1h9v2.9H20.8v-2.9h8v-9.9h3.1v9.9h3.4v-9.9h3.2L38.4,680.1z M25.2,671.7
	c1.2,1.9,2.1,4,2.7,6.2L25,679c-0.6-2.2-1.5-4.3-2.6-6.3L25.2,671.7z M45.6,672.6c-1.3,2.2-2.7,4.3-4.2,6.3l-2.3-0.9
	c1.3-2.1,2.4-4.2,3.3-6.5L45.6,672.6z"/>
<path d="M27.7,705c-1.4,0.4-2.8,0.8-4.2,1.2v9.7c0,1.7-0.4,2.5-1.4,3.1s-2.6,0.6-5,0.6c-0.2-1-0.5-2.1-1-3c1.5,0.1,3,0.1,3.5,0
	s0.7-0.1,0.7-0.7v-8.7l-4.4,1.3l-0.9-3.3c1.4-0.3,3.2-0.8,5.2-1.3v-7.2h-4.5v-3.1h4.6v-7h3.2v7h3.7v3.1h-3.7v6.3l3.7-1L27.7,705z
	 M37.4,709.2c-3.7,1.9-7.7,4-10.9,5.5l-1.5-3.2c1.1-0.4,2.4-1,3.9-1.6v-21.6H32v20.2c1.5-0.7,3-1.4,4.5-2.1L37.4,709.2z M45.7,719.7
	c-1.2-2.5-2.5-5-4.2-7.2c-2.2,3.2-5.4,5.5-10.1,7.3c-0.6-1.1-1.3-2.1-2.2-3c12.1-4,13.6-12.4,13.6-28.9h3.4
	c-0.1,9.3-0.7,16.2-3,21.4c2.1,2.6,3.9,5.4,5.4,8.3L45.7,719.7z M37.1,701.6c-0.8-2.7-2-5.4-3.5-7.8l2.7-1.1
	c1.6,2.4,2.9,4.9,3.8,7.6L37.1,701.6z"/>
<path d="M41.6,737c0,3.1,1.1,11.4,7.3,15.8c-0.7,0.9-1.4,1.9-2,2.9c-4.7-3.3-6.5-9.8-6.9-12.6c-0.4,2.9-2.3,9.2-7.2,12.6
	c-0.5-0.8-1-1.7-1.6-2.5c0,0.8-0.5,1.6-1.2,2c-1,0.4-2.4,0.4-4.6,0.4c-0.2-0.9-0.5-1.8-0.9-2.7c1.5,0,2.9,0,3.3,0s0.6-0.1,0.6-0.5
	v-10h-13v-2.8H34v2.8h-2.8v10.3c6.1-4.4,7.1-12.6,7.1-15.7v-4.9h-1.5c-0.7,2.3-1.6,4.5-2.8,6.6c-0.9-0.7-1.9-1.2-2.8-1.8
	c2.3-3.3,3.7-8.7,4.4-14.2l3.2,0.5c-0.3,2-0.6,3.9-1.1,5.8h8.1l0.5-0.1l2.2,0.5c-0.4,3.1-1.1,6.1-1.9,9.1l-2.7-0.6
	c0.5-1.9,0.8-3.9,1.1-5.9h-3.4V737z M28.2,727.3H15.7v-2.7h17.9v2.7h-2.4v8.6c0,1.4-0.2,2-1.2,2.5s-2.4,0.4-4.6,0.4
	c-0.2-0.9-0.5-1.7-0.9-2.5c1.4,0,2.8,0,3.2,0s0.6-0.1,0.6-0.5L28.2,727.3L28.2,727.3z M19.5,751.7v1.6H17v-9.1h9v7.5H19.5z
	 M25.8,736h-6.2v1.3h-2.5V729h8.7V736z M19.5,746.5v3h4v-3H19.5z M23.4,731h-3.8v2.8h3.8V731z"/>
<path d="M48.2,780.3H33.7v7c0,2.2-0.6,3.1-2.1,3.6s-3.9,0.6-7.6,0.6c-0.3-1.2-0.8-2.3-1.4-3.3c2.9,0.1,5.8,0.1,6.6,0.1
	s1.1-0.2,1.1-1v-7H15.8V777h14.5v-5.1h-12v-3.2h12v-4.9c-3.9,0.3-7.8,0.6-11.4,0.7c-0.1-1-0.4-2-0.8-2.9c8.5-0.4,18.6-1.3,24.3-3
	l2.5,2.7c-3.6,0.9-7.3,1.6-11,2v5.3h12.4v3.2H33.7v5.2h14.4v3.3H48.2z"/>
<path d="M47.4,800.2c0,0,0,1.2,0,1.6c-0.5,16.2-0.9,21.8-2.4,23.6c-0.7,1-1.9,1.6-3.1,1.7c-1.8,0.1-3.6,0.1-5.4,0
	c-0.1-1.1-0.5-2.3-1.1-3.2c2.3,0.2,4.4,0.2,5.3,0.2c0.6,0.1,1.2-0.2,1.5-0.6c1.2-1.2,1.6-6.6,2.1-20.2h-8.5c-0.9,2.1-2,4.1-3.3,6
	c-0.8-0.7-1.7-1.3-2.6-1.9V824h-9.8v2.7H17v-26.4h4c0.6-1.9,1-3.9,1.3-5.8l3.6,0.6c-0.6,1.8-1.3,3.7-1.9,5.2h5.8v6.8
	c2.4-3.1,4.3-7.9,5.4-12.6l3.2,0.8c-0.4,1.7-0.9,3.3-1.5,4.9H47.4z M20.1,803.3v6.8h6.7v-6.8H20.1z M26.8,821v-8h-6.7v8H26.8z
	 M38.8,818.2c-1.5-2.9-3.3-5.7-5.2-8.3l2.6-1.5c2,2.5,3.8,5.2,5.4,8L38.8,818.2z"/>
</svg>
