<svg version="1.1" xmlns="http://www.w3.org/2000/svg" xmlns:xlink="http://www.w3.org/1999/xlink" x="0px" y="0px" viewBox="0 0 65 680" style="enable-background:new 0 0 65 680;" xml:space="preserve" width="65" height="680">
<style type="text/css">
	.st0{fill:#FDFDFD;}
</style>
<rect class="st0" width="65" height="680"/>
<path d="M37.7,68.7V40.5l-5,5.8c-0.7-0.8-1.5-1.8-2.5-2.8v2.6H17.5v-1.9c-1.3,1.1-2.6,2.2-4,3.2H35V66H17.3L17,67.5h19v15.2h-7v-1.3
	h-7.6v1.4h-6.8v-7c-0.9,2.1-2,4.2-3.4,6c-1.6-1.8-3.4-3.5-5.4-4.9c4.9-6.5,5.4-15.6,5.4-22V49l-0.9,0.6c-1.4-2.2-3-4.1-4.9-5.8
	c5.7-3.1,10.5-7.7,13.8-13.2h7.2c4,2.9,7.7,6.1,11.2,9.6v-3.5h7.7v32H37.7z M27.8,60.6v-1.5H18l-0.1,1.5H27.8z M18.1,53v1.4h9.7V53
	H18.1z M27.5,40.7c-1.1-1.1-2.3-2.2-3.6-3.2c-0.9,1-1.8,2.1-2.9,3.2H27.5z M21.4,73.3v2.5h7.5v-2.5H21.4z M57.6,30.9v42.6
	c0,4.3-0.7,6.5-3.2,7.8s-6.1,1.6-10.9,1.6C43,80,42.2,77.2,41,74.5c3.1,0.2,6.3,0.2,7.4,0.2s1.3-0.3,1.3-1.3V30.9H57.6z"/>
<path d="M25.7,88.5c-1.5,3.9-3.2,7.7-5.1,11.4v39h-8.2v-26.4c-0.7,0.9-1.6,1.8-2.4,2.6c-1.2-3.1-2.7-6-4.4-8.8
	c4.9-4.9,9.5-12.6,12.2-20.3L25.7,88.5z M44.4,102.5v4.7h13.7v7.3H44.4v5h14.4v7.6H44.4v11.8H36v-36.4h-1c-2,3.7-4.4,7.2-7.1,10.4
	c-1.9-2.1-3.9-4-6.2-5.7c4.9-4.9,9.2-13,11.7-21l7.8,2.1c-0.7,2.2-1.6,4.4-2.5,6.5h20.8v7.7H44.4z"/>
<path d="M20.5,150.8c2.3-0.3,9.8-1,15.9-1.5c4-0.3,7.6-0.6,10-0.6v3c-2.4-0.1-4.8,0.1-7.2,0.6c-4.9,1.8-8.3,6.3-8.6,11.5
	c0,7.1,6.8,9.3,12.7,9.5l-1,3.1c-6.7-0.3-14.6-3.9-14.6-12c0.1-5,2.8-9.6,7-12.2c-3.9,0.4-13.1,1.4-17,2.2l-0.3-3.2
	C18.6,151,19.7,150.9,20.5,150.8z M44.1,161.1l-1.9,0.9c-0.9-1.8-1.9-3.5-3-5.1l1.8-0.8C42.1,157.7,43.2,159.4,44.1,161.1z
	 M48.2,159.5l-1.8,0.9c-0.9-1.8-1.9-3.5-3.1-5.1l1.8-0.8C46.2,156.1,47.2,157.8,48.2,159.5z"/>
<path d="M27.8,209.2c-2.9,2-6.1,3.6-9.5,4.8c-0.6-0.7-1.3-1.3-2-1.9c3.2-0.8,6.3-2.1,9.1-3.9L27.8,209.2z M33.2,197.2h-7.3v2.3h-2.4
	v-2.3h-7.1v-1.7h7.1v-1.6h-5.9v-8.1h5.9v-1.5h-6.8v-1.7h6.8v-2.1h2.4v2.1h7v1.7h-7v1.5H32v8.1h-6.1v1.6h7.3V197.2z M34.1,207.6v6.9
	h-2.7v-6.8L17,207.9l-0.1-2.3h8.5c0.6-0.3,1.3-0.6,2-1c-2.1-1.3-4.3-2.4-6.6-3.4l1.9-1.5c0.8,0.3,1.7,0.7,2.6,1.1
	c1.7-1.1,3.2-2.4,4.7-3.7l2.3,1.1c-1.6,1.3-3.3,2.4-5,3.5c0.9,0.4,1.8,0.9,2.6,1.5c2.6-1.4,5.1-2.9,7.5-4.7l2.3,1.3
	c-3.1,2-6.4,3.9-9.7,5.5c3.7,0,7.7-0.1,11.7-0.1c-1.2-0.7-2.4-1.3-3.6-1.8l1.7-1.4c3.3,1.4,6.3,3.2,9.2,5.3l-1.9,1.6
	c-0.7-0.6-1.5-1.2-2.3-1.7L34.1,207.6z M19.7,189h3.7v-1.7h-3.7V189z M23.5,192.3v-1.8h-3.7v1.8H23.5z M25.9,187.3v1.7h3.9v-1.7
	H25.9z M29.7,190.6h-3.9v1.8h3.9V190.6z M47.3,190c-0.9,2.4-2.5,4.5-4.7,6c2.3,1,4.7,1.6,7.2,1.9c-0.6,0.6-1.1,1.3-1.5,2.1
	c-2.8-0.4-5.5-1.3-8-2.6c-2,1-4.2,1.7-6.4,2.1c-0.3-0.7-0.7-1.4-1.2-2c1.9-0.3,3.7-0.8,5.5-1.5c-1.4-1.1-2.5-2.5-3.4-4l1.6-0.4H34
	v-1.4l-0.1,0.1c-0.4-0.7-1-1.3-1.6-1.9c2.5-1.3,3-2.7,3-4.2v-2.4h9.6v3.4c0,0.6,0,0.9,0.1,1c0.2,0.1,0.4,0.2,0.6,0.1h1
	c0.2,0,0.5,0,0.7-0.1c0.2-0.1,0.4-0.3,0.4-0.6c0.1-0.7,0.2-1.3,0.2-2c0.5,0.4,1.1,0.8,1.8,1c0,0.9-0.1,1.8-0.4,2.6
	c-0.2,0.4-0.6,0.7-1,0.9c-0.5,0.2-1,0.2-1.5,0.2H45c-0.7,0-1.4-0.2-1.9-0.6c-0.5-0.4-0.6-1-0.6-2.7v-1.3h-4.9v0.4
	c0.1,2.1-0.9,4.2-2.7,5.4h10.7l0.5-0.1L47.3,190z M37.3,191.5c0.8,1.3,2,2.5,3.3,3.3c1.4-0.8,2.6-2,3.5-3.3H37.3z M39.7,208.1
	c3.2,1,6.3,2.4,9.2,4.1l-2.1,1.7c-2.8-1.8-5.9-3.2-9.1-4.2L39.7,208.1z"/>
<path d="M29.7,222.6c-0.2,1-0.5,3.1-0.9,5.1c1.7-0.1,3.2-0.2,4-0.2c3.3,0,5.9,1.3,5.9,6.2c0,4.3-0.6,10.1-2.1,13.1
	c-1.1,2.4-3,3-5.3,3c-1.4,0-2.9-0.2-4.3-0.5l-0.5-3.1c1.5,0.4,3,0.7,4.5,0.7c1.4,0.1,2.7-0.6,3.2-1.9c1.2-2.4,1.7-7.2,1.7-11.1
	c0-3.3-1.5-3.9-3.8-3.9c-1.3,0-2.6,0.1-3.9,0.3c-1.3,5.2-3.9,13.4-7.7,19.5l-3-1.2c3.7-5,6.4-13.2,7.7-18.1l-4.6,0.5l-3.3,0.4
	l-0.3-3.1c1.1,0.1,2.1,0,3.2,0s3.3-0.2,5.5-0.4c0.6-2.6,0.9-5.2,0.9-7.8l3.4,0.3C29.9,221.1,29.8,221.9,29.7,222.6z M49.4,238.6
	l-2.9,1.4c-1.1-4-4.1-11.1-6.6-14.1l2.7-1.2C44.9,227.6,48.2,235,49.4,238.6L49.4,238.6z M46,224.3l-2,0.9c-0.8-1.8-1.8-3.5-2.9-5.1
	l2-0.8C44.1,221,45.1,222.6,46,224.3z M50,222.9l-2,0.9c-0.9-1.7-1.9-3.4-3-5l1.9-0.9C48,219.5,49.1,221.2,50,222.9L50,222.9z"/>
<path d="M25.8,258.7c1.9,0,10.5-0.3,12.5-0.5c0.7,0,1.4-0.1,2-0.3l1.7,2.2c-0.6,0.5-1.4,0.9-2,1.5c-1.8,1.4-6.7,5.6-9.5,8
	c1.6-0.5,3.3-0.8,5-0.8c6,0,10.4,3.7,10.4,8.5c0,5.8-4.8,9.7-12.5,9.7c-5,0-8-2.2-8-5.2c0-2.5,2.2-4.7,5.6-4.7
	c3.8-0.2,7.1,2.6,7.5,6.4c2.7-0.9,4.5-3.4,4.5-6.2c0-3.6-3.4-6.2-8.2-6.2c-6,0-9.2,2.5-13.8,7.2l-2.1-2.1c3-2.5,7.6-6.3,9.7-8.1
	s6.5-5.4,8.4-7.1c-1.9,0.1-9.1,0.4-11,0.5c-0.8,0-1.6,0.1-2.4,0.2l-0.1-3.1C24.3,258.7,25,258.7,25.8,258.7z M32.8,284.3
	c1,0,1.9-0.1,2.9-0.2c-0.3-2.9-2.1-4.9-4.8-4.9c-1.7,0-2.9,1-2.9,2.3C27.9,283.3,29.9,284.3,32.8,284.3L32.8,284.3z"/>
<path d="M26.3,333.4c-1.2-1.8-2.5-3.5-3.9-5.1V347h-8v-16.9c-1.3,1.4-2.7,2.7-4.2,3.9c-1-2.7-2.4-5.3-4.1-7.6
	c5.1-3.5,10-9.5,13.3-15.6H7.6v-7.3h6.8v-9.7h8v9.7h1l1.3-0.3l4.5,3c-1.7,4.7-4,9.3-6.7,13.5l1.2,1c1.5-2,2.8-4.2,4-6.4l5.2,4.3
	c-2.1,1.8-3.8,3.9-5.3,5.4c1.5,1.4,2.9,2.6,3.5,3.2L26.3,333.4z M58.9,297.5v4c-0.5,27.9-1,37.9-3.1,41c-1.1,2.1-3.1,3.5-5.4,3.9
	c-2.7,0.4-5.5,0.6-8.2,0.4c-0.3-2.9-1.2-5.8-2.6-8.4c2.7,0.2,5.2,0.2,6.5,0.2c0.9,0.1,1.7-0.4,2.1-1.2c1.5-1.8,2-10.7,2.4-32.4h-6.4
	c-0.5,16.4-2,32-14.5,41.8c-1.6-2.5-3.6-4.7-6-6.5c11.1-8.1,11.9-21.2,12.1-35.3h-7.3v-7.6C28.5,297.4,58.9,297.5,58.9,297.5z"/>
<path d="M58.8,366.6v7.2H8.1v-7.2h11.8c-0.4-1.8-1.1-3.6-1.9-5.3l0.9-0.2h-7.7v-7.2H29v-4.2h8.6v4.2h18.8v7.2h-7.2l1.1,0.2
	c-1,2-1.8,3.8-2.5,5.3H58.8z M15.9,376.3h36.2v26.5h-8.6v-1.7H24v1.7h-8.1L15.9,376.3z M24,383v2.7h19.5V383H24z M43.4,394.5v-2.8
	H24v2.8H43.4z M26.8,361.1c0.9,1.7,1.5,3.5,1.9,5.4l-0.5,0.1h11.3l-0.5-0.1c0.7-1.8,1.2-3.6,1.7-5.4H26.8z"/>
<path d="M50.6,445.8l-3.7,8.6c-7.4-3-25.1-7-33.8-8.3l3.4-8.4C25.9,439.2,43.1,443.1,50.6,445.8z M48.1,428.9l-3.2,8.4
	c-6.2-2.4-20.5-5.6-28.8-7l3-8.1C27.1,423.5,41.2,426.6,48.1,428.9z M51.9,414l-3.4,8.3c-6.2-2.3-22.2-5.9-30-6.9l3.1-8
	C28.8,408.3,45,411.6,51.9,414z"/>
<path d="M35,467.1h8.8c1.8,0,3.6-0.2,5.4-0.7l6.7,4.1c-0.8,1.4-1.5,2.9-2.1,4.5c-2.1,6.4-5.3,12.4-9.4,17.8
	c-5.3,6.5-11.9,11.5-22.1,15.7l-7.8-7c11.7-3.6,17.4-8.2,22-13.3c3.4-4,5.8-8.6,7.2-13.6H30.1c-3.9,5-8.5,9.4-13.7,13L9,482.1
	c6.9-4.2,12.7-10,16.9-17c1.2-2,2.2-4.2,2.9-6.5l9.6,3.2C37.2,463.5,35.9,465.7,35,467.1z"/>
<path d="M32.4,513.5c-0.5,1.9-0.9,3.8-1.2,5.7c-0.1,0.3-0.1,0.7-0.2,1c2.8-0.5,5.6-1,8.4-1.6v8.3c-3.4,0.8-6.8,1.4-10.2,1.7
	c-0.5,2.4-1.1,4.8-1.6,6.9c-2.3,8.7-5.2,17.2-8.8,25.5l-9.2-3.1c3.2-5.5,7.6-17.1,9.7-24.8l1-3.9h-2.8c-2.8,0-5-0.1-6.8-0.2
	l-0.2-8.3c2.4,0.3,4.7,0.4,7.1,0.5c1.5,0,2.9-0.1,4.4-0.1c0.2-0.7,0.3-1.5,0.3-2.2c0.3-2,0.3-4.1,0.2-6.1L32.4,513.5z M38.5,544.1
	c-0.4,1.4-0.7,2.9-0.7,4.4c0,2.3,1.7,3.8,6.5,3.8c4-0.1,7.9-0.5,11.8-1.2l-0.3,8.5c-3.8,0.5-7.7,0.8-11.5,0.8
	c-9.6,0-14.7-3.5-14.7-9.1c0.1-2.6,0.4-5.3,1.1-7.8L38.5,544.1z M34.5,530c3.2-0.3,7.3-0.6,10.9-0.6c3.1,0,6.4,0.2,9.7,0.5L55,538
	c-3.2-0.4-6.4-0.7-9.6-0.7c-3.6,0-7.3,0.2-10.9,0.6V530z"/>
<path d="M32.2,565.4c-0.6,2.2-1,4.2-1.5,6.2l-0.2,0.8c6.6-0.4,13.2-1.2,19.7-2.5l0.2,7.9c-7.1,1.1-14.3,1.9-21.6,2.3
	c-0.6,2.6-1.3,5.3-2,7.6c4-1.8,8.3-2.7,12.7-2.7c9,0,15.3,4.9,15.3,12.3c0,12.8-12,17.4-30.4,15.5l-2.4-8.6c11.7,2,23.7,1,23.7-6.6
	c0-2.8-2.6-5.3-7.3-5.3c-6.2,0-11.5,2.3-14.6,6.4c-0.5,0.7-1,1.5-1.4,2.3l-7.8-2.7c2.5-4.9,4.6-11.9,6.1-17.9
	c-3.2-0.1-6.3-0.2-8.9-0.5v-8.2c3.4,0.6,6.9,1,10.4,1.1c0.1-0.5,0.2-1,0.2-1.5c0.3-2,0.4-4,0.3-6L32.2,565.4z"/>
<path d="M34.7,649.4l-1.7-2.7c1-0.1,2.1-0.3,3.1-0.5c4.7-1,9.2-4.5,9.2-10.8c0.2-5.6-4.2-10.3-9.8-10.5c-0.4,3.6-1.2,7.1-2.2,10.5
	c-2.2,7.5-5.1,11.3-8.4,11.3s-6.5-3.7-6.5-9.7c0-7.9,7-14.7,15.8-14.7c8.5,0,13.9,6,13.9,13.3C48.3,643.1,43.3,648.3,34.7,649.4z
	 M25.1,643.3c1.7,0,3.7-2.4,5.5-8.5c0.9-3.2,1.6-6.5,2-9.8c-7,0.9-11.2,6.9-11.2,11.7C21.5,641.3,23.5,643.3,25.1,643.3z"/>
</svg>