<svg version="1.1" xmlns="http://www.w3.org/2000/svg" xmlns:xlink="http://www.w3.org/1999/xlink" x="0px" y="0px" viewBox="0 0 660 71" style="enable-background:new 0 0 660 71;" xml:space="preserve" width="660" height="71">
<style type="text/css">
	.st0{fill:#fdfdfd;}
</style>
<rect class="st0" width="660" height="71"/>
<path d="M28.8,46.9C28.8,39.4,34,35,39.9,35c2.4,0,4.8,0.9,6.6,2.6l-2.3,3.1c-1.1-1.1-2.5-1.7-4-1.8c-3.8,0-6.5,3.2-6.5,8
	s2.6,8,6.4,8c1.8-0.1,3.6-0.8,4.9-2l2,3.1c-2,1.8-4.6,2.8-7.3,2.8C33.5,58.7,28.8,54.4,28.8,46.9z"/>
<path d="M47.9,46.9c0-7.5,5-11.9,10.6-11.9s10.6,4.3,10.6,11.8s-5,11.8-10.6,11.8S47.9,54.4,47.9,46.9z M64.3,46.9
	c0-4.8-2.2-8-5.8-8s-5.7,3.2-5.7,8s2.2,8,5.7,8S64.3,51.7,64.3,46.9z"/>
<path d="M73.6,35.6h3.8l0.4,3.1H78c2.1-2,4.4-3.7,7.5-3.7c4.8,0,6.9,3.2,6.9,8.9v14.2h-4.8V44.5c0-3.9-1.2-5.5-3.8-5.5
	c-2.1,0-3.5,1.1-5.5,3.1v16h-4.7V35.6z"/>
<path d="M98.2,35.6h3.8l0.4,3.1h0.1c2.1-2,4.4-3.7,7.5-3.7c4.8,0,6.9,3.2,6.9,8.9v14.2h-4.7V44.5c0-3.9-1.2-5.5-3.8-5.5
	c-2.1,0-3.5,1.1-5.5,3.1v16h-4.7V35.6z"/>
<path d="M121.2,46.9c0-7.3,5-11.9,10.3-11.9c6,0,9.2,4.3,9.2,10.7c0,0.8-0.1,1.6-0.2,2.4h-14.6c0.4,4.3,3.1,6.9,7,6.9
	c1.9,0,3.8-0.6,5.4-1.7l1.6,3c-2.2,1.5-4.9,2.4-7.6,2.4C126,58.7,121.2,54.3,121.2,46.9z M136.6,44.8c0-3.8-1.8-6.1-5-6.1
	c-2.8,0-5.3,2.2-5.8,6.1H136.6z"/>
<path d="M143.3,46.9c0-7.5,5.2-11.9,11.1-11.9c2.4,0,4.8,0.9,6.6,2.6l-2.3,3.1c-1.1-1.1-2.5-1.7-4-1.8c-3.8,0-6.5,3.2-6.5,8
	s2.6,8,6.4,8c1.8-0.1,3.6-0.8,4.9-2l2,3.1c-2,1.8-4.6,2.8-7.3,2.8C148,58.7,143.3,54.4,143.3,46.9z"/>
<path d="M165.3,50.8V39.4h-3.3v-3.5l3.5-0.2l0.5-6.2h3.9v6.2h5.9v3.8h-5.9v11.4c0,2.7,0.9,4.1,3.3,4.1c0.8,0,1.7-0.2,2.4-0.5
	l0.9,3.5c-1.4,0.5-2.9,0.8-4.4,0.8C167.1,58.7,165.3,55.5,165.3,50.8z"/>
<path d="M179.2,28.5c-0.1-1.5,1.1-2.7,2.6-2.8c0,0,0,0,0,0h0.3c1.6,0.1,2.8,1.4,2.7,2.9c-0.1,1.6-1.4,2.8-2.9,2.7
	C180.4,31.3,179.2,30.1,179.2,28.5L179.2,28.5z M179.8,35.6h4.7v22.5h-4.7V35.6z"/>
<path d="M190.6,35.6h3.9l0.4,3.1h0.1c2.1-2,4.4-3.7,7.5-3.7c4.8,0,6.9,3.2,6.9,8.9v14.2h-4.7V44.5c0-3.9-1.1-5.5-3.8-5.5
	c-2.1,0-3.5,1.1-5.5,3.1v16h-4.7L190.6,35.6z"/>
<path d="M213.5,62.3c0-1.9,1.2-3.7,3.3-4.9v-0.2c-1.3-0.8-2.1-2.2-2-3.7c0.1-1.7,1.1-3.3,2.5-4.2v-0.2c-1.9-1.4-3-3.6-3-6
	c0-5.1,4.1-8.1,8.7-8.1c1.1,0,2.2,0.2,3.3,0.6h8v3.5H230c1,1.1,1.5,2.6,1.5,4.1c0,4.9-3.7,7.8-8.4,7.8c-1.1,0-2.2-0.2-3.2-0.7
	c-0.8,0.5-1.2,1.4-1.2,2.4c0,1.4,0.9,2.2,3.8,2.2h4.1c5.3,0,8.1,1.6,8.1,5.5c0,4.3-4.6,7.9-11.8,7.9
	C217.4,68.3,213.5,66.3,213.5,62.3z M230.1,61.2c0-1.9-1.5-2.5-4.2-2.5h-3.4c-1,0-2-0.1-3-0.3c-1.1,0.7-1.9,1.9-1.9,3.3
	c0,2.2,2.3,3.5,6,3.5C227.5,65.2,230.1,63.2,230.1,61.2z M227.2,43.2c0-3-1.9-4.8-4.3-4.8s-4.3,1.7-4.3,4.8s1.9,4.9,4.3,4.9
	S227.2,46.1,227.2,43.2L227.2,43.2z"/>
<path d="M249.5,14.2h10.6V31h14.5V14.2H285v44h-10.5V40.1h-14.5v18.1h-10.6V14.2z"/>
<path d="M291.4,48.8c0-7.1,5.5-10.9,18.6-12.3c-0.2-2.7-1.6-4.3-5.1-4.3c-2.7,0-5.4,1.1-8.8,3l-3.7-6.9c4.3-2.8,9.3-4.3,14.5-4.5
	c8.7,0,13.6,4.8,13.6,15.3v19.1H312l-0.7-3.4H311c-2.8,2.5-5.9,4.2-9.6,4.2C295.2,59,291.4,54.4,291.4,48.8z M310,48.2v-5.4
	c-6.5,0.8-8.7,2.8-8.7,5.1c0,2,1.4,2.9,3.6,2.9S308.5,49.8,310,48.2z"/>
<path d="M327.2,45.7V32.8h-4.5V25l5.2-0.4l1.1-8.9h8.7v8.9h7.9v8.2h-7.9v12.8c0,3.7,1.8,5.2,4.2,5.2c1.1-0.1,2.1-0.3,3.1-0.7
	l1.6,7.6c-2.5,0.8-5,1.2-7.6,1.2C330.6,59,327.2,53.6,327.2,45.7z"/>
<path d="M347,54.3l4.7-6.5c3.1,2.3,5.9,3.5,8.5,3.5s4-1,4-2.7c0-2-3.2-3-6.7-4.3c-4-1.6-8.6-4.3-8.6-9.9c0-6.3,5.1-10.6,13-10.6
	c4.4,0,8.6,1.5,12,4.3l-4.7,6.3c-2.4-1.7-4.8-2.8-7-2.8c-2.4,0-3.5,0.8-3.5,2.4c0,2,2.9,2.8,6.4,4c4.2,1.6,8.9,4,8.9,10.1
	s-4.8,11-14,11C355.2,58.9,350.7,57.2,347,54.3z"/>
<path d="M378.2,45.3V24.6h10.5V44c0,4.6,1.2,6,3.9,6c2.4,0,3.8-0.9,5.6-3.4v-22h10.5v33.5h-8.6l-0.8-4.6h-0.2
	c-2.8,3.3-5.9,5.4-10.4,5.4C381.3,59,378.2,53.7,378.2,45.3z"/>
<path d="M415.6,24.6h8.5l0.8,4.2h0.2c2.8-2.7,6.2-5,10.7-5c7.3,0,10.4,5.2,10.4,13.6v20.8h-10.5V38.7c0-4.7-1.2-6-3.9-6
	c-2.4,0-3.8,1.1-5.8,3v22.5h-10.5L415.6,24.6z"/>
<path d="M451.1,41.3c0-10.8,7.9-17.6,15.9-17.6c9.7,0,14.4,7,14.4,16.2c0,1.5-0.1,3.1-0.4,4.6h-19.7c0.9,4.6,4.1,6.5,8.4,6.5
	c2.5,0,5-0.8,7.1-2.1l3.5,6.3c-3.5,2.4-7.7,3.8-12,3.8C458.5,59,451.1,52.5,451.1,41.3z M472.5,37.6c0-3.3-1.5-5.8-5.3-5.8
	c-2.9,0-5.4,1.8-6.1,5.8H472.5z"/>
<path d="M499.5,14.2h11.4l7,19c0.9,2.5,1.6,5.3,2.4,8h0.3c0.9-2.7,1.6-5.4,2.4-8l6.7-19h11.4v44h-9.6v-15c0.2-5.1,0.6-10.2,1.4-15.3
	h-0.3L529,38.4l-5.9,16h-5.8l-6-16l-3.5-10.5h-0.2c0.8,5,1.2,10.1,1.5,15.2v15h-9.4L499.5,14.2z"/>
<path d="M548.4,14.5c0-3.2,2.3-5.4,5.8-5.4s5.8,2.1,5.8,5.4s-2.4,5.4-5.8,5.4S548.4,17.8,548.4,14.5z M549,24.6h10.5v33.6H549V24.6z
	"/>
<path d="M566.4,11h10.3v26.2h0.3l9.9-12.6h11.5l-11.7,14l12.5,19.6h-11.4l-7.3-12.8l-3.9,4.4v8.3h-10.3V11z"/>
<path d="M600.7,45.3V24.6h10.5V44c0,4.6,1.2,6,3.9,6c2.4,0,3.8-0.9,5.6-3.4v-22h10.5v33.5h-8.6l-0.8-4.6h-0.2
	c-2.8,3.3-5.9,5.4-10.5,5.4C603.8,59,600.7,53.7,600.7,45.3z"/>
</svg>