<svg version="1.1" xmlns="http://www.w3.org/2000/svg" xmlns:xlink="http://www.w3.org/1999/xlink" x="0px" y="0px" viewBox="0 0 394.7 171.4" style="enable-background:new 0 0 394.7 171.4;" xml:space="preserve" width="395" height="172">
<style type="text/css">
	.st0{fill:#000;}
	.st1{fill:#00C8BB;}
</style>
<path class="st0" d="M114.5,32.2c-14.9,0-23.9,12.9-23.9,26.8c0,9.4,4.1,17.5,14.5,17.5c14.5,0,24.6-13,24.6-26.8
	C129.8,40,124.9,32.2,114.5,32.2z M105.1,71.5c-6.3,0-9.5-4.2-9.5-12.5c0-10.8,6.5-21.8,18.8-21.8c8.9,0,10.3,7.8,10.3,12.5
	C124.8,60.2,117.3,71.5,105.1,71.5z"/>
<path class="st0" d="M346.6,32.2c-14.9,0-23.8,12.9-23.8,26.8c0,9.5,4.1,17.5,14.5,17.5c14.5,0,24.6-13,24.6-26.8
	C361.9,40,357,32.2,346.6,32.2z M337.2,71.5c-6.3,0-9.5-4.2-9.5-12.5c0-10.8,6.5-21.8,18.8-21.8c8.9,0,10.3,7.8,10.3,12.5
	C356.9,60.2,349.4,71.5,337.2,71.5z"/>
<path class="st0" d="M382.3,14.4c-8-8-19-12.4-31.1-12.4c-11.5,0.1-22.6,3.7-32,10.2l2.4-3.9l5.2-8.3L317,0.7l-33.6,2.5l-2.5,0.2
	l-1.3,2.2l-10,16.2l-4.3-9.1l-1.8-3.9l-4.1,1.2l-13.5,4l4.9-6.4l-11.1,0.9l-30.9,2.5l-2.3,0.2l0,0l1-3.3l2.4-7.6l-7.9,1.2l-26.2,4
	L172.5,6l-0.9,3.1l-9.2,32.6c-0.7-10.3-5-20-12.2-27.3c-8-8-19-12.4-31.1-12.4C104.7,2,91,8.1,80.3,17.6l3.1-10.3l2.1-6.9l-7.2,0.5
	L17.8,5l-3.4,0.2l-1,3.2L5.3,34.2L3,41.5l7.6-0.8l10.7-1.1L2.8,90.5L0,98.3l8.2-1.1l27.9-3.8l3.2-0.4l0.9-3.1l15.6-52.5l9.8-0.9
	c-4.1,7.9-6.3,16.6-6.3,25.5C59.4,74,63.8,85,71.7,93s19,12.4,31.1,12.4c19.8,0,38.4-11.4,49.4-27.7L148.5,91l-1.9,6.9l7.1-0.5
	l25.8-1.9l1.6-0.1l0.5,9l0.3,5.5l5.5-0.9l26.7-4.3l4.5-0.7l-0.3-4.6l-3.2-44.8l20.3-26.9l13.3,29.9l-22.2,38.7l-4.6,7.9l9.1-0.5
	l30.1-1.5l2.6-0.1l1.4-2.2l26.5-43c-0.1,1.6-0.2,3.3-0.2,5c0,12.1,4.4,23.1,12.4,31.1s19,12.4,31.1,12.4c31.3,0,59.7-28.5,59.7-59.8
	C394.7,33.4,390.3,22.4,382.3,14.4z M52,32.7L35.4,88.4L7.5,92.2l21.2-58.5l-18.7,2L18.2,10l60.4-4.2l-6,19.9
	c-1.4,1.7-2.7,3.5-3.8,5.4L52,32.7z M102.8,100.3c-22.2,0-38.5-16.3-38.5-38.5c0.1-9.2,2.6-18.1,7.3-26l3.2-0.3l1-3.2l1.3-4.3
	c10.3-12.5,25.8-21,42-21c22.2,0,38.5,16.3,38.5,38.5C157.6,74.1,131.4,100.3,102.8,100.3L102.8,100.3z M236.7,16.8l-5.4,1.6
	l1.8,4.1L210,53.1l3.3,46.7l-26.7,4.3l-2-35.3l-5.5,21.7l-25.8,1.9l23.1-81.9l26.2-4l-10.6,33.9L209.1,16l30.9-2.5l-2.2,2.9
	L236.7,16.8z M261,97.3l-30.1,1.5l23.4-40.9l-15.4-34.7l1.8-2.4l20-5.9l8.2,17.5l14.8-24.1l33.6-2.5L306.1,24
	c-4.3,5-7.8,10.7-10.3,16.8L261,97.3z M334.9,100.3c-22.2,0-38.5-16.3-38.5-38.5c0-6.4,1.3-12.8,3.7-18.7l10-16.3
	C320.5,15,335.5,7,351.2,7c22.2,0,38.5,16.3,38.5,38.5C389.7,74.1,363.5,100.3,334.9,100.3L334.9,100.3z"/>
<path class="st0" d="M79.2,128.9c-2.6,0-8.1,1.7-9.3,4.4c-0.1,0.1-0.1,0.3-0.1,0.4c0,1.7,4.9,1.8,6,1.8c3.3,0,6.5-0.6,9.5-1.9
	c0.1-0.3,0.1-0.5,0.1-0.8C85.4,130,81.4,128.9,79.2,128.9z"/>
<path class="st0" d="M162.5,112.9l-6,0.5l-14.4,1.2l-1.7,0.1l-1,1.3l-11.4,14.2l-5.6,7l9-0.5h0.2l-3.6,10.4l-1.8,0.3l-2.4,0.4
	L123,150l-1.6,4.5c0.1-0.5,0.1-0.9,0.1-1.4c0-6.5-6.1-10-11.9-10c-2.8,0-5.6,0.8-8.1,2.2c1.3-3.9,2-8.1,2.1-12.2
	c0-12.5-8.4-20.7-21.4-20.7c-1.1,0-2.2,0-3.3,0.2c-3.9,0.4-7.6,1.5-11.1,3.4c-7.6,3.9-15.3,12.8-15.3,22c-0.2,3.1,1,6.1,3.1,8.2
	l-0.4,0.1l-2.6,0.4l-0.7,2.5c-0.7,2.2-1.1,4.5-1.1,6.8c0,9.2,7.3,15.4,18.1,15.4c9.4,0,18.2-4.4,25-12.3c0.7-0.9,1.4-1.7,2-2.6
	c1,5.4,6.5,8.2,11.7,8.2c5,0,10.2-2.5,12.6-6.6l-1.7,4.8l-2.1,6.1l6.4-0.8l25.5-3.2l2.5-0.3l0.8-2.4l3.7-11.7l1.8-5.6l-4.9,0.4
	l8.5-26.7L162.5,112.9z M69,167.4c-7.2,0-14.1-3.3-14.1-11.4c0.1-1.9,0.4-3.8,1-5.7l13.3-1.8c-0.1,0.7-0.2,1.4-0.2,2.1
	c0,2.2,1,3.8,3.4,3.8c5.6,0,10-4.9,12-9.7c-4.4,1.2-8.9,1.8-13.4,1.8c-6.1,0-14.4-0.5-14.4-8.5c0-7.6,6.8-15.1,13.2-18.4
	c3-1.6,6.3-2.6,9.7-2.9c0.9-0.1,1.9-0.1,2.8-0.1c10.4,0,17.4,5.9,17.4,16.7C99.7,149.6,86.5,167.4,69,167.4z M107.7,160.7
	c-3.5,0-7.9-1.9-7.9-6c0-4.8,5.8-7.5,9.9-7.5c3.5,0,7.9,1.9,7.9,6C117.6,157.9,111.8,160.7,107.7,160.7L107.7,160.7z M146.6,149.7
	l4.9-0.4l-3.8,11.7l-25.5,3.2l4.5-12.8l4.2-0.6l6.2-18.3l-6.2,0.4l11.4-14.2l14.5-1.2L146.6,149.7z"/>
<path class="st0" d="M248.8,128.9c-2.6,0-8.1,1.7-9.3,4.4c-0.1,0.1-0.1,0.3-0.1,0.4c0,1.7,4.9,1.8,6,1.8c3.3,0,6.5-0.6,9.5-1.9
	c0.1-0.3,0.1-0.5,0.1-0.8C255,130,251.1,128.9,248.8,128.9z"/>
<path class="st0" d="M333.9,135.8l0.5-1.9l4.2-14.9l1.5-5.5l-5.7,0.4l-32,2.3l-2.8,0.2l-0.8,2.6l-3.7,12.2l-1.8,5.8l6-0.7l1.8-0.2
	l-2.5,8.9l-0.1,0.4l-9.5,2.6c-2.1-3.3-6.4-5-10.4-5c-2.6,0-5.1,0.6-7.4,1.8c1.3-3.8,1.9-7.8,1.9-11.8c0-12.5-8.4-20.7-21.4-20.7
	c-1.1,0-2.2,0-3.3,0.2c-3.9,0.4-7.6,1.5-11,3.3c-7.6,3.9-15.3,12.8-15.3,22c-0.2,3.1,1,6.1,3.1,8.2l-0.4,0.1l-2.6,0.4l-0.7,2.5
	c-0.7,2.2-1.1,4.5-1.1,6.8c0,9.2,7.3,15.4,18.1,15.4c9.4,0,18.2-4.4,25-12.3c0.5-0.6,1.1-1.3,1.6-2c1.3,5,6.6,7.6,11.6,7.6
	c3.4,0,6.8-1.1,9.5-3.2c2.4,5.4,8.1,8.6,15.8,8.6c12,0,27.5-4.6,32-17.4c0.5-1.6,0.8-3.3,0.8-5.1c0.1-4-1.7-7.8-5-10.1l2.2-0.9
	L333.9,135.8z M238.6,167.4c-7.2,0-14.1-3.3-14.1-11.4c0-1.9,0.4-3.8,0.9-5.7l13.3-1.8c-0.1,0.7-0.2,1.4-0.2,2.1
	c0,2.2,1,3.8,3.4,3.8c5.6,0,10-4.9,12-9.7c-4.4,1.2-8.9,1.8-13.4,1.8c-6.1,0-14.4-0.5-14.4-8.5c0-7.6,6.8-15.1,13.2-18.4
	c3-1.6,6.3-2.6,9.7-2.9c0.9-0.1,1.9-0.1,2.8-0.1c10.4,0,17.4,5.9,17.4,16.7C269.3,149.6,256.1,167.4,238.6,167.4L238.6,167.4z
	 M276.7,160.7c-3.5,0-7.9-1.9-7.9-6c0-4.8,5.8-7.5,9.9-7.5c2.7,0,5.9,1.1,7.2,3.5l-0.1,0.2c-0.5,1.5-0.8,3-0.8,4.5
	c0,0.6,0,1.1,0.1,1.6C282.9,159.3,279.9,160.6,276.7,160.7L276.7,160.7z M317.3,138.3h0.9c6,0,12.7,2.1,12.7,9.2
	c0,1.3-0.2,2.5-0.6,3.7c-3.9,11-17.8,14.7-28.3,14.7c-5.9,0-11.5-2.3-12.8-8c0.9-1.5,1.3-3.1,1.3-4.8c0-0.4,0-0.8-0.1-1.2l10.3-2.8
	c0,0.3-0.1,0.5-0.1,0.8c0,2.4,2.1,3.1,4.1,3.1c3.7,0,10.2-1.5,12-5.1c0.1-0.2,0.1-0.4,0.1-0.5c0-1.6-4.9-1.7-6.4-1.7h-0.3
	c-2.6,0-5.2,0.2-7.7,0.5l2.6-9.4l12.2-6.4l-18.4,2.1l3.7-12.2l32.1-2.4l-4.2,14.9L317.3,138.3z"/>
<path class="st0" d="M194.4,131.2l14.6,14.6h-39.9v-3.6h31.1l-5.8-5.9V131.2 M190.4,121.5V138l0.2,0.2h-25.4v11.6h53.5l-6.8-6.8
	l-14.6-14.6L190.4,121.5L190.4,121.5z"/>
<path class="st1" d="M78.6,5.8L71,30.9l-19,1.8L35.4,88.4L7.5,92.2l21.2-58.5l-18.7,2L18.2,10L78.6,5.8z"/>
<path class="st1" d="M102.8,100.3c-22.2,0-38.5-16.3-38.5-38.5C64.4,33.3,90.5,7,119.1,7c22.2,0,38.5,16.3,38.5,38.5
	C157.6,74.1,131.4,100.3,102.8,100.3z M114.5,32.2c-14.9,0-23.9,12.9-23.9,26.8c0,9.4,4.1,17.5,14.5,17.5c14.5,0,24.6-13,24.6-26.8
	C129.8,40,124.9,32.2,114.5,32.2z"/>
<path class="st1" d="M239.9,13.5L210,53.1l3.3,46.7l-26.7,4.3l-2-35.3l-5.5,21.7l-25.8,1.9l23.1-81.9l26.2-4l-10.6,33.9L209.1,16
	L239.9,13.5z"/>
<path class="st1" d="M317.4,5.7L261,97.3l-30.1,1.5l23.4-40.9l-16.2-36.4l22.5-6.7l8.2,17.5l14.8-24.1L317.4,5.7z"/>
<path class="st1" d="M334.9,100.3c-22.2,0-38.5-16.3-38.5-38.5c0-28.6,26.2-54.9,54.7-54.9c22.2,0,38.5,16.3,38.5,38.5
	C389.7,74.1,363.5,100.3,334.9,100.3z M346.6,32.2c-14.9,0-23.8,12.9-23.8,26.8c0,9.5,4.1,17.5,14.5,17.5c14.5,0,24.6-13,24.6-26.8
	C361.9,40,357,32.2,346.6,32.2z"/>
<path class="st1" d="M69,167.4c-7.2,0-14.1-3.3-14.1-11.4c0.1-1.9,0.4-3.8,1-5.7l13.3-1.8c-0.1,0.7-0.2,1.4-0.2,2.1
	c0,2.2,1,3.8,3.4,3.8c5.6,0,10-4.9,12-9.7c-4.4,1.2-8.9,1.8-13.4,1.8c-6.1,0-14.4-0.5-14.4-8.5c0-7.6,6.8-15.1,13.2-18.4
	c3-1.6,6.3-2.6,9.7-2.9c0.9-0.1,1.9-0.1,2.8-0.1c10.4,0,17.4,5.9,17.4,16.7C99.7,149.6,86.5,167.4,69,167.4z M79.2,128.9
	c-2.6,0-8.1,1.7-9.3,4.4c-0.1,0.1-0.1,0.3-0.1,0.4c0,1.7,4.9,1.8,6,1.8c3.3,0,6.5-0.6,9.5-1.9c0.1-0.3,0.1-0.5,0.1-0.8
	C85.4,130,81.4,128.9,79.2,128.9L79.2,128.9z"/>
<path class="st1" d="M107.7,160.7c-3.5,0-7.9-1.9-7.9-6c0-4.8,5.8-7.5,9.9-7.5c3.5,0,7.9,1.9,7.9,6
	C117.6,157.9,111.8,160.7,107.7,160.7z"/>
<path class="st1" d="M156.9,117.3l-10.2,32.3l4.9-0.4l-3.7,11.7l-25.5,3.2l4.5-12.8l4.2-0.6l6.2-18.3l-6.2,0.4l11.4-14.2
	L156.9,117.3z"/>
<path class="st1" d="M238.6,167.4c-7.2,0-14.1-3.3-14.1-11.4c0-1.9,0.4-3.8,0.9-5.7l13.3-1.8c-0.1,0.7-0.2,1.4-0.2,2.1
	c0,2.2,1,3.8,3.4,3.8c5.6,0,10-4.9,12-9.7c-4.4,1.2-8.9,1.8-13.4,1.8c-6.1,0-14.4-0.5-14.4-8.5c0-7.6,6.8-15.1,13.2-18.4
	c3-1.6,6.3-2.6,9.7-2.9c0.9-0.1,1.9-0.1,2.8-0.1c10.4,0,17.4,5.9,17.4,16.7C269.3,149.6,256.1,167.4,238.6,167.4z M248.8,128.9
	c-2.6,0-8.1,1.7-9.3,4.4c-0.1,0.1-0.1,0.3-0.1,0.4c0,1.7,4.9,1.8,6,1.8c3.3,0,6.5-0.6,9.5-1.9c0.1-0.3,0.1-0.5,0.1-0.8
	C255,130,251.1,128.9,248.8,128.9z"/>
<path class="st1" d="M276.7,160.7c-3.5,0-7.9-1.9-7.9-6c0-4.8,5.8-7.5,9.9-7.5c3.5,0,7.9,1.9,7.9,6
	C286.6,157.9,280.9,160.7,276.7,160.7z"/>
<path class="st1" d="M334.8,118l-4.2,14.9l-13.3,5.4h0.9c6,0,12.7,2.1,12.7,9.2c0,1.3-0.2,2.5-0.6,3.7c-3.9,11-17.8,14.7-28.3,14.7
	c-6.8,0-13-3-13-10.6c0-1.1,0.2-2.2,0.6-3.2l11.2-3c0,0.3-0.1,0.5-0.1,0.8c0,2.4,2.1,3.1,4.1,3.1c3.7,0,10.2-1.5,12-5.1
	c0.1-0.2,0.1-0.4,0.1-0.5c0-1.7-5.6-1.7-6.7-1.7c-2.6,0-5.2,0.2-7.7,0.5l2.6-9.4l12.2-6.4l-18.4,2.1l3.7-12.2L334.8,118z"/>
<polygon class="st1" points="194.4,131.2 194.4,136.3 200.2,142.2 169.1,142.2 169.1,145.8 208.9,145.8 "/>
</svg>