<svg version="1.1" xmlns="http://www.w3.org/2000/svg" xmlns:xlink="http://www.w3.org/1999/xlink" x="0px" y="0px" viewBox="0 0 84 680" style="enable-background:new 0 0 84 680;" xml:space="preserve" width="84" height="680">
<style type="text/css">
	.st0{fill:#FDFDFD;}
</style>
<rect class="st0" width="84" height="680"/>
<path d="M19.4,121.4c-2.5-2.3-8-5.4-12.3-7.2l5.8-8c4.2,1.4,9.9,4.1,12.7,6.3L19.4,121.4z M29,131.7c-3.2,7.9-6.9,16-10.6,23.4
	l-9.6-6.3c4.4-7.6,8.3-15.4,11.7-23.4L29,131.7z M64.8,141.6c4.3,2.5,8.5,5.3,12.4,8.3l-8.8,5.8c-3.1-2.9-9.8-7.5-14.7-10.6l5.5-3.5
	H42.7l8,3c-4.3,4.5-11.4,9-17.2,11.7c-2.5-2.7-5.2-5.3-8.1-7.6c5.1-1.5,9.9-3.9,14.2-7.1h-7.8V114h14.8v-2.5H34.8V106h-5.9V94.3
	l-5.4,7.6c-2.6-2.4-8.2-5.6-12.5-7.4l5.8-8c4.2,1.5,8.3,3.6,12.1,6.1v-1h17.3v-5.1h10.9v5.1h18.8V106h-6.3v5.6h-13v2.4h16.1v27.6
	L64.8,141.6z M38.5,100v3.3h27.3V100H38.5z M41.1,124.2h5.5v-2.6h-5.5V124.2z M41.1,133.9h5.5v-2.6h-5.5V133.9z M56.7,121.7v2.6H63
	v-2.6H56.7z M63,131.4h-6.3v2.6H63V131.4z"/>
<path d="M32.2,210.5H19.4v6.2H9.8v-50.6h22.4V210.5z M19.4,175.9v25h3.1v-25H19.4z M73.7,194.9v34.2h-11v-2h-18v2.4H34.3v-34.6
	L73.7,194.9z M71.5,191.6H36.2v-29.2h35.3V191.6z M44.8,203.6v2.9h18v-2.9H44.8z M62.8,218.2V215h-18v3.1H62.8z M60.8,170.4H46.5
	v2.9h14.2L60.8,170.4z M60.8,180.6H46.5v3h14.2L60.8,180.6z"/>
<path d="M46.2,233.9c8.5,7.7,19.7,12.8,31,15.4c-2.3,2.7-4.4,5.6-6.1,8.8c-1-0.3-2-0.6-3-1v18.9H16.1v-19.1c-1.3,0.5-2.6,1-3.9,1.4
	c-1.5-3-3.3-5.8-5.5-8.3c11.8-3.2,23.5-9.8,29.5-16L46.2,233.9z M20,277.6h44.3v25.3h-11v-1.5H30.4v1.8H20V277.6z M63.3,255.1
	c-2.8-1.2-5.6-2.6-8.3-4v2.2H29v-2.4c-2.8,1.5-5.6,2.9-8.6,4.2L63.3,255.1z M28,269.6c-0.3-2.4-0.9-4.7-1.6-6.9l4.9-1.2h-6.4v8.2
	L28,269.6z M30.4,284.3v1.8h22.9v-1.8H30.4z M53.3,294.8v-1.9H30.4v1.9H53.3z M37.3,261.4h-3.6c0.9,2.2,1.6,4.6,1.9,7l-4.2,1.2h5.8
	V261.4z M47.4,246.5c-2.1-1.4-4-2.9-5.8-4.5c-1.8,1.7-3.7,3.2-5.7,4.5L47.4,246.5z M45.8,261.4v8.2h4.9l-3.7-0.9
	c0.9-2.4,1.6-4.8,2.2-7.2L45.8,261.4z M58.6,261.4h-5.3l4.7,1c-1.3,2.7-2.5,5.2-3.4,7.1h4.1L58.6,261.4z"/>
<path d="M56.8,351.2c-2.4-1.5-4.7-3.1-6.8-4.9c-2.9,3.2-7.1,5-11.4,4.9c-7.5,0-12.2-4-12.2-10.2c0-5.1,3.9-8.1,8-10.7
	c-1.9-2.5-3-5.6-3.2-8.8c0-5.5,3.7-9,8.9-9c4.9,0,8.1,3.1,8.1,7.6c0,5-4,8-8.3,10.8c3.1,3.4,6.4,6.6,9.9,9.6c2.2-3,3.6-6.4,4.1-10
	h4.3c-0.9,4.5-2.8,8.8-5.5,12.5c2,1.6,4.1,3.1,6.3,4.4L56.8,351.2z M38.8,347.4c3,0,5.7-1.4,8.1-3.8c-3.8-3.2-7.3-6.8-10.5-10.6
	c-3.2,2.1-5.8,4.4-5.8,7.7C30.6,345,34,347.4,38.8,347.4L38.8,347.4z M37.7,328.2c3.6-2.2,6.6-4.5,6.6-8c0.1-2.3-1.6-4.3-3.9-4.4
	c-0.1,0-0.2,0-0.3,0c-3.1,0-5.1,2.1-5.1,5.5C35,323.4,36.1,325.8,37.7,328.2L37.7,328.2z"/>
<path d="M46.7,359.6c8,11.8,19.5,21,31.4,25.7c-2.7,2.9-5.1,6.1-7.1,9.6c-11.3-6.1-23.3-16.2-29.3-24.8c-6,8.6-16.9,18.1-28.8,24.7
	c-1.9-3.1-4.2-6-6.8-8.6c12.7-6.2,24.3-17.6,29.6-26.6H46.7z M48.1,417.9h25.2v9.6H10.8v-9.6H18v-24.6h10.4v24.6h8.3V381h11.3v14.8
	h18.7v9.4H48.1V417.9z"/>
<path d="M45.7,444.2h3.4v6.3h-3.4v7.2H32.7v1.6h13.7v5.5H32.7v1.5h16.2v6.5H8.1v-6.5h15.2v-1.5h-12v-5.5h12v-1.6H11.1v-5.5h12.1
	v-1.8H7.6v-6.3h15.6v-1.5H11.3v-5.5h11.9v-3.6h9.4v3.6h13.1V444.2z M7.7,493.5c10.6-0.2,26.6-0.7,41.3-1.2l-0.3,7.7
	c-14.4,0.7-29.9,1.2-40.4,1.5L7.7,493.5z M46.2,474.4v17.1H11v-17.1H46.2z M19.1,480.8h5.1V479h-5.1V480.8z M19.1,486.9h5.1v-1.8
	h-5.1V486.9z M32.7,444.2h4.2v-1.5h-4.2V444.2z M36.8,450.5h-4.2v1.8h4.2V450.5z M37.8,479H33v1.8h4.8V479z M37.8,485.1H33v1.8h4.8
	V485.1z M60.4,484.5h-9.7v-41.8h9.6L60.4,484.5z M74.6,435.3v55.9c0,5.2-1,8-3.9,9.7s-7.3,2-13.1,2c-0.6-3.6-1.6-7.1-3.1-10.4
	c3.5,0.1,7.2,0.1,8.4,0.1c1.2,0,1.6-0.4,1.6-1.5v-55.8H74.6z"/>
<path d="M73.8,560c-2.6,1.7-5.2,3.3-8,4.8c3.4,1.6,7,2.8,10.7,3.4c-2.5,2.6-4.6,5.6-6.2,8.8c-8.1-2-14-5.5-18.5-10.7l0.3,5.8
	c-9.2,1.5-19.1,2.8-26.7,3.9l-1.5-9.6c2-0.2,4.5-0.4,7-0.7v-9.1h-6.6v-6.7c-1.1,9.8-3.4,20.1-8.1,27.5c-3-2.2-6.2-4-9.6-5.5
	c7.3-11.1,7.8-27.7,7.8-39.4v-21.8H72v21.1h-9.3v3.7h9.5v8.8h-9.5v3.6h12.9v8.8h-7.2L73.8,560z M25.2,532.2c0,4.5-0.1,9.9-0.7,15.3
	h9.9V544h-8.2v-8.8h8.2v-3.7h-9.2V532.2z M25.2,519.3v3.3h36.1v-3.3H25.2z M40.6,564.3l8.8-1.1c-1.5-2.2-2.8-4.5-3.9-6.9h-4.9V564.3
	z M52.9,531.4h-8.8v3.7h8.8L52.9,531.4z M52.9,543.9h-8.8v3.6h8.8L52.9,543.9z M55.7,556.3c0.8,1.2,1.8,2.3,2.8,3.4
	c1.8-1,3.5-2.3,5-3.4H55.7z"/>
<path d="M34.5,632.2c-0.1-3.9,3-7.2,6.9-7.3c0.2,0,0.4,0,0.6,0c3.9-0.2,7.2,2.8,7.4,6.7c0,0.2,0,0.4,0,0.6c0.1,4-3,7.3-7,7.4
	c-0.2,0-0.3,0-0.5,0c-4,0.2-7.3-2.9-7.4-6.9C34.5,632.5,34.5,632.3,34.5,632.2z M35.3,596.2l-0.4-12.1h14.3l-0.4,12.1l-2.2,23.1
	h-9.1L35.3,596.2z"/>
</svg>
