<svg version="1.1" xmlns="http://www.w3.org/2000/svg" viewBox="0 0 286.8 67.8" width="287" height="68">
<style type="text/css">
	.st0{fill:#e0e0e0;}
</style>
<path class="st0" d="M34.9,23.7c-1.1,0.1-2.2,0.2-3.2,0.1h-9.5c-1.1,0-1.9-0.3-3.1,0.4c-4.3,2.5-7.7,12.3-7.2,14.4
	c0.1,0.7,1.8,1,3.2,1h12.4c0.8,0,1.6-0.2,2.3-0.4c0.6-0.2,1.1-0.5,1.4-1.1H32l-2.3,4.3c-0.3,0.4-0.7,0.6-1.2,0.8
	c-0.9,0.4-1.9,0.6-2.8,0.7H8.4c-3.1,0-6.4,0.2-8-1.5c-1.8-1.8,4.2-19.7,10.8-21.8c2.2-0.7,5.1-0.7,8.2-0.7h19.1
	C37.2,22.7,36.7,23.3,34.9,23.7L34.9,23.7z"/>
<path class="st0" d="M133.7,19.9h24.8c2.6,0,5.2,0.3,7.7,1c5.2,2.1,1.1,11.8-6.1,13.8c-2.7,0.8-5.6,1.2-8.5,1.1h-7.5l2.1-4h3
	c1.5-0.1,2.9-0.4,4.3-0.9c2.9-1.3,3.8-6.1,2.8-6.8c-0.9-0.4-1.9-0.5-2.9-0.5h-6.9L137.2,42c-0.2,0.5,0.3,0.8,0.6,1.1
	c0.5,0.4,1.1,0.7,1.8,0.8h-11.4c-0.6,0-1.3-0.2-1.9-0.4c-0.3-0.2-0.8-0.4-0.5-1.1L136,22.2c0.5-0.7,0-1-0.4-1.3
	C135.1,20.3,134.5,20,133.7,19.9L133.7,19.9z"/>
<path class="st0" d="M171.1,24.9l1.6-3.8c0-0.2,0.5-0.5,0.8-0.5c0.4-0.1,0.9-0.2,1.3-0.1h29.7c1.9,0,1.8,0.1,2.5-0.1
	c0.3-0.1,0.6-0.3,0.8-0.6h0.4l-1.7,3.8c-0.3,0.3-0.5,0.5-0.8,0.6c-0.5,0.2-1,0.2-1.5,0.2h-10.4l-8.6,18.5c0,0.1,0.3,0.5,0.3,0.5
	c0.1,0.1,1.6,0.5,1.1,0.5h-11.3c-0.3-0.1-0.7-0.2-1-0.3c-0.3,0-0.6-0.3-0.6-0.6l9.1-18.7h-9.4c-0.6,0-1.1,0-1.7,0.1
	C171.5,24.7,171.5,24.7,171.1,24.9L171.1,24.9z"/>
<path class="st0" d="M205.1,41.3c-4-3.1-2.3-12.2,6.4-17.9c4.7-3.1,12.7-3.6,16.3-3.5V24c-2.6,0.1-4.9-0.2-7.6,1.7
	c-3.5,2.7-5.9,6.5-6.7,10.8c-0.4,4.1,11.2,4,14,1.8c4.4-3.1,8.6-10.3,6.1-13.1c-0.7-0.9-2.9-1.2-5.8-1.2v-4.1
	c6.7,0.1,16.5,0.4,17.2,6.2c0.3,3.2-2.8,12.3-9.8,15.1C224.8,45.4,208.9,44.1,205.1,41.3L205.1,41.3z"/>
<path class="st0" d="M251,19.9h10c0.7,0,1.4,0.1,2,0.4c0.4,0.1,0.7,0.3,1,0.6l8.6,11l4.9-10.6c0-0.3-0.1-0.6-0.3-0.8
	c-0.5-0.4-1.2-0.6-1.8-0.6h9.1c0.7-0.1,1.4,0,2,0.4c0.2,0.1,0.5,0.5,0.5,0.7l-10.3,22.9h-4.4c-0.7,0-1.5-0.2-2.2-0.4
	c-0.5-0.1-0.9-0.3-1.3-0.6L259,29.6l-5.9,12.6c0,0.4,0.1,0.7,0.4,1c0.5,0.3,1.1,0.6,1.7,0.8h-10.3c-0.6,0-1.2-0.2-1.7-0.5
	c-0.1-0.2-0.6-0.3-0.4-0.8l9.8-21.5c0.2-0.3,0.1-0.7-0.2-0.9C251.9,19.9,251.6,20,251,19.9L251,19.9z"/>
<rect x="105.2" y="48.6" class="st0" width="146.5" height="0.5"/>
<path class="st0" d="M42.7,19.9h24.8c2.4-0.2,4.7,0.2,7,1.1c4.4,2.1,0.8,8.7-1.5,10.5c-2,1.5-5.2,1.9-8.8,2.1l3.5,5.5
	c0.2,0.3,0.6,0.5,0.9,0.6c0.4,0.2,0.9,0.3,1.4,0.4h2.6l-1.6,3c0,0.2-0.5,0.5-0.8,0.6c-0.5,0.1-1,0.1-1.5,0.2h-7.1
	c-0.6,0-1.3-0.1-1.9-0.2c-0.4-0.1-0.8-0.4-1.1-0.7l-4.9-9.4h-1.3l1.8-3.8H59c1.1,0,2.3-0.1,3.4-0.3C66.2,28.7,67,25,65,24
	c-1-0.3-2-0.5-3.1-0.4h-7.7l-8.8,19.2c0.1,0.3,0.2,0.6,0.4,0.8c0.5,0.2,1,0.3,1.6,0.4H36.3c-0.5,0-1-0.1-1.5-0.2
	c-0.5-0.1-0.5-0.5-0.5-0.8l9.8-21c0.1-0.6,0.4-0.8-0.2-1.2C43.6,20.2,43.2,19.9,42.7,19.9L42.7,19.9z"/>
<polygon class="st0" points="136.1,52.5 136.1,53.1 132.5,53.1 132.5,54 135.7,54 135.7,54.6 132.5,54.6 132.5,56.1 131,56.1
	131,52.5 "/>
<path class="st0" d="M142.9,52.5V55c0,0.3-0.2,0.8-1.4,1.1c-0.5,0.1-1,0.2-1.5,0.2s-0.9,0-1.4-0.1c-1.2-0.3-1.5-0.8-1.5-1.1v-2.5
	h1.5V55c0,0.2,0.2,0.6,1.4,0.6s1.4-0.4,1.4-0.6v-2.5H142.9z"/>
<polygon class="st0" points="149.6,52.5 149.6,53.1 147.5,53.1 147.5,56.1 146,56.1 146,53.1 143.8,53.1 143.8,52.5 "/>
<path class="st0" d="M156.3,52.5V55c0,0.3-0.2,0.8-1.4,1.1c-0.5,0.1-1,0.2-1.5,0.2s-0.9,0-1.4-0.1c-1.2-0.3-1.5-0.8-1.5-1.1v-2.5
	h1.5V55c0,0.2,0.2,0.6,1.4,0.6s1.4-0.4,1.4-0.6v-2.5H156.3z"/>
<path class="st0" d="M157.7,52.5h4.1c0.7,0,1.5,0.2,1.7,0.6c0.2,0.2,0.2,0.5,0.1,0.7c-0.2,0.3-0.5,0.4-1,0.6
	c0.3,0.1,0.7,0.2,0.8,0.5c0,0.3,0.1,0.5,0.1,0.8c0,0.2,0.1,0.3,0.3,0.3v0.1h-1.6c-0.1-0.1-0.2-0.2-0.2-0.3c0-0.2,0-0.5,0-0.7
	s-0.4-0.4-0.9-0.4h-1.8v1.4h-1.5L157.7,52.5L157.7,52.5z M159.2,54.1h2.1c0.4,0,1-0.2,0.9-0.5c0-0.3-0.2-0.4-0.9-0.4h-2L159.2,54.1
	L159.2,54.1z"/>
<polygon class="st0" points="170.2,52.5 170.2,53.1 166.4,53.1 166.4,54 169.9,54 169.9,54.6 166.4,54.6 166.4,55.5 170.4,55.5
	170.4,56.1 164.9,56.1 164.9,52.5 "/>
<polygon class="st0" points="177.1,56.1 175.8,53.2 175.8,56.1 174.3,56.1 174.3,52.5 176.5,52.5 177.8,55.3 179.2,52.5 181.4,52.5
	181.4,56.1 179.9,56.1 179.9,53.2 178.6,56.1 "/>
<polygon class="st0" points="188,52.5 188,53.1 184.2,53.1 184.2,54 187.7,54 187.7,54.6 184.2,54.6 184.2,55.5 188.2,55.5
	188.2,56.1 182.7,56.1 182.7,52.5 "/>
<path class="st0" d="M189.4,52.5h3.4c0.9,0,1.7,0.3,2.3,0.8c0.2,0.2,0.3,0.5,0.3,0.8c0,0.5-0.2,1-0.7,1.3c-0.6,0.4-1.3,0.6-2.1,0.6
	h-3.3v-3.5H189.4z M190.9,55.5h1.2c0.6,0.1,1.1-0.1,1.6-0.5c0.2-0.2,0.3-0.5,0.3-0.8s-0.1-0.6-0.4-0.8c-0.4-0.3-0.8-0.4-1.3-0.3
	h-1.4L190.9,55.5L190.9,55.5z"/>
<polygon class="st0" points="197.9,56.1 196.4,56.1 196.4,52.5 197.9,52.5 "/>
<path class="st0" d="M205.6,56.1h-1.5l-0.5-0.7h-2.7l-0.5,0.7h-1.5l2.5-3.6h1.7L205.6,56.1L205.6,56.1z M201.4,54.8h1.9l-1-1.4
	L201.4,54.8L201.4,54.8z"/>
<path class="st0" d="M206.5,55.4h1.5v0.7c0,0.1,0,0.5-0.6,0.7c-0.3,0.1-0.6,0.2-0.9,0.2v-0.3c0.3,0,0.5-0.1,0.7-0.3
	c0.1-0.1,0.2-0.2,0.1-0.3h-0.8V55.4z"/>
<polygon class="st0" points="213.5,56.1 212,56.1 212,52.5 213.5,52.5 "/>
<polygon class="st0" points="216.3,52.5 219.3,55 219.3,52.5 220.8,52.5 220.8,56.1 219.3,56.1 216.3,53.6 216.3,56.1 214.8,56.1
	214.8,52.5 "/>
<path class="st0" d="M228.2,54.9c0,0.4-0.4,0.8-1,1c-0.7,0.2-1.4,0.4-2.1,0.4c-1.6,0-2.8-0.5-3.1-1.3c-0.1-0.2-0.1-0.4-0.1-0.6
	c0-0.2,0.1-0.5,0.2-0.7c0.4-0.7,1.3-1.2,3.2-1.2c0.7,0,1.3,0.1,2,0.3c1,0.4,1.1,0.8,1.1,1H227c0-0.2-0.4-0.7-1.8-0.7
	c-0.5,0-1.1,0.2-1.5,0.6c-0.1,0.2-0.2,0.4-0.2,0.6c0,0.3,0.1,0.6,0.2,0.8c0.3,0.3,0.6,0.4,0.9,0.5c0.2,0,0.4,0.1,0.6,0.1
	c0.2,0,0.4,0,0.6,0c1-0.1,1.1-0.5,1.1-0.7L228.2,54.9z"/>
<polygon class="st0" points="229.2,55.4 230.7,55.4 230.7,56.1 229.2,56.1 "/>
<path class="st0" d="M81.9,58.4c-0.8,0-1.5-0.3-2.2-0.8c-0.6-0.6-1.2-1-0.6-2.2l8.5-16.3l-5.1-9.4C69.8,45.1,64,60.4,69.6,65.8
	c4.6,4.4,15.5,1.1,27.5-7.5L81.9,58.4z"/>
<path class="st0" d="M98.1,29.6l19.5-16.4c0.5-0.4,0.6-1.2,0.2-1.8c0-0.1-0.1-0.1-0.2-0.2c-0.9-0.6-1.9-0.9-3-1h19
	c0.5-3.7-0.1-6.6-1.9-8.4c-5.9-5.8-22.6,1.6-38.6,16.6L98.1,29.6z"/>
<path class="st0" d="M100.9,39.6l-7.3,15.6c-0.2,1.1,0.4,1.4,1,1.9c0.8,0.6,1.7,1,2.7,1.2c5.4-3.9,10.4-8.3,15-13
	c9.8-10.1,16.9-20.8,19.9-29.3L100.9,39.6z"/>
</svg>