<svg version="1.1" xmlns="http://www.w3.org/2000/svg" xmlns:xlink="http://www.w3.org/1999/xlink" x="0px" y="0px" viewBox="0 0 460 161.9" style="enable-background:new 0 0 460 161.9;" xml:space="preserve" width="460" height="162">
<style type="text/css">
	.st0{fill:#FFF;}
</style>
<path class="st0" d="M431.2,98.1c-3.6,0.6-8.6,3.6-12.6,7c-0.2-0.5-0.4-1-0.8-1.4c-0.9-1.2-2.8-2.5-6.3-2c-3.8,0.6-8.9,3.5-13.1,7.1
	c-0.2-0.6-0.5-1.2-0.9-1.7c-1.1-1.5-2.9-2.4-4.7-2.5c3.8-6.8,8-13.4,12.5-19.8C424.1,57.8,460,21.1,460,21.1S452.8,4.2,435.5,0
	c-43.8,43.8-100,41.3-128.1,40.3S248.6,29,248.6,29l2.4,8.9l-20.9-18.3l-25.7,22.5c-4.4-4.9-11.1-7.8-19.5-8.2l2.6-8.2h-17.4
	l-3.4,10.8c-3.6,1.2-7,2.8-10.2,4.7l-1.3,0.8h-16.9v0.1L106.1,40h-0.5l-2.5-0.5c-14.8-2.4-51.9-11-76.5-37.3c0,0-1.4-1.4-2-2.2
	C13.8,3.5,5,11.1,0,21.1l2.3,2.1c16.2,15.3,31,32,44.2,49.8l2.2,3l0,0l1.9,2.7c13.9,19.6,20.5,33.3,20.6,33.4l1.5,3.2l0,0
	c7,14.5,1.2,21.6-2.5,25c8.7-4.9,25.1-6.9,29.8,3.9c1.7,5.7,2.1,11.7,1,17.6c33.2-18.1,61-22.1,129-22.1s94.2,8.2,128.4,22.1
	c-0.7-5.2-0.5-10.5,0.7-15.6l0.3-0.8c0.9,0,1.8-0.1,2.8-0.2c0.8-0.1,1.6-0.4,2.4-0.7c1.9-0.9,3.6-2,5.2-3.3l0.1,0.1
	c1.1,1.5,2.9,2.3,4.8,2.2c0.5,0,0.9,0,1.4-0.1c2.3-0.5,4.5-1.5,6.4-2.9c0.2-0.2,0.5-0.4,0.7-0.5c0.1,0.1,0.2,0.3,0.3,0.4
	c0.6,0.8,1.6,1.3,2.7,1.3c0.2,0,0.4,0,0.6,0c1-0.2,1.9-0.6,2.7-1.1l0.3-0.2h0.1h0c0.1-0.1,0.3-0.1,0.4-0.2c0.7-0.3,1.5-0.5,2.3-0.6
	c1.1-0.2,2.2-0.2,3.3-0.2c1.4,0,2.9-0.1,4.3-0.3c0.8-0.1,1.6-0.4,2.4-0.7c1.7-0.8,3.3-1.8,4.7-3c1.3,1.3,3.1,2,5,1.9
	c0.6,0,1.3-0.1,1.9-0.2c5.6-0.9,12.9-6.7,16.1-10.4c1.6-1.8,2.9-3.8,3.9-5.9c1.6-3.4,0.5-5.8-0.3-7c-0.5-0.7-1.1-1.3-1.8-1.7
	c2.1-1.8,3.9-4.1,5.2-6.5c1.4-2.9,0.7-4.8-0.1-5.9S434.5,97.5,431.2,98.1"/>
<path d="M131.1,124.1c0-3.1,0.1-5.3,0.2-6.8c0-1,0.2-2,0.6-2.9v-0.1h-7.4v0.3c1.2,0.1,2.3,0.2,3.5,0.6c0.2,0.1,0.4,0.2,0.5,0.4
	c0.1,0.2,0.1,0.3,0.1,0.5c-0.2,0.5-0.5,0.9-0.9,1.3c-0.4,0.5-1.1,1.2-1.8,1.9l-2.9,2.9l-2.8,2.8c-1.1-1.2-2.2-2.4-3.3-3.5
	c-1.3-1.4-2.3-2.4-3-3.2c-0.6-0.6-1.1-1.3-1.5-2c-0.1-0.4,0-0.8,0.3-1c0.6-0.3,1.2-0.6,1.8-0.7v-0.3h-7.1v0.1c0.4,0.6,0.8,1.3,1,2
	c0.3,0.9,0.4,1.9,0.5,2.8c0.1,1.1,0.2,2.6,0.2,4.4c0,2.1-0.1,4.2-0.3,6.3c-0.1,1-0.4,1.9-0.8,2.8v0.1h6.1v-0.3
	c-0.8-0.1-1.6-0.4-2.2-0.9c-0.5-0.5-0.9-1.2-1.1-1.9c-0.2-1-0.3-2.1-0.3-3.1v-2c0-1.3,0-2.6-0.1-3.7c0-1-0.1-2-0.3-3h0.1
	c0.6,0.8,1.2,1.6,1.9,2.3c0.7,0.8,1.6,1.8,2.7,2.9l2.5,2.8c0.6,0.7,1.2,1.4,1.7,2.1h0.1l2.2-2.2c0.7-0.7,1.4-1.3,2-2l3.1-3
	c0.8-0.8,1.5-1.5,2.1-2.3h0.1c0,0.7,0,1.4,0,2.1s0,1.5,0,2.2s-0.1,1.7-0.1,2.5s0,1.5,0,2.1c0,0.9-0.1,1.8-0.4,2.6
	c-0.3,0.7-1,1.3-1.7,1.6c-1.2,0.5-2.5,0.8-3.8,0.9v0.3h9.3v-0.1c-0.4-0.8-0.6-1.8-0.6-2.7C131.2,128,131.1,126,131.1,124.1"/>
<path d="M153.1,130.4c-0.7-1.1-1.6-2.8-2.8-5.1l-0.3-0.6c-0.1-0.2-0.2-0.4-0.3-0.6c-1.1-2-2-3.9-2.8-5.6c-0.3-0.7-0.5-1.3-0.7-1.8
	s-0.4-1-0.5-1.4c0-0.2,0-0.4,0-0.7c0-0.2,0-0.4,0-0.4v-0.1h-6.8v0.3c0.7,0,1.4,0.2,2.1,0.4c0.4,0.1,0.7,0.3,0.9,0.6
	c0.2,0.3,0.2,0.7,0.2,1c-0.1,0.5-0.2,1-0.4,1.5c-0.3,0.6-0.5,1.3-0.9,1.9l-5.5,10.2c-0.3,0.6-0.6,1.1-1,1.6
	c-0.2,0.3-0.4,0.6-0.7,0.8v0.1h5.5v-0.3c-1.2-0.2-1.9-0.5-2.2-1c-0.3-0.6-0.2-1.3,0.2-1.9c0.3-0.6,0.9-1.1,1.5-1.3
	c1-0.4,2-0.6,3-0.6h7.1c0.6,0.9,1,1.8,1.2,2.8c0.1,0.6-0.2,1.1-0.7,1.3c-1.1,0.4-2.2,0.6-3.3,0.6v0.3h9v-0.1
	C154.2,132,153.6,131.2,153.1,130.4 M147.3,126.2c-0.3,0.1-0.7,0.2-1,0.2h-2.8c-0.8,0-1.4,0-2,0.1s-1.1,0.1-1.6,0.1
	c-0.1,0-0.3,0-0.4,0h-0.3c-0.1,0-0.2-0.1-0.2-0.2c0-0.3,0.2-0.6,0.3-0.8l2.5-4.7c0.4-0.7,0.8-1.5,1.1-2.3c0.2-0.5,0.2-1,0.3-1.6h0.2
	c0.4,0.8,0.9,1.6,1.4,2.5s1,1.8,1.4,2.7l0.4,0.7c0.1,0.2,0.2,0.4,0.3,0.5c0.1,0.2,0.2,0.3,0.3,0.5c0.2,0.4,0.4,0.8,0.5,1
	c0.1,0.2,0.1,0.4,0.2,0.6C147.6,125.7,147.5,125.9,147.3,126.2"/>
<path d="M170.9,124.4l3.4-7.3c-0.9-1-2-1.7-3.2-2.2c-1.6-0.6-3.3-0.9-5-0.9c-2,0-4.1,0.4-5.9,1.2c-1.6,0.7-2.9,1.9-3.8,3.4
	c-0.9,1.5-1.3,3.1-1.3,4.8c0,1.7,0.4,3.4,1.3,4.8c0.9,1.5,2.2,2.6,3.7,3.4c1.8,0.9,3.7,1.3,5.7,1.2c1.3,0.1,2.7-0.2,3.9-0.7
	c1-0.5,1.8-1.1,2.5-2h0.1l1.3,2.9h0.4c-0.1-0.7-0.1-1.4-0.2-2.1s-0.1-1.4-0.1-2.1c0-0.9,0-1.8,0.2-2.7c0.1-0.6,0.2-1.1,0.4-1.7v-0.1
	h-11.8l-0.4,0.9c1.9,0.1,3.8,0.2,5.7,0.5c1,0.1,1.9,0.4,2.7,0.9c0.5,0.3,0.9,0.8,1,1.3c-0.1,0.7-0.4,1.3-0.8,1.8
	c-0.6,0.6-1.3,1.1-2.1,1.3c-1,0.4-2.1,0.5-3.2,0.5c-1.3,0-2.7-0.3-3.9-0.9c-1.1-0.6-2-1.4-2.5-2.5c-0.6-1.2-0.9-2.5-0.9-3.8
	c0-1.7,0.4-3.3,1.1-4.8c0.7-1.3,1.8-2.5,3.1-3.2c1.3-0.8,2.9-1.2,4.4-1.1c1.1-0.1,2.2,0.3,3.2,0.9c0.9,0.7,1.4,1.8,1.5,2.9
	c0.1,1.8-0.1,3.6-0.7,5.3L170.9,124.4z"/>
<path d="M183.5,119.2V117c0-0.4,0.1-0.8,0.4-1.2c0.4-0.3,0.8-0.5,1.3-0.5c0.8-0.1,1.7-0.2,2.5-0.2l0.4-0.8H177v0.8
	c1.1-0.1,2.2,0.2,3.1,0.8c0.7,0.6,1.1,1.5,1.1,2.4v7.2c0,0.7,0,1.4,0,2.2v2.2c0,0.4-0.2,0.8-0.4,1.1c-0.4,0.3-0.8,0.5-1.3,0.5
	c-0.8,0.1-1.7,0.2-2.5,0.2v0.8h11v-0.8c-1.2,0.1-2.3-0.2-3.3-0.8c-0.7-0.6-1.1-1.5-1.1-2.4c0-1.2,0-2.5,0-3.7s0-2.4,0-3.5
	C183.5,120.7,183.5,119.9,183.5,119.2"/>
<path d="M205.5,124.3l3.3-7.2c-0.9-1-2-1.7-3.2-2.2c-3.5-1.3-7.4-1.1-10.9,0.4c-1.6,0.7-2.9,1.9-3.8,3.4c-0.9,1.5-1.3,3.1-1.3,4.8
	c0,1.7,0.4,3.4,1.3,4.8c0.9,1.5,2.2,2.6,3.7,3.4c1.8,0.8,3.7,1.3,5.6,1.2c1.7,0,3.3-0.2,4.9-0.7c1.2-0.3,2.4-0.9,3.5-1.6v-8h-0.3
	c-0.3,1.8-0.9,3.6-1.8,5.2c-0.7,1.2-1.6,2.3-2.9,3c-1.2,0.6-2.4,1-3.8,0.9c-1.4,0-2.8-0.3-4-0.9c-1.1-0.6-2-1.4-2.6-2.5
	c-0.6-1.2-0.9-2.5-0.9-3.8c0-1.7,0.3-3.3,1.1-4.8c0.7-1.3,1.8-2.5,3.1-3.2c1.4-0.8,2.9-1.2,4.5-1.2c1.1,0,2.2,0.3,3.1,0.9
	c0.9,0.7,1.4,1.8,1.5,2.9c0.2,1.8-0.1,3.5-0.7,5.2L205.5,124.3z"/>
<path d="M230.4,130.4c-0.7-1.1-1.6-2.8-2.8-5.1c-0.1-0.2-0.2-0.4-0.3-0.6l-0.3-0.6c-1.1-2-2-3.9-2.8-5.6c-0.3-0.7-0.5-1.3-0.7-1.8
	s-0.3-1-0.5-1.4c0-0.2,0-0.4,0-0.7c-0.1-0.2-0.1-0.4,0-0.4v-0.1h-6.9v0.3c0.7,0,1.4,0.2,2.1,0.4c0.4,0.1,0.7,0.3,0.9,0.6
	c0.2,0.3,0.2,0.7,0.2,1c-0.1,0.5-0.2,1-0.4,1.5c-0.3,0.6-0.5,1.3-0.9,1.9l-5.5,10.2c-0.3,0.6-0.6,1.1-1,1.6
	c-0.2,0.3-0.4,0.6-0.7,0.8v0.1h5.5v-0.3c-1.2-0.2-1.9-0.5-2.2-1c-0.3-0.6-0.2-1.3,0.2-1.9c0.3-0.6,0.9-1.1,1.5-1.3
	c1-0.4,2-0.6,3-0.6h7.2c0.5,0.9,1,1.8,1.2,2.8c0.1,0.6-0.2,1.1-0.7,1.3c-1,0.4-2.2,0.6-3.3,0.6v0.3h9v-0.1
	C231.5,132,230.9,131.2,230.4,130.4 M224.6,126.2c-0.3,0.1-0.7,0.2-1,0.2h-2.8c-0.8,0-1.4,0-2,0.1l-1.6,0.1c-0.1,0-0.3,0-0.4,0h-0.3
	c-0.1,0-0.2-0.1-0.2-0.2c0-0.3,0.2-0.6,0.3-0.8l2.5-4.7c0.4-0.7,0.8-1.5,1.1-2.3c0.2-0.5,0.2-1,0.3-1.6h0.1c0.4,0.8,0.9,1.6,1.4,2.5
	s1,1.8,1.4,2.7l0.4,0.7c0.1,0.2,0.2,0.4,0.3,0.5l0.3,0.5c0.2,0.4,0.4,0.8,0.5,1c0.1,0.2,0.1,0.4,0.2,0.6
	C224.9,125.7,224.8,125.9,224.6,126.2"/>
<path d="M248.8,128.3c-0.3,0.8-0.8,1.5-1.5,2c-0.8,0.4-1.6,0.6-2.5,0.6h-0.9H243c-1.2,0-2.2,0-3.1,0c-1,0-2,0.1-3,0.3
	c0-0.5-0.1-1.1-0.1-1.9s-0.1-1.8-0.1-2.9v-8.2c0-0.7,0.1-1.3,0.4-1.9c0.3-0.5,0.9-0.9,1.5-1c1.1-0.3,2.3-0.5,3.5-0.5v-0.3h-8.6v0.1
	c0.4,0.9,0.7,1.8,0.7,2.7c0.2,2,0.3,4,0.3,6.1c0,1.5,0,2.9-0.1,4.3c-0.1,1.1-0.2,2.3-0.4,3.4c0,0.3-0.1,0.7-0.2,1
	c-0.1,0.3-0.2,0.6-0.3,0.8l0.2,0.3c0.8-0.2,1.6-0.4,2.5-0.5c1.1-0.1,2.3-0.2,3.4-0.2c0.6,0,1.2,0,1.8,0.1s1.1,0.1,1.8,0.2l1.9,0.2
	c0.6,0.1,1.1,0.1,1.7,0.1c0.6,0,1.1-0.1,1.6-0.2c0.4-0.1,0.8-0.2,1.1-0.4l0.4-8.2h-0.3C249.5,125.6,249.3,127,248.8,128.3"/>
<path d="M283.1,124.1c0-3.1,0.1-5.3,0.2-6.8c0-1,0.2-2,0.6-2.9v-0.1h-7.4v0.3c1.2,0.1,2.4,0.2,3.5,0.6c0.2,0.1,0.4,0.2,0.5,0.4
	c0.1,0.2,0.1,0.3,0.1,0.5c-0.2,0.5-0.5,0.9-0.9,1.3c-0.5,0.5-1.1,1.2-1.8,1.9l-2.9,2.9l-2.9,2.8c-1.1-1.2-2.2-2.4-3.3-3.5
	c-1.3-1.3-2.3-2.4-3-3.2c-0.6-0.6-1.1-1.3-1.5-2c-0.1-0.4,0-0.8,0.3-1c0.6-0.3,1.2-0.6,1.8-0.7v-0.3h-7.1v0.1c0.5,0.6,0.8,1.3,1,2
	c0.3,0.9,0.4,1.9,0.5,2.8c0.1,1.1,0.1,2.6,0.1,4.4c0,2.1-0.1,4.2-0.3,6.3c-0.1,1-0.4,1.9-0.8,2.8v0.1h6.1v-0.3
	c-0.8-0.1-1.6-0.4-2.2-0.9c-0.5-0.5-0.9-1.2-1-1.9c-0.2-1-0.3-2.1-0.3-3.1v-2c0-1.3,0-2.6-0.1-3.7c0-1-0.1-2-0.3-3h0.1
	c0.6,0.8,1.2,1.6,1.9,2.3c0.7,0.8,1.6,1.8,2.7,2.9s1.9,2,2.5,2.8c0.6,0.7,1.2,1.4,1.7,2.1h0.1l2.2-2.2l2-2l3.1-3
	c0.8-0.8,1.5-1.5,2.1-2.3h0.1c0,0.7,0,1.4,0,2.1s0,1.5,0,2.2s-0.1,1.7-0.1,2.5s0,1.5,0,2.1c0,0.9-0.1,1.8-0.4,2.6
	c-0.4,0.7-1,1.3-1.7,1.6c-1.2,0.5-2.5,0.8-3.8,0.9v0.3h9.3v-0.1c-0.4-0.8-0.6-1.8-0.6-2.7C283.2,128,283.1,126,283.1,124.1"/>
<path d="M293.2,119.2V117c0-0.4,0.1-0.9,0.4-1.2c0.4-0.3,0.8-0.5,1.3-0.5c0.8-0.1,1.7-0.2,2.5-0.2l0.4-0.8h-11.1v0.8
	c1.1-0.1,2.2,0.2,3.1,0.8c0.7,0.6,1.1,1.5,1.1,2.4v7.2c0,0.7,0,1.4,0,2.2v2.2c0,0.4-0.2,0.8-0.5,1.1c-0.4,0.3-0.8,0.5-1.3,0.5
	c-0.8,0.1-1.7,0.2-2.5,0.2v0.8h11v-0.8c-1.1,0.1-2.3-0.2-3.3-0.8c-0.7-0.6-1.1-1.5-1.1-2.4c0-1.2,0-2.5,0-3.7s0-2.4,0-3.5
	C293.2,120.7,293.2,119.9,293.2,119.2"/>
<path d="M318.1,128.4c-0.2,0.9-0.4,1.8-0.8,2.7c-0.3,0.5-0.6,0.8-1,0.8c-0.5,0-1-0.3-1.3-0.8c-0.5-0.8-0.8-1.6-1.1-2.5l-0.1-0.4
	c-0.2-0.7-0.4-1.4-0.8-2c-0.3-0.5-0.6-1-1.1-1.4c-0.5-0.4-1.1-0.7-1.7-0.8v-0.1h0.1c1.2-0.1,2.3-0.5,3.3-1c0.8-0.4,1.5-1.1,2-1.8
	c0.4-0.7,0.7-1.5,0.6-2.4c0-0.8-0.2-1.6-0.7-2.3c-0.5-0.7-1.3-1.3-2.2-1.6c-1.1-0.4-2.3-0.6-3.5-0.6c-1.3,0-2.5,0.1-3.8,0.5
	c-0.9,0.3-1.8,0.8-2.5,1.4h-0.1l-0.2-1.7h-4v0.3c0.6,0.3,1.1,0.8,1.4,1.5c0.3,0.8,0.5,1.7,0.6,2.7c0.1,1.1,0.1,2.7,0.1,4.8
	c0,1.7-0.1,3.4-0.3,5.1c-0.1,1.3-0.4,2.6-0.7,3.9v0.1h8.2v-0.3c-1-0.1-2.1-0.3-3.1-0.6c-1.2-0.3-2-1.4-1.9-2.7v-1.5
	c0-0.8,0-1.6,0-2.5s0-1.6,0-2.2h0.1c0.3,0.2,0.7,0.4,1,0.5l1.5,0.6c0.6,0.3,1.2,0.5,1.8,0.9c0.5,0.3,1,0.7,1.4,1.1
	c0.5,0.5,0.9,1.1,1.2,1.7l0.7,1.4c0.4,0.8,0.9,1.7,1.4,2.4c0.3,0.5,0.8,0.9,1.4,1.1c0.7,0.3,1.5,0.4,2.3,0.4c0.5,0,1.1-0.1,1.6-0.2
	c0.4-0.1,0.8-0.3,1.2-0.5V123H319C318.7,125.3,318.4,127.1,318.1,128.4 M309,122.9c-1.2,0.1-2.4-0.2-3.5-0.8
	c-0.8-0.4-1.4-1.2-1.6-2.1v-1.3c0.2-1,0.9-1.8,1.7-2.3c1.1-0.6,2.4-1,3.6-0.9c1.1-0.1,2.3,0.3,3.2,1c0.7,0.6,1.1,1.6,1.1,2.5
	c0,1.1-0.4,2.1-1.2,2.8C311.4,122.6,310.2,122.9,309,122.9"/>
<path d="M352.3,131.9c-1.2,0.1-2.3-0.2-3.3-0.8c-0.7-0.6-1.1-1.5-1.1-2.4c0-1.2,0-2.5,0-3.7s0-2.4,0-3.5c0-0.7,0-1.4,0-2.2V117
	c0-0.4,0.1-0.8,0.4-1.2c0.4-0.3,0.8-0.5,1.3-0.5c0.6-0.1,1.4-0.1,2.5-0.2l0.4-0.8h-11.1v0.8c1.1-0.1,2.2,0.2,3.1,0.8
	c0.7,0.6,1.1,1.5,1.1,2.4v7.2c0,0.7,0,1.4,0,2.2v2.2c0,0.4-0.2,0.8-0.4,1.1c-0.4,0.3-0.8,0.5-1.3,0.5c-0.8,0.1-1.7,0.2-2.5,0.2v0.5
	c-0.6-0.6-1.1-1.2-1.5-1.9c-0.7-1.1-1.6-2.8-2.8-5.1l-0.3-0.6c-0.1-0.2-0.2-0.4-0.3-0.6c-1.1-2-2-3.9-2.8-5.6
	c-0.3-0.7-0.5-1.3-0.7-1.8s-0.3-1-0.5-1.4c0-0.2,0-0.4,0-0.7c-0.1-0.2-0.1-0.4,0-0.4v-0.1h-6.8v0.3c0.7,0,1.4,0.2,2.1,0.4
	c0.4,0.1,0.7,0.3,0.9,0.6c0.2,0.3,0.2,0.7,0.2,1c-0.1,0.5-0.2,1-0.4,1.5c-0.3,0.6-0.5,1.3-0.9,1.9l-5.5,10.2c-0.4,0.7-0.7,1.2-1,1.6
	c-0.2,0.3-0.4,0.6-0.7,0.8v0.1h5.5v-0.3c-1.2-0.2-1.9-0.5-2.2-1c-0.3-0.6-0.2-1.3,0.2-1.9c0.3-0.6,0.9-1.1,1.5-1.3
	c1-0.4,2-0.6,3-0.6h7.2c0.5,0.9,1,1.8,1.2,2.8c0.1,0.6-0.2,1.1-0.7,1.3c-1.1,0.4-2.2,0.6-3.3,0.6v0.3h19.6L352.3,131.9z M334,126.2
	c-0.3,0.1-0.7,0.2-1,0.2h-2.8c-0.8,0-1.4,0-2,0.1s-1.1,0.1-1.6,0.1c-0.1,0-0.3,0-0.4,0h-0.3c-0.1,0-0.2-0.1-0.2-0.2
	c0-0.3,0.2-0.6,0.3-0.8l2.5-4.7c0.4-0.7,0.8-1.5,1.1-2.3c0.2-0.5,0.2-1,0.3-1.6h0.2c0.4,0.8,0.9,1.6,1.4,2.5s1,1.8,1.4,2.7l0.4,0.7
	c0.1,0.2,0.2,0.4,0.3,0.5l0.3,0.5c0.2,0.4,0.4,0.8,0.5,1c0.1,0.2,0.1,0.4,0.2,0.6C334.4,125.7,334.3,126,334,126.2"/>
<path d="M177.8,108.5c-1.5-1.2-3.6-6-4.5-7.9c-0.3-0.6-0.5-1.4-0.8-2c0.2,0,0.4,0,0.6-0.1c0.8-0.2,2.5-2.7,2.3-3.5
	c0-0.1,0-0.1-0.1-0.2s-0.2-0.1-0.2-0.2l-0.5-0.4c-2.8-2-6.2-8.5-7.8-11.8c-0.1-0.3-0.5-1.6-0.9-1.5c-0.8,0.2-2.4,2.7-2.3,3.5
	c0.2,1.1,0.9,2.8,1.3,3.9c0.8,2.2,1.5,4.3,2.3,6.5l-5.4,0.1c-2.3-4.8-4.9-9.4-7.9-13.8c-0.3-0.4-1.4-2.2-1.9-2.1
	c-0.8,0.2-2.5,2.7-2.3,3.5l1.8,8.5c0,0.1,0.1,0.2,0.3,0.2c0,0,0,0,0.1,0c0.8-0.2,1.8-1.9,2.1-2.6c1.3,2.1,2.4,4.2,3.6,6.3
	c-0.8-0.1-1.7-0.1-2.5,0c-0.8,0.2-2.4,2.7-2.3,3.5c0.1,0.3,6.2,10.4,8.6,14.4c1.6-0.5,3.3-0.7,5-0.7c0.5,0,0.9,0,1.4,0
	c-0.1-0.9-0.2-1.7-0.4-2.6c-0.9-3.8-2.2-7.5-3.8-11.1l5.1-0.1c1.3,3.4,4.2,10.8,6.7,13.3c0.2,0.2,0.6,0.7,0.9,0.6
	c0.8-0.2,2.4-2.7,2.3-3.5c-0.1-0.2-0.4-0.4-0.6-0.6 M153.4,82.2c3.2,3.8,5.7,8.1,7.4,12.7C158.3,90.8,155.7,86.4,153.4,82.2
	 M159.4,98.8c1.6,3.2,2.9,6.6,4.1,10l-6-10H159.4z M166.5,111.2l-1.2,0.2c-1.3,0.2-2.6,0.5-3.8,0.9c-1.7-2.6-3.2-5.4-4.5-8.2
	c1.7,2.4,3.3,4.8,4.8,7.4C163.3,111.1,164.9,111,166.5,111.2 M169.4,99.2l-0.4-1c-1.4,0-2.9-0.1-4.3-0.3c1.6-0.2,3.2-0.4,4.8-0.3
	c0.3,0.8,0.6,1.9,0.9,2.7s0.5,1.8,0.7,2.5C170.4,101.6,169.8,100.4,169.4,99.2"/>
<path d="M190,104.3c-1.9-2-3.6-9.3-4.1-11.9c0-0.4-0.1-0.8-0.3-1.2c-0.1-0.1-4.5-1.4-5-1.6s-4-1.3-4.3-1.3c-0.9,0.1-2.6,2.5-2.5,3.4
	c0,0.1,0.1,0.2,0.1,0.2l0.2,0.1l0.5,0.2c1.5,0.7,2.7,1.9,3.4,3.4c0.1,0.2,0.9,1.8,1,1.9c0.1,0.1,0.2,0.1,0.2,0.1
	c0.9-0.1,2.4-2.3,2.5-3.2l1.1,0.3c0.3,1.8,0.7,3.5,1.2,5.3c-1.5-0.6-3-1.2-4.4-1.8c-0.1-0.1-0.3-0.1-0.4-0.2l-0.7-0.4
	c-0.1-0.1-0.3-0.1-0.4-0.2h-0.1c-0.9,0.1-2.4,2.2-2.5,3c0,0.3,0,0.6,0,0.9c0.4,2.6,3.4,9.5,6.7,9c0.6-0.3,1.2-0.7,1.7-1.2
	c0.9-0.9,1.7-2,2.2-3.2c0.4,1,1.3,2.8,2.6,2.6c0.9-0.1,2.6-2.5,2.5-3.4C191.2,104.8,190.6,105,190,104.3 M174.9,91.3l-0.3-0.2
	c0.6-0.6,1.2-1.3,1.8-1.8c-0.3,0.6-0.6,1.1-1,1.7c0.4,0.2,0.7,0.5,1.1,0.8c1.3,1,2.2,2.4,2.8,3.9C178,94,176.5,92.6,174.9,91.3
	 M178.8,99.1c-0.3-0.2-0.6-0.1-0.9,0.1c-0.5,0.5-1.2,1.2-1.1,1.9c0.4,1.8,1,3.5,1.8,5.1c-1.1-1.4-1.9-3-2.4-4.8
	c-0.1-1,0.3-2,1.1-2.6c0.4-0.5,1.1-0.7,1.6-0.4l0.3,0.1c1.3,0.6,2.6,1.3,3.9,2C181.7,100.2,180.2,99.6,178.8,99.1 M184,106.6
	L184,106.6c-1.6-0.4-2.8-2.2-3.6-3.5l0,0c1.4,0.4,2.7,1,4,1.4C184.4,105.2,184.3,105.9,184,106.6 M186.1,95.6
	c0.6,1.7,1.1,3.5,1.7,5.2s1.1,3.5,2.6,4.7C187.4,104.3,186.1,98.5,186.1,95.6"/>
<path d="M196.5,90.8L196.5,90.8"/>
<path d="M197.4,90.3c-0.1-0.2-0.4-0.6-0.7-0.5c-0.9,0.1-2.9,2.5-2.8,3.4c0,0.1,0.8,1,1,1.2c0.9,1.6,1.5,3.3,1.6,5.2
	c0.1,1.2,0.1,2.5,0,3.7c-2.6-2.9-4.2-9.2-5-13c1,0.1,1.9,0.2,2.9,0.2c0.9-0.1,2.9-2.6,2.8-3.4c0-0.1-0.1-0.2-0.1-0.2
	c-0.2-0.1-2.9-0.2-3.4-0.2c-0.9-0.1-1.8-0.3-2.7-0.5c-0.1-1.5-0.1-3,0-4.5c0-0.5,0.4-2.1,0.4-2.3S191.2,79,191,79
	c-0.5,0.2-0.9,0.5-1.3,0.9c-1.7,1.7-1.9,3.5-2,5.8c-0.6,0.5-2.2,2.2-2.1,3.1c0,0.3,0.2,0.3,0.4,0.3c0.6,0.2,1.1,0.4,1.7,0.5
	c0.6,5.2,1.9,11.1,4.5,15.6c0.5,0.8,1.5,2.4,2.7,2.3c0.8-0.2,1.5-0.6,2-1.3c2.6-2.8,2.9-6.3,2.5-9.9
	C199.4,94.2,198.6,92.1,197.4,90.3 M188.4,85.7c-0.2-2.2,0.5-4.4,2.1-6C189.7,81.7,189.1,83.7,188.4,85.7 M198.5,102.5
	c-0.6,1.6-1.6,3-3,4.1c3-3.1,3.5-7.6,2.7-11.6c-0.3-1.4-0.7-3.1-1.7-4.1c-0.6,0.6-1.2,1.2-1.7,1.9c0.4-0.8,0.9-1.5,1.4-2.2
	c0.1-0.1,0.2-0.1,0.3-0.2c0.1,0,0.1,0,0.2,0c0.3,0.2,0.5,0.5,0.7,0.8C199.3,94.6,199.7,98.7,198.5,102.5"/>
<path d="M202.4,90.2c1.5,0.4,5.4,2.1,5.6,3.8c-0.1,0.2-0.1,0.4-0.1,0.6c0,0.1,0.1,0.3,0.2,0.3c0,0,0,0,0.1,0c1.1-0.1,3-2.7,2.9-3.8
	c-0.2-2.2-5.7-4.7-7.7-4.6c-0.7,0.1-1.3,0.4-1.8,0.9c-1.5,1.4-2.3,3.4-2.3,5.4c0.2,2.9,8.3,6,9.3,10.2c-1.5-0.8-3.6-2.5-4.2-4.1
	c-0.1-0.2,0-0.7-0.4-0.7c-1,0.1-2.8,2.4-2.8,3.3c0.1,1.8,4.1,5.4,5.9,5.2c2.1-0.1,4.6-4.3,4.4-6.3C211.3,96,203.4,93.2,202.4,90.2
	 M210.1,90.6l0.2,0.3c0.2,0.6-0.2,1.3-0.5,1.8c-0.2,0.4-0.5,0.8-0.8,1.1c0.2-0.4,0.4-0.8,0.5-1.3c0.2-0.4,0.3-0.9,0.3-1.4
	c-1.4-2.2-4.1-3-6.5-4C205.8,87.4,208.7,88.3,210.1,90.6 M203.6,99.2c1,1.9,2.7,3.2,4.2,4.6C205.9,103.2,203.7,101.5,203.6,99.2"/>
<path d="M222.9,89.2c-0.1-0.4-0.8-3-1-3.2c-0.1-0.1-0.1-0.1-0.2-0.1c-0.9,0-2.6,2-2.8,2.8c-0.1,1.2-0.1,2.4,0,3.6
	c0.1,3.1-0.1,6.2-0.7,9.2c-1.9-2.7-2.9-7.3-3-10.6c0-0.7,0-1.5,0-2.2c0.1-0.4,0.1-0.9,0.1-1.3c0-0.1-0.1-0.3-0.2-0.3
	c0,0-0.1,0-0.1,0c-0.5,0.1-0.9,0.4-1.3,0.7c-1.1,0.8-1.8,2.1-1.7,3.4c0,0.8-0.1,1.6-0.1,2.4c0.1,3.4,0.9,6.7,2.4,9.8
	c0.3,0.6,1.1,2.1,1.9,2c1.6,0,3.5-2.4,4.1-3.7c0.4-0.8,0.7-1.7,0.9-2.6c0.2,1.6,0.4,3.2,0.4,4.8c0,0.1,0.1,0.3,0.2,0.3
	c0,0,0,0,0.1,0c0.9,0,2.6-1.9,2.8-2.8c0.1-0.2,0.1-0.5,0.1-0.8C224.6,96.7,223.9,92.9,222.9,89.2 M213.2,89.2
	c-0.6,4.2,0.4,8.3,1.1,12.4C212.6,98.1,211.6,92.9,213.2,89.2 M222.4,103c-0.7-3.2-1.2-6.5-1.4-9.9C222.2,96.3,222.7,99.7,222.4,103
	"/>
<path d="M307.6,94.4c0-0.1-0.1-0.1-0.2-0.2c-0.9-0.2-3,1.2-3.5,1.9c-0.2,0.4-0.8,2.8-1,3.4c-0.7,3-1.8,5.9-3.2,8.6
	c-1-3.1-0.8-7.9,0-11c0.2-0.7,0.4-1.4,0.6-2.1c0.1-0.4,0.4-0.8,0.5-1.2c0.1-0.1,0-0.3-0.1-0.3c0,0,0,0-0.1,0c-0.5,0-1,0.1-1.4,0.4
	c-1.3,0.4-2.3,1.5-2.6,2.8c-0.3,0.8-0.5,1.5-0.7,2.3c-0.8,3.3-0.9,6.7-0.3,10c0.1,0.7,0.5,2.3,1.2,2.5c1.5,0.4,4-1.4,5-2.4
	c0.6-0.7,1.1-1.5,1.5-2.3c-0.2,1.6-0.5,3.2-0.9,4.7c-0.1,0.1,0,0.3,0.1,0.3c0,0,0,0,0.1,0c0.9,0.2,3-1.2,3.5-1.9
	c0.1-0.2,0.2-0.5,0.3-0.7c0.9-3.8,1.3-7.7,1.3-11.6C307.6,97.3,307.6,94.6,307.6,94.4 M295.9,107.1c-0.5-3.8,0.1-9.1,2.6-12.2
	C296.8,98.8,296.5,103,295.9,107.1 M303.3,110.9c0.3-3.3,0.8-6.6,1.6-9.9C305,104.4,304.5,107.7,303.3,110.9"/>
<path d="M239.3,102.1c-1-1.9-1.8-7.8-2.1-10.2c-0.1-0.4-0.4-3.2-0.5-3.4c-0.1-0.1-0.2-0.1-0.2-0.1c-1.9,0-5.4,6.1-6.2,7.7
	c-0.5-2.4-0.8-4.7-0.8-7.2c0-0.4,0-0.8,0.1-1.2l0.1-0.4c0-0.1,0-0.2,0-0.4c0-0.2-0.1-0.3-0.3-0.3c-0.9,0-2.8,2-3.1,2.9
	c-0.2,0.7-0.2,1.5-0.2,2.2c0.1,3.2,0.5,6.5,1.3,9.6c0.1,0.2,0.1,0.4,0.2,0.7l0.3,1.3c0.1,0.2,0.1,0.4,0.2,0.7s0.1,0.7,0.4,0.7
	c0.9,0,2.9-2.1,3.1-3c0-0.4,0.1-0.7,0.1-1.1c0.2-2.5,0.9-4.8,2.1-7c0.2,1.7,1.3,12.3,3.2,12.3c0.9,0,3.1-2.2,3.1-3.1
	C239.9,102.7,239.4,102.4,239.3,102.1 M227.4,89.3c-0.6,4.2,0.4,8.3,1.1,12.4C226.8,98.1,225.8,92.9,227.4,89.3 M234.4,93.2
	c1,3.8,1.7,7.7,2.1,11.7C235.2,101.1,234.4,97.1,234.4,93.2"/>
<path d="M250.7,101.5c-1,0-1.3,1.2-2.8,1.2c-1.8,0-3.3-2.6-3.9-4c0.4,0,0.8,0,1.2,0c0.5,0,0.9,0,1.4,0.1c0.3,0.1,0.6,0.1,0.9,0.1
	c0.9,0,3.2-2.2,3.2-3c0-0.2-0.5-0.8-0.6-1c-1.6-2.4-2.8-5.1-3.5-7.9c-0.1-0.5-0.2-1-0.4-1.4c-0.1-0.1-0.1-0.1-0.2-0.1
	c-0.8,0.1-1.6,0.5-2.3,1c-2.7,1.8-4.3,4.8-4.3,8c0,1,0,1.9,0.1,2.9c-0.4,0.4-0.8,1-0.9,1.6c0,0.2,0.1,0.3,0.3,0.3
	c0.3-0.1,0.6-0.1,0.9-0.2c0.5,2.4,2.2,7.1,5.2,7.2c0.7,0,1.4-0.1,2-0.4c1.1-0.5,4-2.5,4-3.8c0-0.2-0.1-0.3-0.3-0.3 M249.2,95.4
	c-2.3-2-3.6-5.5-3.9-8.5C246.7,89.7,247.7,92.7,249.2,95.4 M243,89.7c0.6,2,1.3,3.9,2.2,5.7c-0.2,0-0.3,0-0.5,0h-1
	c-0.2,0-0.3,0-0.5,0c-0.3-1.3-0.4-2.6-0.3-3.9C242.8,90.9,242.9,90.3,243,89.7 M240.8,98.8c0.5,1.1,1.3,2.6,1.9,3.6
	c0.6,1.2,1.6,2.1,2.7,2.8C242.6,104.9,241,101.3,240.8,98.8"/>
<path d="M265.1,78c-1.6-0.1-4,2.2-4.6,3.5c-0.4,0.9-0.6,1.8-0.7,2.8c-0.1,1.7-0.1,3.3,0.1,5c-1.9-3.7-3.8-7.3-6.1-10.8
	c-0.2-0.3-0.4-0.6-0.6-0.8c-0.1,0-0.1-0.1-0.2-0.1c-0.9-0.1-3.3,2-3.4,2.9c0,0.5,0.4,3.3,0.5,3.9c0.4,3.3,2.8,22.8,5.5,23
	c0.9,0.1,3.3-2,3.4-2.9c0-0.3-0.2-0.3-0.3-0.4c-1.7-1.4-3.4-11.9-3.8-14.5l4.7,9c0.6,1.3,4.4,8.2,5.4,8.3s3.3-2,3.4-2.9
	c0-0.2-0.3-0.6-0.4-0.8c-0.6-1.1-1.1-2.2-1.5-3.4c-1.8-5-3.5-12.8-3.1-18.1c5.3,3.2,7.8,16.7,7.3,22.7c-0.1,1.6-0.4,3.1-1.1,4.6
	c-0.3,0-0.7,0-1,0c-2.5-0.2-5.5-2.5-5.8-2.5c-0.9-0.1-3.3,2-3.4,2.9c0,0.6,3.4,2.2,4,2.4c0.6,0.2,1.3,0.4,2,0.4
	c3.3,0.2,6.5-2.8,7.8-5.6c0.6-1.5,1-3.2,1.1-4.8c0.5-6.3-1.6-15.7-5.1-20.9C268.4,79.6,266.8,78.1,265.1,78 M254.2,81.5
	c2.5,3.5,4.7,7.3,6.4,11.3C258.1,89.3,255.9,85.5,254.2,81.5 M260.6,109.1c1.8,0.9,3.7,1.8,5.7,2.5
	C264.2,112,261.9,110.7,260.6,109.1 M273.5,96.4c0.1,0.9,0.2,1.8,0.2,2.8c-0.4-1.8-0.7-3.6-1.1-5.4c-1.1-4.5-3-11.8-6.6-14.8
	c1.6,1,2.9,2.4,3.7,4.1C271.8,87.2,273.1,91.8,273.5,96.4"/>
<path d="M279.8,96.3c0-0.3,0-2.8,0-2.8c0-0.1-0.1-0.1-0.2-0.2c-0.9-0.1-3.2,1.7-3.3,2.5c-0.1,0.9-0.1,1.8,0,2.7c0,2.4,0,4.8,0.2,7.2
	c0,0.4,0.2,2.7,0.3,2.9c0.1,0.1,0.1,0.1,0.2,0.1c0.9,0.1,3.2-1.7,3.3-2.5c0.1-0.5-0.3-2.8-0.3-3.5
	C279.9,100.7,279.8,98.5,279.8,96.3 M278.7,95.3c0.4,3.3,0.4,6.9,0.7,10.3C278.2,102.3,278,98.7,278.7,95.3"/>
<path d="M280,87.8c0.1-0.4,0.2-0.8,0.3-1.2c0-0.1,0-0.3-0.2-0.3c0,0,0,0-0.1,0c-0.9-0.1-2.8,1.5-3.2,2.3c-0.2,0.5-0.4,1-0.4,1.5
	c-0.1,0.5-0.1,2.8,0.6,2.9c0.9,0.1,3.2-1.7,3.4-2.5C280.1,89.5,280,88.7,280,87.8 M279,89.1c-0.1-0.3-0.1-0.5-0.1-0.8
	c-0.4,0.3-0.9,0.5-1.3,0.6c0.3-0.5,0.6-0.9,1-1.2c0.3-0.2,0.7-0.1,0.9,0.2c0.1,0.1,0.1,0.2,0.1,0.4c0,0.6,0,1.1,0.1,1.7
	C279.3,89.8,279.1,89.4,279,89.1"/>
<path d="M291.4,97.7c0.1,0.3,0.2,0.5,0.3,0.8c0,0.1,0.1,0.1,0.2,0.2c0.8,0.2,3.3-1.5,3.5-2.4c0.1-0.6-2.5-6-3-6
	c-0.9-0.2-2.9,1.3-3.3,2.1c-0.4,0.7-0.6,1.4-0.8,2.1c-0.8,2.3-1.6,4.7-2.4,7.1c-0.5-5.3-0.2-10.7,0.8-15.9c0.2-1,0.5-2,0.7-3
	c0-0.1,0-0.3-0.1-0.3c0,0,0,0-0.1,0c-0.9-0.2-3.1,1.5-3.4,2.2c-0.1,0.4-0.2,0.7-0.3,1.1c-0.1,0.7-0.3,1.3-0.4,2
	c-1.3,6.6-1.4,13.4-0.3,20c0.1,0.4,0.2,1.8,0.6,1.9c0.9,0.2,2.9-1.3,3.3-2c0.5-0.9,0.8-1.9,1.1-2.9c0.7-0.4,1.4-0.9,2.1-1.4
	c0,2.5-0.4,6.1,0.5,8.5c0.1,0.2,0.3,0.7,0.5,0.8c0.9,0.2,3.3-1.5,3.5-2.4c-0.1-0.4-0.3-0.8-0.5-1.2c-0.4-1.5-0.5-3.1-0.4-4.7
	c0-0.5,0.1-4.1,0-4.2c0-0.1-0.1-0.2-0.2-0.2c-1-0.2-3.9,2.1-4.8,2.7c0.8-2.2,1.5-4.3,2.2-6.5C290.9,96.6,291.1,97.2,291.4,97.7
	 M286.1,84c-0.8,5.1-1.2,10.3-1.1,15.5C283.9,94.3,284.3,89,286.1,84 M292.1,101.2c0.1-0.1,0.3-0.2,0.4-0.2c0.3,0,0.5,0.2,0.5,0.5
	c0,0.2,0,0.4,0,0.5c0.1,2.5,0,5.3,0.1,7.8c-0.8-2.5-1-5.2-0.7-7.8c0-0.3,0.1-0.5,0-0.6s-0.1,0-0.2,0.1c-0.4,0.2-0.8,0.4-1.2,0.5
	C291.4,101.8,291.7,101.5,292.1,101.2 M291.8,91.2c0.1-0.1,0.2-0.1,0.4-0.1c0.4,0.2,0.6,0.7,0.9,1c0.6,1.1,1,2.3,1.2,3.5
	c-0.8-1.3-1.4-2.7-2.2-3.9c-0.7,0.3-1.3,0.8-2,1.1C290.5,92.1,291.2,91.6,291.8,91.2"/>
<path d="M370,129c-1.2,0.2-5.6,3.5-6.2,4.7v0.1c0.2,1.3,0.4,2.4,0.5,3.7c-1.4,0-2.8,0-4.3,0.2c-1.4,0.2-2.8,0.6-4.1,1.2
	c6.8-6.6,17.8-15.3,21.2-22.5c1.5-3.3,1.2-6-2.9-5.4c-5.7,0.9-15.2,8.3-17.6,13.4c-0.9,1.6-0.9,3.6,0,5.2c0.6,0.8,1,1.7,1.2,2.7
	c0,0.2,0,0.2,0.3,0.2c1.3-0.2,5.6-3.5,6.2-4.6c0.8-1.7-3.2-3.6-1.2-7.8c0.5-1.1,1.2-2.1,2.1-3c0.9-0.5,1.9-0.9,3-1.1
	c3.5-0.6,3.8,1.9,2.4,4.8c-2,4.2-6.6,8.6-10.6,12.3c-1.9,1.7-11.4,10.2-12,11.4c-0.1,0.2,0,0.4,0.2,0.3c0.9-0.4,1.8-0.8,2.6-1.3
	c1-0.4,2-0.7,3.1-0.9c2.7-0.4,4.9,0,7.6-0.4c0.6-0.1,1.1-0.3,1.7-0.5c2.1-0.9,6.2-3.9,7-5.7c0.5-1.2,0.6-2.4,0.4-3.6
	C370.7,131.7,370.6,128.9,370,129 M362.9,126.9c0.1,0.1,0.1,0.2,0.1,0.3c-0.1,0.4-0.3,0.7-0.6,0.9c-0.4,0.3-0.7,0.6-1.1,0.9
	c-0.8,0.5-1.6,0.9-2.5,1.3c0.7-0.6,1.5-1.1,2.2-1.7c0.5-0.4,1-0.8,1.4-1.4c-0.8-1.7-1.8-3.8-1.1-5.8
	C361.1,123.5,362.1,125.2,362.9,126.9 M370.8,113.3c2.4-1.2,6.4-1.8,5.4,2.2c-0.8,2.4-2.2,4.5-4,6.3c0.6-1.1,1.3-2.1,1.9-3.2
	C376.5,114.1,376.7,112,370.8,113.3 M367.2,137.8c1.6-1.5,2.3-3.8,1.8-5.9v-0.1c-1.2,0.4-2.3,1.2-3.5,1.8c0.7-0.7,1.4-1.3,2.2-1.9
	c0.4-0.3,0.8-0.5,1.3-0.6c0.1,0,0.3,0,0.4,0.1c0.2,0.1,0.3,0.3,0.3,0.4C370.4,133.9,369.4,136.4,367.2,137.8"/>
<path d="M362.4,127.2L362.4,127.2"/>
<path d="M362.4,127.3L362.4,127.3L362.4,127.3L362.4,127.3"/>
<path d="M400.2,120.9L400.2,120.9L400.2,120.9L400.2,120.9"/>
<path d="M400.2,120.8L400.2,120.8"/>
<path d="M408.5,126.1c0-0.5-0.2-3.3-0.8-3.2c-1.3,0.2-5.6,3.5-6.2,4.7v0.1c0.2,1.3,0.5,2.4,0.5,3.7c-1.4,0-2.8,0-4.2,0.2
	c-1.4,0.2-2.8,0.6-4.1,1.2c6.8-6.6,17.8-15.3,21.2-22.5c1.5-3.3,1.3-6.1-2.9-5.4c-5.2,0.8-13.6,7.1-16.8,12c1.3-5,1.1-10-4.6-9.1
	c-1.5,0.4-2.9,1.1-4.1,2c-6.3,4.2-9.3,9.7-11.7,14.8c-2.2,4.6-6.4,16.9,0.6,15.8c1.8-0.5,3.6-1.3,5.1-2.4c5.4-3.6,9.7-8.7,12.3-14.7
	c0.3-0.6,0.6-1.4,0.9-2.1c0.1,0.8,0.3,1.6,0.7,2.3c0.6,0.8,1,1.7,1.2,2.7c0,0.2,0,0.2,0.3,0.2c1.3-0.2,5.6-3.5,6.2-4.6
	c0.8-1.7-3.2-3.6-1.2-7.8c0.5-1.1,1.2-2.1,2.1-3c0.9-0.5,2-0.9,3-1.1c3.5-0.6,3.8,1.9,2.4,4.8c-1.9,4.2-6.6,8.6-10.6,12.3
	c-1.9,1.8-11.4,10.2-12,11.4c-0.1,0.2,0,0.3,0.2,0.3c0.9-0.4,1.8-0.8,2.6-1.3c1-0.4,2-0.7,3.1-0.9c2.7-0.4,4.9,0,7.6-0.4
	c0.6-0.1,1.1-0.3,1.7-0.5c2.1-0.9,6.2-3.9,7-5.7C408.6,128.6,408.7,127.3,408.5,126.1 M376.8,134.9c-1.9-3.8,0.5-10,2.5-13.5
	c-1.1,3.7-3.4,9.6-2.2,13.3c0.2,0.6,0.6,1.1,1.1,1.6C377.7,136,377.2,135.5,376.8,134.9 M381.5,135.4L381.5,135.4
	c-6.4,1-2.2-11.1-0.3-15.2c1.2-2.7,2.7-5.3,4.4-7.7c6.3,0.2,3.3,9.8,0.9,15C385.2,130.4,383.5,133,381.5,135.4 M392.1,122.8
	c-0.9,1.8-1.8,3.6-2.9,5.3c1.3-2.7,2.4-5.5,3.4-8.4c1.5-4.3,3.2-12-4.1-10c3.8-1.6,6.3,0.1,6.1,4.2
	C394.4,117.1,393.5,120.1,392.1,122.8 M400.8,120.6c0.1,0.1,0.1,0.2,0.1,0.3c-0.1,0.4-0.3,0.7-0.6,0.9c-0.4,0.3-0.8,0.6-1.2,0.8
	c-0.8,0.5-1.6,0.9-2.5,1.3c0.7-0.6,1.5-1.2,2.2-1.7c0.5-0.4,1-0.8,1.4-1.3c-0.8-1.7-1.8-3.8-1.1-5.8
	C399,117.1,400,118.8,400.8,120.6 M408.7,107c2.4-1.2,6.4-1.8,5.4,2.2c-0.8,2.4-2.2,4.5-4,6.3c0.6-1.1,1.3-2.1,1.9-3.2
	C414.4,107.8,414.6,105.6,408.7,107 M405.2,131.4c1.6-1.5,2.2-3.8,1.8-5.9c0,0,0-0.1,0-0.1c-1.2,0.4-2.3,1.2-3.5,1.8
	c0.6-0.7,1.4-1.3,2.2-1.9c0.4-0.3,0.8-0.5,1.2-0.6c0.1,0,0.3,0,0.4,0.1c0.2,0.1,0.3,0.3,0.3,0.4
	C408.2,127.6,407.2,130.1,405.2,131.4"/>
<path d="M434.2,104.3c1.1-2.4,0.2-3.6-2.5-3.1c-4.9,0.8-13.8,7.5-15.9,11.9c-0.5,1.2-0.7,2.6-0.7,3.9c0,0.2,0.1,0.2,0.3,0.2
	c1.3-0.2,5.6-3.5,6.2-4.6c0.5-1,0-2.3,0.6-3.8c0.3-0.7,0.8-1.3,1.3-1.9c0.7-0.4,1.5-0.6,2.3-0.8c2.2-0.4,2.9,0.6,2,2.5
	s-3.7,4.6-6.2,6c-1.4,0.8-2.9,1.7-4.3,2.6c-1,0.7-3.4,2.4-3.8,3.3c-0.1,0.2,0,0.3,0.2,0.3c1.3-0.5,2.5-1.2,3.6-1.9l0.8-0.1
	c3.9-0.6,8.4,1,6.5,5c-0.8,1.7-1.8,3.2-3.1,4.5c-0.7,0.4-1.5,0.6-2.3,0.8c-4.8,0.8-5-3.1-3.3-6.9c0.2-0.3,0.4-0.8-0.1-0.7
	c-1.2,0.2-5.6,3.5-6.2,4.6c-2.1,4.4-2.1,8.8,3.6,7.9c4.3-0.7,11.1-5.7,14.3-9.3c1.4-1.6,2.5-3.3,3.5-5.2c2-4.3-2.1-6.1-6.1-5.7
	C428.4,111.1,432.7,107.5,434.2,104.3 M420.1,113.2c-1.1,0.8-2.3,1.4-3.6,1.8c1.3-1.1,2.8-1.8,3.9-3c0.5-0.8,0.7-1.8,0.8-2.7
	C421.7,110.7,421.3,112.3,420.1,113.2 M413.2,125.2c-0.8,0.5-1.6,1-2.4,1.4c1-1.1,2.1-2.1,3.3-2.9c-0.3,1.8-0.6,3.9,0.6,5.4
	C413.3,128.4,413,126.7,413.2,125.2 M428.7,121.4c-0.6,1-1.2,1.9-2,2.7c1-1.7,1.8-3.4,2.4-5.3c0.7-3-2-3.8-4.5-3.9
	C429.5,114.1,431.3,117.3,428.7,121.4 M426.4,104.3c1.2-1.1,4.7-3.2,6.1-1.5c0.9,1.6-0.8,3.6-1.8,4.7c0.6-1.2,1.4-2.4,1.4-3.8
	C431.8,101.7,427.5,103.9,426.4,104.3"/>
<path d="M151.7,57.5l4.2-11.7h-6.3l-4.2,11.7H151.7z M154.1,46.7c0.2,0,0.4,0.2,0.4,0.4c0,0,0,0,0,0c-0.3,1.3-0.7,2.5-1.2,3.7
	c-0.5,1.2-1,2.3-1.7,3.4c0.2-1.3,0.4-2.5,0.8-3.7c0.3-1,0.6-2,1-3c-1-0.1-1.9-0.2-2.9-0.4C151.7,46.9,152.9,46.8,154.1,46.7"/>
<path d="M143,57.5l4.2-11.7h-6.3l-4.2,11.7H143z M145.3,46.7c0.2,0,0.4,0.2,0.5,0.4c0,0,0,0,0,0c-0.3,1.3-0.8,2.5-1.3,3.7
	c-0.5,1.2-1,2.3-1.7,3.4c0.2-1.3,0.4-2.5,0.8-3.7c0.3-1,0.6-2,1-3c-1-0.1-1.9-0.2-2.9-0.4C142.9,46.9,144.1,46.8,145.3,46.7"/>
<path d="M133.4,56.2l3.4-10.3l-12-0.8L109.1,44L106,59.6l8.6-1.1L133.4,56.2z M123.9,46.2c3.4,0.1,6.7,0.3,10.1,0.6
	c0.2,0,0.4,0.2,0.4,0.4c0,0,0,0.1,0,0.1c-0.8,2.2-1.6,4.4-2.5,6.6c0.4-2.1,1-4.2,1.6-6.3c-3.4-0.1-6.8-0.3-10.1-0.6
	c-2.7-0.2-5.4-0.5-8.1-0.9C118.1,46,121,46.1,123.9,46.2"/>
<path d="M132.9,59.1l-21.1,3.1l-6.5,1l-2.1,10.5l-1,5.1l27.4-9.3L132.9,59.1z M111.3,64.5c6.3-1.4,12.7-2.5,19.1-3.2
	c0.2,0,0.4,0.1,0.4,0.4c0,0.1,0,0.1,0,0.2c-0.8,2.2-1.6,4.4-2.5,6.6c0.4-2.1,1-4.2,1.6-6.2C123.7,63.3,117.5,64.1,111.3,64.5"/>
<path d="M127.3,75.5l1.6,1.2c4-2.1,8-4.1,11.8-6c4.7-2.3,9.9-4.8,14.6-7c0.3-0.1,0.5,0,0.7,0.2c0,0.1,0.1,0.2,0,0.3
	c-0.3,0.9-0.6,1.9-0.9,2.8l-0.9,2.8c-0.6,1.9-1.2,3.7-1.9,5.6c0.4-1.9,0.9-3.8,1.3-5.8c0.3-1.3,0.8-3.1,1.1-4.6
	c-8.1,4.2-16.5,8.4-24.9,12.3c-4.3,2-8.6,4-13,5.8c3.8-2.2,7.9-4.4,12-6.5L127.3,75.5l-23,11.6l11.2,9.8l29.2-8.5l4.3-1.3l-0.9-4.1
	c-0.1-1.1,0.3-2.2,1-3.1c0.5-1,1.4-1.8,2.4-2.2c0.9-0.2,1.6,0.3,2.4,1.2l6-19.9L127.3,75.5z"/>
<path d="M192.4,81c11-6.2,15.6-15.5,13.9-26c-0.2-1-0.4-2-0.6-2.9c-3.1-11.3-14.2-15.2-25.8-14.4l2.6-8.2h-9.6l-3.1,10
	c-3.9,1.1-7.7,2.8-11.2,4.9c0,0,0.9,1.6,2.5,4.7c2-0.8,4.1-1.4,6.3-1.8l-6.9,22.1h9.6l6.6-21.1c8.7,4.8,3,21.8-17.5,27.3
	c-1,3-1.8,5.7-2.4,7.5c0.3,0.5,0.6,0.9,0.9,1.4c0.1,0.2,0.2,0.3,0.3,0.5c1.3-0.3,2.6-0.6,4.1-0.8c0.2-0.9,0.5-1.7,1-2.4
	c0.2-0.3,0.4-0.6,0.6-0.9c0.4-0.6,1.1-1.1,1.8-1.3c0.1,0,0.3,0,0.4,0c1.3,0,1.9,1.5,2.1,2.2c0,0.1,0.1,0.1,0.1,0.2
	c0.2,0.5,0.5,1.1,0.8,1.6c4.5,0,9,0.5,13.4,1.7c1.4-0.4,2.8-0.9,4.1-1.4c0.1-1.9,0.9-3.6,2.3-5c0.6-0.7,1.3-1.1,2.2-1.3
	c0.9-0.2,1.8,0.5,2,1.4c0,0,0,0.1,0,0.1c0,0.6-0.1,1.2-0.2,1.7C192.5,80.8,192.5,80.9,192.4,81 M171.9,58.6c-0.9,3-2,5.9-3.3,8.7
	c0.6-3,1.4-6.1,2.4-9c0.9-3,2-5.9,3.3-8.7C173.7,52.7,172.9,55.7,171.9,58.6 M178.2,37.2c0.2-1.9,0.6-3.7,1.1-5.5
	c-1.6,0-3.1-0.2-4.6-0.5c1.8-0.3,3.5-0.5,5.3-0.5c0.3,0,0.5,0.2,0.5,0.5c0,0,0,0.1,0,0.1C179.9,33.4,179.1,35.4,178.2,37.2
	 M182.8,40.1c9.5-0.1,19.4,4.2,21.4,14.4c0.1,0.5,0.2,1.1,0.3,1.7c0.5,5-0.6,10.1-3.3,14.4c1.4-3.3,2.2-6.9,2.3-10.5
	c0-1.1,0-2.1-0.2-3.2C202,46.3,193.3,41.6,182.8,40.1"/>
<path d="M211.3,52c4.3,19.9-7.6,29.2-16,33.2c1.6,0.1,1.9,0.1,2.3,0.3c0.5,0.3,0.8,0.7,0.8,1.2l1.7-0.2l0.2-0.2
	c0.7-0.8,1.7-1.2,2.7-1.4c1.3,0,2.7,0.3,3.9,0.9l11.8-1.2l7.7-5.7l0.7-36.6l0.3-15.4l-18.8,16.5C209.7,46.2,210.6,49.1,211.3,52
	 M203.3,82.9c5.8-3.7,8.9-10.2,10.6-16.6C213.6,73,209.9,80.4,203.3,82.9 M221.9,34.3l3-2.4c0.2-0.2,0.6-0.2,0.8,0.1
	c0.1,0.1,0.1,0.2,0.1,0.4c0,2.1,0,4.2,0,6.3c0,1.5,0,3.1,0,4.7c0,2.7-0.1,5.3-0.2,7.9c-0.1,2.1-0.2,4.2-0.4,6.3
	c-0.2-2.1-0.3-4.2-0.3-6.3c-0.1-2.3-0.2-4.8-0.2-7.2c0-1.8-0.1-3.6-0.1-5.3s0-3.4,0-5.1c-3.7,2.8-7.7,5.8-11.4,8.4
	C215.9,39.3,219.1,36.7,221.9,34.3"/>
<path d="M251.6,43.5L232.8,27l0.4,21.8l0.6,30.3l7.7,5.7l1.3,0.1c0.9-0.6,1.8-0.9,2.9-1.1h0.1c0.6,0,1.1,0.3,1.4,0.7v0.1
	c0.1,0.2,0.3,0.5,0.3,0.7l1.1,0.1v-0.2l-0.1-0.5c0-0.1-0.1-0.4-0.1-0.7c-0.2-1.2-0.4-2.4-0.4-3.6c0.7-2.2,2.6-3.8,4.9-4.2
	c0.2,0,0.3,0,0.5,0.1c-3.1-3.9-4.9-8.6-5.3-13.5C247.7,57.5,248.6,51.1,251.6,43.5 M246.9,50.1c-0.2,0.7-0.3,1.3-0.4,2
	c-0.1-0.7-0.1-1.4,0-2.1c0.2-2,0.6-4,1.2-5.9c-3.5-3-6.9-6.3-10.1-9.7c3.8,2.9,7.5,5.9,10.9,9.2c0.1,0.1,0.2,0.3,0.1,0.5
	c-0.2,0.6-0.4,1.3-0.6,2C247.6,47.4,247.2,48.7,246.9,50.1"/>
<path d="M258.2,83.4c0.1-0.7,0.3-1.3,0.5-1.9c-1.2-0.9-2.3-1.9-3.4-3C256.3,80,257.3,81.7,258.2,83.4"/>
<path d="M300.9,51.9c0,0-0.1-3.2-0.1-7.7c-31-2.6-46.7-8.8-46.7-8.8s1.6,5.7,3.1,11.7C271.7,49.7,286.3,51.4,300.9,51.9 M294.3,45
	c1.6,0.2,3.3,0.3,4.9,0.5c0.2,0,0.3,0.2,0.3,0.3c0,0.8-0.1,1.5-0.1,2.3s-0.1,1.5-0.2,2.3c-0.1-1.4-0.2-2.8-0.3-4.3
	c-1.5,0-3.1-0.1-4.6-0.2c-4.9-0.4-9.8-1.2-14.5-2.6C284.4,43.8,289.6,44.5,294.3,45"/>
<path d="M265.7,65.2c0,0,7.4-0.6,23.3,0.1c2.2,0.1,4.5,0.2,7,0.4V57c-7.6-0.6-14.2-1.2-19.3-1.8c-7.9-0.8-12.4-1.5-12.4-1.5
	L265.7,65.2z M294.6,58.1c0.2,0,0.3,0.2,0.3,0.4c0,0.8,0,1.7-0.1,2.5s-0.1,1.7-0.3,2.5c-0.1-0.8-0.2-1.7-0.3-2.5s-0.1-1.4-0.1-2.1
	c-2.1-0.2-4.3-0.5-6.4-1.1C290.1,57.7,292.4,57.8,294.6,58.1"/>
<path d="M258.1,71.2c1,2.3,2.2,4.4,3.7,6.4c0.9-0.7,2-1.1,3.2-1.1c2.2,0.2,4.2,2,5.3,3.6c0.3,0.4,0.6,0.9,0.8,1.3
	c4.4-0.3,8.8-0.2,13.2,0.2c0.8-0.6,1.8-1,2.9-0.9c0.7,0.1,1.2,0.6,1.4,1.3c5.7,0.7,11.3,1.8,16.8,3.4c0,0-1.4-4.5-3.1-9.9
	C302.2,75.6,276.1,69.1,258.1,71.2 M302,80c-0.3-0.9-0.6-1.8-1-2.7c-6.4-1.1-13.1-2.5-19.5-3.5c6.7-0.1,13.4,1.3,19.9,2.8
	c0.1,0,0.2,0.1,0.3,0.3c0.5,2,1,4.1,1.4,6.1C302.7,81.9,302.4,80.9,302,80"/>
<path d="M352,43.4c-11.4,0.9-44.7,0.7-44.7,0.7l-0.2,8.1l42.3,0.8C349.5,53,350.6,48.8,352,43.4 M349,45.8c-0.2,0.8-0.4,1.6-0.7,2.5
	s-0.5,1.6-0.7,2.4c0.2-1.5,0.4-3,0.6-4.6c-1.5,0.2-3.1,0.3-4.6,0.4c-5,0.4-10.1,0.3-15.2-0.1c4.2-0.4,8.4-0.6,12.6-0.8l7.5-0.3
	c0.2,0,0.3,0.1,0.4,0.3C349,45.7,349,45.8,349,45.8"/>
<path d="M355.8,63.8l-7.2-5.7l-41.4-0.8l0.2,9.2l36.3,5l-0.1,3.1l-0.3,9.5l-10-2.1l-26.3-5.7l2.8,10l12.4,3.6l23.6,6.9l0.4-0.2
	l10.9-9.6l3.5-3.2l-4.3-18.4L355.8,63.8z M330,84.3c-5.4-1.1-10.7-2.5-16-4.2c4.3,0.5,8.5,1.2,12.7,2.2c1.5,0.4,3,0.7,4.5,1.1
	c2.7,0.7,5.3,1.6,7.9,2.6C336.2,85.5,333.1,84.9,330,84.3 M357.5,82.9c-1-2.8-1.9-5.8-2.6-8.7c-0.5-2.2-1-4.4-1.5-6.7l-0.4-2
	c-1.4-1.1-2.7-2.3-4-3.5c1.2,0.7,2.4,1.4,3.5,2.1l1.1,0.8c0.1,0.1,0.1,0.1,0.2,0.2c0.2,0.6,0.3,1.2,0.5,1.8c0.8,3.1,1.5,6.2,2.1,9.3
	C356.9,78.4,357.4,80.8,357.5,82.9"/>
<path d="M436.3,4.8c-2.2,2.3-4.4,4.5-6.8,6.6l0.8,2.2c1.9-1.8,3.9-3.6,5.6-5.5c0.2-0.3,0.5-0.3,0.8-0.2c2.7,1.3,5.1,3,7.4,5
	c2.2,2,4.2,4.2,5.8,6.6c-1.9-2.2-4.1-4.1-6.4-5.9c-2.1-1.6-4.4-3-6.9-4.2c-1.8,2.1-3.7,4-5.8,5.9c-0.5,0.5-1.1,1-1.6,1.4
	c-8.2,7.3-17.8,12.8-28.2,16.2c6.5-3.1,12.7-6.7,18.6-10.9c3.7-2.6,7.2-5.4,10.5-8.4l0.1-0.1l-0.8-2.2c-14,12.4-30.4,20.2-44.7,25
	c-8.8,3-17.9,5.3-27.1,6.8c-0.6,2.8-1.4,5.6-2.4,8.4c3.4,0.5,6.9,0.9,10.3,1c9.3,0.5,21.1,0.4,28.5-0.6c3-2.5,5-4.4,8.9-7.7
	c0.1-0.1-3.4,4.8-5.1,7.3c-6,8.2-12.7,20.7-18.3,32.5c-3.5,7.6-6.6,14.9-8.6,20.6c4.3,1.6,8.4,3.2,11.1,4.3c0.8-0.7,1.6-1.3,2.6-1.9
	c1.1-0.7,2.2-1.4,3.4-1.9c0.6-1,1.1-2.1,1.8-3.2c9.9-17.4,29.6-44.2,48.6-64.9c5.3-5.8,10.8-11.4,16.7-16.6
	C446.9,7.6,438.2,5.9,436.3,4.8 M382.1,88.2c-0.8,1.5-1.5,3-2.2,4.6c0.5-1.8,1.1-3.6,1.8-5.3c2.3-6.2,5.1-12.2,8.4-18
	c4.1-7.5,9-14.5,14.6-20.9C396.4,61.4,388.8,74.6,382.1,88.2"/>
<path d="M104.8,51.7c-0.1-0.2-0.2-0.5-0.3-0.7c-0.2-0.6-0.4-1.2-0.6-1.8l-0.1-0.2c-0.2-0.7-0.4-1.5-0.6-2.2
	c-0.3-1.2-0.6-2.3-0.8-3.4C91.5,41.5,71.2,37,51.5,26.1C41.1,20.5,31.8,13.3,23.7,4.8c-1.9,1-10.6,2.8-18.9,15.8
	C14,29.2,22.2,37.8,29.4,46c7.7,8.8,14.4,17.2,20.1,24.9c4.5-4.2,10.9-10.5,14.8-15.7c-0.8-1.2-1.5-2.3-2.3-3.5
	c-1.7-2.5-3.5-5.1-5.3-7.7l0.3,0.4c3.8,3.8,4.7,4.7,7.4,7.6c7.6,0.8,15.3,1.1,23,0.9l-15,12c0,0,1.2,3.7,2.9,9.1
	c0,0.1,0.1,0.2,0.1,0.3c-1.4-2.7-2.9-5.5-4.4-8.2c-0.8-1.5-1.7-3-2.6-4.5c-4.5,5.4-9.4,10.4-14.6,15.1
	c13.2,18.7,19.8,31.8,20.8,33.7l6.1-8.1l-6.1,8.1l0.1,0.2c0,0,10.3-4.4,14.4-5.7c-0.9-3.9-1.5-7.8-1.6-11.8
	c-0.2-6.9,0.7-15.8,5.3-23.8C97.1,62.3,101.5,56.1,104.8,51.7 M47.9,29.3c-1.6-0.9-3.1-1.8-4.6-2.8c-7.1-4.5-13.5-10-19.2-16.2
	c-4.4,1.5-8.4,4-11.5,7.4c2.9-4,6.9-7,11.5-8.7c0.2-0.1,0.5,0,0.6,0.2c1.6,1.7,3.4,3.4,5.2,5c6,5.2,12.4,9.9,19.3,14
	c2.5,1.5,4.9,2.9,7.5,4.2c1.8,0.9,3.9,1.9,5.7,2.8c1.4,0.6,2.8,1.2,4.1,1.8c2.2,1,4.5,1.8,6.7,2.7C64.2,37.4,55.8,33.9,47.9,29.3
	 M67.7,69.3c-2.2,2.3-4.6,4.4-7.3,6.2c1.9-3,4.2-5.6,6.9-8c0.3-0.3,0.8-0.3,1.1,0c0,0,0,0,0,0c2.7,4.2,5.1,8.6,7,13.1
	c0.6,1.5,1.2,3.1,1.8,4.6C74.2,79.7,71.1,74.4,67.7,69.3"/>
</svg>