<svg version="1.1" xmlns="http://www.w3.org/2000/svg" viewBox="0 0 422 47" width="422" height="47">
<style type="text/css">
	.st0{fill:#e0e0e0;}
</style>
<path class="st0" d="M50.9,9.7c1.4,0.2,2.8-0.8,2.9-2.3c0-0.2,0-0.3,0-0.5V5.1c0-1.6-1.3-2.9-2.8-2.9c-0.1,0-0.2,0-0.3,0H3.2
	c-1.6-0.2-3,1-3.1,2.5C0,4.8,0,4.9,0,5.1v2c0,1.8,1.2,2.7,3,2.7h16.9c1.8,0,3.3,1.5,3.3,3.3v29c-0.2,1.6,1,3,2.5,3.1
	c0.1,0,0.2,0,0.3,0h1.9c1.8,0,2.7-1.3,2.7-3.1V13c0-1.8,1.5-3.3,3.3-3.3L50.9,9.7z"/>
<path class="st0" d="M115,1.6h-2.3c-1.6,0-2.8,1.3-2.8,2.8c0,0.1,0,0.1,0,0.2v37.7c0,1.5,1.2,2.8,2.7,2.9c0,0,0,0,0.1,0h2.4
	c1.6,0,2.6-1.2,2.6-3V4.5C117.7,2.7,116.8,1.6,115,1.6"/>
<path class="st0" d="M150.1,39.6l-18.3-15.7c-0.5-0.5-0.6-1.4-0.1-1.9l0.1-0.1l17.1-14.6c1.3-0.9,1.6-2.7,0.7-4
	c0-0.1-0.1-0.1-0.1-0.2l-1.2-1.4c-1-1.2-2.4-1.4-4-0.1l-22.9,19.6c-1.2,1.2-1.2,2.5,0,3.8l23.9,20.3c1.1,1,2.7,1,3.8,0l0.1-0.1
	l1.3-1.6C151.5,42.4,151.3,40.6,150.1,39.6L150.1,39.6"/>
<path class="st0" d="M204.1,6.9c1.1-0.9,1.3-2.6,0.4-3.7c-0.1-0.1-0.1-0.1-0.2-0.2l-1.4-1.4c-1-1.2-2.8-1.2-4-0.2
	c-0.1,0.1-0.2,0.2-0.3,0.3l-16.1,16.1c-0.9,0.9-2.3,0.9-3.2,0l-16-16.1c-1-1.2-2.8-1.4-4-0.3l-0.1,0.1l-1.4,1.4
	c-1.1,1-1.1,2.6-0.1,3.7c0.1,0.1,0.2,0.2,0.2,0.2l17.8,17.8c1.1,1,1.7,2.4,1.6,3.8v13.7c-0.1,1.6,1.1,2.9,2.6,3h0.1h2
	c1.6,0,2.7-1.1,2.7-3V28.5c-0.1-1.4,0.5-2.8,1.6-3.8L204.1,6.9z"/>
<path class="st0" d="M55.2,23.5c0,12.9,10.5,23.4,23.4,23.4S102,36.4,102,23.5S91.6,0.1,78.6,0.1C65.7,0.1,55.2,10.6,55.2,23.5
	 M62.7,23.5c0-8.8,7.1-16,15.9-16s16,7.1,16,15.9s-7.1,16-15.9,16l0,0C69.8,39.5,62.7,32.3,62.7,23.5"/>
<path class="st0" d="M207.2,23.5c0,12.9,10.5,23.4,23.4,23.4c12.9,0,23.4-10.5,23.4-23.4S243.4,0.1,230.5,0.1l0,0
	C217.6,0.1,207.2,10.6,207.2,23.5 M214.6,23.5c0-8.8,7.1-15.9,15.9-15.9c8.8,0,15.9,7.1,15.9,15.9s-7.1,15.9-15.9,15.9l0,0
	C221.7,39.5,214.6,32.3,214.6,23.5"/>
<path class="st0" d="M361.7,35.5L340.4,5.9c-0.9-1.4-2.7-1.9-4.1-1c-0.4,0.2-0.7,0.5-0.9,0.9l-13.5,17.8c-0.7,1.1-2.1,1.4-3.2,0.7
	c-0.3-0.2-0.6-0.4-0.7-0.7L304.6,5.7c-0.9-1.4-2.8-1.7-4.1-0.8c-0.4,0.2-0.7,0.6-0.9,0.9l-21.3,29.6c-1,1.2-0.9,2.9,0.3,3.9
	c0.1,0.1,0.2,0.2,0.3,0.2l1.5,1.1c1.5,1,2.9,0.6,4-0.9l16-22.2c0.6-1.1,2-1.4,3.1-0.8c0.3,0.2,0.6,0.4,0.8,0.7l13.3,17.7
	c0.6,0.8,1.5,1.3,2.5,1.3s1.9-0.5,2.5-1.3l13.3-17.7c0.7-1.1,2.1-1.4,3.2-0.7c0.3,0.2,0.5,0.4,0.7,0.7l16,22.2c1,1.5,2.5,1.9,4,0.9
	l1.5-1.1c1.3-0.9,1.6-2.6,0.8-3.9C361.8,35.7,361.8,35.6,361.7,35.5"/>
<path class="st0" d="M370,43.5c-1.1-1.3-0.7-3,0.7-4.2L387.5,25c1.2-0.9,1.4-2.6,0.5-3.8c-0.1-0.2-0.3-0.3-0.5-0.5L371.8,7.4
	c-1.4-1.2-1.8-2.8-0.5-4.3l1.2-1.4c1.2-1.4,2.7-1.3,4.1-0.1l16.6,14.2c1.5,1.2,3.5,1.2,5,0l16.6-14.3c1-1.1,2.7-1.1,3.7-0.2
	c0.1,0.1,0.2,0.2,0.3,0.4l1.2,1.5c1.2,1.4,0.8,3-0.6,4.1l-15.5,13.4c-1.2,0.9-1.4,2.6-0.4,3.8c0.1,0.2,0.3,0.3,0.4,0.4l16.9,14.3
	c1.3,0.9,1.6,2.7,0.7,4c-0.1,0.1-0.1,0.2-0.2,0.2l-1.2,1.4c-1.2,1.4-2.7,1.2-4.1,0.1l-17.8-15.2c-1.5-1.2-3.5-1.2-5,0l-17.7,15.1
	c-1.4,1.2-2.9,1.5-4.1,0.1L370,43.5z"/>
</svg>