<svg version="1.1" xmlns="http://www.w3.org/2000/svg" viewBox="0 0 352 85" width="352" height="85">
<style type="text/css">
	.st0{fill:#e0e0e0;}
</style>
<path class="st0" d="M276.1,0.7L252.1,16c0,0-6.8,4.1-6.8,13.9v27.5c0,4.9,3.9,8.8,8.8,8.8s8.8-3.9,8.8-8.8V34.9
	c0-5.6,3.9-7.4,3.9-7.4l18.7-12V4.9L276.1,0.7z"/>
<path class="st0" d="M31.9,3.6C16,3.6,2.5,15.4,0.3,31.2C0.1,31.9,0,32.7,0,33.5v51.2l17.6-11.5V35.5l0,0c0-7.9,6.4-14.4,14.3-14.4
	s14.4,6.4,14.4,14.3S39.9,49.9,32,49.9c-2.6,0-5.2-0.7-7.5-2.1v18.8c17.2,4.1,34.4-6.5,38.5-23.7S56.5,8.5,39.4,4.5
	C36.9,3.9,34.4,3.6,31.9,3.6z"/>
<path class="st0" d="M131.4,3.6c-17.6,0-31.9,14.3-31.9,31.9s14.3,32,31.9,32l0,0l0,0c2.5,0,5-0.3,7.4-0.9V47.9
	c-6.8,4.1-15.5,1.9-19.6-4.8c-4.1-6.7-1.9-15.5,4.8-19.6c6.8-4.1,15.5-1.9,19.6,4.8c1.4,2.2,2.1,4.8,2.1,7.4l0,0v23.8l6.4,4.2
	l11.3,7.2c0,0,0-33.1,0-35.3C163.3,17.9,149.1,3.6,131.4,3.6z"/>
<path class="st0" d="M204.4,3.6c-16,0-29.5,11.8-31.6,27.6c-0.2,0.7-0.3,1.5-0.3,2.3v39.7l17.6,11.3v-49l0,0
	c0-7.9,6.4-14.4,14.3-14.4c7.9,0,14.4,6.4,14.4,14.3s-6.4,14.4-14.3,14.4c-2.6,0-5.2-0.7-7.5-2.1v18.8c17.2,4.1,34.4-6.5,38.5-23.6
	c4.1-17.2-6.5-34.4-23.6-38.5C209.4,3.9,206.9,3.6,204.4,3.6L204.4,3.6z"/>
<path class="st0" d="M320,3.6c-17.6,0-31.9,14.3-31.9,31.9c0,12.1,6.8,23.2,17.6,28.6V35.5c0-7.9,6.4-14.4,14.3-14.4
	c7.9,0,14.4,6.4,14.4,14.3s-6.4,14.4-14.3,14.4c-2.6,0-5.2-0.7-7.5-2.1v18.8c2.4,0.6,4.9,0.9,7.4,0.9l0,0
	c17.6-0.1,31.8-14.6,31.7-32.2C351.6,17.8,337.5,3.7,320,3.6L320,3.6z"/>
<polygon class="st0" points="81.9,0.2 73.1,5.1 73.1,16.9 81.9,12 90.8,16.9 90.8,5.1 "/>
<path class="st0" d="M73.1,24.4v34.1c0,4.9,3.9,8.8,8.8,8.8s8.8-3.9,8.8-8.8V24.4l-8.8-4.9L73.1,24.4z"/>
</svg>