<svg version="1.1" xmlns="http://www.w3.org/2000/svg" xmlns:xlink="http://www.w3.org/1999/xlink" x="0px" y="0px" viewBox="0 0 133 55" style="enable-background:new 0 0 133 55;" xml:space="preserve" width="133" height="55">
<style type="text/css">
	.st0{fill:#4EACA6;}
</style>
<path class="st0" d="M47.1,1.2l-3.8,13.1l-8.1,0.9l-6.7,22.1l9.1-0.9l-4,14.9l-33,2.6l4.7-15.2l8.1-0.9l6.9-21.4L9.7,17l4-12.9
	L47.1,1.2z"/>
<path class="st0" d="M75.1,14L62.4,49.7l-10.6,1.2l-0.6-17l-2.7,10.4l-10.4,1.5l8.4-26.6l9.9-0.6l1.1,15.5l5.8-19.8L75.1,14z"/>
<path class="st0" d="M99.4,15.4L96.5,25l-14.2,1.4l-0.9,3l7.8-0.8l-1.7,7.1L79.7,37l-3.1,10.6l-10.7,1.5L76.3,17L99.4,15.4z"/>
<path class="st0" d="M111.5,48.1c-7.9,0.2-14.5-5.9-14.7-13.8c0-0.3,0-0.6,0-0.9c0-10.9,10-21,20.9-21c7.9-0.3,14.5,5.9,14.8,13.7
	c0,0.3,0,0.7,0,1C132.5,38.1,122.5,48.1,111.5,48.1z M115.9,22.1c-5.7,0-9.1,4.9-9.1,10.2c0,3.6,1.6,6.7,5.5,6.7
	c5.6,0,9.4-5,9.4-10.2C121.8,25,120,22,115.9,22.1L115.9,22.1z"/>
</svg>