<svg version="1.1" xmlns="http://www.w3.org/2000/svg" xmlns:xlink="http://www.w3.org/1999/xlink" x="0px" y="0px" viewBox="0 0 210 55" style="enable-background:new 0 0 210 55;" xml:space="preserve" width="210" height="55">
<style type="text/css">
	.st0{fill:#4EACA6;}
</style>
<path class="st0" d="M48.4,17.8L33.9,19c0.6-1.2,1-2.6,1.1-4c0-2.3-2.2-2.8-4.1-2.8c-2.1,0-7.5,1.1-7.5,4c0,2.4,5.1,4,6.9,4.4
	c5.5,1.3,10.9,3.1,16.1,5.5c2.7,1.3,3.7,3.7,3.7,6.6c0,7.1-5.7,14.3-11.9,17.3c-6.2,2.9-13,4.4-19.9,4.5c-6.9,0-18-2.8-18-11.4
	c0-2.5,1.3-5.9,2.4-8.2c4.2-0.7,12.1-2.4,16-2.4h0.3c-0.8,1.5-1.3,3.1-1.5,4.8c0,2.6,2.1,3,4.2,3c4.2,0,10-0.2,12.1-4.6
	c0.1-0.2,0.2-0.5,0.2-0.8c0-2.5-6.6-3.6-8.4-4c-4.5-1.1-8.9-2.7-13.1-4.8c-2.2-1-3.1-3.4-3.1-5.7c0-0.6,0-1.2,0.1-1.8
	C11.5,8,22.6,0.5,33,0.5c6.4,0,17.5,1.8,17.5,10.2C50.6,12.7,49.7,16.4,48.4,17.8z"/>
<path class="st0" d="M60.1,42.4L58,50.7l-10.2,1.1l9.9-32.2c3.1-0.5,6.1-0.7,9.2-0.7c4.3,0,13.4,0.5,13.4,6.6
	C80.4,34.2,67.4,40.5,60.1,42.4z M65,27c-0.2,0-0.5,0-0.8,0l-2.1,6.8c1.8-0.5,7.9-2.3,7.9-4.5C70.1,27.4,66.4,27,65,27z"/>
<path class="st0" d="M106,18l-2.4,8.4l-12.2,1l-0.8,2.4l9.2-0.9l-2.1,7.4l-9.1,1l-0.9,2.8l14.7-1.9l-3.1,10.5l-24.4,2.2l9.7-31.2
	L106,18z"/>
<path class="st0" d="M134.3,38.2c-2.1,7.7-9.7,12-17.3,12c-7.2,0-12.4-5-12.4-12.2c0-10.5,9.5-21.6,20.3-21.6c4.8,0,9.3,2.2,9.3,7.6
	c0,1.3-0.2,2.6-0.6,3.8l-8.9,1.2c0.2-0.7,0.2-1.5,0.2-2.2c0-1.2-0.3-2.6-1.8-2.6c-5.4,0-8.9,9-8.9,13.4c0,2.5,0.9,4.6,3.8,4.6
	c2.9,0.1,5.5-1.7,6.3-4.5L134.3,38.2z"/>
<path class="st0" d="M163.1,15.5l-2.4,8.4l-5.2,0.5l-4.3,14.1l5.8-0.6l-2.6,9.5l-21,1.7l3-9.7l5.2-0.6l4.4-13.6l-6.7,0.4l2.6-8.2
	L163.1,15.5z"/>
<path class="st0" d="M188.1,14.1l-4.7,34.5l-11.3,1.8l2.4-10.4l-5.2,1.1l-2,4.8l-9.9,1.3L170.6,17L188.1,14.1z M178,23.4l-2.2,0.6
	l-2.6,7.4l3.3-0.4L178,23.4z"/>
<path class="st0" d="M209.6,33.9l-4.1,10.8l-19.2,1.7l10.2-30.4l10.1-1.2l-7.3,20.4L209.6,33.9z"/>
</svg>