<svg version="1.1" xmlns="http://www.w3.org/2000/svg" xmlns:xlink="http://www.w3.org/1999/xlink" x="0px" y="0px" viewBox="0 0 184 55" style="enable-background:new 0 0 184 55;" xml:space="preserve" width="184" height="55">
<style type="text/css">
	.st0{fill:#4EACA6;}
</style>
<path class="st0" d="M50.1,24c-3.7,15.1-8.8,28.3-26.4,30.6c-1.1,0.1-2.1,0.2-3.2,0.2C8.9,54.8,0.4,46.7,0.4,35
	c0-17,15.4-34.9,32.9-34.9c7.8,0,15.1,3.6,15.1,12.3c0,2.1-0.4,4.1-1,6.1l-14.3,1.9c0.1-0.7,0.2-1.5,0.2-2.2c0-2.5-1-4.6-3.8-4.6
	c-8.9,0-15.1,11.8-15.1,19.6c0,4.9,2.2,8.4,7.5,8.4c2.9,0,9.1-1.8,10.4-4.8L21.1,37l2.6-11.9L50.1,24z"/>
<path class="st0" d="M63.9,52.7C56,53,49.4,46.8,49.2,38.9c0-0.3,0-0.6,0-0.9c0-10.9,10-21,20.9-21c7.9-0.3,14.5,5.9,14.7,13.8
	c0,0.3,0,0.6,0,0.9C84.8,42.7,74.8,52.7,63.9,52.7z M68.3,26.7c-5.7,0-9.1,4.9-9.1,10.2c0,3.6,1.6,6.7,5.5,6.7c5.5,0,9.4-5,9.4-10.2
	C74.2,29.7,72.3,26.7,68.3,26.7L68.3,26.7z"/>
<path class="st0" d="M101.5,51.6c-7.9,0.2-14.5-5.9-14.7-13.8c0-0.3,0-0.6,0-0.9c0-10.9,10-21,20.9-21c7.9-0.3,14.5,5.9,14.7,13.8
	c0,0.3,0,0.6,0,0.9C122.5,41.6,112.5,51.6,101.5,51.6z M106,25.6c-5.7,0-9.1,4.9-9.1,10.2c0,3.6,1.6,6.7,5.6,6.7
	c5.5,0,9.4-5,9.4-10.2C111.8,28.6,110,25.6,106,25.6L106,25.6z"/>
<path class="st0" d="M149.2,39.6c-6.5,10-18.6,9.4-29.1,9.9l9.4-31.8c2.6-0.4,5.2-0.7,7.8-0.6c4.9,0,11.8,0.7,13.6,6.2
	c0.5,1.8,0.8,3.7,0.7,5.6C151.6,32.2,151,36.8,149.2,39.6z M137.4,24.5c-0.4,0-0.7,0-1.1,0c-1.6,4.9-2.6,10-3.9,15
	c2.7-0.4,5.2-1.6,7.3-3.4c1.8-2,2.8-4.7,2.7-7.5C142.3,25.4,140.3,24.5,137.4,24.5z"/>
<path class="st0" d="M182.1,25.6l-9.2,0.8c0.4-0.8,0.6-1.6,0.7-2.5c0-1.5-1.4-1.8-2.6-1.8s-4.7,0.7-4.7,2.5c0,1.5,3.2,2.5,4.4,2.8
	c3.5,0.8,7,2,10.2,3.5c1.6,0.8,2.5,2.4,2.4,4.2c0,4.5-3.6,9.1-7.6,11c-4,1.8-8.3,2.8-12.6,2.8c-4.4,0-11.4-1.8-11.4-7.3
	c0.1-1.8,0.7-3.6,1.5-5.2c2.7-0.5,7.7-1.5,10.2-1.5h0.2c-0.5,1-0.8,2-0.9,3.1c0,1.6,1.4,1.9,2.7,1.9c2.7,0,6.3-0.1,7.7-2.9
	c0.1-0.2,0.1-0.3,0.1-0.5c0-1.6-4.2-2.3-5.3-2.5c-2.9-0.7-5.7-1.7-8.3-3.1c-1.3-0.7-2.1-2.1-2-3.6c0-0.4,0-0.8,0.1-1.1
	c1.1-6.8,8.2-11.6,14.8-11.6c4.1,0,11.2,1.2,11.2,6.5C183.5,22.7,183,24.3,182.1,25.6z"/>
</svg>