<svg version="1.1" xmlns="http://www.w3.org/2000/svg" xmlns:xlink="http://www.w3.org/1999/xlink" x="0px" y="0px" viewBox="0 0 164 55" style="enable-background:new 0 0 164 55;" xml:space="preserve" width="164" height="55">
<style type="text/css">
	.st0{fill:#4EACA6;}
</style>
<path class="st0" d="M22.9,54.6C10,54.6,0.5,45.1,0.5,32.2c0-16.6,15.2-31.9,31.8-31.9c12.9,0,22.4,9.5,22.4,22.4
	C54.7,39.3,39.5,54.6,22.9,54.6z M29.7,15c-8.7,0-13.9,7.5-13.9,15.6c0,5.5,2.4,10.2,8.4,10.2c8.4,0,14.3-7.5,14.3-15.6
	C38.5,19.5,35.7,15,29.7,15z"/>
<path class="st0" d="M80.5,29.3l-9.2,0.8c0.4-0.8,0.7-1.6,0.7-2.5c0-1.5-1.4-1.8-2.7-1.8s-4.8,0.7-4.8,2.5c0,1.5,3.2,2.5,4.4,2.8
	c3.5,0.8,7,2,10.2,3.5c1.6,0.8,2.5,2.4,2.4,4.2c0,4.5-3.7,9.1-7.6,11c-4,1.8-8.3,2.8-12.6,2.9C57,52.7,50,50.9,50,45.4
	c0.1-1.8,0.7-3.6,1.5-5.2c2.7-0.5,7.7-1.5,10.2-1.5h0.2c-0.5,1-0.8,2-0.9,3.1c0,1.6,1.3,1.9,2.7,1.9c2.7,0,6.3-0.1,7.7-2.9
	c0.1-0.2,0.1-0.3,0.1-0.5c0-1.6-4.2-2.3-5.3-2.5c-2.9-0.7-5.7-1.7-8.3-3.1c-1.3-0.7-2.1-2.2-2-3.7c0-0.4,0-0.8,0.1-1.1
	c1-6.9,8.1-11.7,14.7-11.7c4.1,0,11.2,1.2,11.2,6.5C81.9,26.4,81.4,28,80.5,29.3z"/>
<path class="st0" d="M110.5,16.3l-4.7,34.5l-11.3,1.8l2.4-10.4l-5.2,1.1l-2,4.8l-9.9,1.3l13.3-30.2L110.5,16.3z M100.4,25.6
	l-2.2,0.6l-2.6,7.4l3.3-0.4L100.4,25.6z"/>
<path class="st0" d="M141.3,18.5l-11.4,15.1l1.3,17.8L121,53l-0.8-13.5l-2.1,8.3l-9.9,0.7l8.8-31.3l10-1.5l-4.1,12.9l6.6-9.3
	L141.3,18.5z"/>
<path class="st0" d="M163.5,14.7l-4.7,34.5L147.5,51l2.4-10.4l-5.2,1.1l-2,4.8l-9.9,1.3L146,17.6L163.5,14.7z M153.4,24l-2.2,0.6
	l-2.6,7.4l3.3-0.4L153.4,24z"/>
</svg>