<svg version="1.1" xmlns="http://www.w3.org/2000/svg" xmlns:xlink="http://www.w3.org/1999/xlink" x="0px" y="0px" viewBox="0 0 158 55" style="enable-background:new 0 0 158 55;" xml:space="preserve" width="158" height="55">
<style type="text/css">
	.st0{fill:#4EACA6;}
</style>
<path class="st0" d="M43.1,1.6l-4.6,15.1l-11.4,1.1l-10,33.5L0.4,53.6l12.7-35.1L1.9,19.7L6.8,4.3L43.1,1.6z"/>
<path class="st0" d="M45.9,50.7C38,51,31.4,44.8,31.2,36.9c0-0.3,0-0.6,0-0.9c0-10.9,10-21,20.9-21c7.9-0.3,14.5,5.9,14.7,13.8
	c0,0.3,0,0.7,0,1C66.8,40.7,56.8,50.7,45.9,50.7z M50.3,24.7c-5.7,0-9.1,4.9-9.1,10.2c0,3.6,1.6,6.7,5.6,6.7c5.5,0,9.4-5,9.4-10.2
	C56.2,27.7,54.3,24.7,50.3,24.7L50.3,24.7z"/>
<path class="st0" d="M98,17.4L86.6,32.5l1.3,17.9L77.7,52l-0.8-13.5l-2.1,8.3l-9.9,0.7l8.8-31.3l10-1.5l-4.1,12.9l6.6-9.3L98,17.4z"
	/>
<path class="st0" d="M127.7,14l-21.6,35l-11.5,0.6l9-15.6l-6.2-14l8.6-2.6l3.1,6.7l5.7-9.2L127.7,14z"/>
<path class="st0" d="M136.7,48.5c-7.9,0.2-14.5-5.9-14.7-13.8c0-0.3,0-0.6,0-0.9c0-10.9,10-21,20.9-21c7.9-0.3,14.5,5.9,14.7,13.8
	c0,0.3,0,0.6,0,0.9C157.6,38.5,147.6,48.5,136.7,48.5z M141.1,22.5c-5.7,0-9.1,4.9-9.1,10.2c0,3.6,1.6,6.7,5.6,6.7
	c5.5,0,9.4-5,9.4-10.2C147,25.5,145.1,22.5,141.1,22.5L141.1,22.5z"/>
</svg>