<svg version="1.1" xmlns="http://www.w3.org/2000/svg" xmlns:xlink="http://www.w3.org/1999/xlink" x="0px" y="0px" viewBox="0 0 195.6 61.6" style="enable-background:new 0 0 195.6 61.6;" xml:space="preserve" width="196" height="62">
<style type="text/css">
	.st0{fill:#FFF;}
</style>
<polygon class="st0" points="37.7,29.3 0,7.5 0,51.1 "/>
<path class="st0" d="M60.9,43.4l-3.1,15.3l-18.4,2.8l15-59.3c5.5-1.2,11-1.9,16.6-2.1c7.9-0.4,24.5-0.3,25.1,10.8
	C97,26.7,74.1,39.5,60.9,43.4z M68.5,15.1c-0.5,0-0.9,0-1.4,0.1l-3.2,12.5c3.3-1,14.2-4.9,14-8.9S71,14.9,68.5,15.1z"/>
<path class="st0" d="M117.9,37.2L113,52.1l-25.8,3.5l11.7-41.9l13.6-2.4L104,39.5L117.9,37.2z"/>
<path class="st0" d="M154.3,4.2l-4,47.1L135,54.5l2.7-14.2l-7.1,1.8l-2.4,6.7l-13.3,2.4l15.9-41.9L154.3,4.2z M141.1,17.4l-3,1
	l-3.1,10.3l4.5-0.8L141.1,17.4z"/>
<path class="st0" d="M195.6,0.1l-26.8,48.8l-15.5,1.6l11.1-21.8L155,10.3l11.5-4l4.7,8.8l7.1-12.8L195.6,0.1z"/>
</svg>